<?xml version="1.0" encoding="UTF-8" standalone="no"?>
<svg
   xmlns:dc="http://purl.org/dc/elements/1.1/"
   xmlns:cc="http://creativecommons.org/ns#"
   xmlns:rdf="http://www.w3.org/1999/02/22-rdf-syntax-ns#"
   xmlns:svg="http://www.w3.org/2000/svg"
   xmlns="http://www.w3.org/2000/svg"
   viewBox="0 0 383.81332 35.973331"
   height="35.973331"
   width="383.81332"
   xml:space="preserve"
   id="svg2"
   version="1.1"><metadata
     id="metadata8"><rdf:RDF><cc:Work
         rdf:about=""><dc:format>image/svg+xml</dc:format><dc:type
           rdf:resource="http://purl.org/dc/dcmitype/StillImage" /></cc:Work></rdf:RDF></metadata><defs
     id="defs6" /><g
     transform="matrix(1.3333333,0,0,-1.3333333,0,35.973333)"
     id="g10"><g
       transform="scale(0.1)"
       id="g12"><path
         id="path14"
         style="fill:#ed1c24;fill-opacity:1;fill-rule:nonzero;stroke:none"
         d="m 140.98,121.367 c -1.113,21.453 -16.285,39.219 -37.371,39.219 -22.2027,0 -37.0035,-15.91 -40.7027,-39.219 z M 62.9063,86.2109 c 1.1093,-26.2695 16.2773,-43.6601 42.9177,-43.6601 15.172,0 29.977,7.0273 35.895,21.0898 h 58.832 C 189.082,19.2383 148.012,0 105.09,0 42.5547,0 0,37.7344 0,102.117 c 0,58.84 46.9922,101.028 103.609,101.028 68.825,0 103.239,-51.805 100.274,-116.9341 H 62.9063" /><path
         id="path16"
         style="fill:#231f20;fill-opacity:1;fill-rule:nonzero;stroke:none"
         d="m 306.734,60.6836 h 55.137 c 21.828,0 37,7.7617 37,29.5977 0,23.3127 -16.281,31.0857 -37,31.0857 h -55.137 z m 0,105.0864 h 53.286 c 11.839,0 28.121,6.289 28.121,25.156 0,19.25 -13.692,25.539 -28.121,25.539 H 306.734 Z M 237.91,269.746 H 361.5 c 45.512,0.742 95.469,-11.105 95.469,-66.242 0,-23.68 -14.063,-42.918 -34.785,-53.281 28.121,-8.133 45.511,-32.559 45.511,-62.5277 0,-62.9101 -46.254,-82.14842 -102.867,-82.14842 H 237.91 V 269.746" /><path
         id="path18"
         style="fill:#231f20;fill-opacity:1;fill-rule:nonzero;stroke:none"
         d="m 581.27,38.8477 c 29.968,0 39.96,17.0195 38.48,56.6132 -8.883,-5.5507 -25.16,-6.6601 -38.852,-10.3632 -14.062,-3.3321 -25.902,-9.25 -25.902,-24.4141 0,-15.5469 12.211,-21.8359 26.274,-21.8359 z m -81.407,99.5393 c 1.11,25.16 12.95,41.437 29.973,51.437 17.019,9.617 39.223,13.321 61.055,13.321 45.511,0 89.543,-9.993 89.543,-64.387 V 54.7578 c 0,-16.2812 0,-34.0351 7.402,-49.21092 h -63.273 c -2.219,5.91792 -2.961,11.84372 -3.7,18.13282 C 604.578,6.66016 580.527,0 557.59,0 c -36.633,0 -65.496,18.4961 -65.496,58.0859 0,62.5391 68.082,57.7231 111.75,66.6091 10.726,2.219 16.648,5.918 16.648,17.766 0,14.422 -17.39,19.98 -30.34,19.98 -17.394,0 -28.492,-7.773 -31.457,-24.054 h -58.832" /><path
         id="path20"
         style="fill:#231f20;fill-opacity:1;fill-rule:nonzero;stroke:none"
         d="M 912.789,5.54688 H 851.738 V 31.8164 h -0.742 C 839.156,12.207 814.734,0 792.535,0 737.398,0 721.488,31.8164 721.488,82.1367 V 197.586 h 62.907 V 86.2109 c 0,-25.5273 11.097,-34.414 31.078,-34.414 13.691,0 34.414,8.8867 34.414,42.9297 V 197.586 h 62.902 V 5.54688" /><path
         id="path22"
         style="fill:#231f20;fill-opacity:1;fill-rule:nonzero;stroke:none"
         d="m 1029.51,198.734 h 49.8 v -8.082 h -40.21 v -22.929 h 37.48 v -8.078 h -37.48 v -24.954 h 40.51 v -8.082 h -50.1 v 72.125" /><path
         id="path24"
         style="fill:#231f20;fill-opacity:1;fill-rule:nonzero;stroke:none"
         d="m 1090.82,198.734 h 8.58 v -72.125 h -8.58 v 72.125" /><path
         id="path26"
         style="fill:#231f20;fill-opacity:1;fill-rule:nonzero;stroke:none"
         d="m 1149.49,157.723 c -0.4,8.179 -6.56,14.746 -15.05,14.746 -8.98,0 -14.34,-6.766 -14.95,-14.746 z m 8.29,-14.543 c -2.32,-11.52 -10.61,-17.782 -22.32,-17.782 -16.67,0 -24.55,11.516 -25.06,27.477 0,15.656 10.3,27.172 24.55,27.172 18.49,0 24.14,-17.274 23.63,-29.902 h -39.09 c -0.3,-9.09 4.86,-17.172 16.27,-17.172 7.07,0 12.02,3.437 13.54,10.207 h 8.48" /><path
         id="path28"
         style="fill:#231f20;fill-opacity:1;fill-rule:nonzero;stroke:none"
         d="m 1168.49,198.734 h 8.58 v -42.726 l 23.84,22.824 h 11.51 l -20.7,-18.988 22.22,-33.235 h -10.91 l -17.88,27.278 -8.08,-7.477 v -19.801 h -8.58 v 72.125" /><path
         id="path30"
         style="fill:#231f20;fill-opacity:1;fill-rule:nonzero;stroke:none"
         d="m 1232.83,178.832 h 10.4 v -7.574 h -10.4 v -32.426 c 0,-3.941 1.11,-4.644 6.47,-4.644 h 3.93 v -7.579 h -6.56 c -8.9,0 -12.43,1.817 -12.43,11.418 v 33.231 h -8.89 v 7.574 h 8.89 v 15.66 h 8.59 v -15.66" /><path
         id="path32"
         style="fill:#231f20;fill-opacity:1;fill-rule:nonzero;stroke:none"
         d="m 1252.93,178.832 h 8.08 V 167.82 h 0.2 c 4.14,8.391 9.9,12.532 19.19,12.227 v -9.09 c -13.84,0 -18.89,-7.883 -18.89,-21.113 v -23.235 h -8.58 v 52.223" /><path
         id="path34"
         style="fill:#231f20;fill-opacity:1;fill-rule:nonzero;stroke:none"
         d="m 1308.1,132.973 c 8.98,0 16.26,7.07 16.26,19.699 0,12.726 -7.28,19.797 -16.26,19.797 -9,0 -16.27,-7.071 -16.27,-19.797 0,-12.629 7.27,-19.699 16.27,-19.699 z m 0,47.074 c 16.56,0 25.35,-12.02 25.35,-27.375 0,-15.25 -8.79,-27.274 -25.35,-27.274 -16.58,0 -25.37,12.024 -25.37,27.274 0,15.355 8.79,27.375 25.37,27.375" /><path
         id="path36"
         style="fill:#231f20;fill-opacity:1;fill-rule:nonzero;stroke:none"
         d="m 1344.04,178.832 h 8.09 v -8.281 h 0.19 c 3.65,6.465 9.5,9.496 16.98,9.496 13.74,0 17.98,-7.879 17.98,-19.09 v -34.348 h -8.59 v 35.36 c 0,6.359 -4.04,10.5 -10.6,10.5 -10.41,0 -15.46,-6.965 -15.46,-16.36 v -29.5 h -8.59 v 52.223" /><path
         id="path38"
         style="fill:#231f20;fill-opacity:1;fill-rule:nonzero;stroke:none"
         d="m 1401.21,178.832 h 8.58 v -52.223 h -8.58 z m 8.58,9.395 h -8.58 v 10.507 h 8.58 v -10.507" /><path
         id="path40"
         style="fill:#231f20;fill-opacity:1;fill-rule:nonzero;stroke:none"
         d="m 1428.88,143.074 c 0.3,-7.676 6.97,-10.101 14.04,-10.101 5.35,0 12.63,1.215 12.63,7.781 0,6.668 -8.49,7.777 -17.07,9.695 -8.49,1.918 -17.08,4.75 -17.08,14.75 0,10.504 10.41,14.848 19.5,14.848 11.51,0 20.7,-3.637 21.41,-16.367 h -8.59 c -0.6,6.672 -6.46,8.789 -12.12,8.789 -5.14,0 -11.11,-1.414 -11.11,-6.664 0,-6.16 9.09,-7.172 17.07,-9.09 8.59,-1.918 17.08,-4.746 17.08,-14.852 0,-12.425 -11.62,-16.465 -22.23,-16.465 -11.72,0 -21.62,4.747 -22.12,17.676 h 8.59" /><path
         id="path42"
         style="fill:#231f20;fill-opacity:1;fill-rule:nonzero;stroke:none"
         d="m 1510.09,162.066 c -1.32,6.567 -5.86,10.403 -12.93,10.403 -12.43,0 -16.27,-9.797 -16.27,-20.403 0,-9.597 4.34,-19.093 15.25,-19.093 8.28,0 13.24,4.847 14.35,12.73 h 8.79 c -1.93,-12.73 -9.9,-20.305 -23.03,-20.305 -15.97,0 -24.45,11.11 -24.45,26.668 0,15.657 8.08,27.981 24.65,27.981 11.81,0 21.31,-5.555 22.52,-17.981 h -8.88" /><path
         id="path44"
         style="fill:#231f20;fill-opacity:1;fill-rule:nonzero;stroke:none"
         d="m 1529.38,198.734 h 8.58 v -27.578 h 0.2 c 2.84,6.266 10.21,8.891 16.47,8.891 13.74,0 17.98,-7.879 17.98,-19.09 v -34.348 h -8.59 v 35.36 c 0,6.359 -4.04,10.5 -10.6,10.5 -10.41,0 -15.46,-6.965 -15.46,-16.36 v -29.5 h -8.58 v 72.125" /><path
         id="path46"
         style="fill:#231f20;fill-opacity:1;fill-rule:nonzero;stroke:none"
         d="m 1622.29,157.723 c -0.4,8.179 -6.56,14.746 -15.04,14.746 -8.99,0 -14.35,-6.766 -14.96,-14.746 z m 8.3,-14.543 c -2.33,-11.52 -10.61,-17.782 -22.33,-17.782 -16.67,0 -24.55,11.516 -25.06,27.477 0,15.656 10.31,27.172 24.55,27.172 18.49,0 24.14,-17.274 23.64,-29.902 h -39.1 c -0.3,-9.09 4.86,-17.172 16.27,-17.172 7.07,0 12.03,3.437 13.54,10.207 h 8.49" /><path
         id="path48"
         style="fill:#231f20;fill-opacity:1;fill-rule:nonzero;stroke:none"
         d="m 1646.03,143.074 c 0.3,-7.676 6.97,-10.101 14.04,-10.101 5.35,0 12.63,1.215 12.63,7.781 0,6.668 -8.49,7.777 -17.07,9.695 -8.49,1.918 -17.09,4.75 -17.09,14.75 0,10.504 10.42,14.848 19.51,14.848 11.51,0 20.7,-3.637 21.41,-16.367 h -8.59 c -0.61,6.672 -6.47,8.789 -12.12,8.789 -5.15,0 -11.11,-1.414 -11.11,-6.664 0,-6.16 9.09,-7.172 17.07,-9.09 8.59,-1.918 17.08,-4.746 17.08,-14.852 0,-12.425 -11.62,-16.465 -22.23,-16.465 -11.72,0 -21.62,4.747 -22.12,17.676 h 8.59" /><path
         id="path50"
         style="fill:#231f20;fill-opacity:1;fill-rule:nonzero;stroke:none"
         d="m 1731.37,134.691 h 24.04 c 8.28,0 13.54,5.051 13.54,12.93 0,9.395 -7.57,12.024 -15.66,12.024 h -21.92 z m 0,33.032 h 19.2 c 10.9,0 15.35,3.941 15.35,11.515 0,10 -7.07,11.414 -15.35,11.414 h -19.2 z m -9.59,31.011 h 26.16 c 6.36,0 14.75,0 19.09,-2.625 4.75,-2.828 8.49,-7.98 8.49,-15.05 0,-7.68 -4.05,-13.438 -10.72,-16.161 v -0.207 c 8.89,-1.816 13.74,-8.484 13.74,-17.371 0,-10.605 -7.57,-20.711 -21.92,-20.711 h -34.84 v 72.125" /><path
         id="path52"
         style="fill:#231f20;fill-opacity:1;fill-rule:nonzero;stroke:none"
         d="m 1822.37,153.586 c -3.33,-2.43 -9.79,-2.531 -15.55,-3.535 -5.66,-1.012 -10.51,-3.035 -10.51,-9.399 0,-5.656 4.85,-7.679 10.11,-7.679 11.3,0 15.95,7.07 15.95,11.824 z m 13.94,-26.773 c -1.52,-0.911 -3.43,-1.415 -6.16,-1.415 -4.45,0 -7.27,2.422 -7.27,8.082 -4.75,-5.554 -11.11,-8.082 -18.39,-8.082 -9.49,0 -17.27,4.247 -17.27,14.645 0,11.82 8.79,14.348 17.68,16.066 9.49,1.817 17.57,1.211 17.57,7.676 0,7.473 -6.16,8.684 -11.61,8.684 -7.28,0 -12.63,-2.219 -13.04,-9.895 h -8.58 c 0.51,12.93 10.51,17.473 22.13,17.473 9.39,0 19.59,-2.121 19.59,-14.344 v -26.871 c 0,-4.035 0,-5.859 2.73,-5.859 0.7,0 1.52,0.101 2.62,0.507 v -6.667" /><path
         id="path54"
         style="fill:#231f20;fill-opacity:1;fill-rule:nonzero;stroke:none"
         d="m 1888.03,126.609 h -8.08 v 8.282 h -0.2 c -3.64,-6.465 -9.5,-9.493 -16.98,-9.493 -13.74,0 -17.98,7.879 -17.98,19.094 v 34.34 h 8.59 V 143.48 c 0,-6.363 4.04,-10.507 10.6,-10.507 10.41,0 15.46,6.972 15.46,16.367 v 29.492 h 8.59 v -52.223" /><path
         id="path56"
         style="fill:#231f20;fill-opacity:1;fill-rule:nonzero;stroke:none"
         d="m 1926.01,172.469 c -11.53,0 -15.97,-9.895 -15.97,-19.696 0,-10.304 4.65,-19.8 16.46,-19.8 11.72,0 15.67,10 15.67,20.207 0,9.797 -5.06,19.289 -16.16,19.289 z m -24.25,26.265 h 8.58 v -26.972 h 0.21 c 2.83,5.758 9.49,8.285 16.67,8.285 16.05,0 24.03,-12.727 24.03,-27.473 0,-14.754 -7.87,-27.176 -23.84,-27.176 -5.35,0 -13.03,2.024 -16.86,8.18 h -0.21 v -6.969 h -8.58 v 72.125" /><path
         id="path58"
         style="fill:#231f20;fill-opacity:1;fill-rule:nonzero;stroke:none"
         d="m 1998.12,157.723 c -0.41,8.179 -6.57,14.746 -15.05,14.746 -8.99,0 -14.35,-6.766 -14.95,-14.746 z m 8.29,-14.543 c -2.33,-11.52 -10.61,-17.782 -22.33,-17.782 -16.67,0 -24.55,11.516 -25.06,27.477 0,15.656 10.31,27.172 24.55,27.172 18.49,0 24.14,-17.274 23.64,-29.902 h -39.09 c -0.31,-9.09 4.85,-17.172 16.26,-17.172 7.08,0 12.03,3.437 13.54,10.207 h 8.49" /><path
         id="path60"
         style="fill:#231f20;fill-opacity:1;fill-rule:nonzero;stroke:none"
         d="m 2068.31,126.609 h -9.09 l -10.61,41.52 h -0.2 l -10.5,-41.52 h -9.3 l -16.76,52.223 h 9.49 l 11.81,-42.723 h 0.21 l 10.51,42.723 h 9.39 l 10.91,-42.723 h 0.21 l 11.7,42.723 h 8.9 l -16.67,-52.223" /><path
         id="path62"
         style="fill:#231f20;fill-opacity:1;fill-rule:nonzero;stroke:none"
         d="m 2094.16,178.832 h 8.58 v -52.223 h -8.58 z m 8.58,9.395 h -8.58 v 10.507 h 8.58 v -10.507" /><path
         id="path64"
         style="fill:#231f20;fill-opacity:1;fill-rule:nonzero;stroke:none"
         d="m 2117.09,198.734 h 8.58 v -72.125 h -8.58 v 72.125" /><path
         id="path66"
         style="fill:#231f20;fill-opacity:1;fill-rule:nonzero;stroke:none"
         d="m 2140.01,198.734 h 8.58 v -72.125 h -8.58 v 72.125" /><path
         id="path68"
         style="fill:#231f20;fill-opacity:1;fill-rule:nonzero;stroke:none"
         d="m 2162.94,178.832 h 8.58 v -52.223 h -8.58 z m 8.58,9.395 h -8.58 v 10.507 h 8.58 v -10.507" /><path
         id="path70"
         style="fill:#231f20;fill-opacity:1;fill-rule:nonzero;stroke:none"
         d="m 2221.92,153.785 c 0,9.192 -4.03,18.684 -14.84,18.684 -11.02,0 -15.46,-8.989 -15.46,-18.989 0,-9.394 3.44,-19.902 14.75,-19.902 11.32,0 15.55,10.406 15.55,20.207 z m 8.49,-22.73 c 0,-16.969 -7.77,-25.657 -24.24,-25.657 -9.8,0 -21.11,3.938 -21.62,15.356 h 8.58 c 0.41,-6.262 7.89,-8.488 13.55,-8.488 11.21,0 15.65,8.082 15.65,19.8 v 3.43 h -0.2 c -2.83,-6.359 -9.7,-9.488 -16.26,-9.488 -15.56,0 -23.34,12.219 -23.34,26.461 0,12.328 6.06,27.578 24.15,27.578 6.56,0 12.42,-2.93 15.55,-8.684 h -0.1 0.2 v 7.469 h 8.08 v -47.777" /><path
         id="path72"
         style="fill:#231f20;fill-opacity:1;fill-rule:nonzero;stroke:none"
         d="m 2287.07,126.609 h -8.08 v 8.282 h -0.2 c -3.63,-6.465 -9.49,-9.493 -16.97,-9.493 -13.74,0 -17.98,7.879 -17.98,19.094 v 34.34 h 8.58 V 143.48 c 0,-6.363 4.04,-10.507 10.61,-10.507 10.41,0 15.46,6.972 15.46,16.367 v 29.492 h 8.58 v -52.223" /><path
         id="path74"
         style="fill:#231f20;fill-opacity:1;fill-rule:nonzero;stroke:none"
         d="m 2300.49,178.832 h 8.08 v -8.281 h 0.2 c 3.64,6.465 9.49,9.496 16.97,9.496 13.74,0 17.98,-7.879 17.98,-19.09 v -34.348 h -8.58 v 35.36 c 0,6.359 -4.05,10.5 -10.61,10.5 -10.41,0 -15.46,-6.965 -15.46,-16.36 v -29.5 h -8.58 v 52.223" /><path
         id="path76"
         style="fill:#231f20;fill-opacity:1;fill-rule:nonzero;stroke:none"
         d="m 2393.71,153.785 c 0,9.192 -4.03,18.684 -14.84,18.684 -11.02,0 -15.46,-8.989 -15.46,-18.989 0,-9.394 3.44,-19.902 14.75,-19.902 11.31,0 15.55,10.406 15.55,20.207 z m 8.49,-22.73 c 0,-16.969 -7.78,-25.657 -24.24,-25.657 -9.81,0 -21.11,3.938 -21.62,15.356 h 8.58 c 0.41,-6.262 7.88,-8.488 13.55,-8.488 11.21,0 15.65,8.082 15.65,19.8 v 3.43 h -0.2 c -2.83,-6.359 -9.7,-9.488 -16.26,-9.488 -15.56,0 -23.34,12.219 -23.34,26.461 0,12.328 6.06,27.578 24.15,27.578 6.56,0 12.42,-2.93 15.54,-8.684 h -0.09 0.2 v 7.469 h 8.08 v -47.777" /><path
         id="path78"
         style="fill:#231f20;fill-opacity:1;fill-rule:nonzero;stroke:none"
         d="m 2420.88,143.074 c 0.3,-7.676 6.97,-10.101 14.04,-10.101 5.35,0 12.63,1.215 12.63,7.781 0,6.668 -8.49,7.777 -17.07,9.695 -8.49,1.918 -17.08,4.75 -17.08,14.75 0,10.504 10.41,14.848 19.5,14.848 11.51,0 20.7,-3.637 21.42,-16.367 h -8.6 c -0.6,6.672 -6.46,8.789 -12.12,8.789 -5.14,0 -11.11,-1.414 -11.11,-6.664 0,-6.16 9.09,-7.172 17.07,-9.09 8.59,-1.918 17.08,-4.746 17.08,-14.852 0,-12.425 -11.62,-16.465 -22.23,-16.465 -11.71,0 -21.62,4.747 -22.12,17.676 h 8.59" /><path
         id="path80"
         style="fill:#231f20;fill-opacity:1;fill-rule:nonzero;stroke:none"
         d="m 2490.16,126.609 h -9.19 l -19.4,52.223 h 9.59 l 14.65,-43.535 h 0.21 l 14.23,43.535 h 9 l -19.09,-52.223" /><path
         id="path82"
         style="fill:#231f20;fill-opacity:1;fill-rule:nonzero;stroke:none"
         d="m 2553.89,157.723 c -0.4,8.179 -6.57,14.746 -15.05,14.746 -8.99,0 -14.35,-6.766 -14.95,-14.746 z m 8.29,-14.543 c -2.33,-11.52 -10.62,-17.782 -22.33,-17.782 -16.67,0 -24.55,11.516 -25.06,27.477 0,15.656 10.31,27.172 24.56,27.172 18.48,0 24.14,-17.274 23.63,-29.902 h -39.09 c -0.31,-9.09 4.85,-17.172 16.27,-17.172 7.07,0 12.02,3.437 13.53,10.207 h 8.49" /><path
         id="path84"
         style="fill:#231f20;fill-opacity:1;fill-rule:nonzero;stroke:none"
         d="m 2572.07,178.832 h 8.08 V 167.82 h 0.2 c 4.14,8.391 9.9,12.532 19.19,12.227 v -9.09 c -13.84,0 -18.89,-7.883 -18.89,-21.113 v -23.235 h -8.58 v 52.223" /><path
         id="path86"
         style="fill:#231f20;fill-opacity:1;fill-rule:nonzero;stroke:none"
         d="m 2610.04,171.258 h -8.79 v 7.574 h 8.79 v 7.777 c 0,8.489 5.05,12.93 14.44,12.93 1.62,0 3.95,-0.301 5.56,-0.805 v -7.476 c -1.51,0.504 -3.33,0.711 -4.84,0.711 -4.15,0 -6.58,-1.317 -6.58,-5.86 v -7.277 h 10.11 v -7.574 h -10.11 v -44.649 h -8.58 v 44.649" /><path
         id="path88"
         style="fill:#231f20;fill-opacity:1;fill-rule:nonzero;stroke:none"
         d="m 2669.23,153.586 c -3.33,-2.43 -9.8,-2.531 -15.56,-3.535 -5.65,-1.012 -10.51,-3.035 -10.51,-9.399 0,-5.656 4.86,-7.679 10.11,-7.679 11.31,0 15.96,7.07 15.96,11.824 z m 13.93,-26.773 c -1.51,-0.911 -3.42,-1.415 -6.16,-1.415 -4.44,0 -7.26,2.422 -7.26,8.082 -4.75,-5.554 -11.12,-8.082 -18.39,-8.082 -9.49,0 -17.28,4.247 -17.28,14.645 0,11.82 8.79,14.348 17.69,16.066 9.49,1.817 17.57,1.211 17.57,7.676 0,7.473 -6.17,8.684 -11.62,8.684 -7.27,0 -12.62,-2.219 -13.03,-9.895 h -8.59 c 0.51,12.93 10.51,17.473 22.13,17.473 9.4,0 19.59,-2.121 19.59,-14.344 v -26.871 c 0,-4.035 0,-5.859 2.74,-5.859 0.7,0 1.51,0.101 2.61,0.507 v -6.667" /><path
         id="path90"
         style="fill:#231f20;fill-opacity:1;fill-rule:nonzero;stroke:none"
         d="m 2691.65,198.734 h 8.58 v -27.578 h 0.21 c 2.83,6.266 10.2,8.891 16.46,8.891 13.74,0 17.98,-7.879 17.98,-19.09 v -34.348 h -8.58 v 35.36 c 0,6.359 -4.04,10.5 -10.61,10.5 -10.41,0 -15.46,-6.965 -15.46,-16.36 v -29.5 h -8.58 v 72.125" /><path
         id="path92"
         style="fill:#231f20;fill-opacity:1;fill-rule:nonzero;stroke:none"
         d="m 2748.01,178.832 h 8.07 V 167.82 h 0.21 c 4.14,8.391 9.9,12.532 19.19,12.227 v -9.09 c -13.84,0 -18.89,-7.883 -18.89,-21.113 v -23.235 h -8.58 v 52.223" /><path
         id="path94"
         style="fill:#231f20;fill-opacity:1;fill-rule:nonzero;stroke:none"
         d="m 2816.89,157.723 c -0.4,8.179 -6.56,14.746 -15.04,14.746 -8.99,0 -14.35,-6.766 -14.96,-14.746 z m 8.3,-14.543 c -2.33,-11.52 -10.62,-17.782 -22.33,-17.782 -16.67,0 -24.55,11.516 -25.06,27.477 0,15.656 10.31,27.172 24.55,27.172 18.49,0 24.14,-17.274 23.64,-29.902 h -39.1 c -0.3,-9.09 4.86,-17.172 16.27,-17.172 7.07,0 12.03,3.437 13.54,10.207 h 8.49" /><path
         id="path96"
         style="fill:#231f20;fill-opacity:1;fill-rule:nonzero;stroke:none"
         d="m 2835.38,178.832 h 8.08 v -8.281 h 0.2 c 3.64,6.465 9.5,9.496 16.97,9.496 13.75,0 17.98,-7.879 17.98,-19.09 v -34.348 h -8.58 v 35.36 c 0,6.359 -4.04,10.5 -10.61,10.5 -10.41,0 -15.46,-6.965 -15.46,-16.36 v -29.5 h -8.58 v 52.223" /><path
         id="path98"
         style="fill:#231f20;fill-opacity:1;fill-rule:nonzero;stroke:none"
         d="m 1028.6,57.6328 h 8.59 V 5.41016 h -8.59 z m 8.59,9.3945 h -8.59 v 10.5079 h 8.59 V 67.0273" /><path
         id="path100"
         style="fill:#231f20;fill-opacity:1;fill-rule:nonzero;stroke:none"
         d="m 1051.03,57.6328 h 8.07 V 49.957 h 0.21 c 3.83,5.8594 9.69,8.8907 16.87,8.8907 6.36,0 12.22,-2.5313 14.34,-8.8907 3.53,5.5547 9.69,8.8907 16.36,8.8907 10.41,0 17.38,-4.3438 17.38,-15.1524 V 5.41016 h -8.59 V 39.6523 c 0,6.4649 -1.71,11.6172 -10.09,11.6172 -8.29,0 -13.65,-5.2539 -13.65,-13.3359 V 5.41016 h -8.58 V 39.6523 c 0,6.7696 -2.12,11.6172 -9.8,11.6172 -10.2,0 -13.94,-9.3945 -13.94,-13.3359 V 5.41016 h -8.58 V 57.6328" /><path
         id="path102"
         style="fill:#231f20;fill-opacity:1;fill-rule:nonzero;stroke:none"
         d="m 1167.68,77.5352 h 9.59 V 41.5703 l 36.57,35.9649 h 12.42 l -30.4,-29.0938 31.61,-43.03124 h -12.12 L 1189.29,41.875 1177.27,30.6641 V 5.41016 h -9.59 V 77.5352" /><path
         id="path104"
         style="fill:#231f20;fill-opacity:1;fill-rule:nonzero;stroke:none"
         d="m 1266.46,32.3828 c -3.33,-2.4258 -9.8,-2.5312 -15.56,-3.5351 -5.66,-1.0118 -10.51,-3.0313 -10.51,-9.3946 0,-5.6601 4.85,-7.6797 10.11,-7.6797 11.31,0 15.96,7.0704 15.96,11.8204 z m 13.93,-26.77342 c -1.51,-0.90625 -3.43,-1.41016 -6.16,-1.41016 -4.44,0 -7.27,2.42187 -7.27,8.08208 -4.74,-5.55864 -11.11,-8.08208 -18.39,-8.08208 -9.49,0 -17.27,4.24219 -17.27,14.64458 0,11.8203 8.79,14.3437 17.68,16.0625 9.5,1.8164 17.57,1.2109 17.57,7.6757 0,7.4766 -6.16,8.6875 -11.61,8.6875 -7.27,0 -12.63,-2.2226 -13.04,-9.8984 h -8.58 c 0.51,12.9297 10.51,17.4766 22.13,17.4766 9.39,0 19.59,-2.125 19.59,-14.3438 V 17.6328 c 0,-4.039 0,-5.8594 2.73,-5.8594 0.71,0 1.52,0.1016 2.62,0.5079 V 5.60938" /><path
         id="path106"
         style="fill:#231f20;fill-opacity:1;fill-rule:nonzero;stroke:none"
         d="m 1288.88,57.6328 h 8.07 v -8.2812 h 0.21 c 3.64,6.4648 9.5,9.4961 16.97,9.4961 13.74,0 17.98,-7.8789 17.98,-19.0899 V 5.41016 h -8.58 V 40.7656 c 0,6.3633 -4.05,10.5039 -10.61,10.5039 -10.41,0 -15.46,-6.9687 -15.46,-16.3632 V 5.41016 h -8.58 V 57.6328" /><path
         id="path108"
         style="fill:#231f20;fill-opacity:1;fill-rule:nonzero;stroke:none"
         d="m 1357.45,57.6328 h 10.4 v -7.5742 h -10.4 V 17.6328 c 0,-3.9414 1.1,-4.6445 6.47,-4.6445 h 3.93 V 5.41016 h -6.56 c -8.9,0 -12.43,1.8164 -12.43,11.41404 v 33.2344 h -8.89 v 7.5742 h 8.89 V 73.293 h 8.59 V 57.6328" /><path
         id="path110"
         style="fill:#231f20;fill-opacity:1;fill-rule:nonzero;stroke:none"
         d="m 1400.38,11.7734 c 8.99,0 16.26,7.0704 16.26,19.6954 0,12.7304 -7.27,19.8007 -16.26,19.8007 -8.99,0 -16.27,-7.0703 -16.27,-19.8007 0,-12.625 7.28,-19.6954 16.27,-19.6954 z m 0,47.0743 c 16.56,0 25.35,-12.0235 25.35,-27.3789 0,-15.25 -8.79,-27.26958 -25.35,-27.26958 -16.57,0 -25.36,12.01958 -25.36,27.26958 0,15.3554 8.79,27.3789 25.36,27.3789" /><path
         id="path112"
         style="fill:#231f20;fill-opacity:1;fill-rule:nonzero;stroke:none"
         d="m 1436.33,57.6328 h 8.08 v -8.2812 h 0.2 c 3.64,6.4648 9.49,9.4961 16.97,9.4961 13.74,0 17.98,-7.8789 17.98,-19.0899 V 5.41016 h -8.58 V 40.7656 c 0,6.3633 -4.05,10.5039 -10.61,10.5039 -10.41,0 -15.46,-6.9687 -15.46,-16.3632 V 5.41016 h -8.58 V 57.6328" /><path
         id="path114"
         style="fill:#231f20;fill-opacity:1;fill-rule:nonzero;stroke:none"
         d="m 1532.57,13.4922 h 24.04 c 8.28,0 13.54,5.0469 13.54,12.9297 0,9.3945 -7.57,12.0195 -15.66,12.0195 h -21.92 z m 0,33.0312 h 19.2 c 10.91,0 15.35,3.9414 15.35,11.5118 0,10 -7.07,11.4179 -15.35,11.4179 h -19.2 z m -9.59,31.0118 h 26.16 c 6.37,0 14.75,0 19.09,-2.6289 4.75,-2.8282 8.49,-7.9766 8.49,-15.0469 0,-7.6836 -4.04,-13.4375 -10.71,-16.1641 v -0.2031 c 8.89,-1.8164 13.74,-8.4883 13.74,-17.375 0,-10.6055 -7.58,-20.70704 -21.93,-20.70704 h -34.84 V 77.5352" /><path
         id="path116"
         style="fill:#231f20;fill-opacity:1;fill-rule:nonzero;stroke:none"
         d="m 1627.52,36.5234 c -0.4,8.1797 -6.56,14.7461 -15.05,14.7461 -8.98,0 -14.34,-6.7656 -14.95,-14.7461 z m 8.29,-14.5468 c -2.32,-11.5157 -10.61,-17.77738 -22.32,-17.77738 -16.67,0 -24.55,11.51558 -25.06,27.47658 0,15.6523 10.3,27.1719 24.55,27.1719 18.48,0 24.14,-17.2774 23.63,-29.9024 h -39.09 c -0.3,-9.0937 4.85,-17.1719 16.27,-17.1719 7.07,0 12.02,3.4375 13.53,10.2032 h 8.49" /><path
         id="path118"
         style="fill:#231f20;fill-opacity:1;fill-rule:nonzero;stroke:none"
         d="m 1645.7,57.6328 h 8.08 V 46.6211 h 0.2 c 4.15,8.3867 9.91,12.5273 19.19,12.2266 v -9.0899 c -13.83,0 -18.88,-7.8828 -18.88,-21.1172 V 5.41016 h -8.59 V 57.6328" /><path
         id="path120"
         style="fill:#231f20;fill-opacity:1;fill-rule:nonzero;stroke:none"
         d="m 1681.93,57.6328 h 8.09 v -8.2812 h 0.19 c 3.65,6.4648 9.5,9.4961 16.98,9.4961 13.74,0 17.98,-7.8789 17.98,-19.0899 V 5.41016 h -8.59 V 40.7656 c 0,6.3633 -4.04,10.5039 -10.6,10.5039 -10.41,0 -15.46,-6.9687 -15.46,-16.3632 V 5.41016 h -8.59 V 57.6328" /></g></g></svg>