<?xml version="1.0" encoding="utf-8"?>
<!-- Generator: Adobe Illustrator 24.2.0, SVG Export Plug-In . SVG Version: 6.00 Build 0)  -->
<svg version="1.1" id="Ebene_1" xmlns="http://www.w3.org/2000/svg" xmlns:xlink="http://www.w3.org/1999/xlink" x="0px" y="0px"
	 viewBox="0 0 187.8 73" style="enable-background:new 0 0 187.8 73;" xml:space="preserve">
<style type="text/css">
	.st0{enable-background:new    ;}
	.st1{fill:#2C3443;}
	.st2{fill-rule:evenodd;clip-rule:evenodd;fill:#2C3443;}
	.st3{fill:none;stroke:#2C3443;stroke-miterlimit:10;}
	.st4{fill:#FFD504;}
	.st5{fill:none;}
</style>
<g>
	<g class="st0">
		<path class="st1" d="M153.7,48.7c-3.4,0-6-1.1-7.9-3.3c-1.9-2.2-2.9-5.3-2.9-9.4v-3.5c0-4.2,0.9-7.5,2.7-9.8
			c1.8-2.4,4.3-3.6,7.5-3.6c3.1,0,5.5,1,7.1,3c1.6,2,2.5,5.1,2.5,9.3v2.7h-17v1.6c0,3.3,0.7,5.8,2.1,7.6s3.4,2.7,5.9,2.7
			c2.8,0,5.1-1,6.8-3.1l1.5,2C160.3,47.4,157.5,48.7,153.7,48.7z M153.2,21.8c-2.3,0-4.1,0.8-5.3,2.4c-1.2,1.6-1.9,4-2,7.1h14v-0.8
			C159.7,24.8,157.5,21.8,153.2,21.8z"/>
		<path class="st1" d="M178,45.9c2,0,3.6-0.6,4.7-1.7s1.7-2.8,1.8-4.9h2.8c-0.1,2.9-1.1,5.2-2.8,6.9c-1.7,1.7-3.9,2.5-6.5,2.5
			c-3.4,0-6-1.1-7.7-3.3c-1.7-2.2-2.6-5.4-2.6-9.7v-3.5c0-4.4,0.9-7.6,2.6-9.9c1.7-2.2,4.3-3.3,7.7-3.3c2.8,0,5.1,0.9,6.7,2.7
			c1.6,1.8,2.5,4.3,2.6,7.5h-2.8c-0.1-2.4-0.7-4.2-1.8-5.5s-2.7-1.9-4.7-1.9c-2.5,0-4.4,0.9-5.6,2.6c-1.2,1.7-1.8,4.3-1.8,7.8v3.2
			c0,3.7,0.6,6.3,1.8,8C173.6,45.1,175.5,45.9,178,45.9z"/>
	</g>
	<path class="st2" d="M120.7,15.7c0.2,4.8-3.6,8.9-8.4,9.1c-0.2,0-0.4,0-0.7,0H103V6.9h8.6c4.8-0.2,8.9,3.6,9.1,8.5
		C120.7,15.5,120.7,15.6,120.7,15.7L120.7,15.7z M112.7,0.5c5.6,0,14.8,3.6,14.9,15c-0.1,9.8-6.7,13.5-12.8,14.3l13.6,18.7v0.1
		c-3.1,0.1-6.1,0-9.1,0c0,0-16.1-22.2-16.2-22v22.1c0.1,0.1-7.3,0.1-7.3,0V0.5H112.7z"/>
	<path class="st1" d="M87.8,26.8c0,6.5,0.2,14.1-5.3,18.7c-4.5,3.9-10.7,5.1-16.4,3.2c-5.3-1.9-9.8-7.1-10.2-12.9V0.3l6.8,0.1v22.2
		c0.5,7.2-2.3,15.2,4.6,19.5c2.9,1.4,7.1,1.5,9.7-0.8s3.5-5.3,3.4-8.6v-32l7.3-0.1L87.8,26.8L87.8,26.8z"/>
	<line class="st3" x1="136.3" y1="0" x2="136.3" y2="48.6"/>
	<circle class="st4" cx="24.6" cy="24.5" r="5.8"/>
	<path class="st1" d="M30.4,6.1v12.6H43v-3.9h-6L48.6,3.2l-1.4-1.4l-1.4-1.4l-1.4,1.4L34.3,12.1v-6"/>
	<path class="st1" d="M34.3,42.8v-6L44.5,47l1.4,1.4l1.4-1.4l1.4-1.4L37,34.1h6v-3.9H30.4v12.6"/>
	<path class="st1" d="M14.9,6.1v6L4.7,1.8L3.3,0.4L1.9,1.8L0.5,3.2l11.6,11.6h-6v3.9h12.6V6.1"/>
	<path class="st1" d="M18.8,42.8V30.3H6.2v3.9h6L0.6,45.8L2,47.2l1.4,1.4l1.4-1.4l10.1-10.3v6"/>
	<rect x="-0.3" y="55.8" class="st5" width="199" height="20.1"/>
	<g class="st0">
		<path class="st1" d="M4.9,72c-1.3,0-2.4-0.4-3.1-1.3C1,69.8,0.6,68.6,0.6,67v-1.4c0-1.7,0.4-2.9,1.1-3.9s1.7-1.4,3-1.4
			c1.2,0,2.2,0.4,2.8,1.2c0.6,0.8,1,2,1,3.7v1.1H1.8v0.6c0,1.3,0.3,2.3,0.8,3s1.3,1.1,2.3,1.1c1.1,0,2-0.4,2.7-1.2l0.6,0.8
			C7.5,71.5,6.4,72,4.9,72z M4.7,61.4c-0.9,0-1.6,0.3-2.1,1C2.1,63,1.8,64,1.8,65.2h5.5v-0.3C7.2,62.6,6.4,61.4,4.7,61.4z"/>
		<path class="st1" d="M12.2,71.8H11v-16h1.2V71.8z"/>
		<path class="st1" d="M19.1,72c-1.3,0-2.4-0.4-3.1-1.3c-0.7-0.9-1.1-2.1-1.1-3.7v-1.4c0-1.7,0.4-2.9,1.1-3.9c0.7-0.9,1.7-1.4,3-1.4
			c1.2,0,2.2,0.4,2.8,1.2c0.6,0.8,1,2,1,3.7v1.1H16v0.6c0,1.3,0.3,2.3,0.8,3s1.3,1.1,2.3,1.1c1.1,0,2-0.4,2.7-1.2l0.6,0.8
			C21.7,71.5,20.6,72,19.1,72z M18.9,61.4c-0.9,0-1.6,0.3-2.1,1C16.3,63,16,64,16,65.2h5.5v-0.3C21.5,62.6,20.6,61.4,18.9,61.4z"/>
		<path class="st1" d="M28.7,70.9c0.8,0,1.4-0.2,1.9-0.7c0.4-0.4,0.7-1.1,0.7-1.9h1.1c-0.1,1.2-0.4,2.1-1.1,2.7
			c-0.7,0.7-1.5,1-2.6,1c-1.3,0-2.3-0.4-3-1.3s-1-2.1-1-3.8v-1.4c0-1.7,0.3-3,1-3.9c0.7-0.9,1.7-1.3,3-1.3c1.1,0,2,0.4,2.6,1.1
			c0.6,0.7,1,1.7,1,2.9h-1.1c0-0.9-0.3-1.6-0.7-2.2s-1.1-0.8-1.9-0.8c-1,0-1.7,0.3-2.2,1c-0.5,0.7-0.7,1.7-0.7,3.1v1.3
			c0,1.4,0.2,2.5,0.7,3.1C26.9,70.6,27.7,70.9,28.7,70.9z"/>
		<path class="st1" d="M36.5,57.7v2.9h1.9v1h-1.9v7.5c0,0.6,0.1,1.1,0.3,1.4s0.5,0.5,0.9,0.5c0.2,0,0.5,0,0.8-0.1l0,1
			C38.3,72,37.9,72,37.4,72c-1.4,0-2-0.9-2.1-2.8v-7.6h-1.7v-1h1.7v-2.9H36.5z"/>
		<path class="st1" d="M45.4,61.6c-0.3,0-0.5-0.1-0.7-0.1c-0.6,0-1.2,0.2-1.6,0.7c-0.4,0.4-0.7,1-0.9,1.8v7.8H41V60.5h1.1l0,1.7
			c0.5-1.3,1.4-1.9,2.6-1.9c0.3,0,0.5,0,0.7,0.1L45.4,61.6z"/>
		<path class="st1" d="M46.8,65.6c0-1.6,0.4-2.9,1.1-3.8c0.7-0.9,1.7-1.4,3-1.4c1.3,0,2.3,0.5,3,1.4c0.7,0.9,1.1,2.2,1.1,3.8v1.2
			c0,1.7-0.4,2.9-1.1,3.9c-0.7,0.9-1.7,1.4-3,1.4s-2.2-0.5-3-1.4c-0.7-0.9-1.1-2.1-1.1-3.7V65.6z M47.9,66.8c0,1.3,0.3,2.3,0.8,3.1
			c0.5,0.7,1.2,1.1,2.2,1.1c0.9,0,1.7-0.4,2.2-1.1c0.5-0.7,0.8-1.7,0.8-3.1v-1.2c0-1.3-0.3-2.3-0.8-3.1s-1.3-1.1-2.2-1.1
			c-0.9,0-1.6,0.4-2.1,1.1c-0.5,0.7-0.8,1.7-0.8,3V66.8z"/>
		<path class="st1" d="M58.7,60.5l0,1.8c0.3-0.6,0.8-1.1,1.3-1.5c0.5-0.4,1.1-0.5,1.8-0.5c2,0,3,1.3,3,3.9v7.5h-1.1v-7.4
			c0-1-0.2-1.7-0.5-2.2c-0.3-0.5-0.9-0.7-1.6-0.7c-0.6,0-1.1,0.2-1.6,0.7s-0.8,1.1-1.1,1.9v7.8h-1.2V60.5H58.7z"/>
		<path class="st1" d="M67.9,57.3c0-0.2,0.1-0.4,0.2-0.6c0.1-0.2,0.3-0.2,0.6-0.2s0.4,0.1,0.6,0.2c0.1,0.2,0.2,0.4,0.2,0.6
			s-0.1,0.4-0.2,0.6c-0.1,0.2-0.3,0.2-0.6,0.2s-0.4-0.1-0.6-0.2C67.9,57.7,67.9,57.5,67.9,57.3z M69.2,71.8H68V60.5h1.2V71.8z"/>
		<path class="st1" d="M75.9,70.9c0.8,0,1.4-0.2,1.9-0.7c0.4-0.4,0.7-1.1,0.7-1.9h1.1c-0.1,1.2-0.4,2.1-1.1,2.7
			c-0.7,0.7-1.5,1-2.6,1c-1.3,0-2.3-0.4-3-1.3s-1-2.1-1-3.8v-1.4c0-1.7,0.3-3,1-3.9c0.7-0.9,1.7-1.3,3-1.3c1.1,0,2,0.4,2.6,1.1
			c0.6,0.7,1,1.7,1,2.9h-1.1c0-0.9-0.3-1.6-0.7-2.2s-1.1-0.8-1.9-0.8c-1,0-1.7,0.3-2.2,1c-0.5,0.7-0.7,1.7-0.7,3.1v1.3
			c0,1.4,0.2,2.5,0.7,3.1C74.2,70.6,74.9,70.9,75.9,70.9z"/>
		<path class="st1" d="M90.4,70.9c0.8,0,1.4-0.2,1.9-0.7c0.4-0.4,0.7-1.1,0.7-1.9H94c-0.1,1.2-0.4,2.1-1.1,2.7s-1.5,1-2.6,1
			c-1.3,0-2.3-0.4-3-1.3s-1-2.1-1-3.8v-1.4c0-1.7,0.3-3,1-3.9c0.7-0.9,1.7-1.3,3-1.3c1.1,0,2,0.4,2.6,1.1c0.6,0.7,1,1.7,1,2.9h-1.1
			c0-0.9-0.3-1.6-0.7-2.2s-1.1-0.8-1.9-0.8c-1,0-1.7,0.3-2.2,1c-0.5,0.7-0.7,1.7-0.7,3.1v1.3c0,1.4,0.2,2.5,0.7,3.1
			C88.7,70.6,89.4,70.9,90.4,70.9z"/>
		<path class="st1" d="M96.1,65.6c0-1.6,0.4-2.9,1.1-3.8c0.7-0.9,1.7-1.4,3-1.4c1.3,0,2.3,0.5,3,1.4c0.7,0.9,1.1,2.2,1.1,3.8v1.2
			c0,1.7-0.4,2.9-1.1,3.9c-0.7,0.9-1.7,1.4-3,1.4s-2.2-0.5-3-1.4c-0.7-0.9-1.1-2.1-1.1-3.7V65.6z M97.2,66.8c0,1.3,0.3,2.3,0.8,3.1
			c0.5,0.7,1.2,1.1,2.2,1.1c0.9,0,1.7-0.4,2.2-1.1c0.5-0.7,0.8-1.7,0.8-3.1v-1.2c0-1.3-0.3-2.3-0.8-3.1c-0.5-0.7-1.3-1.1-2.2-1.1
			c-0.9,0-1.6,0.4-2.1,1.1c-0.5,0.7-0.8,1.7-0.8,3V66.8z"/>
		<path class="st1" d="M106.5,65.6c0-1.6,0.4-2.9,1.1-3.8c0.7-0.9,1.7-1.4,3-1.4c1.3,0,2.3,0.5,3,1.4c0.7,0.9,1.1,2.2,1.1,3.8v1.2
			c0,1.7-0.4,2.9-1.1,3.9c-0.7,0.9-1.7,1.4-3,1.4s-2.2-0.5-3-1.4c-0.7-0.9-1.1-2.1-1.1-3.7V65.6z M107.7,66.8c0,1.3,0.3,2.3,0.8,3.1
			c0.5,0.7,1.2,1.1,2.2,1.1c0.9,0,1.7-0.4,2.2-1.1c0.5-0.7,0.8-1.7,0.8-3.1v-1.2c0-1.3-0.3-2.3-0.8-3.1c-0.5-0.7-1.3-1.1-2.2-1.1
			c-0.9,0-1.6,0.4-2.1,1.1c-0.5,0.7-0.8,1.7-0.8,3V66.8z"/>
		<path class="st1" d="M121.8,61.6c-0.3,0-0.5-0.1-0.7-0.1c-0.6,0-1.2,0.2-1.6,0.7c-0.4,0.4-0.7,1-0.9,1.8v7.8h-1.2V60.5h1.1l0,1.7
			c0.5-1.3,1.4-1.9,2.6-1.9c0.3,0,0.5,0,0.7,0.1L121.8,61.6z"/>
		<path class="st1" d="M123.4,65.7c0-1.8,0.3-3.1,0.9-4c0.6-0.9,1.5-1.3,2.7-1.3c1.3,0,2.2,0.6,2.9,1.7v-6.2h1.2v16H130l-0.1-1.4
			c-0.6,1.1-1.6,1.7-2.9,1.7c-1.2,0-2.1-0.5-2.7-1.4c-0.6-0.9-0.9-2.2-1-3.8V65.7z M124.6,66.7c0,1.4,0.2,2.5,0.7,3.2
			c0.4,0.7,1.1,1,2.1,1c1.2,0,2.1-0.6,2.6-1.7v-5.8c-0.5-1.3-1.4-1.9-2.6-1.9c-0.9,0-1.6,0.3-2.1,1c-0.4,0.7-0.7,1.7-0.7,3.1V66.7z"
			/>
		<path class="st1" d="M134.2,57.3c0-0.2,0.1-0.4,0.2-0.6c0.1-0.2,0.3-0.2,0.6-0.2c0.2,0,0.4,0.1,0.6,0.2c0.1,0.2,0.2,0.4,0.2,0.6
			s-0.1,0.4-0.2,0.6c-0.1,0.2-0.3,0.2-0.6,0.2c-0.2,0-0.4-0.1-0.6-0.2C134.2,57.7,134.2,57.5,134.2,57.3z M135.5,71.8h-1.2V60.5h1.2
			V71.8z"/>
		<path class="st1" d="M139.8,60.5l0,1.8c0.3-0.6,0.8-1.1,1.3-1.5c0.5-0.4,1.1-0.5,1.8-0.5c2,0,3,1.3,3,3.9v7.5h-1.1v-7.4
			c0-1-0.2-1.7-0.5-2.2c-0.3-0.5-0.9-0.7-1.6-0.7c-0.6,0-1.1,0.2-1.6,0.7c-0.5,0.5-0.8,1.1-1.1,1.9v7.8h-1.2V60.5H139.8z"/>
		<path class="st1" d="M154.9,71.8c-0.1-0.4-0.2-0.9-0.2-1.6c-0.3,0.6-0.8,1-1.3,1.3c-0.5,0.3-1.1,0.5-1.8,0.5c-1,0-1.7-0.3-2.3-0.8
			s-0.8-1.3-0.8-2.3c0-1.1,0.4-2,1.1-2.6c0.8-0.6,1.8-1,3.1-1h1.9v-1.6c0-0.8-0.2-1.4-0.6-1.7c-0.4-0.3-1-0.5-1.8-0.5
			c-0.7,0-1.3,0.2-1.8,0.6c-0.5,0.4-0.7,1-0.7,1.6l-1.2,0c0-0.9,0.3-1.7,1-2.3s1.6-1,2.6-1c1.1,0,2,0.3,2.6,0.9s0.9,1.4,0.9,2.5v5.5
			c0,1.1,0.1,1.9,0.3,2.5v0.1H154.9z M151.7,70.9c0.7,0,1.3-0.2,1.8-0.5s0.9-0.8,1.1-1.4v-2.7h-1.8c-1.1,0-1.8,0.2-2.4,0.7
			c-0.5,0.5-0.8,1.1-0.8,1.8C149.7,70.2,150.4,70.9,151.7,70.9z"/>
		<path class="st1" d="M160.7,57.7v2.9h1.9v1h-1.9v7.5c0,0.6,0.1,1.1,0.3,1.4s0.5,0.5,0.9,0.5c0.2,0,0.5,0,0.8-0.1l0,1
			c-0.3,0.1-0.6,0.2-1.1,0.2c-1.4,0-2-0.9-2.1-2.8v-7.6h-1.7v-1h1.7v-2.9H160.7z"/>
		<path class="st1" d="M165.1,57.3c0-0.2,0.1-0.4,0.2-0.6c0.1-0.2,0.3-0.2,0.6-0.2c0.2,0,0.4,0.1,0.6,0.2c0.1,0.2,0.2,0.4,0.2,0.6
			s-0.1,0.4-0.2,0.6c-0.1,0.2-0.3,0.2-0.6,0.2c-0.2,0-0.4-0.1-0.6-0.2C165.2,57.7,165.1,57.5,165.1,57.3z M166.5,71.8h-1.2V60.5h1.2
			V71.8z"/>
		<path class="st1" d="M169.2,65.6c0-1.6,0.4-2.9,1.1-3.8c0.7-0.9,1.7-1.4,3-1.4c1.3,0,2.3,0.5,3,1.4c0.7,0.9,1.1,2.2,1.1,3.8v1.2
			c0,1.7-0.4,2.9-1.1,3.9c-0.7,0.9-1.7,1.4-3,1.4s-2.2-0.5-3-1.4c-0.7-0.9-1.1-2.1-1.1-3.7V65.6z M170.4,66.8c0,1.3,0.3,2.3,0.8,3.1
			c0.5,0.7,1.2,1.1,2.2,1.1c0.9,0,1.7-0.4,2.2-1.1c0.5-0.7,0.8-1.7,0.8-3.1v-1.2c0-1.3-0.3-2.3-0.8-3.1c-0.5-0.7-1.3-1.1-2.2-1.1
			c-0.9,0-1.6,0.4-2.1,1.1c-0.5,0.7-0.8,1.7-0.8,3V66.8z"/>
		<path class="st1" d="M181.2,60.5l0,1.8c0.3-0.6,0.8-1.1,1.3-1.5c0.5-0.4,1.1-0.5,1.8-0.5c2,0,3,1.3,3,3.9v7.5h-1.1v-7.4
			c0-1-0.2-1.7-0.5-2.2c-0.3-0.5-0.9-0.7-1.6-0.7c-0.6,0-1.1,0.2-1.6,0.7c-0.5,0.5-0.8,1.1-1.1,1.9v7.8h-1.2V60.5H181.2z"/>
	</g>
</g>
</svg>
