<svg width="216" height="34" viewBox="0 0 216 34" fill="none" xmlns="http://www.w3.org/2000/svg">
<g clip-path="url(#clip0_4_6)">
<path d="M141.336 18.3764V30.6086H138.805V18.3764H141.336ZM151.274 18.1766C152.236 18.1766 153.095 18.3764 153.849 18.776C154.619 19.1756 155.218 19.7676 155.648 20.552C156.077 21.3364 156.291 22.2836 156.291 23.3936V30.6086H153.783V23.771C153.783 22.6758 153.509 21.8396 152.961 21.2624C152.414 20.6704 151.666 20.3744 150.719 20.3744C149.772 20.3744 149.017 20.6704 148.455 21.2624C147.907 21.8396 147.633 22.6758 147.633 23.771V30.6086H145.103V18.3764H147.633V19.775C148.048 19.2718 148.573 18.8796 149.21 18.5984C149.861 18.3172 150.549 18.1766 151.274 18.1766ZM165.269 30.8084C164.115 30.8084 163.072 30.5494 162.139 30.0314C161.207 29.4986 160.474 28.7586 159.941 27.8114C159.409 26.8494 159.142 25.7394 159.142 24.4814C159.142 23.2382 159.416 22.1356 159.964 21.1736C160.511 20.2116 161.259 19.4716 162.206 18.9536C163.153 18.4356 164.211 18.1766 165.38 18.1766C166.55 18.1766 167.608 18.4356 168.555 18.9536C169.502 19.4716 170.25 20.2116 170.797 21.1736C171.345 22.1356 171.619 23.2382 171.619 24.4814C171.619 25.7246 171.337 26.8272 170.775 27.7892C170.213 28.7512 169.443 29.4986 168.466 30.0314C167.504 30.5494 166.439 30.8084 165.269 30.8084ZM165.269 28.6106C165.921 28.6106 166.527 28.4552 167.09 28.1444C167.667 27.8336 168.133 27.3674 168.488 26.7458C168.844 26.1242 169.021 25.3694 169.021 24.4814C169.021 23.5934 168.851 22.846 168.511 22.2392C168.17 21.6176 167.719 21.1514 167.156 20.8406C166.594 20.5298 165.987 20.3744 165.336 20.3744C164.685 20.3744 164.078 20.5298 163.516 20.8406C162.968 21.1514 162.531 21.6176 162.206 22.2392C161.88 22.846 161.717 23.5934 161.717 24.4814C161.717 25.7986 162.05 26.8198 162.716 27.545C163.397 28.2554 164.248 28.6106 165.269 28.6106ZM179.004 30.8084C178.042 30.8084 177.177 30.6382 176.407 30.2978C175.652 29.9426 175.053 29.469 174.609 28.877C174.165 28.2702 173.928 27.5968 173.898 26.8568H176.518C176.562 27.3748 176.807 27.8114 177.251 28.1666C177.709 28.507 178.279 28.6772 178.96 28.6772C179.67 28.6772 180.218 28.544 180.603 28.2776C181.002 27.9964 181.202 27.6412 181.202 27.212C181.202 26.7532 180.98 26.4128 180.536 26.1908C180.107 25.9688 179.419 25.7246 178.472 25.4582C177.554 25.2066 176.807 24.9624 176.229 24.7256C175.652 24.4888 175.149 24.1262 174.72 23.6378C174.305 23.1494 174.098 22.5056 174.098 21.7064C174.098 21.0552 174.291 20.4632 174.675 19.9304C175.06 19.3828 175.608 18.9536 176.318 18.6428C177.043 18.332 177.872 18.1766 178.805 18.1766C180.196 18.1766 181.313 18.5318 182.157 19.2422C183.015 19.9378 183.474 20.8924 183.533 22.106H181.002C180.958 21.5584 180.736 21.1218 180.336 20.7962C179.937 20.4706 179.397 20.3078 178.716 20.3078C178.05 20.3078 177.539 20.4336 177.184 20.6852C176.829 20.9368 176.651 21.2698 176.651 21.6842C176.651 22.0098 176.77 22.2836 177.006 22.5056C177.243 22.7276 177.532 22.9052 177.872 23.0384C178.213 23.1568 178.716 23.3122 179.382 23.5046C180.27 23.7414 180.995 23.9856 181.557 24.2372C182.135 24.474 182.63 24.8292 183.045 25.3028C183.459 25.7764 183.674 26.4054 183.689 27.1898C183.689 27.8854 183.496 28.507 183.111 29.0546C182.727 29.6022 182.179 30.0314 181.469 30.3422C180.773 30.653 179.952 30.8084 179.004 30.8084ZM186.024 24.4814C186.024 23.2234 186.275 22.1208 186.778 21.1736C187.296 20.2116 188.007 19.4716 188.91 18.9536C189.812 18.4356 190.848 18.1766 192.018 18.1766C193.498 18.1766 194.719 18.5318 195.681 19.2422C196.657 19.9378 197.316 20.9368 197.656 22.2392H194.926C194.704 21.6324 194.349 21.1588 193.86 20.8184C193.372 20.478 192.758 20.3078 192.018 20.3078C190.982 20.3078 190.153 20.6778 189.531 21.4178C188.924 22.143 188.621 23.1642 188.621 24.4814C188.621 25.7986 188.924 26.8272 189.531 27.5672C190.153 28.3072 190.982 28.6772 192.018 28.6772C193.483 28.6772 194.452 28.0334 194.926 26.7458H197.656C197.301 27.989 196.635 28.9806 195.658 29.7206C194.682 30.4458 193.468 30.8084 192.018 30.8084C190.848 30.8084 189.812 30.5494 188.91 30.0314C188.007 29.4986 187.296 28.7586 186.778 27.8114C186.275 26.8494 186.024 25.7394 186.024 24.4814ZM199.779 24.437C199.779 23.2086 200.031 22.1208 200.534 21.1736C201.052 20.2264 201.747 19.4938 202.621 18.9758C203.509 18.443 204.485 18.1766 205.551 18.1766C206.513 18.1766 207.349 18.369 208.06 18.7538C208.785 19.1238 209.362 19.59 209.791 20.1524V18.3764H212.344V30.6086H209.791V28.7882C209.362 29.3654 208.777 29.8464 208.037 30.2312C207.297 30.616 206.454 30.8084 205.507 30.8084C204.456 30.8084 203.494 30.542 202.621 30.0092C201.747 29.4616 201.052 28.7068 200.534 27.7448C200.031 26.768 199.779 25.6654 199.779 24.437ZM209.791 24.4814C209.791 23.6378 209.614 22.9052 209.258 22.2836C208.918 21.662 208.467 21.1884 207.904 20.8628C207.342 20.5372 206.735 20.3744 206.084 20.3744C205.433 20.3744 204.826 20.5372 204.263 20.8628C203.701 21.1736 203.242 21.6398 202.887 22.2614C202.547 22.8682 202.376 23.5934 202.376 24.437C202.376 25.2806 202.547 26.0206 202.887 26.657C203.242 27.2934 203.701 27.7818 204.263 28.1222C204.841 28.4478 205.447 28.6106 206.084 28.6106C206.735 28.6106 207.342 28.4478 207.904 28.1222C208.467 27.7966 208.918 27.323 209.258 26.7014C209.614 26.065 209.791 25.325 209.791 24.4814Z" fill="#333333"/>
<path d="M118.156 24.0426C118.427 23.6693 118.795 23.3659 119.262 23.1326C119.738 22.8899 120.265 22.7686 120.844 22.7686C121.525 22.7686 122.141 22.9319 122.692 23.2586C123.243 23.5853 123.677 24.0519 123.994 24.6586C124.311 25.2559 124.47 25.9419 124.47 26.7166C124.47 27.4913 124.311 28.1866 123.994 28.8026C123.677 29.4093 123.238 29.8853 122.678 30.2306C122.127 30.5666 121.516 30.7346 120.844 30.7346C120.247 30.7346 119.715 30.6179 119.248 30.3846C118.791 30.1513 118.427 29.8526 118.156 29.4886V30.6086H116.56V20.2486H118.156V24.0426ZM122.846 26.7166C122.846 26.1846 122.734 25.7273 122.51 25.3446C122.295 24.9526 122.006 24.6586 121.642 24.4626C121.287 24.2573 120.905 24.1546 120.494 24.1546C120.093 24.1546 119.71 24.2573 119.346 24.4626C118.991 24.6679 118.702 24.9666 118.478 25.3586C118.263 25.7506 118.156 26.2126 118.156 26.7446C118.156 27.2766 118.263 27.7433 118.478 28.1446C118.702 28.5366 118.991 28.8353 119.346 29.0406C119.71 29.2459 120.093 29.3486 120.494 29.3486C120.905 29.3486 121.287 29.2459 121.642 29.0406C122.006 28.8259 122.295 28.5179 122.51 28.1166C122.734 27.7153 122.846 27.2486 122.846 26.7166ZM133.272 22.8946L128.54 34.2346H126.888L128.456 30.4826L125.418 22.8946H127.196L129.366 28.7746L131.62 22.8946H133.272Z" fill="#333333"/>
<path d="M16.3442 8.08861C19.1708 8.08861 21.4108 8.87528 23.0642 10.4486C24.7175 11.9953 25.5442 14.0886 25.5442 16.7286C25.5442 17.5819 25.4775 18.3419 25.3442 19.0086C25.1842 19.8086 25.0108 20.5019 24.8242 21.0886H8.62416C8.59749 21.2753 8.58416 21.5419 8.58416 21.8886C8.58416 23.2753 8.98416 24.3686 9.78416 25.1686C10.6108 25.9419 11.6908 26.3286 13.0242 26.3286C14.1442 26.3286 15.1042 26.0886 15.9042 25.6086C16.7308 25.1019 17.3975 24.4486 17.9042 23.6486H23.9442C22.9575 25.7819 21.4242 27.5419 19.3442 28.9286C17.2908 30.2886 14.9575 30.9686 12.3442 30.9686C9.5175 30.9686 7.25083 30.1686 5.54416 28.5686C3.83749 26.9686 2.98416 24.7953 2.98416 22.0486C2.98416 21.2486 3.06416 20.4086 3.22416 19.5286C3.62416 17.2353 4.43749 15.2219 5.66416 13.4886C6.9175 11.7553 8.46416 10.4219 10.3042 9.48861C12.1442 8.55528 14.1575 8.08861 16.3442 8.08861ZM19.7842 17.6886C19.8375 17.2619 19.8642 16.9553 19.8642 16.7686C19.8642 15.4886 19.4508 14.4886 18.6242 13.7686C17.7975 13.0486 16.7175 12.6886 15.3842 12.6886C13.9708 12.6886 12.7042 13.1419 11.5842 14.0486C10.4642 14.9286 9.6775 16.1419 9.22416 17.6886H19.7842Z" fill="#FF9D0E"/>
<path d="M45.2717 16.2886C46.845 16.5819 48.1383 17.3686 49.1517 18.6486C50.165 19.9286 50.6717 21.3953 50.6717 23.0486C50.6717 24.5419 50.2983 25.8619 49.5517 27.0086C48.8317 28.1286 47.7783 29.0086 46.3917 29.6486C45.005 30.2886 43.365 30.6086 41.4717 30.6086H29.4317V2.68861H40.9517C42.845 2.68861 44.4717 2.99528 45.8317 3.60861C47.2183 4.22194 48.2583 5.07528 48.9517 6.16861C49.6717 7.26194 50.0317 8.50194 50.0317 9.88861C50.0317 11.5153 49.5917 12.8753 48.7117 13.9686C47.8583 15.0619 46.7117 15.8353 45.2717 16.2886ZM35.0317 14.2086H40.1517C41.485 14.2086 42.5117 13.9153 43.2317 13.3286C43.9517 12.7153 44.3117 11.8486 44.3117 10.7286C44.3117 9.60861 43.9517 8.74194 43.2317 8.12861C42.5117 7.51528 41.485 7.20861 40.1517 7.20861H35.0317V14.2086ZM40.6717 26.0486C42.0317 26.0486 43.085 25.7286 43.8317 25.0886C44.605 24.4486 44.9917 23.5419 44.9917 22.3686C44.9917 21.1686 44.5917 20.2353 43.7917 19.5686C42.9917 18.8753 41.9117 18.5286 40.5517 18.5286H35.0317V26.0486H40.6717ZM53.6948 19.4486C53.6948 17.2086 54.1348 15.2219 55.0148 13.4886C55.9215 11.7553 57.1348 10.4219 58.6548 9.48861C60.2015 8.55528 61.9215 8.08861 63.8148 8.08861C65.4681 8.08861 66.9081 8.42194 68.1348 9.08861C69.3881 9.75528 70.3881 10.5953 71.1348 11.6086V8.44861H76.7748V30.6086H71.1348V27.3686C70.4148 28.4086 69.4148 29.2753 68.1348 29.9686C66.8815 30.6353 65.4281 30.9686 63.7748 30.9686C61.9081 30.9686 60.2015 30.4886 58.6548 29.5286C57.1348 28.5686 55.9215 27.2219 55.0148 25.4886C54.1348 23.7286 53.6948 21.7153 53.6948 19.4486ZM71.1348 19.5286C71.1348 18.1686 70.8681 17.0086 70.3348 16.0486C69.8015 15.0619 69.0815 14.3153 68.1748 13.8086C67.2681 13.2753 66.2948 13.0086 65.2548 13.0086C64.2148 13.0086 63.2548 13.2619 62.3748 13.7686C61.4948 14.2753 60.7748 15.0219 60.2148 16.0086C59.6815 16.9686 59.4148 18.1153 59.4148 19.4486C59.4148 20.7819 59.6815 21.9553 60.2148 22.9686C60.7748 23.9553 61.4948 24.7153 62.3748 25.2486C63.2815 25.7819 64.2415 26.0486 65.2548 26.0486C66.2948 26.0486 67.2681 25.7953 68.1748 25.2886C69.0815 24.7553 69.8015 24.0086 70.3348 23.0486C70.8681 22.0619 71.1348 20.8886 71.1348 19.5286ZM103.164 8.44861V30.6086H97.5242V27.8086C96.8042 28.7686 95.8575 29.5286 94.6842 30.0886C93.5375 30.6219 92.2842 30.8886 90.9242 30.8886C89.1908 30.8886 87.6575 30.5286 86.3242 29.8086C84.9908 29.0619 83.9375 27.9819 83.1642 26.5686C82.4175 25.1286 82.0442 23.4219 82.0442 21.4486V8.44861H87.6442V20.6486C87.6442 22.4086 88.0842 23.7686 88.9642 24.7286C89.8442 25.6619 91.0442 26.1286 92.5642 26.1286C94.1108 26.1286 95.3242 25.6619 96.2042 24.7286C97.0842 23.7686 97.5242 22.4086 97.5242 20.6486V8.44861H103.164Z" fill="#333333"/>
</g>
<defs>
<clipPath id="clip0_4_6">
<rect width="216" height="34" fill="white"/>
</clipPath>
</defs>
</svg>
