<svg data-name="Gruppe 1408" width="1258.135" height="115.922" xmlns="http://www.w3.org/2000/svg"><g data-name="Gruppe 1311"><path data-name="Pfad 28" d="m5.64 44.855 100.845-.118s-4.139 21.923-6.712 31.132c-2.4 8.591-6.306 13.069-12.646 19.367-14.178 14.034-30.082 20.365-46.58 20.365-31.547 0-45.6-24.572-38.919-54.325l3.894-16.548z" fill="#fff"/><path data-name="Pfad 29" d="M148.67.747h6.45l-4.386 19.392.127.127L172.488.739h8.515l-24.276 21.737 17.877 22.363h-8.117l-16.523-21.1-4.52 21.1h-6.526z" fill="#161615"/><path data-name="Pfad 30" d="M231.528 28.545h-17.872L227.27 7.562zM195.97 44.839h7.161l7.237-11.122h22.134l2.387 11.122h6.653L231.596.748h-6.383z" fill="#161615"/><path data-name="Pfad 31" d="M275.99.748h8.515l12.713 36.947h.135l8-36.947h6.137l-9.823 44.091h-8.317L280.637 8.197h-.127l-7.686 36.642h-6.2z" fill="#161615"/><path data-name="Pfad 32" d="M373.572 6.309h-14.009l-8.456 38.53h-6.509l8.448-38.53h-14.009l1.244-5.561H374.8z" fill="#161615"/><path data-name="Pfad 33" d="M399.953 27.09c0-11.241 7.364-21.542 18.393-21.542 7.753 0 11.622 4.74 11.622 13.2 0 9.607-6.585 21.3-17.682 21.3-8.135 0-12.333-5.129-12.333-12.958zm-6.83-.184c0 12.189 6.508 18.7 18.9 18.7 16.327 0 24.791-13.78 24.791-27.738C436.814 6.627 430.034 0 418.548 0c-16.52-.005-25.426 14.393-25.426 26.906z" fill="#161615"/><path data-name="Pfad 34" d="M469.98.748h8.514l12.713 36.947h.127l8-36.947h6.128l-9.8 44.091h-8.324L474.626 8.197h-.135l-7.678 36.642h-6.2z" fill="#161615"/><g data-name="Gruppe 7"><g data-name="Gruppe 4"><path data-name="Pfad 35" d="M90.35 86.323c-11.792 15.156-30.177 25.571-48.663 25.571a65.117 65.117 0 0 1-9.429-.711l-6.188 2.632a65.608 65.608 0 0 0 15.617 1.845c21.61 0 43.092-13.348 55.2-32.122z"/></g><g data-name="Gruppe 6"><g data-name="Gruppe 5"><path data-name="Pfad 36" d="M106.524 44.847H5.637L15.567.956h100.9z" fill="#d80f15"/></g></g></g><path data-name="Pfad 37" d="M511.245 95.608a49.766 49.766 0 0 0 19.764 4.063c3.927 0 13.67-.4 13.67-6.23 0-10-29.092-4.867-29.092-28.153 0-16.51 19.223-23.141 35.591-23.141a81.208 81.208 0 0 1 23.43 4.19l-5.163 15.972a48.831 48.831 0 0 0-19.494-3.919c-5.417 0-11.368 1.21-11.368 6.086 0 7.855 30.455 7.3 30.455 25.038 0 17.479-14.762 26.13-33.037 26.4a111.559 111.559 0 0 1-29.642-3.648z" fill="#161615"/><path data-name="Pfad 38" d="M646.065 73.415c0 15.972-7.16 25.452-18.537 25.452-8.26.127-13.264-6.23-13.264-15.7 0-11.232 7.3-23.963 19.08-23.963 9.483-.001 12.721 6.906 12.721 14.211zm25.182.271c0-17.733-12.722-31.53-36.685-31.53-27.619 0-45.479 16.776-45.479 41.552 0 17.724 10.555 32.207 36.685 32.207 26.392 0 45.48-12.857 45.48-42.229z" fill="#161615"/><path data-name="Pfad 39" d="M703.057 12.769h24.631L706.57 114.281h-24.64z" fill="#161615"/><path data-name="Pfad 40" d="M789.544 73.415c0 15.972-7.178 25.452-18.546 25.452-8.253.127-13.264-6.23-13.264-15.7 0-11.232 7.313-23.963 19.087-23.963 9.473-.001 12.723 6.906 12.723 14.211zm25.182.271c0-17.733-12.722-31.53-36.685-31.53-27.61 0-45.479 16.776-45.479 41.552 0 17.724 10.555 32.207 36.685 32.207 26.392 0 45.48-12.857 45.48-42.229z" fill="#161615"/><path data-name="Pfad 41" d="M833.13 43.773h13.948l3.377-15.168 25.715-6.9-4.866 22.059h16.785l-2.975 17.048h-17.737l-4.2 19.629a66.544 66.544 0 0 0-2.023 12.18 7.423 7.423 0 0 0 6.958 7.855 5.907 5.907 0 0 0 1.024-.008 24.081 24.081 0 0 0 7.855-2.031l-2.7 16.108a98.082 98.082 0 0 1-15.168 1.354c-12.45 0-22.346-6.094-22.346-20.848a66.924 66.924 0 0 1 2.167-14.474l4.2-19.764H830.15z" fill="#161615"/><path data-name="Pfad 42" d="M920.562 12.769h24.64l-8.659 41.289h.262a29.808 29.808 0 0 1 24.5-11.909c14.2 0 21.923 10.564 21.923 24.352a64.564 64.564 0 0 1-1.9 14.9l-6.492 32.884H949.68l6.755-33.028a55.69 55.69 0 0 0 1.625-10.7c0-4.19-2.7-8.388-9.472-8.117-10.284 0-16.379 8.93-18.13 19.358l-6.908 32.486h-24.369z" fill="#161615"/><path data-name="Pfad 43" d="M1077.048 95.888c-1.21 6.086-2.294 12.045-2.97 18.41h-22.61l1.9-11.5h-.288c-7.034 7.846-14.347 13.12-27.213 13.12-14.2 0-21.914-10.555-21.914-24.369a64.939 64.939 0 0 1 1.88-14.889l6.508-32.893h25.17l-6.764 33.02a57.06 57.06 0 0 0-1.634 10.7c0 4.2 2.726 8.4 9.48 8.117 10.293 0 16.38-8.93 18.14-19.35l6.907-32.49h24.37z" fill="#161615"/><path data-name="Pfad 44" d="m1139.31 43.773-2.709 14.483h.288c3.92-8.261 11.774-16.1 21.8-16.1a27.352 27.352 0 0 1 10.284 1.752l-5.552 21.525a16.937 16.937 0 0 0-11.232-2.979c-10.293 0-16.37 8.93-18.139 19.358l-6.907 32.486h-24.375l10.97-52.119c1.22-6.086 2.285-12.045 2.98-18.4z" fill="#161615"/><path data-name="Pfad 45" d="M1185.034 62.178c1.227-6.086 2.294-12.045 2.98-18.4h22.607l-1.887 11.489h.27c7.034-7.846 14.347-13.12 27.2-13.12 14.22 0 21.931 10.555 21.931 24.344a64.492 64.492 0 0 1-1.9 14.9l-6.5 32.893h-25.164l6.771-33.02a57.052 57.052 0 0 0 1.625-10.7c0-4.19-2.709-8.388-9.48-8.126-10.284 0-16.37 8.938-18.139 19.358l-6.9 32.486h-24.376z" fill="#161615"/></g></svg>