<svg version="1.1" id="Ebene_1" xmlns="http://www.w3.org/2000/svg" x="0" y="0" width="58" height="58" xml:space="preserve"><style>.st0{fill:#fff}.st1,.st3,.st4{fill-rule:evenodd;clip-rule:evenodd;fill:#e30613}.st3,.st4{fill:#0068b3}.st4{fill:#fbb900}.st5{fill:none}</style><path class="st0" d="M1.8 25.2h47.9v28.9H1.8z"/><path class="st1" d="M27.8 28.3c-.1 0-.1 0-.2.1.2.1.3.1.5.2.1.1.2.1.2.2.1-.1-.3-.5-.5-.5zM26.8 28.1c-.2 0-.7.1-.8.1-.2 0-.6.2-.7.4 0 .2.1.2.3.2h.2c-.1-.1-.3-.2-.1-.3.3-.2 1.1-.2 1.1-.2.1-.1.1-.2 0-.2z"/><path d="M22.7 30.3s0-.1 0 0c-.1-.2-.4-.2-.7-.1-.5.1-1.1.1-1.6-.2-.2-.1-.4-.3-.4-.5-.1-.3 0-.6.3-.7.3.7 1 .7 1.5.8.4.1.9 0 1.3.1.4 0 .8.1 1.1.6h-1.5z" fill="#e30613"/><path d="M24.1 30.2c.2 0 .4-.2.4-.4 0-.3-.2-.5-.5-.5h-1.3c-.2 0-.3 0-.3-.2s0-.5.3-.4h.8c.1 0 .3 0 .3-.2 0-.1-.2-.2-.3-.2-.2 0-.7.1-.7 0 .1-.4.2-.6.7-.7.5-.1 1.5-.2 1.8-.3.3-.1.4-.3 1.2-.4s.9-.4.7-1.1c.4 0 .6.1.8.9.3-.2.4-.4.2-.9.3 0 .6.2.8.5 0 .1.1.3.2.3s.5 0 .8-.1c.5-.3.9-.5 1.2 1.2 0 .1.3-.5.3-.8 0-.2.1-.3.3-.3.3 0 1.4.1 1.8 0 .8-.3.6 1 .6 1.3h.1c.1-.3.2-.5.3-.9.6.2 1.1.3 1.7.5h.4c.4-.1.7.1.7.5 0 .2-.1.7 0 .9.2-.2.3-1 .7-.7.4.2.7.4 1.1.5.1.1.3.1.5.1.5 0 .7.2.7.7 0 .2-.1.4-.2.6-.1.2-.1.3-.2.4l.1.1c.1 0 .5-.4.6-.6 1.9 1.7 1.4 4.6.2 4.6 1.1-2.5-3.6-6.5-11.1-6.3-.1 0-.3 0-.3.2s0 .5.2.5c.4 0 1 .1 1.3-.1.3-.2.6-.1.7.3.1.3.1 1.1.1 1.1s.4-.9.8-.8c.3.1.9.2 1.2.1.3-.2.8 0 .8.4 0 .3-.1 1.1-.1 1.1s.6-.7.9-.6c.3.1 1.1.5 1.2.5.3-.2.5-.1.7 0 .4.5-.1 1.5-.1 1.5s.5-.8 1-.5c.3.3.7.9 1.3.9.3 0 .5.5.2.9-.1.2-.5.6-.5.6s.5-.2.7-.2c1.5 3.4-1.2 4.8-1.4 4.4 0-.1 1.4-.9.3-3.2-.8-1.6-2.5-2.6-4.2-3.4-1.6-.7-4.7-1-4.8-1v.1c.4.1.9.2 1.3.3.5.1 1.9.1 1.8.8-.1.3-1.5.3-2 .3-.4 0-.8-.2-1.2-.4-.2-.1-.3 0-.4.1-.1.2-.4.4 0 .6.3.1.6.2.9.2-.3.6-.8.8-1.4.7-.1 0-.3 0-.3.1s.1.2.2.3c.3.1.5.2.8.2-.2.4-.6.6-1.2.5-.1 0-.3 0-.4.1s.1.3.2.3c.2.1.7.2.7.2-.2.6-1.1.4-1.3.5-.2.1.3.8 1.8 1.3 1.3.4 2.2.9 3.1 2.2.8-.5 1.7-.5 2.6-.5.9.1 1.8 0 2.5-.8C37.3 40 35 40 35 40.2c.5.2.9.1 1.6 0-.3.5-.8.7-1.4.7-.7.1-1.3-.3-1.8-.6-.4-.2-.5-.2-.9 0 .9.5 1.8 2.7 2.1 3 .4.4.6.4 1.1 0 .3-.2.4-.2.6.1.2.3.5.6.7 1 .2.4.1 1 .3 1.3.5.7 1.3 1.4 1.8 2.1.3.3.3.7.2 1.2-.1.2-.2.3-.4.3-.8-.1-1 .1-1.3.8 0 .1-.2.2-.3.2-.4-.1-.9-.2-1.2-.3-.3-.1-.5-.3-.5-.4 0-.1 1.8-.8 1.4-2.1-.3-.8-1-1.4-1.4-1.5-.2.6-.1 1.4-.9 1.6.1-.3.2-.6.1-.8 0-.3-.2-.5-.3-.8-.1.4-.1.8-.2 1.2-.1.4-.4.7-.9.8.3-.7.4-1.2 0-1.9-.1.9-.1 1.8-1.3 2 .1-.1.1-.2.2-.3.5-.7.4-1.3 0-2.1-.3-.7-.7-.7-1.2-1.5-.6-.8-.8-2.2-1-2.6-.3-.5-1.2-.9-2.3-1.1 0 .2-.1.5-.1.6.5 0 2.4.1 2.4 1.2 0 .6.1 1.1.5 1.6.2.2.1.6-.2.8-.4.3-1 .1-1.2-.4-.4-1.2.2-1.8.1-1.9-1.6.2-5.2 2.6-3.1 3.6.3.1.6.2.6.4 0 .4-1.7 1.1-2.5 1.5l-.9.3c-1.2.3-2.2.9-2.9 2-.1.2-.4.3-.5.1-.4-.3-.7-.3-1 0-.2.2-.5.3-.8.2-.3-.1-.7-.3-.9-.5-.3-.2-.2-.4 0-.6 1-1 2.3-1.3 3.6-1.7.6-.2 1.2-.5 1.8-.8.2-.1.4-.3.3-.6-.3.2-.6.5-1 .6-.4.1-.8.2-1.2-.1.6-.2 1.2-.3 1.5-.9-.5.2-.9.4-1.4.5-.5.1-1.1-.1-1.3-.4.4-.1.8-.1 1.2-.2.4-.1.8-.2.9-.8-.9.6-2.6.9-3-.3 1.2.4 2.4-.1 2.7-.8.2-.4 1.5-2.1 5.1-2.7-.1-.4-.1-.6-.2-1-2.4 0-3.9.4-4.6 1.1-.2.2-.4.2-.6 0-1.5-1.2-3.1-2-4.9-2.4-.9-.2-1.7-.3-2.6-.1-.3.1-.6.2-1 .3-.3.1-.5 0-.5-.2-.1-.5-.5-.7-1-.5-.5.2-1.2 0-1.6-.4-.5-.6-.4-.8-.1-1 .5-.3 1.1-.4 1.7-.3 1.1.1 2.2.3 3.3.4.4 0 .8.1 1.1 0 .8-.1 1.5 0 2.2.3.5.2 1 .3 1.5.4.3.1.6.1.9.1-.3-.4-.6-.5-1.1-.6-.5 0-.6-.1-.3-.6 1.4-3.1 4.8-3.5 5.9-4.3.3-.3.3-.6.5-.9.8.3 1.7.3 2.5-.3v-.1c-1.1.4-1.5.3-2 .1-.7-.3-1.1-.1-1.3.3-.5.8-1.1 1.3-2 1.2-1.1-.1-.9-.3-.5-.4.6-.1.9-.4 1.2-.9.1-.2.1-.4-.2-.5-.2-.1-.4-.2-.4-.3s.1-.2.3-.2c.1-.1 1.3-.2 1.4-.2zm3.7-1.9c-.2 0-.2.3-.3.4-.1.1-.6.1-.6-.3 0-.1.1-.2 0-.3-.2 0-.7.1-.8.1-.2 0-.6.2-.7.4 0 .2.1.2.3.2.3 0 .4 0 .6.1.2.1.5.4.8.4.5 0 1.1 0 1.3-.5 0-.1-.4-.5-.6-.5z"/><path d="M19.7 34.6l-1.2 1.5c-.3-.3-1.7-1.7-2.9-2.3-.8-.4-1.6-.4-2.4-.5-.3 0-.5.2-.8.3-.3.1-.5 0-.6-.3-.1-.4-.7-.7-1.1-.6-.3.1-.4 0-.5-.2-.2-.4-.3-.7-.5-1.1-.1-.5 0-.7.5-.6 2 .2 4.9 1.6 5.4 1.7.1 0 .2.1.3 0 1-.2 1.7.2 2.3.9.4.6.9 1 1.5 1.2zM15.5 52.5c0-.1 1-1.6 1.6-2.4.4.1.7.2 1 .3.3.1.4.2.3.6-.3.7-.9 1.1-1.6 1.4-.4.2-1.3.3-1.3.1zM8.6 38c.2-.1.4 0 .6.1.3.2.8.3.9.4s.3 0 .3.1v.3c-.2.2-.3.3-.5.3-1 .3-2.1 0-3.1-.4.1 0 1.5-.6 1.8-.8zM7 31.8s1.4-.1 1.9-.1.7.1.8.5c0 .2.2.3.2.4.2.3.1.5-.2.6-.3 0-.6 0-.8-.1-.6-.2-1.1-.5-1.5-.9-.3-.2-.4-.4-.4-.4zM16.8 49.9s-.9 1.4-1.4 2.1c-.1.1-.7.2-.7.1s1.8-2.6 1.8-2.6l.3.4zM6.4 38c.8-.3 1.5-.6 2.3-.8.2.4.1.5-.2.6-.4.1-.8.3-1.1.4-.4.2-.7.1-1-.2zM7.2 30.9h1.4s.3 0 .6.1c.1 0 .2.2.2.2s-.1.1-.2.1H7.5c-.1 0-.3-.2-.3-.3-.2-.1 0-.1 0-.1zM34.7 52.5c-.1-.1.9-2 .9-2.2.1-.2.2-.3.4-.2l.9.3c.3.1.3.3.2.5-.3.6-1.1 1.2-1.4 1.3-.3.1-.9.4-1 .3zM33.9 52.1c-.1-.1 1-2.3 1.1-2.3.3-.2.4.1.4.2-.3.6-.7 1.6-.9 1.9-.2.3-.5.3-.6.2z"/><path class="st3" d="M38.1 1v11.4h11.6v-2.2h-9.5V1z"/><path class="st4" d="M49.7 13.1H38.1v11.5h2.1v-9.3h9.5zM35.2 10.2h-9.3v2.2h11.6V1h-2.3z"/><path class="st3" d="M25.9 13.1v2.2h9.3v9.3h2.3V13.1zM25.9 1h8.7v8.7h-8.7z"/><path class="st4" d="M40.8 1v8.6h8.9V1zM25.9 15.9v8.7h8.7v-8.7z"/><path class="st3" d="M40.8 15.9h8.9v8.7h-8.9z"/><g><path class="st0" d="M13.5 1h11.8v23.7H13.5z"/></g><g><path class="st1" d="M27.1 40.4c0 .2-.1.4-.3.4-.1 0-.3-.2-.3-.4 0-.3.1-.4.3-.4.2 0 .3.1.3.4z"/></g><g><path class="st5" d="M25.3 25.2H1.7v28.9h48V25.2H25.9z"/></g><g><path class="st5" d="M25.9 1h23.7v23.7H25.9z"/></g><g><path class="st5" d="M13.5 1h11.8v23.7H13.5z"/></g><path d="M.9.2v54.7h49.5V.2H.9zm39.9.8h8.9v8.7h-8.9V1zm-2.7 12.1h11.6v2.2h-9.4v9.3h-2.2V13.1zm11.6 2.8v8.7h-8.9v-8.7h8.9zM25.9 1h8.7v8.7h-8.7V1zm0 9.2h9.3V1h2.3v11.5H25.9v-2.3zm11.6 2.9v11.6h-2.3v-9.3h-9.3v-2.2h11.6zm-2.9 11.5h-8.7v-8.7h8.7v8.7zM13.5 1h11.8v23.7H13.5V1zm36.2 53.1h-48V25.2h48v28.9zm0-41.7H38.1V1h2.2v9.3h9.5v2.1z"/></svg>