<?xml version="1.0" encoding="UTF-8" standalone="no"?>
<svg
   xmlns:dc="http://purl.org/dc/elements/1.1/"
   xmlns:cc="http://creativecommons.org/ns#"
   xmlns:rdf="http://www.w3.org/1999/02/22-rdf-syntax-ns#"
   xmlns:svg="http://www.w3.org/2000/svg"
   xmlns="http://www.w3.org/2000/svg"
   viewBox="0 0 277.28 76.26667"
   height="76.26667"
   width="277.28"
   xml:space="preserve"
   id="svg2"
   version="1.1"><metadata
     id="metadata8"><rdf:RDF><cc:Work
         rdf:about=""><dc:format>image/svg+xml</dc:format><dc:type
           rdf:resource="http://purl.org/dc/dcmitype/StillImage" /></cc:Work></rdf:RDF></metadata><defs
     id="defs6" /><g
     transform="matrix(1.3333333,0,0,-1.3333333,0,76.266667)"
     id="g10"><g
       transform="scale(0.1)"
       id="g12"><path
         id="path14"
         style="fill:#ed1c24;fill-opacity:1;fill-rule:nonzero;stroke:none"
         d="m 140.98,423.609 c -1.113,21.454 -16.285,39.219 -37.371,39.219 -22.2027,0 -37.0035,-15.91 -40.7027,-39.219 z M 62.9063,388.453 c 1.1093,-26.269 16.2773,-43.664 42.9177,-43.664 15.172,0 29.977,7.031 35.895,21.094 h 58.832 C 189.082,321.48 148.012,302.242 105.09,302.242 42.5547,302.242 0,339.977 0,404.359 c 0,58.84 46.9922,101.028 103.609,101.028 68.825,0 103.239,-51.809 100.274,-116.934 H 62.9063" /><path
         id="path16"
         style="fill:#231f20;fill-opacity:1;fill-rule:nonzero;stroke:none"
         d="m 306.734,362.926 h 55.137 c 21.828,0 37,7.762 37,29.597 0,23.313 -16.281,31.086 -37,31.086 h -55.137 z m 0,105.086 h 53.286 c 11.839,0 28.121,6.289 28.121,25.156 0,19.25 -13.692,25.539 -28.121,25.539 H 306.734 Z M 237.91,571.988 H 361.5 c 45.512,0.742 95.469,-11.105 95.469,-66.242 0,-23.68 -14.063,-42.918 -34.785,-53.281 28.121,-8.133 45.511,-32.559 45.511,-62.527 0,-62.911 -46.254,-82.149 -102.867,-82.149 H 237.91 v 264.199" /><path
         id="path18"
         style="fill:#231f20;fill-opacity:1;fill-rule:nonzero;stroke:none"
         d="m 581.27,341.09 c 29.968,0 39.96,17.019 38.48,56.609 -8.883,-5.547 -25.16,-6.66 -38.852,-10.359 -14.062,-3.332 -25.902,-9.25 -25.902,-24.414 0,-15.547 12.211,-21.836 26.274,-21.836 z m -81.407,99.539 c 1.11,25.156 12.95,41.437 29.973,51.437 17.019,9.618 39.223,13.321 61.055,13.321 45.511,0 89.543,-9.992 89.543,-64.387 v -84.004 c 0,-16.277 0,-34.031 7.402,-49.207 h -63.273 c -2.219,5.918 -2.961,11.844 -3.7,18.133 -16.285,-17.02 -40.336,-23.68 -63.273,-23.68 -36.633,0 -65.496,18.496 -65.496,58.086 0,62.539 68.082,57.723 111.75,66.61 10.726,2.218 16.648,5.917 16.648,17.765 0,14.422 -17.39,19.981 -30.34,19.981 -17.394,0 -28.492,-7.774 -31.457,-24.055 h -58.832" /><path
         id="path20"
         style="fill:#231f20;fill-opacity:1;fill-rule:nonzero;stroke:none"
         d="m 912.789,307.789 h -61.051 v 26.27 h -0.742 c -11.84,-19.61 -36.262,-31.817 -58.461,-31.817 -55.137,0 -71.047,31.817 -71.047,82.137 v 115.449 h 62.907 V 388.453 c 0,-25.527 11.097,-34.414 31.078,-34.414 13.691,0 34.414,8.887 34.414,42.93 v 102.859 h 62.902 V 307.789" /><path
         id="path22"
         style="fill:#231f20;fill-opacity:1;fill-rule:nonzero;stroke:none"
         d="m 238.148,194.535 h 49.797 v -8.082 h -40.207 v -22.93 h 37.481 v -8.078 h -37.481 v -24.953 h 40.508 v -8.082 h -50.098 v 72.125" /><path
         id="path24"
         style="fill:#231f20;fill-opacity:1;fill-rule:nonzero;stroke:none"
         d="m 299.254,194.535 h 8.582 V 122.41 h -8.582 v 72.125" /><path
         id="path26"
         style="fill:#231f20;fill-opacity:1;fill-rule:nonzero;stroke:none"
         d="m 357.73,153.523 c -0.402,8.18 -6.562,14.747 -15.05,14.747 -8.985,0 -14.344,-6.766 -14.95,-14.747 z m 8.29,-14.543 c -2.325,-11.519 -10.606,-17.781 -22.325,-17.781 -16.668,0 -24.55,11.516 -25.058,27.477 0,15.656 10.304,27.172 24.551,27.172 18.488,0 24.14,-17.274 23.632,-29.903 h -39.09 c -0.304,-9.09 4.852,-17.172 16.27,-17.172 7.07,0 12.02,3.438 13.535,10.207 h 8.485" /><path
         id="path28"
         style="fill:#231f20;fill-opacity:1;fill-rule:nonzero;stroke:none"
         d="m 376.52,194.535 h 8.582 v -42.73 l 23.839,22.828 h 11.512 L 399.75,155.645 421.969,122.41 h -10.91 l -17.879,27.278 -8.078,-7.477 V 122.41 h -8.582 v 72.125" /><path
         id="path30"
         style="fill:#231f20;fill-opacity:1;fill-rule:nonzero;stroke:none"
         d="m 440.648,174.633 h 10.403 v -7.574 h -10.403 v -32.426 c 0,-3.942 1.106,-4.645 6.465,-4.645 h 3.938 v -7.578 h -6.563 c -8.898,0 -12.433,1.817 -12.433,11.418 v 33.231 h -8.887 v 7.574 h 8.887 v 15.66 h 8.593 v -15.66" /><path
         id="path32"
         style="fill:#231f20;fill-opacity:1;fill-rule:nonzero;stroke:none"
         d="m 460.543,174.633 h 8.074 v -11.012 h 0.207 c 4.141,8.391 9.903,12.531 19.188,12.227 v -9.09 c -13.836,0 -18.887,-7.883 -18.887,-21.113 V 122.41 h -8.582 v 52.223" /><path
         id="path34"
         style="fill:#231f20;fill-opacity:1;fill-rule:nonzero;stroke:none"
         d="m 515.512,128.773 c 8.984,0 16.261,7.071 16.261,19.7 0,12.726 -7.277,19.797 -16.261,19.797 -8.992,0 -16.27,-7.071 -16.27,-19.797 0,-12.629 7.278,-19.7 16.27,-19.7 z m 0,47.075 c 16.562,0 25.351,-12.02 25.351,-27.375 0,-15.25 -8.789,-27.274 -25.351,-27.274 -16.571,0 -25.36,12.024 -25.36,27.274 0,15.355 8.789,27.375 25.36,27.375" /><path
         id="path36"
         style="fill:#231f20;fill-opacity:1;fill-rule:nonzero;stroke:none"
         d="m 551.254,174.633 h 8.086 v -8.281 h 0.195 c 3.645,6.464 9.492,9.496 16.973,9.496 13.742,0 17.98,-7.879 17.98,-19.09 V 122.41 h -8.586 v 35.36 c 0,6.359 -4.043,10.5 -10.605,10.5 -10.41,0 -15.457,-6.965 -15.457,-16.36 v -29.5 h -8.586 v 52.223" /><path
         id="path38"
         style="fill:#231f20;fill-opacity:1;fill-rule:nonzero;stroke:none"
         d="m 608.227,174.633 h 8.586 V 122.41 h -8.586 z m 8.586,9.394 h -8.586 v 10.508 h 8.586 v -10.508" /><path
         id="path40"
         style="fill:#231f20;fill-opacity:1;fill-rule:nonzero;stroke:none"
         d="m 635.699,138.875 c 0.301,-7.676 6.973,-10.102 14.043,-10.102 5.352,0 12.625,1.215 12.625,7.778 0,6.672 -8.484,7.781 -17.07,9.699 -8.484,1.918 -17.078,4.75 -17.078,14.75 0,10.504 10.41,14.848 19.5,14.848 11.515,0 20.703,-3.637 21.418,-16.368 h -8.594 c -0.605,6.672 -6.465,8.79 -12.121,8.79 -5.145,0 -11.113,-1.415 -11.113,-6.665 0,-6.16 9.093,-7.171 17.07,-9.089 8.594,-1.922 17.082,-4.746 17.082,-14.852 0,-12.426 -11.621,-16.465 -22.227,-16.465 -11.718,0 -21.621,4.746 -22.121,17.676 h 8.586" /><path
         id="path42"
         style="fill:#231f20;fill-opacity:1;fill-rule:nonzero;stroke:none"
         d="m 716.703,157.867 c -1.316,6.567 -5.859,10.403 -12.93,10.403 -12.429,0 -16.269,-9.797 -16.269,-20.403 0,-9.597 4.348,-19.094 15.254,-19.094 8.281,0 13.234,4.848 14.347,12.731 h 8.79 c -1.926,-12.731 -9.903,-20.305 -23.028,-20.305 -15.969,0 -24.453,11.11 -24.453,26.668 0,15.656 8.086,27.981 24.649,27.981 11.816,0 21.316,-5.555 22.527,-17.981 h -8.887" /><path
         id="path44"
         style="fill:#231f20;fill-opacity:1;fill-rule:nonzero;stroke:none"
         d="m 735.785,194.535 h 8.586 v -27.578 h 0.203 c 2.832,6.266 10.207,8.891 16.465,8.891 13.742,0 17.981,-7.879 17.981,-19.09 V 122.41 h -8.586 v 35.36 c 0,6.359 -4.043,10.5 -10.606,10.5 -10.41,0 -15.457,-6.965 -15.457,-16.36 v -29.5 h -8.586 v 72.125" /><path
         id="path46"
         style="fill:#231f20;fill-opacity:1;fill-rule:nonzero;stroke:none"
         d="m 828.5,153.523 c -0.398,8.18 -6.562,14.747 -15.047,14.747 -8.984,0 -14.348,-6.766 -14.953,-14.747 z m 8.293,-14.543 c -2.324,-11.519 -10.617,-17.781 -22.324,-17.781 -16.672,0 -24.551,11.516 -25.059,27.477 0,15.656 10.301,27.172 24.551,27.172 18.484,0 24.141,-17.274 23.633,-29.903 H 798.5 c -0.301,-9.09 4.855,-17.172 16.27,-17.172 7.07,0 12.023,3.438 13.535,10.207 h 8.488" /><path
         id="path48"
         style="fill:#231f20;fill-opacity:1;fill-rule:nonzero;stroke:none"
         d="m 852.035,138.875 c 0.305,-7.676 6.973,-10.102 14.043,-10.102 5.352,0 12.629,1.215 12.629,7.778 0,6.672 -8.488,7.781 -17.07,9.699 -8.489,1.918 -17.082,4.75 -17.082,14.75 0,10.504 10.41,14.848 19.504,14.848 11.511,0 20.703,-3.637 21.414,-16.368 h -8.594 c -0.606,6.672 -6.465,8.79 -12.117,8.79 -5.149,0 -11.114,-1.415 -11.114,-6.665 0,-6.16 9.09,-7.171 17.071,-9.089 8.594,-1.922 17.078,-4.746 17.078,-14.852 0,-12.426 -11.621,-16.465 -22.227,-16.465 -11.718,0 -21.621,4.746 -22.117,17.676 h 8.582" /><path
         id="path50"
         style="fill:#231f20;fill-opacity:1;fill-rule:nonzero;stroke:none"
         d="m 936.969,130.492 h 24.043 c 8.281,0 13.535,5.051 13.535,12.93 0,9.394 -7.57,12.023 -15.656,12.023 h -21.922 z m 0,33.031 h 19.199 c 10.906,0 15.352,3.942 15.352,11.516 0,10 -7.071,11.414 -15.352,11.414 h -19.199 z m -9.59,31.012 h 26.16 c 6.367,0 14.746,0 19.094,-2.625 4.746,-2.828 8.484,-7.98 8.484,-15.051 0,-7.679 -4.043,-13.437 -10.711,-16.16 v -0.207 c 8.895,-1.816 13.739,-8.484 13.739,-17.371 0,-10.605 -7.579,-20.711 -21.922,-20.711 h -34.844 v 72.125" /><path
         id="path52"
         style="fill:#231f20;fill-opacity:1;fill-rule:nonzero;stroke:none"
         d="m 1027.78,149.383 c -3.33,-2.426 -9.8,-2.528 -15.56,-3.535 -5.65,-1.008 -10.51,-3.032 -10.51,-9.395 0,-5.656 4.86,-7.68 10.11,-7.68 11.31,0 15.96,7.071 15.96,11.821 z m 13.93,-26.77 c -1.51,-0.91 -3.42,-1.414 -6.16,-1.414 -4.44,0 -7.26,2.422 -7.26,8.082 -4.75,-5.554 -11.12,-8.082 -18.39,-8.082 -9.49,0 -17.279,4.246 -17.279,14.645 0,11.82 8.789,14.347 17.689,16.066 9.49,1.817 17.57,1.211 17.57,7.676 0,7.473 -6.17,8.684 -11.62,8.684 -7.27,0 -12.62,-2.219 -13.03,-9.895 h -8.585 c 0.507,12.93 10.505,17.473 22.125,17.473 9.39,0 19.59,-2.121 19.59,-14.344 v -26.871 c 0,-4.039 0,-5.86 2.73,-5.86 0.71,0 1.52,0.102 2.62,0.508 v -6.668" /><path
         id="path54"
         style="fill:#231f20;fill-opacity:1;fill-rule:nonzero;stroke:none"
         d="m 1093.22,122.41 h -8.08 v 8.281 h -0.2 c -3.64,-6.464 -9.5,-9.492 -16.98,-9.492 -13.74,0 -17.97,7.879 -17.97,19.094 v 34.34 h 8.58 v -35.352 c 0,-6.363 4.04,-10.508 10.6,-10.508 10.41,0 15.46,6.973 15.46,16.368 v 29.492 h 8.59 V 122.41" /><path
         id="path56"
         style="fill:#231f20;fill-opacity:1;fill-rule:nonzero;stroke:none"
         d="m 1131,168.27 c -11.52,0 -15.97,-9.895 -15.97,-19.696 0,-10.304 4.65,-19.801 16.47,-19.801 11.72,0 15.66,10 15.66,20.207 0,9.797 -5.06,19.29 -16.16,19.29 z m -24.25,26.265 h 8.59 v -26.972 h 0.2 c 2.83,5.757 9.49,8.285 16.67,8.285 16.06,0 24.04,-12.727 24.04,-27.473 0,-14.754 -7.88,-27.176 -23.84,-27.176 -5.35,0 -13.03,2.024 -16.87,8.18 h -0.2 v -6.969 h -8.59 v 72.125" /><path
         id="path58"
         style="fill:#231f20;fill-opacity:1;fill-rule:nonzero;stroke:none"
         d="m 1202.91,153.523 c -0.41,8.18 -6.57,14.747 -15.05,14.747 -8.99,0 -14.35,-6.766 -14.95,-14.747 z m 8.29,-14.543 c -2.33,-11.519 -10.61,-17.781 -22.33,-17.781 -16.67,0 -24.55,11.516 -25.06,27.477 0,15.656 10.31,27.172 24.55,27.172 18.49,0 24.14,-17.274 23.64,-29.903 h -39.09 c -0.31,-9.09 4.85,-17.172 16.26,-17.172 7.08,0 12.03,3.438 13.54,10.207 h 8.49" /><path
         id="path60"
         style="fill:#231f20;fill-opacity:1;fill-rule:nonzero;stroke:none"
         d="m 1272.91,122.41 h -9.1 l -10.6,41.52 H 1253 l -10.5,-41.52 h -9.29 l -16.77,52.223 h 9.49 l 11.82,-42.723 h 0.2 l 10.51,42.723 h 9.4 l 10.9,-42.723 h 0.21 l 11.71,42.723 h 8.9 l -16.67,-52.223" /><path
         id="path62"
         style="fill:#231f20;fill-opacity:1;fill-rule:nonzero;stroke:none"
         d="m 1298.55,174.633 h 8.58 V 122.41 h -8.58 z m 8.58,9.394 h -8.58 v 10.508 h 8.58 v -10.508" /><path
         id="path64"
         style="fill:#231f20;fill-opacity:1;fill-rule:nonzero;stroke:none"
         d="m 1321.27,194.535 h 8.59 V 122.41 h -8.59 v 72.125" /><path
         id="path66"
         style="fill:#231f20;fill-opacity:1;fill-rule:nonzero;stroke:none"
         d="m 1344,194.535 h 8.58 V 122.41 H 1344 v 72.125" /><path
         id="path68"
         style="fill:#231f20;fill-opacity:1;fill-rule:nonzero;stroke:none"
         d="m 1366.72,174.633 h 8.59 V 122.41 h -8.59 z m 8.59,9.394 h -8.59 v 10.508 h 8.59 v -10.508" /><path
         id="path70"
         style="fill:#231f20;fill-opacity:1;fill-rule:nonzero;stroke:none"
         d="m 1425.5,149.586 c 0,9.191 -4.03,18.684 -14.84,18.684 -11.02,0 -15.46,-8.989 -15.46,-18.989 0,-9.394 3.44,-19.902 14.75,-19.902 11.31,0 15.55,10.406 15.55,20.207 z m 8.49,-22.731 c 0,-16.968 -7.77,-25.656 -24.24,-25.656 -9.8,0 -21.11,3.938 -21.62,15.352 h 8.58 c 0.41,-6.258 7.88,-8.485 13.55,-8.485 11.21,0 15.65,8.082 15.65,19.801 v 3.43 h -0.2 c -2.83,-6.359 -9.7,-9.492 -16.26,-9.492 -15.56,0 -23.34,12.222 -23.34,26.465 0,12.324 6.06,27.578 24.15,27.578 6.56,0 12.42,-2.93 15.55,-8.684 h -0.1 0.2 v 7.469 h 8.08 v -47.778" /><path
         id="path72"
         style="fill:#231f20;fill-opacity:1;fill-rule:nonzero;stroke:none"
         d="m 1490.44,122.41 h -8.07 v 8.281 h -0.21 c -3.63,-6.464 -9.49,-9.492 -16.97,-9.492 -13.74,0 -17.98,7.879 -17.98,19.094 v 34.34 h 8.59 v -35.352 c 0,-6.363 4.04,-10.508 10.6,-10.508 10.41,0 15.46,6.973 15.46,16.368 v 29.492 h 8.58 V 122.41" /><path
         id="path74"
         style="fill:#231f20;fill-opacity:1;fill-rule:nonzero;stroke:none"
         d="m 1503.67,174.633 h 8.07 v -8.281 h 0.21 c 3.64,6.464 9.5,9.496 16.97,9.496 13.74,0 17.98,-7.879 17.98,-19.09 V 122.41 h -8.58 v 35.36 c 0,6.359 -4.05,10.5 -10.61,10.5 -10.41,0 -15.46,-6.965 -15.46,-16.36 v -29.5 h -8.58 v 52.223" /><path
         id="path76"
         style="fill:#231f20;fill-opacity:1;fill-rule:nonzero;stroke:none"
         d="m 1596.69,149.586 c 0,9.191 -4.03,18.684 -14.84,18.684 -11.02,0 -15.46,-8.989 -15.46,-18.989 0,-9.394 3.44,-19.902 14.75,-19.902 11.32,0 15.55,10.406 15.55,20.207 z m 8.49,-22.731 c 0,-16.968 -7.77,-25.656 -24.24,-25.656 -9.8,0 -21.11,3.938 -21.62,15.352 h 8.59 c 0.41,-6.258 7.88,-8.485 13.54,-8.485 11.21,0 15.65,8.082 15.65,19.801 v 3.43 h -0.2 c -2.83,-6.359 -9.7,-9.492 -16.26,-9.492 -15.56,0 -23.34,12.222 -23.34,26.465 0,12.324 6.06,27.578 24.15,27.578 6.56,0 12.42,-2.93 15.55,-8.684 h -0.1 0.2 v 7.469 h 8.08 v -47.778" /><path
         id="path78"
         style="fill:#231f20;fill-opacity:1;fill-rule:nonzero;stroke:none"
         d="m 1623.66,138.875 c 0.3,-7.676 6.97,-10.102 14.04,-10.102 5.35,0 12.63,1.215 12.63,7.778 0,6.672 -8.49,7.781 -17.07,9.699 -8.49,1.918 -17.08,4.75 -17.08,14.75 0,10.504 10.41,14.848 19.5,14.848 11.51,0 20.7,-3.637 21.41,-16.368 h -8.59 c -0.6,6.672 -6.46,8.79 -12.12,8.79 -5.14,0 -11.11,-1.415 -11.11,-6.665 0,-6.16 9.09,-7.171 17.07,-9.089 8.59,-1.922 17.08,-4.746 17.08,-14.852 0,-12.426 -11.62,-16.465 -22.23,-16.465 -11.72,0 -21.62,4.746 -22.12,17.676 h 8.59" /><path
         id="path80"
         style="fill:#231f20;fill-opacity:1;fill-rule:nonzero;stroke:none"
         d="m 1692.75,122.41 h -9.19 l -19.39,52.223 h 9.58 l 14.65,-43.535 h 0.21 l 14.24,43.535 h 8.99 l -19.09,-52.223" /><path
         id="path82"
         style="fill:#231f20;fill-opacity:1;fill-rule:nonzero;stroke:none"
         d="m 1756.27,153.523 c -0.4,8.18 -6.56,14.747 -15.04,14.747 -8.99,0 -14.35,-6.766 -14.96,-14.747 z m 8.3,-14.543 c -2.33,-11.519 -10.62,-17.781 -22.33,-17.781 -16.67,0 -24.55,11.516 -25.06,27.477 0,15.656 10.31,27.172 24.55,27.172 18.49,0 24.14,-17.274 23.64,-29.903 h -39.1 c -0.3,-9.09 4.86,-17.172 16.27,-17.172 7.07,0 12.03,3.438 13.54,10.207 h 8.49" /><path
         id="path84"
         style="fill:#231f20;fill-opacity:1;fill-rule:nonzero;stroke:none"
         d="m 1774.25,174.633 h 8.08 v -11.012 h 0.2 c 4.14,8.391 9.91,12.531 19.19,12.227 v -9.09 c -13.83,0 -18.88,-7.883 -18.88,-21.113 V 122.41 h -8.59 v 52.223" /><path
         id="path86"
         style="fill:#231f20;fill-opacity:1;fill-rule:nonzero;stroke:none"
         d="m 1812.02,167.059 h -8.79 v 7.574 h 8.79 v 7.777 c 0,8.488 5.05,12.93 14.44,12.93 1.62,0 3.95,-0.301 5.56,-0.805 v -7.476 c -1.52,0.504 -3.33,0.711 -4.85,0.711 -4.14,0 -6.57,-1.317 -6.57,-5.86 v -7.277 h 10.11 v -7.574 H 1820.6 V 122.41 h -8.58 v 44.649" /><path
         id="path88"
         style="fill:#231f20;fill-opacity:1;fill-rule:nonzero;stroke:none"
         d="m 1871.01,149.383 c -3.33,-2.426 -9.79,-2.528 -15.56,-3.535 -5.65,-1.008 -10.5,-3.032 -10.5,-9.395 0,-5.656 4.85,-7.68 10.1,-7.68 11.31,0 15.96,7.071 15.96,11.821 z m 13.94,-26.77 c -1.52,-0.91 -3.43,-1.414 -6.17,-1.414 -4.44,0 -7.26,2.422 -7.26,8.082 -4.75,-5.554 -11.11,-8.082 -18.39,-8.082 -9.49,0 -17.28,4.246 -17.28,14.645 0,11.82 8.79,14.347 17.69,16.066 9.49,1.817 17.57,1.211 17.57,7.676 0,7.473 -6.16,8.684 -11.61,8.684 -7.28,0 -12.63,-2.219 -13.04,-9.895 h -8.58 c 0.5,12.93 10.5,17.473 22.12,17.473 9.4,0 19.59,-2.121 19.59,-14.344 v -26.871 c 0,-4.039 0,-5.86 2.74,-5.86 0.7,0 1.51,0.102 2.62,0.508 v -6.668" /><path
         id="path90"
         style="fill:#231f20;fill-opacity:1;fill-rule:nonzero;stroke:none"
         d="m 1893.23,194.535 h 8.58 v -27.578 h 0.21 c 2.83,6.266 10.2,8.891 16.46,8.891 13.74,0 17.98,-7.879 17.98,-19.09 V 122.41 h -8.58 v 35.36 c 0,6.359 -4.05,10.5 -10.61,10.5 -10.41,0 -15.46,-6.965 -15.46,-16.36 v -29.5 h -8.58 v 72.125" /><path
         id="path92"
         style="fill:#231f20;fill-opacity:1;fill-rule:nonzero;stroke:none"
         d="m 1949.38,174.633 h 8.08 v -11.012 h 0.2 c 4.14,8.391 9.9,12.531 19.19,12.227 v -9.09 c -13.84,0 -18.89,-7.883 -18.89,-21.113 V 122.41 h -8.58 v 52.223" /><path
         id="path94"
         style="fill:#231f20;fill-opacity:1;fill-rule:nonzero;stroke:none"
         d="m 2018.08,153.523 c -0.4,8.18 -6.56,14.747 -15.05,14.747 -8.98,0 -14.34,-6.766 -14.95,-14.747 z m 8.29,-14.543 c -2.32,-11.519 -10.6,-17.781 -22.32,-17.781 -16.67,0 -24.55,11.516 -25.06,27.477 0,15.656 10.3,27.172 24.55,27.172 18.49,0 24.14,-17.274 23.63,-29.903 h -39.09 c -0.3,-9.09 4.85,-17.172 16.27,-17.172 7.07,0 12.02,3.438 13.54,10.207 h 8.48" /><path
         id="path96"
         style="fill:#231f20;fill-opacity:1;fill-rule:nonzero;stroke:none"
         d="m 2036.35,174.633 h 8.09 v -8.281 h 0.19 c 3.65,6.464 9.5,9.496 16.98,9.496 13.74,0 17.97,-7.879 17.97,-19.09 V 122.41 H 2071 v 35.36 c 0,6.359 -4.04,10.5 -10.6,10.5 -10.41,0 -15.46,-6.965 -15.46,-16.36 v -29.5 h -8.59 v 52.223" /><path
         id="path98"
         style="fill:#231f20;fill-opacity:1;fill-rule:nonzero;stroke:none"
         d="m 237.242,53.4336 h 8.582 V 1.21094 h -8.582 z m 8.582,9.3945 h -8.582 v 10.5078 h 8.582 V 62.8281" /><path
         id="path100"
         style="fill:#231f20;fill-opacity:1;fill-rule:nonzero;stroke:none"
         d="m 259.457,53.4336 h 8.086 v -7.6758 h 0.195 c 3.84,5.8594 9.7,8.8906 16.875,8.8906 6.36,0 12.219,-2.5312 14.336,-8.8906 3.535,5.5547 9.699,8.8906 16.367,8.8906 10.411,0 17.375,-4.3476 17.375,-15.1523 V 1.21094 h -8.586 V 35.4531 c 0,6.4649 -1.718,11.6172 -10.097,11.6172 -8.289,0 -13.641,-5.2539 -13.641,-13.3359 V 1.21094 h -8.586 V 35.4531 c 0,6.7696 -2.117,11.6172 -9.793,11.6172 -10.207,0 -13.945,-9.3945 -13.945,-13.3359 V 1.21094 h -8.586 V 53.4336" /><path
         id="path102"
         style="fill:#231f20;fill-opacity:1;fill-rule:nonzero;stroke:none"
         d="m 375.707,73.3359 h 9.59 V 37.3711 l 36.574,35.9648 h 12.422 L 403.891,44.2422 435.504,1.21094 H 423.383 L 397.32,37.6758 385.297,26.4648 V 1.21094 h -9.59 V 73.3359" /><path
         id="path104"
         style="fill:#231f20;fill-opacity:1;fill-rule:nonzero;stroke:none"
         d="m 474.281,28.1836 c -3.328,-2.4258 -9.793,-2.5313 -15.554,-3.5352 -5.657,-1.0117 -10.508,-3.0312 -10.508,-9.3945 0,-5.66015 4.851,-7.67968 10.105,-7.67968 11.309,0 15.957,7.07028 15.957,11.82028 z M 488.219,1.41016 C 486.703,0.503906 484.789,0 482.055,0 477.613,0 474.789,2.42188 474.789,8.08203 470.043,2.52344 463.676,0 456.402,0 c -9.492,0 -17.277,4.24219 -17.277,14.6445 0,11.8203 8.789,14.3438 17.688,16.0625 9.492,1.8164 17.566,1.211 17.566,7.6758 0,7.4766 -6.16,8.6875 -11.609,8.6875 -7.278,0 -12.629,-2.2226 -13.04,-9.8984 h -8.582 c 0.508,12.9297 10.508,17.4765 22.129,17.4765 9.383,0 19.59,-2.125 19.59,-14.3476 V 13.4336 c 0,-4.03907 0,-5.85938 2.723,-5.85938 0.715,0 1.523,0.10156 2.629,0.50781 V 1.41016" /><path
         id="path106"
         style="fill:#231f20;fill-opacity:1;fill-rule:nonzero;stroke:none"
         d="m 496.5,53.4336 h 8.074 v -8.2813 h 0.207 c 3.641,6.4649 9.5,9.4961 16.973,9.4961 13.738,0 17.976,-7.8828 17.976,-19.0937 V 1.21094 h -8.582 V 36.5664 c 0,6.3633 -4.043,10.5039 -10.605,10.5039 -10.41,0 -15.461,-6.9687 -15.461,-16.3633 V 1.21094 H 496.5 V 53.4336" /><path
         id="path108"
         style="fill:#231f20;fill-opacity:1;fill-rule:nonzero;stroke:none"
         d="m 564.887,53.4336 h 10.402 V 45.8594 H 564.887 V 13.4336 c 0,-3.94141 1.105,-4.64454 6.465,-4.64454 h 3.937 V 1.21094 h -6.562 c -8.899,0 -12.434,1.8164 -12.434,11.41406 v 33.2344 h -8.887 v 7.5742 h 8.887 v 15.6562 h 8.594 V 53.4336" /><path
         id="path110"
         style="fill:#231f20;fill-opacity:1;fill-rule:nonzero;stroke:none"
         d="m 607.602,7.57422 c 8.984,0 16.261,7.07028 16.261,19.69528 0,12.7305 -7.277,19.8008 -16.261,19.8008 -8.993,0 -16.27,-7.0703 -16.27,-19.8008 0,-12.625 7.277,-19.69528 16.27,-19.69528 z m 0,47.07418 c 16.562,0 25.351,-12.0234 25.351,-27.3789 C 632.953,12.0195 624.164,0 607.602,0 c -16.571,0 -25.36,12.0195 -25.36,27.2695 0,15.3555 8.789,27.3789 25.36,27.3789" /><path
         id="path112"
         style="fill:#231f20;fill-opacity:1;fill-rule:nonzero;stroke:none"
         d="m 643.355,53.4336 h 8.075 v -8.2813 h 0.207 c 3.64,6.4649 9.5,9.4961 16.972,9.4961 13.739,0 17.977,-7.8828 17.977,-19.0937 V 1.21094 h -8.582 V 36.5664 c 0,6.3633 -4.043,10.5039 -10.606,10.5039 -10.41,0 -15.46,-6.9687 -15.46,-16.3633 V 1.21094 h -8.583 V 53.4336" /><path
         id="path114"
         style="fill:#231f20;fill-opacity:1;fill-rule:nonzero;stroke:none"
         d="m 739.195,9.29297 h 24.043 c 8.282,0 13.535,5.04683 13.535,12.92973 0,9.3945 -7.57,12.0195 -15.656,12.0195 h -21.922 z m 0,33.03123 h 19.2 c 10.906,0 15.351,3.9414 15.351,11.5117 0,10 -7.07,11.418 -15.351,11.418 h -19.2 z m -9.59,31.0117 h 26.161 c 6.367,0 14.746,0 19.093,-2.6289 4.746,-2.8281 8.485,-7.9765 8.485,-15.0468 0,-7.6836 -4.043,-13.4375 -10.711,-16.1641 V 39.293 c 8.894,-1.8164 13.738,-8.4883 13.738,-17.375 0,-10.6055 -7.578,-20.70706 -21.922,-20.70706 H 729.605 V 73.3359" /><path
         id="path116"
         style="fill:#231f20;fill-opacity:1;fill-rule:nonzero;stroke:none"
         d="m 833.941,32.3242 c -0.402,8.1797 -6.562,14.7461 -15.05,14.7461 -8.985,0 -14.344,-6.7695 -14.95,-14.7461 z M 842.23,17.7773 C 839.906,6.25781 831.625,0 819.906,0 c -16.668,0 -24.551,11.5117 -25.058,27.4766 0,15.6523 10.304,27.1718 24.55,27.1718 18.489,0 24.141,-17.2773 23.633,-29.9023 h -39.09 c -0.304,-9.0938 4.852,-17.17188 16.27,-17.17188 7.07,0 12.019,3.43748 13.535,10.20308 h 8.484" /><path
         id="path118"
         style="fill:#231f20;fill-opacity:1;fill-rule:nonzero;stroke:none"
         d="m 851.918,53.4336 h 8.078 V 42.4219 h 0.203 c 4.141,8.3867 9.903,12.5273 19.192,12.2265 v -9.0937 c -13.84,0 -18.887,-7.8789 -18.887,-21.1133 V 1.21094 h -8.586 V 53.4336" /><path
         id="path120"
         style="fill:#231f20;fill-opacity:1;fill-rule:nonzero;stroke:none"
         d="m 887.953,53.4336 h 8.086 v -8.2813 h 0.195 c 3.645,6.4649 9.493,9.4961 16.973,9.4961 13.742,0 17.981,-7.8828 17.981,-19.0937 V 1.21094 h -8.586 V 36.5664 c 0,6.3633 -4.043,10.5039 -10.606,10.5039 -10.41,0 -15.457,-6.9687 -15.457,-16.3633 V 1.21094 h -8.586 V 53.4336" /></g></g></svg>