<?xml version="1.0" encoding="UTF-8" standalone="no"?>
<svg
   xmlns:dc="http://purl.org/dc/elements/1.1/"
   xmlns:cc="http://creativecommons.org/ns#"
   xmlns:rdf="http://www.w3.org/1999/02/22-rdf-syntax-ns#"
   xmlns:svg="http://www.w3.org/2000/svg"
   xmlns="http://www.w3.org/2000/svg"
   viewBox="0 0 286.29333 76.26667"
   height="76.26667"
   width="286.29333"
   xml:space="preserve"
   id="svg2"
   version="1.1"><metadata
     id="metadata8"><rdf:RDF><cc:Work
         rdf:about=""><dc:format>image/svg+xml</dc:format><dc:type
           rdf:resource="http://purl.org/dc/dcmitype/StillImage" /></cc:Work></rdf:RDF></metadata><defs
     id="defs6" /><g
     transform="matrix(1.3333333,0,0,-1.3333333,0,76.266667)"
     id="g10"><g
       transform="scale(0.1)"
       id="g12"><path
         id="path14"
         style="fill:#ed1c24;fill-opacity:1;fill-rule:nonzero;stroke:none"
         d="m 140.98,423.613 c -1.113,21.453 -16.285,39.219 -37.371,39.219 -22.2027,0 -37.0035,-15.91 -40.7027,-39.219 z M 62.9063,388.457 c 1.1093,-26.269 16.2773,-43.66 42.9177,-43.66 15.172,0 29.977,7.027 35.895,21.09 h 58.832 C 189.082,321.484 148.012,302.246 105.09,302.246 42.5547,302.246 0,339.98 0,404.363 c 0,58.84 46.9922,101.028 103.609,101.028 68.825,0 103.239,-51.805 100.274,-116.934 H 62.9063" /><path
         id="path16"
         style="fill:#231f20;fill-opacity:1;fill-rule:nonzero;stroke:none"
         d="m 306.734,362.93 h 55.137 c 21.828,0 37,7.761 37,29.597 0,23.313 -16.281,31.086 -37,31.086 h -55.137 z m 0,105.086 h 53.286 c 11.839,0 28.121,6.289 28.121,25.156 0,19.25 -13.692,25.539 -28.121,25.539 H 306.734 Z M 237.91,571.992 H 361.5 c 45.512,0.742 95.469,-11.105 95.469,-66.242 0,-23.68 -14.063,-42.918 -34.785,-53.281 28.121,-8.133 45.511,-32.559 45.511,-62.528 0,-62.91 -46.254,-82.148 -102.867,-82.148 H 237.91 v 264.199" /><path
         id="path18"
         style="fill:#231f20;fill-opacity:1;fill-rule:nonzero;stroke:none"
         d="m 581.27,341.094 c 29.968,0 39.96,17.019 38.48,56.609 -8.883,-5.547 -25.16,-6.656 -38.852,-10.359 -14.062,-3.332 -25.902,-9.25 -25.902,-24.414 0,-15.547 12.211,-21.836 26.274,-21.836 z m -81.407,99.539 c 1.11,25.16 12.95,41.437 29.973,51.437 17.019,9.618 39.223,13.321 61.055,13.321 45.511,0 89.543,-9.993 89.543,-64.387 v -84 c 0,-16.281 0,-34.035 7.402,-49.211 h -63.273 c -2.219,5.918 -2.961,11.844 -3.7,18.133 -16.285,-17.02 -40.336,-23.68 -63.273,-23.68 -36.633,0 -65.496,18.496 -65.496,58.086 0,62.539 68.082,57.723 111.75,66.609 10.726,2.219 16.648,5.918 16.648,17.766 0,14.422 -17.39,19.981 -30.34,19.981 -17.394,0 -28.492,-7.774 -31.457,-24.055 h -58.832" /><path
         id="path20"
         style="fill:#231f20;fill-opacity:1;fill-rule:nonzero;stroke:none"
         d="m 912.789,307.793 h -61.051 v 26.27 h -0.742 c -11.84,-19.61 -36.262,-31.817 -58.461,-31.817 -55.137,0 -71.047,31.817 -71.047,82.137 v 115.449 h 62.907 V 388.457 c 0,-25.527 11.097,-34.414 31.078,-34.414 13.691,0 34.414,8.887 34.414,42.93 v 102.859 h 62.902 V 307.793" /><path
         id="path22"
         style="fill:#231f20;fill-opacity:1;fill-rule:nonzero;stroke:none"
         d="m 246.594,159.988 h 18.789 c 10.808,-0.101 15.762,4.645 15.762,13.235 0,8.582 -4.954,13.23 -15.762,13.23 h -18.789 z m -9.59,34.547 h 31.609 c 14.348,0 22.129,-7.976 22.129,-21.312 0,-13.336 -7.781,-21.418 -22.129,-21.313 h -22.019 v -29.5 h -9.59 v 72.125" /><path
         id="path24"
         style="fill:#231f20;fill-opacity:1;fill-rule:nonzero;stroke:none"
         d="m 301.238,174.633 h 8.078 v -11.012 h 0.204 c 4.14,8.391 9.906,12.531 19.191,12.227 v -9.09 c -13.84,0 -18.887,-7.879 -18.887,-21.113 V 122.41 h -8.586 v 52.223" /><path
         id="path26"
         style="fill:#231f20;fill-opacity:1;fill-rule:nonzero;stroke:none"
         d="m 356.406,128.773 c 8.985,0 16.262,7.071 16.262,19.7 0,12.726 -7.277,19.797 -16.262,19.797 -8.996,0 -16.269,-7.071 -16.269,-19.797 0,-12.629 7.273,-19.7 16.269,-19.7 z m 0,47.075 c 16.563,0 25.352,-12.02 25.352,-27.375 0,-15.25 -8.789,-27.274 -25.352,-27.274 -16.57,0 -25.359,12.024 -25.359,27.274 0,15.355 8.789,27.375 25.359,27.375" /><path
         id="path28"
         style="fill:#231f20;fill-opacity:1;fill-rule:nonzero;stroke:none"
         d="m 427.813,157.867 c -1.321,6.567 -5.86,10.403 -12.93,10.403 -12.434,0 -16.27,-9.797 -16.27,-20.403 0,-9.597 4.348,-19.094 15.254,-19.094 8.281,0 13.235,4.848 14.348,12.731 h 8.789 c -1.926,-12.731 -9.902,-20.305 -23.027,-20.305 -15.969,0 -24.457,11.11 -24.457,26.668 0,15.656 8.085,27.981 24.652,27.981 11.812,0 21.316,-5.555 22.527,-17.981 h -8.886" /><path
         id="path30"
         style="fill:#231f20;fill-opacity:1;fill-rule:nonzero;stroke:none"
         d="m 470.32,196.254 h 11.02 l -13.242,-14.449 h -6.465 z m 13.032,-42.731 c -0.403,8.18 -6.567,14.747 -15.051,14.747 -8.985,0 -14.348,-6.766 -14.949,-14.747 z m 8.289,-14.543 c -2.325,-11.519 -10.618,-17.781 -22.325,-17.781 -16.671,0 -24.55,11.516 -25.058,27.477 0,15.656 10.305,27.172 24.551,27.172 18.488,0 24.14,-17.274 23.632,-29.903 h -39.089 c -0.305,-9.09 4.851,-17.172 16.265,-17.172 7.071,0 12.024,3.438 13.535,10.207 h 8.489" /><path
         id="path32"
         style="fill:#231f20;fill-opacity:1;fill-rule:nonzero;stroke:none"
         d="m 524.258,128.773 c 11.512,0 15.969,9.903 15.969,19.7 0,10.304 -4.653,19.797 -16.465,19.797 -11.719,0 -15.664,-10 -15.664,-20.2 0,-9.8 5.054,-19.297 16.16,-19.297 z m 24.25,-6.363 h -8.586 v 7.07 h -0.203 c -2.832,-5.753 -9.492,-8.281 -16.672,-8.281 -16.055,0 -24.043,12.727 -24.043,27.477 0,14.746 7.883,27.172 23.84,27.172 5.359,0 13.035,-2.02 16.875,-8.184 h 0.203 v 26.871 h 8.586 V 122.41" /><path
         id="path34"
         style="fill:#231f20;fill-opacity:1;fill-rule:nonzero;stroke:none"
         d="m 605.461,122.41 h -8.078 v 8.281 h -0.203 c -3.633,-6.464 -9.492,-9.492 -16.977,-9.492 -13.738,0 -17.976,7.879 -17.976,19.094 v 34.34 h 8.586 v -35.352 c 0,-6.359 4.042,-10.508 10.605,-10.508 10.406,0 15.457,6.973 15.457,16.368 v 29.492 h 8.586 V 122.41" /><path
         id="path36"
         style="fill:#231f20;fill-opacity:1;fill-rule:nonzero;stroke:none"
         d="m 618.594,174.633 h 8.078 v -11.012 h 0.203 c 4.141,8.391 9.902,12.531 19.188,12.227 v -9.09 c -13.836,0 -18.883,-7.879 -18.883,-21.113 V 122.41 h -8.586 v 52.223" /><path
         id="path38"
         style="fill:#231f20;fill-opacity:1;fill-rule:nonzero;stroke:none"
         d="m 687.488,153.523 c -0.398,8.18 -6.558,14.747 -15.047,14.747 -8.984,0 -14.343,-6.766 -14.953,-14.747 z m 8.293,-14.543 c -2.324,-11.519 -10.613,-17.781 -22.324,-17.781 -16.672,0 -24.551,11.516 -25.059,27.477 0,15.656 10.301,27.172 24.551,27.172 18.489,0 24.141,-17.274 23.633,-29.903 h -39.094 c -0.3,-9.09 4.856,-17.172 16.274,-17.172 7.066,0 12.019,3.438 13.535,10.207 h 8.484" /><path
         id="path40"
         style="fill:#231f20;fill-opacity:1;fill-rule:nonzero;stroke:none"
         d="m 757.781,196.254 h 11.02 l -13.242,-14.449 h -6.465 z m 13.032,-42.731 c -0.403,8.18 -6.567,14.747 -15.051,14.747 -8.985,0 -14.344,-6.766 -14.949,-14.747 z m 8.289,-14.543 c -2.325,-11.519 -10.618,-17.781 -22.325,-17.781 -16.672,0 -24.55,11.516 -25.058,27.477 0,15.656 10.301,27.172 24.551,27.172 18.488,0 24.14,-17.274 23.632,-29.903 h -39.089 c -0.305,-9.09 4.851,-17.172 16.265,-17.172 7.07,0 12.024,3.438 13.535,10.207 h 8.489" /><path
         id="path42"
         style="fill:#231f20;fill-opacity:1;fill-rule:nonzero;stroke:none"
         d="m 789.805,194.535 h 8.586 V 122.41 h -8.586 v 72.125" /><path
         id="path44"
         style="fill:#231f20;fill-opacity:1;fill-rule:nonzero;stroke:none"
         d="m 848.477,153.523 c -0.403,8.18 -6.563,14.747 -15.047,14.747 -8.989,0 -14.348,-6.766 -14.953,-14.747 z m 8.293,-14.543 c -2.329,-11.519 -10.61,-17.781 -22.329,-17.781 -16.668,0 -24.546,11.516 -25.054,27.477 0,15.656 10.301,27.172 24.551,27.172 18.484,0 24.136,-17.274 23.628,-29.903 h -39.089 c -0.301,-9.09 4.851,-17.172 16.269,-17.172 7.07,0 12.024,3.438 13.535,10.207 h 8.489" /><path
         id="path46"
         style="fill:#231f20;fill-opacity:1;fill-rule:nonzero;stroke:none"
         d="m 902.422,157.867 c -1.317,6.567 -5.859,10.403 -12.93,10.403 -12.429,0 -16.269,-9.797 -16.269,-20.403 0,-9.597 4.343,-19.094 15.254,-19.094 8.281,0 13.234,4.848 14.343,12.731 h 8.789 c -1.921,-12.731 -9.898,-20.305 -23.023,-20.305 -15.969,0 -24.453,11.11 -24.453,26.668 0,15.656 8.086,27.981 24.644,27.981 11.821,0 21.321,-5.555 22.532,-17.981 h -8.887" /><path
         id="path48"
         style="fill:#231f20;fill-opacity:1;fill-rule:nonzero;stroke:none"
         d="m 933.621,174.633 h 10.402 v -7.574 h -10.402 v -32.426 c 0,-3.942 1.106,-4.645 6.469,-4.645 h 3.933 v -7.578 h -6.562 c -8.898,0 -12.434,1.817 -12.434,11.418 v 33.231 h -8.882 v 7.574 h 8.882 v 15.66 h 8.594 v -15.66" /><path
         id="path50"
         style="fill:#231f20;fill-opacity:1;fill-rule:nonzero;stroke:none"
         d="m 953.723,174.633 h 8.074 v -11.012 h 0.207 c 4.141,8.391 9.898,12.531 19.187,12.227 v -9.09 c -13.836,0 -18.886,-7.879 -18.886,-21.113 V 122.41 h -8.582 v 52.223" /><path
         id="path52"
         style="fill:#231f20;fill-opacity:1;fill-rule:nonzero;stroke:none"
         d="m 1008.89,128.773 c 8.98,0 16.26,7.071 16.26,19.7 0,12.726 -7.28,19.797 -16.26,19.797 -8.995,0 -16.273,-7.071 -16.273,-19.797 0,-12.629 7.278,-19.7 16.273,-19.7 z m 0,47.075 c 16.56,0 25.35,-12.02 25.35,-27.375 0,-15.25 -8.79,-27.274 -25.35,-27.274 -16.577,0 -25.367,12.024 -25.367,27.274 0,15.355 8.79,27.375 25.367,27.375" /><path
         id="path54"
         style="fill:#231f20;fill-opacity:1;fill-rule:nonzero;stroke:none"
         d="m 1044.83,174.633 h 8.09 v -8.281 h 0.2 c 3.64,6.464 9.49,9.496 16.97,9.496 13.74,0 17.98,-7.879 17.98,-19.09 V 122.41 h -8.59 v 35.36 c 0,6.359 -4.04,10.5 -10.6,10.5 -10.41,0 -15.46,-6.965 -15.46,-16.36 v -29.5 h -8.59 v 52.223" /><path
         id="path56"
         style="fill:#231f20;fill-opacity:1;fill-rule:nonzero;stroke:none"
         d="m 1102,174.633 h 8.59 V 122.41 H 1102 Z m 8.59,9.394 H 1102 v 10.508 h 8.59 v -10.508" /><path
         id="path58"
         style="fill:#231f20;fill-opacity:1;fill-rule:nonzero;stroke:none"
         d="m 1146.85,128.773 c 11.52,0 15.96,9.903 15.96,19.7 0,10.304 -4.65,19.797 -16.46,19.797 -11.72,0 -15.67,-10 -15.67,-20.2 0,-9.8 5.05,-19.297 16.17,-19.297 z m 24.24,-26.363 h -8.58 v 27.07 h -0.21 c -2.83,-5.753 -9.49,-8.281 -16.67,-8.281 -16.05,0 -24.04,12.727 -24.04,27.477 0,14.746 7.88,27.172 23.85,27.172 5.35,0 13.03,-2.02 16.86,-8.184 h 0.21 v 6.969 h 8.58 V 102.41" /><path
         id="path60"
         style="fill:#231f20;fill-opacity:1;fill-rule:nonzero;stroke:none"
         d="m 1228.05,122.41 h -8.08 v 8.281 h -0.2 c -3.64,-6.464 -9.5,-9.492 -16.98,-9.492 -13.74,0 -17.98,7.879 -17.98,19.094 v 34.34 h 8.59 v -35.352 c 0,-6.359 4.04,-10.508 10.6,-10.508 10.41,0 15.46,6.973 15.46,16.368 v 29.492 h 8.59 V 122.41" /><path
         id="path62"
         style="fill:#231f20;fill-opacity:1;fill-rule:nonzero;stroke:none"
         d="m 1277.74,153.523 c -0.41,8.18 -6.56,14.747 -15.06,14.747 -8.98,0 -14.34,-6.766 -14.95,-14.747 z m 8.28,-14.543 c -2.32,-11.519 -10.6,-17.781 -22.32,-17.781 -16.67,0 -24.55,11.516 -25.06,27.477 0,15.656 10.31,27.172 24.55,27.172 18.49,0 24.14,-17.274 23.63,-29.903 h -39.09 c -0.3,-9.09 4.86,-17.172 16.28,-17.172 7.07,0 12.01,3.438 13.53,10.207 h 8.48" /><path
         id="path64"
         style="fill:#231f20;fill-opacity:1;fill-rule:nonzero;stroke:none"
         d="m 1347.23,128.773 c 11.51,0 15.96,9.903 15.96,19.7 0,10.304 -4.65,19.797 -16.47,19.797 -11.72,0 -15.66,-10 -15.66,-20.2 0,-9.8 5.06,-19.297 16.17,-19.297 z m 24.24,-6.363 h -8.57 v 7.07 h -0.22 c -2.83,-5.753 -9.49,-8.281 -16.66,-8.281 -16.05,0 -24.04,12.727 -24.04,27.477 0,14.746 7.87,27.172 23.83,27.172 5.37,0 13.04,-2.02 16.87,-8.184 h 0.22 v 26.871 h 8.57 V 122.41" /><path
         id="path66"
         style="fill:#231f20;fill-opacity:1;fill-rule:nonzero;stroke:none"
         d="m 1387.11,194.535 h 11.22 v -11.211 c 0,-7.984 -3.34,-14.847 -11.12,-14.847 v 5.046 c 4.55,0 5.86,5.153 5.86,9.801 h -5.96 v 11.211" /><path
         id="path68"
         style="fill:#231f20;fill-opacity:1;fill-rule:nonzero;stroke:none"
         d="m 1436.31,128.773 c 8.99,0 16.25,7.071 16.25,19.7 0,12.726 -7.26,19.797 -16.25,19.797 -9,0 -16.27,-7.071 -16.27,-19.797 0,-12.629 7.27,-19.7 16.27,-19.7 z m 0,47.075 c 16.57,0 25.36,-12.02 25.36,-27.375 0,-15.25 -8.79,-27.274 -25.36,-27.274 -16.58,0 -25.37,12.024 -25.37,27.274 0,15.355 8.79,27.375 25.37,27.375" /><path
         id="path70"
         style="fill:#231f20;fill-opacity:1;fill-rule:nonzero;stroke:none"
         d="m 1507.72,157.867 c -1.33,6.567 -5.86,10.403 -12.93,10.403 -12.44,0 -16.27,-9.797 -16.27,-20.403 0,-9.597 4.34,-19.094 15.25,-19.094 8.29,0 13.23,4.848 14.34,12.731 h 8.79 c -1.91,-12.731 -9.9,-20.305 -23.03,-20.305 -15.95,0 -24.45,11.11 -24.45,26.668 0,15.656 8.08,27.981 24.65,27.981 11.81,0 21.33,-5.555 22.54,-17.981 h -8.89" /><path
         id="path72"
         style="fill:#231f20;fill-opacity:1;fill-rule:nonzero;stroke:none"
         d="m 1538.93,174.633 h 10.39 v -7.574 h -10.39 v -32.426 c 0,-3.942 1.09,-4.645 6.47,-4.645 h 3.92 v -7.578 h -6.56 c -8.89,0 -12.42,1.817 -12.42,11.418 v 33.231 h -8.89 v 7.574 h 8.89 v 15.66 h 8.59 v -15.66" /><path
         id="path74"
         style="fill:#231f20;fill-opacity:1;fill-rule:nonzero;stroke:none"
         d="m 1559.01,174.633 h 8.08 v -11.012 h 0.2 c 4.14,8.391 9.9,12.531 19.2,12.227 v -9.09 c -13.85,0 -18.89,-7.879 -18.89,-21.113 V 122.41 h -8.59 v 52.223" /><path
         id="path76"
         style="fill:#231f20;fill-opacity:1;fill-rule:nonzero;stroke:none"
         d="m 1614.18,128.773 c 8.99,0 16.27,7.071 16.27,19.7 0,12.726 -7.28,19.797 -16.27,19.797 -8.98,0 -16.26,-7.071 -16.26,-19.797 0,-12.629 7.28,-19.7 16.26,-19.7 z m 0,47.075 c 16.57,0 25.36,-12.02 25.36,-27.375 0,-15.25 -8.79,-27.274 -25.36,-27.274 -16.56,0 -25.35,12.024 -25.35,27.274 0,15.355 8.79,27.375 25.35,27.375" /><path
         id="path78"
         style="fill:#231f20;fill-opacity:1;fill-rule:nonzero;stroke:none"
         d="m 1650.65,174.633 h 8.57 V 122.41 h -8.57 z m 8.57,9.394 h -8.57 v 10.508 h 8.57 v -10.508" /><path
         id="path80"
         style="fill:#231f20;fill-opacity:1;fill-rule:nonzero;stroke:none"
         d="m 1724.07,128.773 c 11.5,0 15.95,9.903 15.95,19.7 0,10.304 -4.64,19.797 -16.46,19.797 -11.72,0 -15.66,-10 -15.66,-20.2 0,-9.8 5.05,-19.297 16.17,-19.297 z m 24.24,-6.363 h -8.58 v 7.07 h -0.21 c -2.84,-5.753 -9.5,-8.281 -16.66,-8.281 -16.06,0 -24.05,12.727 -24.05,27.477 0,14.746 7.87,27.172 23.83,27.172 5.37,0 13.05,-2.02 16.88,-8.184 h 0.21 v 26.871 h 8.58 V 122.41" /><path
         id="path82"
         style="fill:#231f20;fill-opacity:1;fill-rule:nonzero;stroke:none"
         d="m 1805.28,122.41 h -8.09 v 8.281 H 1797 c -3.64,-6.464 -9.5,-9.492 -16.98,-9.492 -13.75,0 -17.98,7.879 -17.98,19.094 v 34.34 h 8.59 v -35.352 c 0,-6.359 4.04,-10.508 10.61,-10.508 10.41,0 15.44,6.973 15.44,16.368 v 29.492 h 8.6 V 122.41" /><path
         id="path84"
         style="fill:#231f20;fill-opacity:1;fill-rule:nonzero;stroke:none"
         d="m 1871.84,168.27 c -11.52,0 -15.98,-9.895 -15.98,-19.696 0,-10.304 4.65,-19.801 16.47,-19.801 11.72,0 15.66,10 15.66,20.207 0,9.797 -5.06,19.29 -16.15,19.29 z m -24.26,6.363 h 8.6 v -7.07 h 0.19 c 2.83,5.757 9.49,8.285 16.68,8.285 16.06,0 24.03,-12.727 24.03,-27.473 0,-14.754 -7.88,-27.176 -23.83,-27.176 -5.35,0 -13.03,2.024 -16.88,8.18 h -0.19 V 102.41 h -8.6 v 72.223" /><path
         id="path86"
         style="fill:#231f20;fill-opacity:1;fill-rule:nonzero;stroke:none"
         d="m 1943.93,153.523 c -0.39,8.18 -6.56,14.747 -15.04,14.747 -8.98,0 -14.35,-6.766 -14.96,-14.747 z m 8.3,-14.543 c -2.32,-11.519 -10.62,-17.781 -22.32,-17.781 -16.68,0 -24.55,11.516 -25.06,27.477 0,15.656 10.29,27.172 24.55,27.172 18.48,0 24.14,-17.274 23.63,-29.903 h -39.1 c -0.29,-9.09 4.86,-17.172 16.27,-17.172 7.07,0 12.03,3.438 13.54,10.207 h 8.49" /><path
         id="path88"
         style="fill:#231f20;fill-opacity:1;fill-rule:nonzero;stroke:none"
         d="m 1962.11,174.633 h 8.09 v -11.012 h 0.2 c 4.14,8.391 9.9,12.531 19.19,12.227 v -9.09 c -13.84,0 -18.88,-7.879 -18.88,-21.113 V 122.41 h -8.6 v 52.223" /><path
         id="path90"
         style="fill:#231f20;fill-opacity:1;fill-rule:nonzero;stroke:none"
         d="m 1996.55,174.633 h 8.08 v -7.676 h 0.2 c 3.85,5.859 9.71,8.891 16.87,8.891 6.37,0 12.23,-2.528 14.34,-8.891 3.54,5.559 9.71,8.891 16.37,8.891 10.41,0 17.38,-4.344 17.38,-15.149 V 122.41 h -8.59 v 34.246 c 0,6.465 -1.72,11.614 -10.1,11.614 -8.28,0 -13.63,-5.254 -13.63,-13.332 V 122.41 h -8.6 v 34.246 c 0,6.766 -2.11,11.614 -9.78,11.614 -10.22,0 -13.95,-9.391 -13.95,-13.332 V 122.41 h -8.59 v 52.223" /><path
         id="path92"
         style="fill:#231f20;fill-opacity:1;fill-rule:nonzero;stroke:none"
         d="m 2083.72,174.633 h 8.59 V 122.41 h -8.59 z m 8.59,9.394 h -8.59 v 10.508 h 8.59 v -10.508" /><path
         id="path94"
         style="fill:#231f20;fill-opacity:1;fill-rule:nonzero;stroke:none"
         d="m 2111.39,138.879 c 0.31,-7.68 6.97,-10.106 14.04,-10.106 5.36,0 12.64,1.215 12.64,7.778 0,6.672 -8.49,7.781 -17.07,9.699 -8.5,1.918 -17.09,4.75 -17.09,14.75 0,10.504 10.41,14.848 19.51,14.848 11.51,0 20.71,-3.637 21.41,-16.368 h -8.59 c -0.61,6.672 -6.47,8.79 -12.11,8.79 -5.16,0 -11.12,-1.415 -11.12,-6.665 0,-6.16 9.08,-7.171 17.07,-9.089 8.6,-1.922 17.07,-4.746 17.07,-14.852 0,-12.426 -11.62,-16.465 -22.22,-16.465 -11.72,0 -21.62,4.746 -22.11,17.68 h 8.57" /><path
         id="path96"
         style="fill:#231f20;fill-opacity:1;fill-rule:nonzero;stroke:none"
         d="m 258.008,7.57422 c 11.512,0 15.969,9.90238 15.969,19.69528 0,10.3086 -4.653,19.8008 -16.465,19.8008 -11.723,0 -15.664,-10 -15.664,-20.1992 0,-9.8008 5.054,-19.29688 16.16,-19.29688 z m 24.25,-6.36328 h -8.586 v 7.07031 h -0.203 C 270.637,2.52344 263.977,0 256.797,0 c -16.055,0 -24.043,12.7227 -24.043,27.4766 0,14.7461 7.883,27.1718 23.84,27.1718 5.359,0 13.035,-2.0195 16.875,-8.1836 h 0.203 v 26.8711 h 8.586 V 1.21094" /><path
         id="path98"
         style="fill:#231f20;fill-opacity:1;fill-rule:nonzero;stroke:none"
         d="m 332.246,32.3242 c -0.398,8.1797 -6.562,14.7461 -15.051,14.7461 -8.98,0 -14.343,-6.7695 -14.949,-14.7461 z m 8.289,-14.5469 C 338.215,6.25781 329.934,0 318.215,0 301.543,0 293.66,11.5117 293.152,27.4766 c 0,15.6523 10.305,27.1718 24.551,27.1718 18.488,0 24.145,-17.2773 23.637,-29.9023 h -39.094 c -0.305,-9.0938 4.856,-17.17188 16.27,-17.17188 7.07,0 12.019,3.43748 13.535,10.20308 h 8.484" /><path
         id="path100"
         style="fill:#231f20;fill-opacity:1;fill-rule:nonzero;stroke:none"
         d="m 414.766,36.6641 c -1.321,6.5664 -5.86,10.4062 -12.93,10.4062 -12.434,0 -16.27,-9.8008 -16.27,-20.4062 0,-9.5938 4.344,-19.08988 15.254,-19.08988 8.282,0 13.235,4.84768 14.348,12.72658 h 8.785 C 422.031,7.57422 414.055,0 400.93,0 c -15.969,0 -24.453,11.1094 -24.453,26.6641 0,15.6601 8.086,27.9843 24.644,27.9843 11.817,0 21.32,-5.5586 22.531,-17.9843 h -8.886" /><path
         id="path102"
         style="fill:#231f20;fill-opacity:1;fill-rule:nonzero;stroke:none"
         d="m 456.57,7.57422 c 8.989,0 16.262,7.07028 16.262,19.69528 0,12.7305 -7.273,19.8008 -16.262,19.8008 -8.992,0 -16.265,-7.0703 -16.265,-19.8008 0,-12.625 7.273,-19.69528 16.265,-19.69528 z m 0,47.07418 c 16.567,0 25.356,-12.0195 25.356,-27.3789 C 481.926,12.0195 473.137,0 456.57,0 440,0 431.211,12.0195 431.211,27.2695 c 0,15.3594 8.789,27.3789 25.359,27.3789" /><path
         id="path104"
         style="fill:#231f20;fill-opacity:1;fill-rule:nonzero;stroke:none"
         d="m 492.527,53.4336 h 8.086 v -8.2813 h 0.2 c 3.64,6.4649 9.492,9.4961 16.968,9.4961 13.742,0 17.981,-7.8828 17.981,-19.0937 V 1.21094 H 527.18 V 36.5664 c 0,6.3633 -4.043,10.5039 -10.61,10.5039 -10.41,0 -15.457,-6.9687 -15.457,-16.3633 V 1.21094 h -8.586 V 53.4336" /><path
         id="path106"
         style="fill:#231f20;fill-opacity:1;fill-rule:nonzero;stroke:none"
         d="M 554.441,17.6758 C 554.746,10 561.418,7.57422 568.484,7.57422 c 5.356,0 12.629,1.21484 12.629,7.77738 0,6.6679 -8.484,7.7773 -17.07,9.6953 -8.484,1.9219 -17.078,4.7539 -17.078,14.7539 0,10.5 10.406,14.8476 19.5,14.8476 11.515,0 20.703,-3.6367 21.418,-16.3671 h -8.598 c -0.601,6.6679 -6.465,8.789 -12.117,8.789 -5.148,0 -11.113,-1.418 -11.113,-6.664 0,-6.1641 9.09,-7.1758 17.07,-9.0938 8.594,-1.918 17.078,-4.7461 17.078,-14.8477 C 590.203,4.03906 578.586,0 567.98,0 556.262,0 546.355,4.74609 545.859,17.6758 h 8.582" /><path
         id="path108"
         style="fill:#231f20;fill-opacity:1;fill-rule:nonzero;stroke:none"
         d="M 612.117,53.4336 H 622.52 V 45.8594 H 612.117 V 13.4336 c 0,-3.94141 1.106,-4.64454 6.469,-4.64454 h 3.934 V 1.21094 h -6.563 c -8.894,0 -12.434,1.8164 -12.434,11.41796 v 33.2305 h -8.882 v 7.5742 h 8.882 v 15.6562 h 8.594 V 53.4336" /><path
         id="path110"
         style="fill:#231f20;fill-opacity:1;fill-rule:nonzero;stroke:none"
         d="m 632.207,53.4336 h 8.074 V 42.4219 h 0.207 c 4.141,8.3867 9.903,12.5273 19.192,12.2265 v -9.0937 c -13.84,0 -18.887,-7.8789 -18.887,-21.1133 V 1.21094 h -8.586 V 53.4336" /><path
         id="path112"
         style="fill:#231f20;fill-opacity:1;fill-rule:nonzero;stroke:none"
         d="m 709.883,1.21094 h -8.074 v 8.28125 h -0.207 C 697.969,3.02734 692.109,0 684.629,0 670.891,0 666.648,7.875 666.648,19.0898 v 34.3438 h 8.586 V 18.082 c 0,-6.3632 4.043,-10.50778 10.606,-10.50778 10.41,0 15.461,6.97268 15.461,16.36718 v 29.4922 h 8.582 V 1.21094" /><path
         id="path114"
         style="fill:#231f20;fill-opacity:1;fill-rule:nonzero;stroke:none"
         d="m 723.816,53.4336 h 8.586 V 1.21094 h -8.586 z m 8.586,9.3945 h -8.586 v 10.5078 h 8.586 V 62.8281" /><path
         id="path116"
         style="fill:#231f20;fill-opacity:1;fill-rule:nonzero;stroke:none"
         d="m 745.93,53.4336 h 8.074 V 42.4219 h 0.207 c 4.141,8.3867 9.898,12.5273 19.187,12.2265 v -9.0937 c -13.835,0 -18.886,-7.8789 -18.886,-21.1133 V 1.21094 H 745.93 V 53.4336" /><path
         id="path118"
         style="fill:#231f20;fill-opacity:1;fill-rule:nonzero;stroke:none"
         d="m 814.836,32.3242 c -0.402,8.1797 -6.566,14.7461 -15.051,14.7461 -8.984,0 -14.347,-6.7695 -14.949,-14.7461 z m 8.289,-14.5469 C 820.801,6.25781 812.512,0 800.801,0 784.133,0 776.25,11.5117 775.742,27.4766 c 0,15.6523 10.305,27.1718 24.551,27.1718 18.484,0 24.141,-17.2773 23.633,-29.9023 h -39.09 c -0.305,-9.0938 4.852,-17.17188 16.269,-17.17188 7.071,0 12.02,3.43748 13.536,10.20308 h 8.484" /><path
         id="path120"
         style="fill:#231f20;fill-opacity:1;fill-rule:nonzero;stroke:none"
         d="m 884.316,7.57422 c 11.512,0 15.965,9.90238 15.965,19.69528 0,10.3086 -4.644,19.8008 -16.465,19.8008 -11.714,0 -15.664,-10 -15.664,-20.1992 0,-9.8008 5.063,-19.29688 16.164,-19.29688 z m 24.247,-6.36328 h -8.583 v 7.07031 h -0.207 C 896.941,2.52344 890.281,0 883.105,0 c -16.054,0 -24.042,12.7227 -24.042,27.4766 0,14.7461 7.878,27.1718 23.835,27.1718 5.364,0 13.04,-2.0195 16.875,-8.1836 h 0.207 v 26.8711 h 8.583 V 1.21094" /><path
         id="path122"
         style="fill:#231f20;fill-opacity:1;fill-rule:nonzero;stroke:none"
         d="m 954.617,28.1836 c -3.328,-2.4258 -9.793,-2.5313 -15.554,-3.5352 -5.657,-1.0117 -10.508,-3.0312 -10.508,-9.3945 0,-5.66015 4.851,-7.67968 10.105,-7.67968 11.313,0 15.957,7.07028 15.957,11.82028 z M 968.555,1.41016 C 967.043,0.503906 965.129,0 962.395,0 957.949,0 955.129,2.42188 955.129,8.08203 950.383,2.52344 944.016,0 936.738,0 c -9.492,0 -17.273,4.24219 -17.273,14.6445 0,11.8203 8.789,14.3438 17.683,16.0625 9.493,1.8164 17.571,1.211 17.571,7.6758 0,7.4766 -6.164,8.6875 -11.614,8.6875 -7.277,0 -12.625,-2.2226 -13.039,-9.8984 h -8.582 c 0.508,12.9297 10.508,17.4765 22.129,17.4765 9.383,0 19.59,-2.125 19.59,-14.3476 V 13.4336 c 0,-4.03907 0,-5.85938 2.727,-5.85938 0.711,0 1.519,0.10156 2.625,0.50781 V 1.41016" /><path
         id="path124"
         style="fill:#231f20;fill-opacity:1;fill-rule:nonzero;stroke:none"
         d="m 977.031,53.4336 h 8.074 v -8.2813 h 0.208 c 3.64,6.4649 9.5,9.4961 16.977,9.4961 13.74,0 17.97,-7.8828 17.97,-19.0937 V 1.21094 h -8.58 V 36.5664 c 0,6.3633 -4.04,10.5039 -10.61,10.5039 -10.406,0 -15.457,-6.9687 -15.457,-16.3633 V 1.21094 h -8.582 V 53.4336" /><path
         id="path126"
         style="fill:#231f20;fill-opacity:1;fill-rule:nonzero;stroke:none"
         d="m 1038.95,17.6758 c 0.3,-7.6758 6.97,-10.10158 14.04,-10.10158 5.35,0 12.63,1.21484 12.63,7.77738 0,6.6679 -8.49,7.7773 -17.08,9.6953 -8.48,1.9219 -17.08,4.7539 -17.08,14.7539 0,10.5 10.42,14.8476 19.51,14.8476 11.51,0 20.7,-3.6367 21.41,-16.3671 h -8.59 c -0.61,6.6679 -6.47,8.789 -12.12,8.789 -5.15,0 -11.11,-1.418 -11.11,-6.664 0,-6.1641 9.09,-7.1758 17.07,-9.0938 8.59,-1.918 17.08,-4.7461 17.08,-14.8477 C 1074.71,4.03906 1063.09,0 1052.48,0 c -11.72,0 -21.62,4.74609 -22.12,17.6758 h 8.59" /><path
         id="path128"
         style="fill:#231f20;fill-opacity:1;fill-rule:nonzero;stroke:none"
         d="m 1113.79,73.3359 h 8.58 V 1.21094 h -8.58 V 73.3359" /><path
         id="path130"
         style="fill:#231f20;fill-opacity:1;fill-rule:nonzero;stroke:none"
         d="m 1172.46,32.3242 c -0.4,8.1797 -6.56,14.7461 -15.05,14.7461 -8.98,0 -14.34,-6.7695 -14.95,-14.7461 z m 8.29,-14.5469 C 1178.43,6.25781 1170.15,0 1158.43,0 c -16.67,0 -24.55,11.5117 -25.06,27.4766 0,15.6523 10.3,27.1718 24.55,27.1718 18.49,0 24.14,-17.2773 23.63,-29.9023 h -39.09 c -0.3,-9.0938 4.85,-17.17188 16.27,-17.17188 7.07,0 12.02,3.43748 13.54,10.20308 h 8.48" /><path
         id="path132"
         style="fill:#231f20;fill-opacity:1;fill-rule:nonzero;stroke:none"
         d="m 1254.99,36.6641 c -1.32,6.5664 -5.86,10.4062 -12.93,10.4062 -12.43,0 -16.27,-9.8008 -16.27,-20.4062 0,-9.5938 4.35,-19.08988 15.25,-19.08988 8.29,0 13.24,4.84768 14.35,12.72658 h 8.79 C 1262.25,7.57422 1254.28,0 1241.15,0 c -15.96,0 -24.45,11.1094 -24.45,26.6641 0,15.6601 8.09,27.9843 24.65,27.9843 11.81,0 21.31,-5.5586 22.52,-17.9843 h -8.88" /><path
         id="path134"
         style="fill:#231f20;fill-opacity:1;fill-rule:nonzero;stroke:none"
         d="m 1306.59,28.1836 c -3.32,-2.4258 -9.79,-2.5313 -15.55,-3.5352 -5.66,-1.0117 -10.51,-3.0312 -10.51,-9.3945 0,-5.66015 4.85,-7.67968 10.1,-7.67968 11.31,0 15.96,7.07028 15.96,11.82028 z M 1320.53,1.41016 C 1319.01,0.503906 1317.09,0 1314.36,0 c -4.43,0 -7.27,2.42188 -7.27,8.08203 C 1302.35,2.52344 1295.98,0 1288.72,0 c -9.5,0 -17.29,4.24219 -17.29,14.6445 0,11.8203 8.79,14.3438 17.7,16.0625 9.49,1.8164 17.55,1.211 17.55,7.6758 0,7.4766 -6.15,8.6875 -11.6,8.6875 -7.28,0 -12.63,-2.2226 -13.04,-9.8984 h -8.58 c 0.51,12.9297 10.51,17.4765 22.13,17.4765 9.38,0 19.59,-2.125 19.59,-14.3476 V 13.4336 c 0,-4.03907 0,-5.85938 2.72,-5.85938 0.72,0 1.52,0.10156 2.63,0.50781 V 1.41016" /><path
         id="path136"
         style="fill:#231f20;fill-opacity:1;fill-rule:nonzero;stroke:none"
         d="m 1329.01,53.4336 h 8.08 v -8.2813 h 0.2 c 3.65,6.4649 9.49,9.4961 16.97,9.4961 13.75,0 17.99,-7.8828 17.99,-19.0937 V 1.21094 h -8.59 V 36.5664 c 0,6.3633 -4.05,10.5039 -10.61,10.5039 -10.41,0 -15.45,-6.9687 -15.45,-16.3633 V 1.21094 h -8.59 V 53.4336" /><path
         id="path138"
         style="fill:#231f20;fill-opacity:1;fill-rule:nonzero;stroke:none"
         d="m 1397.6,53.4336 h 10.39 V 45.8594 H 1397.6 V 13.4336 c 0,-3.94141 1.1,-4.64454 6.47,-4.64454 h 3.92 V 1.21094 h -6.56 c -8.89,0 -12.42,1.8164 -12.42,11.41796 v 33.2305 h -8.89 v 7.5742 h 8.89 v 15.6562 h 8.59 V 53.4336" /><path
         id="path140"
         style="fill:#231f20;fill-opacity:1;fill-rule:nonzero;stroke:none"
         d="m 1440.51,7.57422 c 8.99,0 16.27,7.07028 16.27,19.69528 0,12.7305 -7.28,19.8008 -16.27,19.8008 -8.98,0 -16.27,-7.0703 -16.27,-19.8008 0,-12.625 7.29,-19.69528 16.27,-19.69528 z m 0,47.07418 c 16.57,0 25.35,-12.0195 25.35,-27.3789 0,-15.25 -8.78,-27.2695 -25.35,-27.2695 -16.56,0 -25.35,12.0195 -25.35,27.2695 0,15.3594 8.79,27.3789 25.35,27.3789" /><path
         id="path142"
         style="fill:#231f20;fill-opacity:1;fill-rule:nonzero;stroke:none"
         d="m 1476.47,53.4336 h 8.07 v -8.2813 h 0.21 c 3.63,6.4649 9.49,9.4961 16.97,9.4961 13.73,0 17.97,-7.8828 17.97,-19.0937 V 1.21094 h -8.57 V 36.5664 c 0,6.3633 -4.04,10.5039 -10.61,10.5039 -10.41,0 -15.47,-6.9687 -15.47,-16.3633 V 1.21094 h -8.57 V 53.4336" /><path
         id="path144"
         style="fill:#231f20;fill-opacity:1;fill-rule:nonzero;stroke:none"
         d="m 1584.13,7.57422 c 11.52,0 15.97,9.90238 15.97,19.69528 0,10.3086 -4.65,19.8008 -16.46,19.8008 -11.72,0 -15.67,-10 -15.67,-20.1992 0,-9.8008 5.04,-19.29688 16.16,-19.29688 z m 24.25,-6.36328 h -8.59 v 7.07031 h -0.2 C 1596.76,2.52344 1590.1,0 1582.92,0 c -16.06,0 -24.05,12.7227 -24.05,27.4766 0,14.7461 7.89,27.1718 23.85,27.1718 5.35,0 13.03,-2.0195 16.87,-8.1836 h 0.2 v 26.8711 h 8.59 V 1.21094" /><path
         id="path146"
         style="fill:#231f20;fill-opacity:1;fill-rule:nonzero;stroke:none"
         d="m 1658.36,32.3242 c -0.39,8.1797 -6.56,14.7461 -15.03,14.7461 -8.99,0 -14.36,-6.7695 -14.97,-14.7461 z m 8.31,-14.5469 C 1664.34,6.25781 1656.04,0 1644.34,0 c -16.68,0 -24.55,11.5117 -25.06,27.4766 0,15.6523 10.3,27.1718 24.55,27.1718 18.48,0 24.14,-17.2773 23.64,-29.9023 h -39.11 c -0.29,-9.0938 4.87,-17.17188 16.27,-17.17188 7.07,0 12.04,3.43748 13.54,10.20308 h 8.5" /><path
         id="path148"
         style="fill:#231f20;fill-opacity:1;fill-rule:nonzero;stroke:none"
         d="m 1716.43,9.29297 h 24.04 c 8.28,0 13.54,5.04683 13.54,12.92973 0,9.3945 -7.56,12.0195 -15.65,12.0195 h -21.93 z m 0,33.03123 h 19.2 c 10.92,0 15.35,3.9414 15.35,11.5156 0,10 -7.07,11.4141 -15.35,11.4141 h -19.2 z m -9.59,31.0117 h 26.17 c 6.35,0 14.75,0 19.08,-2.6289 4.75,-2.8281 8.5,-7.9765 8.5,-15.0468 0,-7.6836 -4.04,-13.4375 -10.72,-16.1641 V 39.293 c 8.88,-1.8164 13.75,-8.4883 13.75,-17.375 0,-10.6055 -7.58,-20.70706 -21.94,-20.70706 h -34.84 V 73.3359" /><path
         id="path150"
         style="fill:#231f20;fill-opacity:1;fill-rule:nonzero;stroke:none"
         d="m 1811.39,32.3242 c -0.41,8.1797 -6.56,14.7461 -15.06,14.7461 -8.98,0 -14.33,-6.7695 -14.94,-14.7461 z m 8.28,-14.5469 C 1817.35,6.25781 1809.07,0 1797.35,0 c -16.66,0 -24.55,11.5117 -25.06,27.4766 0,15.6523 10.31,27.1718 24.55,27.1718 18.5,0 24.14,-17.2773 23.63,-29.9023 h -39.08 c -0.31,-9.0938 4.85,-17.17188 16.27,-17.17188 7.07,0 12.01,3.43748 13.54,10.20308 h 8.47" /><path
         id="path152"
         style="fill:#231f20;fill-opacity:1;fill-rule:nonzero;stroke:none"
         d="m 1829.56,53.4336 h 8.08 V 42.4219 h 0.2 c 4.14,8.3867 9.9,12.5273 19.2,12.2265 v -9.0937 c -13.85,0 -18.89,-7.8789 -18.89,-21.1133 V 1.21094 h -8.59 V 53.4336" /><path
         id="path154"
         style="fill:#231f20;fill-opacity:1;fill-rule:nonzero;stroke:none"
         d="m 1865.81,53.4336 h 8.06 v -8.2813 h 0.22 c 3.63,6.4649 9.49,9.4961 16.97,9.4961 13.73,0 17.97,-7.8828 17.97,-19.0937 V 1.21094 h -8.58 V 36.5664 c 0,6.3633 -4.04,10.5039 -10.6,10.5039 -10.41,0 -15.47,-6.9687 -15.47,-16.3633 V 1.21094 h -8.57 V 53.4336" /><path
         id="path156"
         style="fill:#231f20;fill-opacity:1;fill-rule:nonzero;stroke:none"
         d="m 1958.72,32.3242 c -0.39,8.1797 -6.57,14.7461 -15.04,14.7461 -8.99,0 -14.36,-6.7695 -14.96,-14.7461 z m 8.3,-14.5469 C 1964.69,6.25781 1956.39,0 1944.69,0 c -16.68,0 -24.55,11.5117 -25.06,27.4766 0,15.6523 10.3,27.1718 24.55,27.1718 18.48,0 24.15,-17.2773 23.64,-29.9023 h -39.1 c -0.3,-9.0938 4.86,-17.17188 16.27,-17.17188 7.07,0 12.03,3.43748 13.53,10.20308 h 8.5" /></g></g></svg>