<?xml version="1.0" encoding="UTF-8" standalone="no"?>
<svg
   xmlns:dc="http://purl.org/dc/elements/1.1/"
   xmlns:cc="http://creativecommons.org/ns#"
   xmlns:rdf="http://www.w3.org/1999/02/22-rdf-syntax-ns#"
   xmlns:svg="http://www.w3.org/2000/svg"
   xmlns="http://www.w3.org/2000/svg"
   xmlns:sodipodi="http://sodipodi.sourceforge.net/DTD/sodipodi-0.dtd"
   xmlns:inkscape="http://www.inkscape.org/namespaces/inkscape"
   viewBox="0 0 392.04398 35.970916"
   height="35.970917"
   width="392.04398"
   xml:space="preserve"
   id="svg2"
   version="1.1"
   sodipodi:docname="logo-ebau-bern-1-fr.svg"
   inkscape:version="0.92.3 (2405546, 2018-03-11)"><sodipodi:namedview
     pagecolor="#ffffff"
     bordercolor="#666666"
     borderopacity="1"
     objecttolerance="10"
     gridtolerance="10"
     guidetolerance="10"
     inkscape:pageopacity="0"
     inkscape:pageshadow="2"
     inkscape:window-width="1402"
     inkscape:window-height="692"
     id="namedview79"
     showgrid="false"
     units="px"
     fit-margin-top="0"
     fit-margin-left="0"
     fit-margin-right="0"
     fit-margin-bottom="0"
     inkscape:zoom="1.5503876"
     inkscape:cx="144.54198"
     inkscape:cy="-36.464333"
     inkscape:window-x="696"
     inkscape:window-y="229"
     inkscape:window-maximized="0"
     inkscape:current-layer="svg2" /><metadata
     id="metadata8"><rdf:RDF><cc:Work
         rdf:about=""><dc:format>image/svg+xml</dc:format><dc:type
           rdf:resource="http://purl.org/dc/dcmitype/StillImage" /><dc:title></dc:title></cc:Work></rdf:RDF></metadata><defs
     id="defs6" /><g
     transform="matrix(1.3333333,0,0,-1.3333333,0,304.43491)"
     id="g10"><g
       transform="scale(0.1)"
       id="g12"><path
         id="path14"
         style="fill:#ed1c24;fill-opacity:1;fill-rule:nonzero;stroke:none"
         d="m 140.98,2134.85 c -1.113,21.45 -16.285,39.22 -37.371,39.22 -22.2027,0 -37.0035,-15.91 -40.7027,-39.22 z m -78.0737,-35.16 c 1.1093,-26.27 16.2773,-43.66 42.9177,-43.66 15.172,0 29.977,7.03 35.895,21.09 h 58.832 c -11.469,-44.4 -52.539,-63.64 -95.461,-63.64 C 42.5547,2013.48 0,2051.21 0,2115.6 c 0,58.84 46.9922,101.03 103.609,101.03 68.825,0 103.239,-51.81 100.274,-116.94 H 62.9063"
         inkscape:connector-curvature="0" /><path
         id="path16"
         style="fill:#231f20;fill-opacity:1;fill-rule:nonzero;stroke:none"
         d="m 306.734,2074.16 h 55.137 c 21.828,0 37,7.77 37,29.6 0,23.31 -16.281,31.09 -37,31.09 h -55.137 z m 0,105.09 h 53.286 c 11.839,0 28.121,6.29 28.121,25.16 0,19.25 -13.692,25.54 -28.121,25.54 H 306.734 Z M 237.91,2283.23 H 361.5 c 45.512,0.74 95.469,-11.11 95.469,-66.25 0,-23.68 -14.063,-42.91 -34.785,-53.28 28.121,-8.13 45.511,-32.56 45.511,-62.52 0,-62.91 -46.254,-82.15 -102.867,-82.15 H 237.91 v 264.2"
         inkscape:connector-curvature="0" /><path
         id="path18"
         style="fill:#231f20;fill-opacity:1;fill-rule:nonzero;stroke:none"
         d="m 581.27,2052.33 c 29.968,0 39.96,17.02 38.48,56.61 -8.883,-5.55 -25.16,-6.66 -38.852,-10.36 -14.062,-3.33 -25.902,-9.25 -25.902,-24.42 0,-15.54 12.211,-21.83 26.274,-21.83 z m -81.407,99.54 c 1.11,25.15 12.95,41.43 29.973,51.43 17.019,9.62 39.223,13.33 61.055,13.33 45.511,0 89.543,-10 89.543,-64.39 v -84.01 c 0,-16.27 0,-34.03 7.402,-49.2 h -63.273 c -2.219,5.92 -2.961,11.84 -3.7,18.13 -16.285,-17.02 -40.336,-23.68 -63.273,-23.68 -36.633,0 -65.496,18.5 -65.496,58.09 0,62.54 68.082,57.72 111.75,66.61 10.726,2.21 16.648,5.91 16.648,17.76 0,14.42 -17.39,19.98 -30.34,19.98 -17.394,0 -28.492,-7.77 -31.457,-24.05 h -58.832"
         inkscape:connector-curvature="0" /><path
         id="path20"
         style="fill:#231f20;fill-opacity:1;fill-rule:nonzero;stroke:none"
         d="m 912.789,2019.03 h -61.051 v 26.27 h -0.742 c -11.84,-19.61 -36.262,-31.82 -58.461,-31.82 -55.137,0 -71.047,31.82 -71.047,82.14 v 115.45 h 62.907 v -111.38 c 0,-25.53 11.097,-34.41 31.078,-34.41 13.691,0 34.414,8.88 34.414,42.93 v 102.86 h 62.902 v -192.04"
         inkscape:connector-curvature="0" /><path
         id="path22"
         style="fill:#231f20;fill-opacity:1;fill-rule:nonzero;stroke:none"
         d="m 1039.77,2177.68 h 18.78 c 10.82,-0.11 15.77,4.64 15.77,13.23 0,8.58 -4.95,13.23 -15.77,13.23 h -18.78 z m -9.59,34.54 h 31.61 c 14.34,0 22.13,-7.98 22.13,-21.31 0,-13.34 -7.79,-21.42 -22.13,-21.32 h -22.02 v -29.49 h -9.59 v 72.12"
         inkscape:connector-curvature="0" /><path
         id="path24"
         style="fill:#231f20;fill-opacity:1;fill-rule:nonzero;stroke:none"
         d="m 1094.41,2192.32 h 8.08 v -11.01 h 0.21 c 4.14,8.39 9.9,12.53 19.18,12.23 v -9.1 c -13.83,0 -18.88,-7.88 -18.88,-21.11 v -23.23 h -8.59 v 52.22"
         inkscape:connector-curvature="0" /><path
         id="path26"
         style="fill:#231f20;fill-opacity:1;fill-rule:nonzero;stroke:none"
         d="m 1149.58,2146.46 c 8.98,0 16.26,7.07 16.26,19.7 0,12.73 -7.28,19.8 -16.26,19.8 -8.99,0 -16.27,-7.07 -16.27,-19.8 0,-12.63 7.28,-19.7 16.27,-19.7 z m 0,47.08 c 16.56,0 25.35,-12.03 25.35,-27.38 0,-15.25 -8.79,-27.27 -25.35,-27.27 -16.57,0 -25.36,12.02 -25.36,27.27 0,15.35 8.79,27.38 25.36,27.38"
         inkscape:connector-curvature="0" /><path
         id="path28"
         style="fill:#231f20;fill-opacity:1;fill-rule:nonzero;stroke:none"
         d="m 1220.99,2175.55 c -1.32,6.57 -5.86,10.41 -12.93,10.41 -12.43,0 -16.27,-9.8 -16.27,-20.41 0,-9.59 4.34,-19.09 15.25,-19.09 8.28,0 13.23,4.85 14.35,12.73 h 8.79 c -1.93,-12.73 -9.91,-20.3 -23.03,-20.3 -15.97,0 -24.45,11.1 -24.45,26.66 0,15.66 8.08,27.99 24.64,27.99 11.82,0 21.32,-5.56 22.53,-17.99 h -8.88"
         inkscape:connector-curvature="0" /><path
         id="path30"
         style="fill:#231f20;fill-opacity:1;fill-rule:nonzero;stroke:none"
         d="m 1263.5,2213.94 h 11.01 l -13.24,-14.45 h -6.47 z m 13.02,-42.73 c -0.4,8.18 -6.56,14.75 -15.05,14.75 -8.98,0 -14.34,-6.77 -14.95,-14.75 z m 8.29,-14.55 c -2.32,-11.52 -10.61,-17.77 -22.32,-17.77 -16.67,0 -24.55,11.51 -25.06,27.47 0,15.66 10.3,27.18 24.55,27.18 18.49,0 24.14,-17.28 23.64,-29.91 h -39.1 c -0.3,-9.09 4.86,-17.17 16.27,-17.17 7.07,0 12.02,3.43 13.54,10.2 h 8.48"
         inkscape:connector-curvature="0" /><path
         id="path32"
         style="fill:#231f20;fill-opacity:1;fill-rule:nonzero;stroke:none"
         d="m 1317.43,2146.46 c 11.52,0 15.97,9.9 15.97,19.7 0,10.3 -4.65,19.8 -16.47,19.8 -11.72,0 -15.66,-10 -15.66,-20.21 0,-9.79 5.06,-19.29 16.16,-19.29 z m 24.25,-6.36 h -8.58 v 7.07 h -0.21 c -2.83,-5.76 -9.49,-8.28 -16.67,-8.28 -16.05,0 -24.04,12.72 -24.04,27.47 0,14.75 7.88,27.18 23.84,27.18 5.36,0 13.03,-2.03 16.87,-8.19 h 0.21 v 26.87 h 8.58 v -72.12"
         inkscape:connector-curvature="0" /><path
         id="path34"
         style="fill:#231f20;fill-opacity:1;fill-rule:nonzero;stroke:none"
         d="m 1398.63,2140.1 h -8.07 v 8.28 h -0.21 c -3.63,-6.47 -9.49,-9.49 -16.97,-9.49 -13.74,0 -17.98,7.87 -17.98,19.09 v 34.34 h 8.58 v -35.36 c 0,-6.35 4.05,-10.5 10.61,-10.5 10.41,0 15.46,6.97 15.46,16.36 v 29.5 h 8.58 v -52.22"
         inkscape:connector-curvature="0" /><path
         id="path36"
         style="fill:#231f20;fill-opacity:1;fill-rule:nonzero;stroke:none"
         d="m 1411.77,2192.32 h 8.07 v -11.01 h 0.21 c 4.14,8.39 9.9,12.53 19.19,12.23 v -9.1 c -13.84,0 -18.89,-7.88 -18.89,-21.11 v -23.23 h -8.58 v 52.22"
         inkscape:connector-curvature="0" /><path
         id="path38"
         style="fill:#231f20;fill-opacity:1;fill-rule:nonzero;stroke:none"
         d="m 1480.66,2171.21 c -0.4,8.18 -6.56,14.75 -15.04,14.75 -8.99,0 -14.35,-6.77 -14.96,-14.75 z m 8.3,-14.55 c -2.33,-11.52 -10.62,-17.77 -22.33,-17.77 -16.67,0 -24.55,11.51 -25.06,27.47 0,15.66 10.31,27.18 24.55,27.18 18.49,0 24.14,-17.28 23.64,-29.91 h -39.1 c -0.3,-9.09 4.86,-17.17 16.27,-17.17 7.07,0 12.03,3.43 13.54,10.2 h 8.49"
         inkscape:connector-curvature="0" /><path
         id="path40"
         style="fill:#231f20;fill-opacity:1;fill-rule:nonzero;stroke:none"
         d="m 1550.96,2213.94 h 11.01 l -13.24,-14.45 h -6.46 z m 13.02,-42.73 c -0.4,8.18 -6.56,14.75 -15.04,14.75 -8.99,0 -14.35,-6.77 -14.96,-14.75 z m 8.3,-14.55 c -2.33,-11.52 -10.62,-17.77 -22.33,-17.77 -16.67,0 -24.55,11.51 -25.06,27.47 0,15.66 10.31,27.18 24.55,27.18 18.49,0 24.14,-17.28 23.64,-29.91 h -39.1 c -0.3,-9.09 4.86,-17.17 16.27,-17.17 7.07,0 12.03,3.43 13.54,10.2 h 8.49"
         inkscape:connector-curvature="0" /><path
         id="path42"
         style="fill:#231f20;fill-opacity:1;fill-rule:nonzero;stroke:none"
         d="m 1582.98,2212.22 h 8.58 v -72.12 h -8.58 v 72.12"
         inkscape:connector-curvature="0" /><path
         id="path44"
         style="fill:#231f20;fill-opacity:1;fill-rule:nonzero;stroke:none"
         d="m 1641.65,2171.21 c -0.4,8.18 -6.56,14.75 -15.05,14.75 -8.98,0 -14.34,-6.77 -14.95,-14.75 z m 8.29,-14.55 c -2.32,-11.52 -10.6,-17.77 -22.32,-17.77 -16.67,0 -24.55,11.51 -25.06,27.47 0,15.66 10.3,27.18 24.55,27.18 18.49,0 24.14,-17.28 23.63,-29.91 h -39.09 c -0.3,-9.09 4.85,-17.17 16.27,-17.17 7.07,0 12.02,3.43 13.54,10.2 h 8.48"
         inkscape:connector-curvature="0" /><path
         id="path46"
         style="fill:#231f20;fill-opacity:1;fill-rule:nonzero;stroke:none"
         d="m 1695.6,2175.55 c -1.32,6.57 -5.86,10.41 -12.93,10.41 -12.44,0 -16.27,-9.8 -16.27,-20.41 0,-9.59 4.34,-19.09 15.25,-19.09 8.28,0 13.23,4.85 14.35,12.73 h 8.79 c -1.93,-12.73 -9.91,-20.3 -23.03,-20.3 -15.97,0 -24.46,11.1 -24.46,26.66 0,15.66 8.09,27.99 24.65,27.99 11.82,0 21.32,-5.56 22.53,-17.99 h -8.88"
         inkscape:connector-curvature="0" /><path
         id="path48"
         style="fill:#231f20;fill-opacity:1;fill-rule:nonzero;stroke:none"
         d="m 1726.8,2192.32 h 10.4 v -7.57 h -10.4 v -32.43 c 0,-3.94 1.1,-4.64 6.46,-4.64 h 3.94 v -7.58 h -6.57 c -8.89,0 -12.43,1.81 -12.43,11.41 v 33.24 h -8.88 v 7.57 h 8.88 v 15.66 h 8.6 v -15.66"
         inkscape:connector-curvature="0" /><path
         id="path50"
         style="fill:#231f20;fill-opacity:1;fill-rule:nonzero;stroke:none"
         d="m 1746.89,2192.32 h 8.08 v -11.01 h 0.21 c 4.14,8.39 9.9,12.53 19.19,12.23 v -9.1 c -13.84,0 -18.89,-7.88 -18.89,-21.11 v -23.23 h -8.59 v 52.22"
         inkscape:connector-curvature="0" /><path
         id="path52"
         style="fill:#231f20;fill-opacity:1;fill-rule:nonzero;stroke:none"
         d="m 1802.06,2146.46 c 8.98,0 16.26,7.07 16.26,19.7 0,12.73 -7.28,19.8 -16.26,19.8 -8.99,0 -16.27,-7.07 -16.27,-19.8 0,-12.63 7.28,-19.7 16.27,-19.7 z m 0,47.08 c 16.56,0 25.35,-12.03 25.35,-27.38 0,-15.25 -8.79,-27.27 -25.35,-27.27 -16.57,0 -25.36,12.02 -25.36,27.27 0,15.35 8.79,27.38 25.36,27.38"
         inkscape:connector-curvature="0" /><path
         id="path54"
         style="fill:#231f20;fill-opacity:1;fill-rule:nonzero;stroke:none"
         d="m 1838.01,2192.32 h 8.08 v -8.28 h 0.2 c 3.64,6.46 9.49,9.5 16.97,9.5 13.74,0 17.98,-7.89 17.98,-19.1 v -34.34 h -8.58 v 35.35 c 0,6.37 -4.05,10.51 -10.61,10.51 -10.41,0 -15.46,-6.97 -15.46,-16.37 v -29.49 h -8.58 v 52.22"
         inkscape:connector-curvature="0" /><path
         id="path56"
         style="fill:#231f20;fill-opacity:1;fill-rule:nonzero;stroke:none"
         d="m 1895.18,2192.32 h 8.58 v -52.22 h -8.58 z m 8.58,9.39 h -8.58 v 10.51 h 8.58 v -10.51"
         inkscape:connector-curvature="0" /><path
         id="path58"
         style="fill:#231f20;fill-opacity:1;fill-rule:nonzero;stroke:none"
         d="m 1940.02,2146.46 c 11.52,0 15.97,9.9 15.97,19.7 0,10.3 -4.65,19.8 -16.47,19.8 -11.72,0 -15.66,-10 -15.66,-20.21 0,-9.79 5.05,-19.29 16.16,-19.29 z m 24.25,-26.36 h -8.59 v 27.07 h -0.2 c -2.83,-5.76 -9.49,-8.28 -16.67,-8.28 -16.06,0 -24.04,12.72 -24.04,27.47 0,14.75 7.88,27.18 23.84,27.18 5.35,0 13.03,-2.03 16.87,-8.19 h 0.2 v 6.97 h 8.59 v -72.22"
         inkscape:connector-curvature="0" /><path
         id="path60"
         style="fill:#231f20;fill-opacity:1;fill-rule:nonzero;stroke:none"
         d="m 2021.22,2140.1 h -8.08 v 8.28 h -0.2 c -3.63,-6.47 -9.49,-9.49 -16.97,-9.49 -13.74,0 -17.98,7.87 -17.98,19.09 v 34.34 h 8.58 v -35.36 c 0,-6.35 4.05,-10.5 10.61,-10.5 10.41,0 15.46,6.97 15.46,16.36 v 29.5 h 8.58 v -52.22"
         inkscape:connector-curvature="0" /><path
         id="path62"
         style="fill:#231f20;fill-opacity:1;fill-rule:nonzero;stroke:none"
         d="m 2070.91,2171.21 c -0.4,8.18 -6.56,14.75 -15.05,14.75 -8.98,0 -14.35,-6.77 -14.95,-14.75 z m 8.29,-14.55 c -2.32,-11.52 -10.61,-17.77 -22.32,-17.77 -16.67,0 -24.56,11.51 -25.06,27.47 0,15.66 10.3,27.18 24.55,27.18 18.48,0 24.14,-17.28 23.63,-29.91 h -39.09 c -0.3,-9.09 4.85,-17.17 16.27,-17.17 7.07,0 12.02,3.43 13.53,10.2 h 8.49"
         inkscape:connector-curvature="0" /><path
         id="path64"
         style="fill:#231f20;fill-opacity:1;fill-rule:nonzero;stroke:none"
         d="m 2140.4,2146.46 c 11.51,0 15.97,9.9 15.97,19.7 0,10.3 -4.65,19.8 -16.47,19.8 -11.72,0 -15.66,-10 -15.66,-20.21 0,-9.79 5.06,-19.29 16.16,-19.29 z m 24.25,-6.36 h -8.59 v 7.07 h -0.2 c -2.83,-5.76 -9.49,-8.28 -16.67,-8.28 -16.06,0 -24.04,12.72 -24.04,27.47 0,14.75 7.88,27.18 23.83,27.18 5.37,0 13.04,-2.03 16.88,-8.19 h 0.2 v 26.87 h 8.59 v -72.12"
         inkscape:connector-curvature="0" /><path
         id="path66"
         style="fill:#231f20;fill-opacity:1;fill-rule:nonzero;stroke:none"
         d="m 2180.29,2212.22 h 11.21 v -11.21 c 0,-7.98 -3.34,-14.85 -11.11,-14.85 v 5.05 c 4.54,0 5.86,5.15 5.86,9.8 h -5.96 v 11.21"
         inkscape:connector-curvature="0" /><path
         id="path68"
         style="fill:#231f20;fill-opacity:1;fill-rule:nonzero;stroke:none"
         d="m 2229.48,2146.46 c 8.99,0 16.26,7.07 16.26,19.7 0,12.73 -7.27,19.8 -16.26,19.8 -8.99,0 -16.27,-7.07 -16.27,-19.8 0,-12.63 7.28,-19.7 16.27,-19.7 z m 0,47.08 c 16.56,0 25.35,-12.03 25.35,-27.38 0,-15.25 -8.79,-27.27 -25.35,-27.27 -16.57,0 -25.36,12.02 -25.36,27.27 0,15.35 8.79,27.38 25.36,27.38"
         inkscape:connector-curvature="0" /><path
         id="path70"
         style="fill:#231f20;fill-opacity:1;fill-rule:nonzero;stroke:none"
         d="m 2300.89,2175.55 c -1.32,6.57 -5.86,10.41 -12.93,10.41 -12.43,0 -16.27,-9.8 -16.27,-20.41 0,-9.59 4.35,-19.09 15.25,-19.09 8.28,0 13.24,4.85 14.35,12.73 h 8.79 c -1.93,-12.73 -9.9,-20.3 -23.03,-20.3 -15.97,0 -24.45,11.1 -24.45,26.66 0,15.66 8.08,27.99 24.65,27.99 11.81,0 21.31,-5.56 22.53,-17.99 h -8.89"
         inkscape:connector-curvature="0" /><path
         id="path72"
         style="fill:#231f20;fill-opacity:1;fill-rule:nonzero;stroke:none"
         d="m 2332.1,2192.32 h 10.4 v -7.57 h -10.4 v -32.43 c 0,-3.94 1.1,-4.64 6.46,-4.64 h 3.94 v -7.58 h -6.56 c -8.9,0 -12.43,1.81 -12.43,11.41 v 33.24 h -8.89 v 7.57 h 8.89 v 15.66 h 8.59 v -15.66"
         inkscape:connector-curvature="0" /><path
         id="path74"
         style="fill:#231f20;fill-opacity:1;fill-rule:nonzero;stroke:none"
         d="m 2352.19,2192.32 h 8.07 v -11.01 h 0.21 c 4.14,8.39 9.9,12.53 19.19,12.23 v -9.1 c -13.84,0 -18.89,-7.88 -18.89,-21.11 v -23.23 h -8.58 v 52.22"
         inkscape:connector-curvature="0" /><path
         id="path76"
         style="fill:#231f20;fill-opacity:1;fill-rule:nonzero;stroke:none"
         d="m 2407.36,2146.46 c 8.99,0 16.26,7.07 16.26,19.7 0,12.73 -7.27,19.8 -16.26,19.8 -8.99,0 -16.27,-7.07 -16.27,-19.8 0,-12.63 7.28,-19.7 16.27,-19.7 z m 0,47.08 c 16.57,0 25.35,-12.03 25.35,-27.38 0,-15.25 -8.78,-27.27 -25.35,-27.27 -16.57,0 -25.36,12.02 -25.36,27.27 0,15.35 8.79,27.38 25.36,27.38"
         inkscape:connector-curvature="0" /><path
         id="path78"
         style="fill:#231f20;fill-opacity:1;fill-rule:nonzero;stroke:none"
         d="m 2443.82,2192.32 h 8.58 v -52.22 h -8.58 z m 8.58,9.39 h -8.58 v 10.51 h 8.58 v -10.51"
         inkscape:connector-curvature="0" /><path
         id="path80"
         style="fill:#231f20;fill-opacity:1;fill-rule:nonzero;stroke:none"
         d="m 2517.24,2146.46 c 11.51,0 15.96,9.9 15.96,19.7 0,10.3 -4.65,19.8 -16.46,19.8 -11.72,0 -15.67,-10 -15.67,-20.21 0,-9.79 5.06,-19.29 16.17,-19.29 z m 24.24,-6.36 h -8.58 v 7.07 h -0.2 c -2.84,-5.76 -9.5,-8.28 -16.67,-8.28 -16.06,0 -24.05,12.72 -24.05,27.47 0,14.75 7.88,27.18 23.84,27.18 5.36,0 13.04,-2.03 16.88,-8.19 h 0.2 v 26.87 h 8.58 v -72.12"
         inkscape:connector-curvature="0" /><path
         id="path82"
         style="fill:#231f20;fill-opacity:1;fill-rule:nonzero;stroke:none"
         d="m 2598.45,2140.1 h -8.08 v 8.28 h -0.2 c -3.64,-6.47 -9.5,-9.49 -16.98,-9.49 -13.74,0 -17.98,7.87 -17.98,19.09 v 34.34 h 8.59 v -35.36 c 0,-6.35 4.04,-10.5 10.6,-10.5 10.41,0 15.46,6.97 15.46,16.36 v 29.5 h 8.59 v -52.22"
         inkscape:connector-curvature="0" /><path
         id="path84"
         style="fill:#231f20;fill-opacity:1;fill-rule:nonzero;stroke:none"
         d="m 2665.01,2185.96 c -11.52,0 -15.97,-9.9 -15.97,-19.7 0,-10.3 4.65,-19.8 16.47,-19.8 11.72,0 15.66,10 15.66,20.2 0,9.8 -5.06,19.3 -16.16,19.3 z m -24.25,6.36 h 8.59 v -7.07 h 0.2 c 2.83,5.75 9.49,8.29 16.67,8.29 16.06,0 24.03,-12.74 24.03,-27.48 0,-14.75 -7.87,-27.17 -23.83,-27.17 -5.36,0 -13.03,2.02 -16.87,8.17 h -0.2 v -26.96 h -8.59 v 72.22"
         inkscape:connector-curvature="0" /><path
         id="path86"
         style="fill:#231f20;fill-opacity:1;fill-rule:nonzero;stroke:none"
         d="m 2737.11,2171.21 c -0.4,8.18 -6.56,14.75 -15.05,14.75 -8.98,0 -14.35,-6.77 -14.95,-14.75 z m 8.29,-14.55 c -2.32,-11.52 -10.61,-17.77 -22.32,-17.77 -16.67,0 -24.55,11.51 -25.06,27.47 0,15.66 10.3,27.18 24.55,27.18 18.48,0 24.14,-17.28 23.63,-29.91 h -39.09 c -0.3,-9.09 4.85,-17.17 16.27,-17.17 7.07,0 12.02,3.43 13.53,10.2 h 8.49"
         inkscape:connector-curvature="0" /><path
         id="path88"
         style="fill:#231f20;fill-opacity:1;fill-rule:nonzero;stroke:none"
         d="m 2755.29,2192.32 h 8.08 v -11.01 h 0.2 c 4.14,8.39 9.91,12.53 19.19,12.23 v -9.1 c -13.83,0 -18.88,-7.88 -18.88,-21.11 v -23.23 h -8.59 v 52.22"
         inkscape:connector-curvature="0" /><path
         id="path90"
         style="fill:#231f20;fill-opacity:1;fill-rule:nonzero;stroke:none"
         d="m 2789.73,2192.32 h 8.08 v -7.68 h 0.2 c 3.84,5.86 9.7,8.9 16.87,8.9 6.36,0 12.22,-2.54 14.34,-8.9 3.53,5.56 9.7,8.9 16.37,8.9 10.41,0 17.37,-4.35 17.37,-15.16 v -38.28 h -8.58 v 34.24 c 0,6.46 -1.72,11.62 -10.1,11.62 -8.29,0 -13.65,-5.26 -13.65,-13.34 v -32.52 h -8.58 v 34.24 c 0,6.77 -2.12,11.62 -9.79,11.62 -10.21,0 -13.95,-9.4 -13.95,-13.34 v -32.52 h -8.58 v 52.22"
         inkscape:connector-curvature="0" /><path
         id="path92"
         style="fill:#231f20;fill-opacity:1;fill-rule:nonzero;stroke:none"
         d="m 2876.89,2192.32 h 8.59 v -52.22 h -8.59 z m 8.59,9.39 h -8.59 v 10.51 h 8.59 v -10.51"
         inkscape:connector-curvature="0" /><path
         id="path94"
         style="fill:#231f20;fill-opacity:1;fill-rule:nonzero;stroke:none"
         d="m 2904.57,2156.56 c 0.3,-7.67 6.97,-10.1 14.04,-10.1 5.35,0 12.63,1.22 12.63,7.78 0,6.67 -8.49,7.78 -17.07,9.69 -8.49,1.92 -17.08,4.75 -17.08,14.75 0,10.51 10.41,14.86 19.5,14.86 11.52,0 20.7,-3.65 21.42,-16.37 h -8.6 c -0.6,6.67 -6.46,8.79 -12.12,8.79 -5.14,0 -11.11,-1.42 -11.11,-6.67 0,-6.16 9.09,-7.17 17.07,-9.09 8.6,-1.92 17.08,-4.75 17.08,-14.85 0,-12.43 -11.62,-16.46 -22.22,-16.46 -11.72,0 -21.63,4.74 -22.12,17.67 h 8.58"
         inkscape:connector-curvature="0" /><path
         id="path96"
         style="fill:#231f20;fill-opacity:1;fill-rule:nonzero;stroke:none"
         d="m 1051.18,2025.26 c 11.52,0 15.97,9.9 15.97,19.69 0,10.31 -4.65,19.8 -16.47,19.8 -11.72,0 -15.66,-10 -15.66,-20.2 0,-9.8 5.06,-19.29 16.16,-19.29 z m 24.25,-6.37 h -8.58 v 7.07 h -0.21 c -2.83,-5.75 -9.49,-8.28 -16.67,-8.28 -16.05,0 -24.04,12.73 -24.04,27.48 0,14.75 7.88,27.17 23.84,27.17 5.36,0 13.03,-2.02 16.87,-8.18 h 0.21 v 26.87 h 8.58 v -72.13"
         inkscape:connector-curvature="0" /><path
         id="path98"
         style="fill:#231f20;fill-opacity:1;fill-rule:nonzero;stroke:none"
         d="m 1125.42,2050.01 c -0.4,8.18 -6.56,14.74 -15.05,14.74 -8.98,0 -14.34,-6.76 -14.95,-14.74 z m 8.29,-14.55 c -2.32,-11.51 -10.6,-17.78 -22.32,-17.78 -16.67,0 -24.55,11.52 -25.06,27.48 0,15.65 10.3,27.17 24.55,27.17 18.49,0 24.14,-17.27 23.63,-29.9 h -39.09 c -0.3,-9.09 4.85,-17.17 16.27,-17.17 7.07,0 12.02,3.44 13.53,10.2 h 8.49"
         inkscape:connector-curvature="0" /><path
         id="path100"
         style="fill:#231f20;fill-opacity:1;fill-rule:nonzero;stroke:none"
         d="m 1207.94,2054.35 c -1.32,6.57 -5.86,10.4 -12.93,10.4 -12.43,0 -16.27,-9.8 -16.27,-20.4 0,-9.6 4.35,-19.09 15.25,-19.09 8.29,0 13.24,4.85 14.35,12.73 h 8.79 c -1.92,-12.73 -9.9,-20.31 -23.03,-20.31 -15.97,0 -24.45,11.11 -24.45,26.67 0,15.66 8.08,27.98 24.65,27.98 11.81,0 21.32,-5.55 22.53,-17.98 h -8.89"
         inkscape:connector-curvature="0" /><path
         id="path102"
         style="fill:#231f20;fill-opacity:1;fill-rule:nonzero;stroke:none"
         d="m 1249.75,2025.26 c 8.98,0 16.26,7.07 16.26,19.69 0,12.73 -7.28,19.8 -16.26,19.8 -9,0 -16.27,-7.07 -16.27,-19.8 0,-12.62 7.27,-19.69 16.27,-19.69 z m 0,47.07 c 16.56,0 25.35,-12.02 25.35,-27.38 0,-15.24 -8.79,-27.27 -25.35,-27.27 -16.58,0 -25.37,12.03 -25.37,27.27 0,15.36 8.79,27.38 25.37,27.38"
         inkscape:connector-curvature="0" /><path
         id="path104"
         style="fill:#231f20;fill-opacity:1;fill-rule:nonzero;stroke:none"
         d="m 1285.7,2071.12 h 8.09 v -8.28 h 0.19 c 3.65,6.46 9.5,9.49 16.98,9.49 13.74,0 17.98,-7.88 17.98,-19.09 v -34.35 h -8.59 v 35.36 c 0,6.36 -4.04,10.5 -10.6,10.5 -10.41,0 -15.46,-6.96 -15.46,-16.36 v -29.5 h -8.59 v 52.23"
         inkscape:connector-curvature="0" /><path
         id="path106"
         style="fill:#231f20;fill-opacity:1;fill-rule:nonzero;stroke:none"
         d="m 1347.62,2035.36 c 0.3,-7.68 6.97,-10.1 14.04,-10.1 5.35,0 12.63,1.21 12.63,7.78 0,6.67 -8.49,7.77 -17.07,9.69 -8.49,1.92 -17.08,4.75 -17.08,14.75 0,10.51 10.41,14.85 19.5,14.85 11.51,0 20.7,-3.63 21.41,-16.37 h -8.59 c -0.6,6.68 -6.46,8.79 -12.12,8.79 -5.14,0 -11.11,-1.41 -11.11,-6.66 0,-6.16 9.09,-7.17 17.07,-9.09 8.59,-1.92 17.08,-4.75 17.08,-14.85 0,-12.43 -11.62,-16.47 -22.23,-16.47 -11.72,0 -21.62,4.75 -22.12,17.68 h 8.59"
         inkscape:connector-curvature="0" /><path
         id="path108"
         style="fill:#231f20;fill-opacity:1;fill-rule:nonzero;stroke:none"
         d="m 1405.29,2071.12 h 10.4 v -7.58 h -10.4 v -32.42 c 0,-3.94 1.11,-4.65 6.47,-4.65 h 3.93 v -7.58 h -6.56 c -8.9,0 -12.43,1.82 -12.43,11.42 v 33.23 h -8.89 v 7.58 h 8.89 v 15.66 h 8.59 v -15.66"
         inkscape:connector-curvature="0" /><path
         id="path110"
         style="fill:#231f20;fill-opacity:1;fill-rule:nonzero;stroke:none"
         d="m 1425.38,2071.12 h 8.08 v -11.01 h 0.2 c 4.14,8.38 9.9,12.53 19.19,12.22 v -9.09 c -13.84,0 -18.89,-7.88 -18.89,-21.11 v -23.24 h -8.58 v 52.23"
         inkscape:connector-curvature="0" /><path
         id="path112"
         style="fill:#231f20;fill-opacity:1;fill-rule:nonzero;stroke:none"
         d="m 1503.06,2018.89 h -8.08 v 8.29 h -0.2 c -3.64,-6.47 -9.5,-9.5 -16.98,-9.5 -13.74,0 -17.98,7.88 -17.98,19.1 v 34.34 h 8.59 v -35.35 c 0,-6.37 4.04,-10.51 10.6,-10.51 10.41,0 15.46,6.97 15.46,16.37 v 29.49 h 8.59 v -52.23"
         inkscape:connector-curvature="0" /><path
         id="path114"
         style="fill:#231f20;fill-opacity:1;fill-rule:nonzero;stroke:none"
         d="m 1516.99,2071.12 h 8.59 v -52.23 h -8.59 z m 8.59,9.39 h -8.59 v 10.51 h 8.59 v -10.51"
         inkscape:connector-curvature="0" /><path
         id="path116"
         style="fill:#231f20;fill-opacity:1;fill-rule:nonzero;stroke:none"
         d="m 1539.1,2071.12 h 8.08 v -11.01 h 0.2 c 4.14,8.38 9.91,12.53 19.19,12.22 v -9.09 c -13.84,0 -18.88,-7.88 -18.88,-21.11 v -23.24 h -8.59 v 52.23"
         inkscape:connector-curvature="0" /><path
         id="path118"
         style="fill:#231f20;fill-opacity:1;fill-rule:nonzero;stroke:none"
         d="m 1608.01,2050.01 c -0.4,8.18 -6.56,14.74 -15.05,14.74 -8.99,0 -14.35,-6.76 -14.95,-14.74 z m 8.29,-14.55 c -2.33,-11.51 -10.62,-17.78 -22.33,-17.78 -16.67,0 -24.55,11.52 -25.05,27.48 0,15.65 10.3,27.17 24.55,27.17 18.48,0 24.14,-17.27 23.63,-29.9 h -39.09 c -0.3,-9.09 4.85,-17.17 16.27,-17.17 7.07,0 12.02,3.44 13.53,10.2 h 8.49"
         inkscape:connector-curvature="0" /><path
         id="path120"
         style="fill:#231f20;fill-opacity:1;fill-rule:nonzero;stroke:none"
         d="m 1677.49,2025.26 c 11.51,0 15.97,9.9 15.97,19.69 0,10.31 -4.65,19.8 -16.47,19.8 -11.72,0 -15.66,-10 -15.66,-20.2 0,-9.8 5.06,-19.29 16.16,-19.29 z m 24.25,-6.37 h -8.59 v 7.07 h -0.2 c -2.83,-5.75 -9.49,-8.28 -16.67,-8.28 -16.06,0 -24.04,12.73 -24.04,27.48 0,14.75 7.88,27.17 23.83,27.17 5.37,0 13.04,-2.02 16.88,-8.18 h 0.2 v 26.87 h 8.59 v -72.13"
         inkscape:connector-curvature="0" /><path
         id="path122"
         style="fill:#231f20;fill-opacity:1;fill-rule:nonzero;stroke:none"
         d="m 1747.79,2045.87 c -3.33,-2.43 -9.79,-2.53 -15.55,-3.54 -5.66,-1.01 -10.51,-3.03 -10.51,-9.39 0,-5.66 4.85,-7.68 10.11,-7.68 11.3,0 15.95,7.07 15.95,11.82 z m 13.94,-26.78 c -1.52,-0.9 -3.43,-1.41 -6.16,-1.41 -4.45,0 -7.27,2.43 -7.27,8.09 -4.75,-5.56 -11.11,-8.09 -18.39,-8.09 -9.49,0 -17.27,4.25 -17.27,14.65 0,11.82 8.79,14.34 17.68,16.06 9.49,1.82 17.57,1.21 17.57,7.68 0,7.47 -6.16,8.68 -11.61,8.68 -7.28,0 -12.63,-2.22 -13.04,-9.89 h -8.58 c 0.51,12.93 10.51,17.47 22.13,17.47 9.38,0 19.59,-2.12 19.59,-14.34 v -26.87 c 0,-4.04 0,-5.86 2.72,-5.86 0.71,0 1.53,0.1 2.63,0.51 v -6.68"
         inkscape:connector-curvature="0" /><path
         id="path124"
         style="fill:#231f20;fill-opacity:1;fill-rule:nonzero;stroke:none"
         d="m 1770.21,2071.12 h 8.07 v -8.28 h 0.21 c 3.64,6.46 9.5,9.49 16.97,9.49 13.74,0 17.98,-7.88 17.98,-19.09 v -34.35 h -8.59 v 35.36 c 0,6.36 -4.04,10.5 -10.6,10.5 -10.41,0 -15.46,-6.96 -15.46,-16.36 v -29.5 h -8.58 v 52.23"
         inkscape:connector-curvature="0" /><path
         id="path126"
         style="fill:#231f20;fill-opacity:1;fill-rule:nonzero;stroke:none"
         d="m 1832.12,2035.36 c 0.3,-7.68 6.97,-10.1 14.04,-10.1 5.35,0 12.63,1.21 12.63,7.78 0,6.67 -8.49,7.77 -17.07,9.69 -8.49,1.92 -17.08,4.75 -17.08,14.75 0,10.51 10.41,14.85 19.5,14.85 11.51,0 20.7,-3.63 21.42,-16.37 h -8.6 c -0.6,6.68 -6.46,8.79 -12.12,8.79 -5.14,0 -11.11,-1.41 -11.11,-6.66 0,-6.16 9.09,-7.17 17.07,-9.09 8.59,-1.92 17.08,-4.75 17.08,-14.85 0,-12.43 -11.62,-16.47 -22.23,-16.47 -11.71,0 -21.62,4.75 -22.11,17.68 h 8.58"
         inkscape:connector-curvature="0" /><path
         id="path128"
         style="fill:#231f20;fill-opacity:1;fill-rule:nonzero;stroke:none"
         d="m 1906.96,2091.02 h 8.59 v -72.13 h -8.59 v 72.13"
         inkscape:connector-curvature="0" /><path
         id="path130"
         style="fill:#231f20;fill-opacity:1;fill-rule:nonzero;stroke:none"
         d="m 1965.63,2050.01 c -0.4,8.18 -6.56,14.74 -15.04,14.74 -8.99,0 -14.35,-6.76 -14.96,-14.74 z m 8.3,-14.55 c -2.33,-11.51 -10.61,-17.78 -22.33,-17.78 -16.67,0 -24.55,11.52 -25.06,27.48 0,15.65 10.31,27.17 24.55,27.17 18.49,0 24.14,-17.27 23.64,-29.9 h -39.1 c -0.3,-9.09 4.86,-17.17 16.27,-17.17 7.07,0 12.03,3.44 13.54,10.2 h 8.49"
         inkscape:connector-curvature="0" /><path
         id="path132"
         style="fill:#231f20;fill-opacity:1;fill-rule:nonzero;stroke:none"
         d="m 2048.16,2054.35 c -1.31,6.57 -5.86,10.4 -12.93,10.4 -12.43,0 -16.27,-9.8 -16.27,-20.4 0,-9.6 4.35,-19.09 15.26,-19.09 8.28,0 13.23,4.85 14.34,12.73 h 8.79 c -1.92,-12.73 -9.9,-20.31 -23.02,-20.31 -15.97,0 -24.46,11.11 -24.46,26.67 0,15.66 8.09,27.98 24.65,27.98 11.82,0 21.32,-5.55 22.53,-17.98 h -8.89"
         inkscape:connector-curvature="0" /><path
         id="path134"
         style="fill:#231f20;fill-opacity:1;fill-rule:nonzero;stroke:none"
         d="m 2099.77,2045.87 c -3.33,-2.43 -9.8,-2.53 -15.56,-3.54 -5.66,-1.01 -10.51,-3.03 -10.51,-9.39 0,-5.66 4.85,-7.68 10.11,-7.68 11.31,0 15.96,7.07 15.96,11.82 z m 13.93,-26.78 c -1.51,-0.9 -3.43,-1.41 -6.16,-1.41 -4.44,0 -7.27,2.43 -7.27,8.09 -4.74,-5.56 -11.11,-8.09 -18.39,-8.09 -9.49,0 -17.27,4.25 -17.27,14.65 0,11.82 8.79,14.34 17.68,16.06 9.5,1.82 17.57,1.21 17.57,7.68 0,7.47 -6.16,8.68 -11.61,8.68 -7.27,0 -12.62,-2.22 -13.04,-9.89 h -8.58 c 0.51,12.93 10.51,17.47 22.13,17.47 9.38,0 19.59,-2.12 19.59,-14.34 v -26.87 c 0,-4.04 0,-5.86 2.72,-5.86 0.72,0 1.53,0.1 2.63,0.51 v -6.68"
         inkscape:connector-curvature="0" /><path
         id="path136"
         style="fill:#231f20;fill-opacity:1;fill-rule:nonzero;stroke:none"
         d="m 2122.19,2071.12 h 8.08 v -8.28 h 0.2 c 3.64,6.46 9.49,9.49 16.97,9.49 13.74,0 17.98,-7.88 17.98,-19.09 v -34.35 h -8.58 v 35.36 c 0,6.36 -4.05,10.5 -10.61,10.5 -10.41,0 -15.46,-6.96 -15.46,-16.36 v -29.5 h -8.58 v 52.23"
         inkscape:connector-curvature="0" /><path
         id="path138"
         style="fill:#231f20;fill-opacity:1;fill-rule:nonzero;stroke:none"
         d="m 2190.77,2071.12 h 10.4 v -7.58 h -10.4 v -32.42 c 0,-3.94 1.11,-4.65 6.47,-4.65 h 3.93 v -7.58 h -6.56 c -8.9,0 -12.43,1.82 -12.43,11.42 v 33.23 h -8.89 v 7.58 h 8.89 v 15.66 h 8.59 v -15.66"
         inkscape:connector-curvature="0" /><path
         id="path140"
         style="fill:#231f20;fill-opacity:1;fill-rule:nonzero;stroke:none"
         d="m 2233.69,2025.26 c 8.99,0 16.26,7.07 16.26,19.69 0,12.73 -7.27,19.8 -16.26,19.8 -8.99,0 -16.27,-7.07 -16.27,-19.8 0,-12.62 7.28,-19.69 16.27,-19.69 z m 0,47.07 c 16.56,0 25.35,-12.02 25.35,-27.38 0,-15.24 -8.79,-27.27 -25.35,-27.27 -16.57,0 -25.36,12.03 -25.36,27.27 0,15.36 8.79,27.38 25.36,27.38"
         inkscape:connector-curvature="0" /><path
         id="path142"
         style="fill:#231f20;fill-opacity:1;fill-rule:nonzero;stroke:none"
         d="m 2269.64,2071.12 h 8.07 v -8.28 h 0.21 c 3.64,6.46 9.5,9.49 16.97,9.49 13.74,0 17.98,-7.88 17.98,-19.09 v -34.35 h -8.58 v 35.36 c 0,6.36 -4.05,10.5 -10.61,10.5 -10.41,0 -15.46,-6.96 -15.46,-16.36 v -29.5 h -8.58 v 52.23"
         inkscape:connector-curvature="0" /><path
         id="path144"
         style="fill:#231f20;fill-opacity:1;fill-rule:nonzero;stroke:none"
         d="m 2377.3,2025.26 c 11.53,0 15.97,9.9 15.97,19.69 0,10.31 -4.65,19.8 -16.46,19.8 -11.72,0 -15.67,-10 -15.67,-20.2 0,-9.8 5.05,-19.29 16.16,-19.29 z m 24.25,-6.37 h -8.58 v 7.07 h -0.21 c -2.83,-5.75 -9.49,-8.28 -16.67,-8.28 -16.05,0 -24.04,12.73 -24.04,27.48 0,14.75 7.88,27.17 23.85,27.17 5.35,0 13.03,-2.02 16.86,-8.18 h 0.21 v 26.87 h 8.58 v -72.13"
         inkscape:connector-curvature="0" /><path
         id="path146"
         style="fill:#231f20;fill-opacity:1;fill-rule:nonzero;stroke:none"
         d="m 2451.54,2050.01 c -0.4,8.18 -6.56,14.74 -15.05,14.74 -8.98,0 -14.34,-6.76 -14.95,-14.74 z m 8.29,-14.55 c -2.32,-11.51 -10.61,-17.78 -22.32,-17.78 -16.67,0 -24.55,11.52 -25.06,27.48 0,15.65 10.3,27.17 24.55,27.17 18.49,0 24.14,-17.27 23.63,-29.9 h -39.09 c -0.3,-9.09 4.86,-17.17 16.27,-17.17 7.07,0 12.02,3.44 13.54,10.2 h 8.48"
         inkscape:connector-curvature="0" /><path
         id="path148"
         style="fill:#231f20;fill-opacity:1;fill-rule:nonzero;stroke:none"
         d="m 2509.61,2026.98 h 24.04 c 8.28,0 13.54,5.04 13.54,12.93 0,9.39 -7.57,12.02 -15.66,12.02 h -21.92 z m 0,33.03 h 19.2 c 10.91,0 15.35,3.94 15.35,11.51 0,10 -7.07,11.42 -15.35,11.42 h -19.2 z m -9.59,31.01 h 26.16 c 6.36,0 14.75,0 19.09,-2.63 4.75,-2.82 8.49,-7.98 8.49,-15.05 0,-7.68 -4.04,-13.43 -10.71,-16.16 v -0.2 c 8.88,-1.82 13.74,-8.49 13.74,-17.38 0,-10.6 -7.58,-20.71 -21.93,-20.71 h -34.84 v 72.13"
         inkscape:connector-curvature="0" /><path
         id="path150"
         style="fill:#231f20;fill-opacity:1;fill-rule:nonzero;stroke:none"
         d="m 2604.56,2050.01 c -0.4,8.18 -6.56,14.74 -15.05,14.74 -8.98,0 -14.34,-6.76 -14.95,-14.74 z m 8.29,-14.55 c -2.32,-11.51 -10.6,-17.78 -22.32,-17.78 -16.67,0 -24.55,11.52 -25.06,27.48 0,15.65 10.3,27.17 24.55,27.17 18.49,0 24.14,-17.27 23.63,-29.9 h -39.09 c -0.3,-9.09 4.85,-17.17 16.27,-17.17 7.07,0 12.02,3.44 13.54,10.2 h 8.48"
         inkscape:connector-curvature="0" /><path
         id="path152"
         style="fill:#231f20;fill-opacity:1;fill-rule:nonzero;stroke:none"
         d="m 2622.73,2071.12 h 8.08 v -11.01 h 0.21 c 4.14,8.38 9.9,12.53 19.19,12.22 v -9.09 c -13.84,0 -18.89,-7.88 -18.89,-21.11 v -23.24 h -8.59 v 52.23"
         inkscape:connector-curvature="0" /><path
         id="path154"
         style="fill:#231f20;fill-opacity:1;fill-rule:nonzero;stroke:none"
         d="m 2658.97,2071.12 h 8.08 v -8.28 h 0.21 c 3.64,6.46 9.5,9.49 16.97,9.49 13.74,0 17.98,-7.88 17.98,-19.09 v -34.35 h -8.59 v 35.36 c 0,6.36 -4.04,10.5 -10.6,10.5 -10.41,0 -15.46,-6.96 -15.46,-16.36 v -29.5 h -8.59 v 52.23"
         inkscape:connector-curvature="0" /><path
         id="path156"
         style="fill:#231f20;fill-opacity:1;fill-rule:nonzero;stroke:none"
         d="m 2751.89,2050.01 c -0.4,8.18 -6.56,14.74 -15.04,14.74 -8.99,0 -14.35,-6.76 -14.96,-14.74 z m 8.3,-14.55 c -2.33,-11.51 -10.62,-17.78 -22.33,-17.78 -16.67,0 -24.55,11.52 -25.06,27.48 0,15.65 10.31,27.17 24.55,27.17 18.49,0 24.14,-17.27 23.64,-29.9 h -39.1 c -0.3,-9.09 4.86,-17.17 16.27,-17.17 7.07,0 12.03,3.44 13.54,10.2 h 8.49"
         inkscape:connector-curvature="0" /></g></g></svg>