<?xml version="1.0" encoding="utf-8"?>
<!-- Generator: Adobe Illustrator 24.2.0, SVG Export Plug-In . SVG Version: 6.00 Build 0)  -->
<svg version="1.1" id="Ebene_1" xmlns="http://www.w3.org/2000/svg" xmlns:xlink="http://www.w3.org/1999/xlink" x="0px" y="0px"
	 viewBox="0 0 296 382" style="enable-background:new 0 0 296 382;" xml:space="preserve">
<style type="text/css">
	.st0{fill:#2C3443;}
</style>
<path class="st0" d="M147,349.1c-29.6,0-57.6-4-78.7-11.3c-30.3-10.4-36.7-23.9-36.7-33.4c0-27.2,50-41.8,99.7-44.3
	c2.9-0.1,5.6,1.4,7,4l8.7,16.6l8.8-16.6c1.3-2.6,4.1-4.2,7-4c49.6,2.4,99.7,17.1,99.7,44.3c0,9.5-6.4,22.9-36.7,33.4
	C204.6,345.1,176.6,349.1,147,349.1z M127.2,275.4c-52,3.4-80.6,19.1-80.6,29c0,12.1,39.1,29.7,100.4,29.7s100.4-17.6,100.4-29.7
	c0-10-28.7-25.6-80.6-29l-13.1,24.9c-1.9,3.7-6.5,5.1-10.1,3.1c-1.3-0.7-2.4-1.8-3.1-3.1L127.2,275.4z"/>
<path class="st0" d="M147,304.3c-2.8,0-5.3-1.5-6.6-4L125,271.2l-0.1-0.1l0,0L62,151.7l-0.2-0.4c-26.2-47-9.3-106.4,37.7-132.6
	S206,9.4,232.2,56.5c16.4,29.5,16.4,65.4,0,94.9l-0.2,0.4L169.1,271l-0.1,0.1l-15.4,29.2C152.3,302.8,149.8,304.3,147,304.3z
	 M138.3,264.2l8.7,16.5l8.7-16.5c0,0,0.1-0.1,0.1-0.1l62.6-118.8c0.1-0.3,0.2-0.5,0.4-0.8c22.4-39.7,8.5-90-31.2-112.4
	s-90-8.5-112.4,31.2c-14.3,25.2-14.3,56,0,81.2c0.1,0.3,0.3,0.5,0.4,0.8L138.2,264C138.2,264.1,138.3,264.1,138.3,264.2L138.3,264.2
	z M147,142.2c-22.4,0-40.6-18.2-40.6-40.6s18.2-40.6,40.6-40.6s40.6,18.2,40.6,40.6c0,0,0,0,0,0C187.6,124,169.4,142.2,147,142.2
	L147,142.2z M147,76c-14.2,0-25.6,11.5-25.6,25.6c0,14.2,11.5,25.6,25.6,25.6c14.2,0,25.6-11.5,25.6-25.6c0,0,0,0,0,0
	C172.6,87.4,161.1,76,147,76L147,76z"/>
<path class="st0" d="M147,142.2c-22.4,0-40.6-18.2-40.6-40.6S124.5,61,147,61s40.6,18.2,40.6,40.6c0,0,0,0,0,0
	C187.6,124,169.4,142.2,147,142.2z M147,76c-14.2,0-25.6,11.5-25.6,25.6c0,14.2,11.5,25.6,25.6,25.6c14.2,0,25.6-11.5,25.6-25.6
	c0,0,0,0,0,0C172.6,87.5,161.1,76,147,76z"/>
<path class="st0" d="M147,142.2c-22.4,0-40.6-18.2-40.6-40.6S124.5,61,147,61s40.6,18.2,40.6,40.6c0,0,0,0,0,0
	C187.6,124,169.4,142.2,147,142.2z M147,76c-14.2,0-25.6,11.5-25.6,25.6c0,14.2,11.5,25.6,25.6,25.6c14.2,0,25.6-11.5,25.6-25.6
	c0,0,0,0,0,0C172.6,87.5,161.1,76,147,76z"/>
<path class="st0" d="M147,373.7c-36.5,0-71-5.3-97-15c-28.4-10.5-44-25.4-44-42c0-10.9,6.7-26.8,38.8-40
	c22.6-9.4,53.3-15.3,86.5-16.7c2.9-0.1,5.7,1.5,7,4.1l0,0l8.8,16.5l8.7-16.5c1.3-2.6,4.1-4.3,7-4.1c33.2,1.4,63.9,7.3,86.5,16.7
	c32,13.2,38.8,29,38.8,40c0,16.6-15.6,31.5-44,42C218,368.4,183.5,373.7,147,373.7z M127.2,275.3C63.4,278.9,21,299.3,21,316.7
	c0,9.6,12.8,20,34.2,28c24.4,9,57,14,91.8,14s67.4-5,91.8-14c21.4-8,34.2-18.4,34.2-28c0-17.4-42.5-37.9-106.2-41.4l-13.2,25
	c-1.9,3.7-6.5,5.1-10.1,3.1c-1.3-0.7-2.4-1.8-3.1-3.1L127.2,275.3z"/>
</svg>
