<?xml version="1.0" encoding="utf-8"?>
<!-- Generator: Adobe Illustrator 19.0.0, SVG Export Plug-In . SVG Version: 6.00 Build 0)  -->
<svg version="1.1" id="Ebene_1" xmlns="http://www.w3.org/2000/svg" xmlns:xlink="http://www.w3.org/1999/xlink" x="0px" y="0px"
	 viewBox="0 0 250 108" style="enable-background:new 0 0 250 108;" xml:space="preserve">
<style type="text/css">
	.st0{clip-path:url(#SVGID_2_);fill:#FFD500;stroke:#000000;stroke-miterlimit:3.8637;}
	.st1{clip-path:url(#SVGID_2_);}
	.st2{clip-path:url(#SVGID_2_);fill:#FFD500;}
	.st3{clip-path:url(#SVGID_2_);fill-rule:evenodd;clip-rule:evenodd;}
</style>
<g>
	<g>
		<defs>
			<rect id="SVGID_1_" x="0" y="0" width="250" height="108"/>
		</defs>
		<clipPath id="SVGID_2_">
			<use xlink:href="#SVGID_1_"  style="overflow:visible;"/>
		</clipPath>
		<path class="st0" d="M9.5,0.6h87.9c4.7,0,8.5,3.8,8.5,8.5V97c0,4.7-3.8,8.5-8.5,8.5H9.5c-4.7,0-8.5-3.8-8.5-8.5V9.1
			C1,4.4,4.8,0.6,9.5,0.6L9.5,0.6z"/>
		<path class="st1" d="M70.7,4.5c-1,2.1-0.5,4.5,1,6.1c4.9,4.1,9.7,9.2,9.2,16.1c-0.1,5.1-3.1,9-5.6,13.2c0,0.3,0.3,0.4,0.5,0.4
			c2.9-1.1,7.4-0.9,9.9,0.9l0.6,0.1c-0.4,2.2-2.1,4.3-4.2,5.2c-2.2,1.1-4.9,0.9-7.5,0.9c-0.4,1.6-0.5,3.4-1.3,4.8
			c-1.1,3.1-3.7,5-6,7.4c-2,4-4.4,7.9-3.8,12.9c1.8,2.9,3.7,6.8,1.7,10.2h-0.3c-1.2-1.3-2.2-2-3.5-3c0.3-0.8-0.6-1.7-1.3-1.8
			c-1.2,0.2-0.8-1.2-1.2-1.8c-1.5-8.7-3.6-17.9-0.7-26.6c0.5,0.1,1.1,0.4,1.7,0.4c0.9,1,1.2,2.6,2.7,2.9c1.2,0.2,2.3-0.2,3.2-1.1
			c1.7-1.6,1.8-4.3,4.2-5.2c0.1-0.3,0.6-0.5,0.5-0.9c-0.9-0.5-2.1,0-3-0.4c-2.1-0.7-5.3-1.6-7.3,0c-3.2,2.2-2.9,6.4-3.9,9.8
			c-0.7,7.8,1.2,15.3,2.2,22.6c-0.7,0.4-1.8,1-2,1.9c-0.2,1.1,0.8,1.8,1.3,2.4c0.9,1.6,3.1,2.6,3.4,4.4c-1.4,0.7-3.1,0.8-4.6,1
			L55.9,85c0.8-0.6,2.1-0.3,2.9-0.9c0-0.2-0.2-0.4-0.4-0.3c-3.3,0.5-6.9,0.5-10.2,0L48,84.1c0.8,0.5,2.1,0.5,3.2,0.7
			c0,0.8-0.4,1.7-0.5,2.5c-1.7,0-3.4-0.4-4.9-1c0.6-2,2.7-2.8,3.5-4.7c0.4-0.3,1.1-0.5,1.3-1.1c0.2-0.7,0.1-1.5-0.6-2l-1.5-1
			c1.5-10.3,4.4-21.4-0.4-30.9c-1.4-2.1-3.8-2.6-6.1-2.2c-1.9,0.4-3.8,1.2-5.8,0.9c0.3,1.1,1.3,2,2.3,2.4c0.9,2,1.8,4.8,4.4,5.2
			c1,0.2,1.8-0.2,2.5-0.7l1.4-2.2l1.9-0.3c2.9,8.6,0.6,18.7-0.8,27.3l-0.2,0.3c0.1,0,0.1,0.1,0.1,0.2c-0.7,0.4-1.6,0.6-2,1.5
			c-0.2,0.3,0,0.7,0.1,0.9c-1.1,1.1-2.6,1.6-3.7,3c-0.7-0.2-0.7-1.1-0.9-1.6c-1.2-3.5,1.3-6.2,2.2-9.1c0.2-5.2-2-10-5.3-13.9
			c-3.4-2.8-5.5-6.4-5.9-10.6c-1-0.3-2.3,0.1-3.4-0.1c-2.6-0.1-5.2-0.6-6.8-2.8c-0.9-0.9-1.2-2.1-1.5-3.3c2.9-0.7,5.8-2.7,9-1.3
			c0.6,0.1,1.3,0.7,1.9,0.1c-0.5-1.5-1.8-2.7-2.5-4.1c-3-4.2-4.2-10.4-2.2-15.5c1.3-4.3,5.5-7.2,8.4-10.3c1.3-1.5,1.5-3.9,0.7-5.6
			c0.3-0.1,0.7,0.2,1,0.5c1.4,1.6,2,3.9,1.3,6c-1.6,4.1-6.7,6.7-6.7,11.5c0.1,5.3,3,9.4,6.3,13.4c0.6,0.1,0.8-0.5,1.3-0.6
			c1.6-0.6,3.4-0.2,4.6,0.7c1.8-0.8,4.3-0.7,5.8,0.5c2.1-1.2,5.3-1.4,7.4-0.1c1.5-0.9,3.7-1.5,5.5-0.6c0.8,0.7,1.4-0.6,2.2-0.7
			c1.4-0.5,2.9,0.1,4.2,0.5c2.6-2.5,4.2-5.7,5.5-8.9c0.7-2.5,1.2-5.9-0.4-8.1c-1.9-3.5-6.1-5.7-5.8-10C68.1,7.1,69,5.3,70.7,4.5
			L70.7,4.5z"/>
		<path class="st2" d="M31.8,44c0.2,0.7-0.3,1.3-0.9,1.4c-3,0.8-6.1,0.1-8.3-2.1l-0.2-0.6c1.5-0.2,2.8-0.8,4.2-1.2
			c0.6-0.1,1.3,0,2,0.1C29.9,41.9,31.3,42.7,31.8,44L31.8,44z"/>
		<path class="st2" d="M84.3,42.5c-0.7,1.7-2.6,2.4-4.3,2.9c-1.7,0.3-4,0.4-5-1.2c-0.4-0.9,0.5-1.5,1.1-2
			C78.7,40.8,81.7,41.9,84.3,42.5L84.3,42.5z"/>
		<path class="st1" d="M83.4,42.8c-1,1.7-3.2,2-5.1,2.3c-1-0.2-2.2-0.1-2.7-1.2c-0.1-0.8,0.9-1.1,1.4-1.5
			C79.1,41.6,81.4,42.4,83.4,42.8L83.4,42.8z"/>
		<path class="st1" d="M31.3,44.1c-0.7,1.3-2.5,1-3.9,0.9c-1.5-0.2-2.9-0.6-4-1.8C25.8,42,29.6,41.4,31.3,44.1L31.3,44.1z"/>
		<path class="st1" d="M69.3,46.1c-0.2,0.6-1.1,0.9-1.7,1.2c-1,0.5-2.2,0.5-3.1,1.2c0.4,0.5,0.7,1.4,0.3,2c-0.4,0.7-1.3,0.8-2,0.6
			c-0.9-0.4-1-1.4-0.9-2.2c-1.1,0-2.7,0.9-3.4-0.4c0-1.6,1.6-2.7,2.8-3.3C64.1,44,66.5,46.2,69.3,46.1L69.3,46.1z"/>
		<path class="st1" d="M47.6,47.1c0.5,0.4,0.7,1.1,0.6,1.7c-1.1,0.9-2.4-0.1-3.5,0c0.2,0.7,0.3,1.4,0,2c-0.5,0.6-1.4,0.5-2,0.3
			c-0.7-0.4-1-1.2-0.7-2c0-0.3,0.5-0.5,0.4-0.8c-1.8-0.6-4-0.7-5-2.4c3,0.2,5.7-2,8.6-0.4L47.6,47.1L47.6,47.1z"/>
		<path class="st1" d="M49.3,80.1c-0.2,2.8-4,3.9-4.3,6.7c-0.7,3.1,0.7,6.4,3.5,8.2c3.2,1.7,7.8,1.8,10.8-0.3c2.6-2,3.6-5,3-8.2
			c-0.7-2.6-4.2-3.8-4.4-6.5c0.3-0.6,0.9-0.7,1.5-0.7c0.7-0.1,1,0.7,1.6,0.8c2.8,1.6,5,4.5,5.5,7.6c0.9,4.3-1.1,8.5-4.7,10.9
			c-4,2.9-10.3,3.1-14.7,0.9c-4.2-1.7-6.7-6-6.6-10.2c0.2-3.4,1.7-6.5,4.7-8.1C46.5,80.5,47.9,78,49.3,80.1L49.3,80.1z"/>
		<path class="st1" d="M55.1,84.8c0.7,2.9,2.2,6.2,0.6,9c-0.9,0.9-2.3,1.2-3.5,0.6c-0.7-0.3-1.3-0.9-1.4-1.7
			c-0.4-2.7,0.4-5.4,1.2-7.9H55.1L55.1,84.8z"/>
		<polygon class="st1" points="238.5,33.8 250,33.8 250,105.7 238.5,105.7 238.5,33.8 		"/>
		<path class="st3" d="M153,15.1c0,0.1-6.9,0-6.9,0c0,0.1,3.2-8.6,3.2-8.6L153,15.1L153,15.1z M161.4,25.9c0.1,0.1-3.7,0.1-3.8,0
			c0,0.1-3.6-7.4-3.6-7.4l-9.4,0l-3.2,7.4c0,0.1-3.8,0.1-3.8,0l9.7-25.1c0.1,0.1,3.6,0,3.5,0C150.9,0.8,161.3,26,161.4,25.9
			L161.4,25.9z"/>
		<path class="st3" d="M204.2,13.5c0-5.2,4.2-9.4,9.4-9.4c5.2,0,9.4,4.2,9.4,9.4c0,5.2-4.2,9.4-9.4,9.4
			C208.5,22.9,204.2,18.7,204.2,13.5L204.2,13.5z M200.5,13.5c0-7.3,5.9-13.1,13.1-13.1c7.3,0,13.1,5.9,13.1,13.1
			c0,7.3-5.9,13.1-13.1,13.1C206.4,26.6,200.5,20.7,200.5,13.5L200.5,13.5z"/>
		<path class="st3" d="M217.7,56.1c0,8.5-6.3,13.8-13.8,13.8h-13.1V42.8h13.1C211.7,42.8,217.7,48.5,217.7,56.1L217.7,56.1z
			 M205.5,33c8.5,0,22.5,5.5,22.6,22.8c-0.1,14.9-10.2,20.4-19.4,21.8l20.7,28.3v0.2c-4.7,0.1-9.2,0-13.9,0c0,0-24.5-33.7-24.6-33.5
			l0,33.5c0.2,0.1-11.1,0.2-11.1,0l0.1-73.2H205.5L205.5,33z"/>
		<path class="st1" d="M200.1,0.8c0,0,0,3.3,0,3.3c0,0-4.7,0-4.7,0c0,0,0,21.8,0,21.7c0.1,0.1-3.6,0-3.7,0c0,0,0-21.7,0-21.7
			s-5,0.1-4.9,0V0.8C186.8,0.9,200.1,0.8,200.1,0.8L200.1,0.8z"/>
		<path class="st1" d="M123.2,0.9c0.1,0.1,0,12.2,0,12.2c0,0.1,9.8-12.2,9.8-12.2c0,0,4.5-0.1,4.5,0c0,0-9.7,12.7-9.7,12.7
			c-0.1,0.1,9.4,12.5,9.4,12.4c0.1,0.1-4.6,0-4.6-0.1c-0.1,0-9.4-11.6-9.4-11.7c0,0,0,11.7,0,11.8c0.1,0.1-3.7,0-3.7,0
			c0,0.1,0-25.1,0-25.1C119.3,0.9,123.2,0.9,123.2,0.9L123.2,0.9z"/>
		<path class="st1" d="M167.7,73c0,9.8,0.2,21.4-8,28.3c-6.5,5.8-16.3,7.8-24.9,4.9c-8.1-2.8-15-10.8-15.5-19.5l0-54l10.4,0.1v33.7
			c0.8,11-3.6,23.1,7,29.6c4.4,2.1,10.7,2.2,14.7-1.2c4-3.2,5.3-8.1,5.2-13.1V33.4l11-0.2V73L167.7,73z"/>
		<path class="st1" d="M250,0.9c0,0,0,25.1,0,25.1c0,0-3.5,0-3.5,0l-13.5-18c0,0-0.1,18,0,18c-0.1,0-3.5,0-3.5,0V0.9h3.5l13.5,18.5
			V0.9H250L250,0.9z"/>
		<path class="st1" d="M183.7,0.9c0,0,0,25.1,0,25.1c0,0-3.5,0-3.5,0l-13.5-18c0,0-0.1,18,0,18c-0.1,0-3.5,0-3.5,0V0.9h3.5
			l13.5,18.5V0.9H183.7L183.7,0.9z"/>
	</g>
</g>
</svg>
