<?xml version="1.0" encoding="utf-8"?>
<!-- Generator: Adobe Illustrator 24.2.0, SVG Export Plug-In . SVG Version: 6.00 Build 0)  -->
<svg version="1.1" id="Ebene_1" xmlns="http://www.w3.org/2000/svg" xmlns:xlink="http://www.w3.org/1999/xlink" x="0px" y="0px"
	 viewBox="0 0 587 342.2" style="enable-background:new 0 0 587 342.2;" xml:space="preserve">
<style type="text/css">
	.st0{fill:#2C3443;}
</style>
<g>
	<path class="st0" d="M294,0c52,0,94,42,94,95c0,52-42,94-94,94c-53,0-95-42-95-94C199,42,241,0,294,0z M294,20c-42,0-75,33-75,75
		c0,41,33,74,75,74c41,0,74-33,74-74C368,53,335,20,294,20z"/>
	<path class="st0" d="M172,334c0,5-5,9-11,8c-5,0-9-5-8-11c8-71,68-126,141-126c72,0,133,55,141,126c0,6-4,11-9,11c-6,1-11-3-11-8
		c-7-62-59-109-121-109S179,272,172,334z"/>
	<path class="st0" d="M479,81c41,0,74,33,74,73c0,41-33,74-74,74c-40,0-73-33-73-74C406,114,439,81,479,81z M479,101
		c-29,0-53,24-53,53c0,30,24,54,53,54c30,0,54-24,54-54C533,125,509,101,479,101z"/>
	<path class="st0" d="M439,268c-5,3-11,1-14-4c-2-5,0-11,5-14c15-7,32-12,49-12c54,0,100,40,108,93c1,5-3,11-8,11c-6,1-11-3-12-8
		c-6-44-44-76-88-76C465,258,451,262,439,268z"/>
	<path class="st0" d="M108,81c40,0,73,33,73,73c0,41-33,74-73,74c-41,0-74-33-74-74C34,114,67,81,108,81z M108,101
		c-30,0-54,24-54,53c0,30,24,54,54,54c29,0,53-24,53-54C161,125,137,101,108,101z"/>
	<path class="st0" d="M20,334c-1,5-6,9-11,8c-6,0-10-6-9-11c8-53,54-93,108-93c17,0,34,5,50,12c4,3,6,9,4,14c-3,5-9,7-14,4
		c-12-6-26-10-40-10C64,258,26,290,20,334z"/>
</g>
</svg>
