<?xml version="1.0" encoding="utf-8"?>
<!-- Generator: Adobe Illustrator 24.2.0, SVG Export Plug-In . SVG Version: 6.00 Build 0)  -->
<svg version="1.1" id="Ebene_1" xmlns="http://www.w3.org/2000/svg" xmlns:xlink="http://www.w3.org/1999/xlink" x="0px" y="0px"
	 viewBox="0 0 41.8 61.5" style="enable-background:new 0 0 41.8 61.5;" xml:space="preserve">
<style type="text/css">
	.st0{fill:#2C3443;}
</style>
<path class="st0" d="M41.4,23.3c-1.9-1.1-4.2-1.3-6.3-0.6c-0.1,0-0.3-0.1-0.3-0.2c1.6-2.7,3.5-5.1,3.6-8.4c0.3-4.4-2.7-7.6-5.8-10.2
	c-1-1-1.2-2.6-0.6-3.9l-0.1,0c-1,0.5-1.7,1.6-1.7,2.8c-0.2,2.7,2.5,4.1,3.7,6.3c1,1.4,0.7,3.6,0.3,5.1c-0.8,2.1-1.9,4-3.5,5.6
	c-0.8-0.4-1.8-0.5-2.7-0.3c-0.5,0.1-0.9,0.9-1.4,0.5c-1.2-0.5-2.5-0.3-3.5,0.4c-1.5-0.8-3.2-0.8-4.7,0.1c-1.1-0.7-2.5-0.9-3.7-0.3
	c-0.8-0.6-1.9-0.8-2.9-0.5c-0.3,0.1-0.5,0.5-0.8,0.4c-2.1-2.5-3.9-5.1-4-8.5c0-3,3.2-4.7,4.2-7.3c0.4-1.3,0.1-2.8-0.8-3.8
	c-0.2-0.2-0.4-0.4-0.6-0.3c0.5,1.2,0.3,2.5-0.4,3.6c-1.8,2-4.5,3.8-5.3,6.5c-1.2,3.3-0.6,7,1.4,9.8c0.6,0.8,1.1,1.7,1.6,2.6
	c-0.4,0.4-0.8,0-1.2-0.1c-2-0.9-3.9,0.4-5.7,0.8c0.1,0.8,0.5,1.5,1,2.1c1,1.4,2.7,1.7,4.3,1.8c0.7,0.1,1.5-0.1,2.1,0.1
	c0.3,2.7,1.6,5.1,3.8,6.7c2.2,2.4,3.4,5.6,3.3,8.8c-0.6,1.8-2.2,3.5-1.4,5.8c0.1,0.3,0.1,0.9,0.6,1c0.7-0.9,1.7-1.2,2.4-1.9
	c-0.1-0.1-0.2-0.4-0.1-0.6c0.3-0.6,0.8-0.7,1.3-1c0-0.1,0-0.1-0.1-0.1l0.1-0.2c0.9-5.5,2.4-11.9,0.5-17.3l-1.2,0.2l-0.9,1.4
	c-0.4,0.4-1,0.5-1.6,0.5c-1.7-0.3-2.2-2-2.8-3.3c-0.7-0.3-1.2-0.8-1.5-1.5c1.3,0,2.5-0.2,3.7-0.6c1.5-0.4,3,0.2,3.9,1.4
	c3,6,1.2,13.1,0.2,19.6l1,0.6c0.4,0.3,0.5,0.8,0.4,1.2c-0.1,0.4-0.6,0.5-0.8,0.7c-0.5,1.2-1.8,1.7-2.2,3c1,0.4,2,0.6,3.1,0.6
	c0.1-0.5,0.2-1.1,0.3-1.6c-0.7,0-1.4-0.2-2-0.4l0.1-0.2c2.1,0.3,4.3,0.3,6.5,0c0.1-0.1,0.2,0.1,0.2,0.2c-0.5,0.4-1.3,0.2-1.8,0.6
	l0.5,1.5c1-0.1,2-0.3,2.9-0.6c-0.2-1.1-1.6-1.8-2.2-2.8c-0.3-0.4-1-1-0.8-1.5c0.1-0.6,0.8-0.9,1.3-1.2c-0.6-4.6-1.8-9.4-1.4-14.3
	c0.6-2.2,0.5-4.8,2.5-6.2c1.3-1,3.3-0.4,4.6,0c0.6,0.2,1.3-0.1,1.9,0.2c0.1,0.3-0.3,0.4-0.3,0.6c-1.5,0.6-1.6,2.3-2.7,3.3
	c-0.5,0.6-1.3,0.8-2,0.7c-1-0.2-1.1-1.2-1.7-1.8c-0.4,0-0.7-0.1-1.1-0.2c-1.8,5.5-0.5,11.4,0.5,16.9c0.2,0.4,0,1.3,0.8,1.1
	c0.4,0.1,1,0.6,0.8,1.2c0.8,0.6,1.5,1.2,2.2,1.9h0.1c1.3-2.2,0.1-4.6-1.1-6.5c-0.4-3.2,1.2-5.7,2.4-8.2c1.5-1.5,3.1-2.7,3.8-4.7
	c0.4-1,0.7-2,0.8-3c1.7,0,3.4,0.1,4.8-0.6c1.4-0.6,2.4-1.8,2.7-3.3L41.4,23.3z M6.7,25.9C6.7,25.9,6.7,25.9,6.7,25.9
	c-1.9,0.6-3.9,0-5.3-1.3l-0.2-0.4c0.9-0.2,1.8-0.4,2.7-0.8c0.4,0,0.9,0,1.3,0.1c0.9,0.2,1.6,0.7,2,1.5h0.1
	C7.3,25.4,7.1,25.8,6.7,25.9z M37.8,26c-1.1,0.3-2.5,0.2-3.2-0.8c-0.2-0.6,0.3-1,0.7-1.3c1.7-0.9,3.5-0.2,5.2,0.2
	C40,25.2,38.8,25.6,37.8,26z"/>
<path class="st0" d="M39.9,24.3c-0.6,1.1-2,1.3-3.2,1.5C36,25.6,35.3,25.7,35,25c-0.1-0.5,0.6-0.7,0.9-1
	C37.2,23.5,38.6,24,39.9,24.3L39.9,24.3z"/>
<path class="st0" d="M6.9,25.1c-0.4,0.8-1.6,0.6-2.5,0.6c-1-0.1-1.9-0.5-2.5-1.1C3.4,23.8,5.8,23.4,6.9,25.1L6.9,25.1z"/>
<path class="st0" d="M31,26.4c-0.1,0.4-0.7,0.6-1.1,0.8c-0.6,0.3-1.4,0.3-2,0.8c0.3,0.3,0.4,0.8,0.2,1.3c-0.3,0.4-0.8,0.6-1.3,0.4
	c-0.5-0.3-0.7-0.9-0.6-1.4c-0.7,0-1.7,0.6-2.2-0.3c0-1,1-1.7,1.8-2.1C27.6,25.1,29.2,26.5,31,26.4L31,26.4z"/>
<path class="st0" d="M17.2,27c0.3,0.3,0.5,0.7,0.4,1.1c-0.7,0.6-1.5-0.1-2.2,0c0.2,0.4,0.2,0.9,0,1.3c-0.3,0.3-0.8,0.4-1.3,0.2
	c-0.4-0.2-0.6-0.8-0.4-1.3c0-0.2,0.3-0.3,0.2-0.5c-1.1-0.4-2.5-0.5-3.2-1.5c1.9,0.1,3.6-1.3,5.4-0.3L17.2,27L17.2,27z"/>
<path class="st0" d="M18.2,48c-0.1,1.8-2.5,2.5-2.7,4.2c-0.4,2,0.5,4.1,2.2,5.2c2.2,1.1,4.8,1.1,6.8-0.2c1.6-1.2,2.3-3.2,1.9-5.2
	c-0.4-1.6-2.7-2.4-2.8-4.1c0.2-0.3,0.6-0.5,1-0.4c0.4-0.1,0.6,0.4,1,0.5c1.8,1,3.1,2.8,3.5,4.8c0.5,2.7-0.7,5.4-3,6.9
	c-2.8,1.8-6.3,2-9.3,0.6c-2.6-1.1-4.2-3.7-4.2-6.5c0-2.1,1.2-4.1,3-5.1C16.5,48.3,17.4,46.7,18.2,48L18.2,48z"/>
<path class="st0" d="M22,50.9c0.4,1.8,1.4,3.9,0.4,5.7c-0.6,0.6-1.5,0.7-2.2,0.4c-0.5-0.2-0.8-0.6-0.9-1.1c-0.1-1.7,0.1-3.4,0.8-5
	H22z"/>
</svg>
