<?xml version="1.0" encoding="UTF-8" standalone="no"?>
<svg width="179px" height="25px" viewBox="0 0 179 25" version="1.1" xmlns="http://www.w3.org/2000/svg" xmlns:xlink="http://www.w3.org/1999/xlink">
    <title>Kanton Schwyz</title>
    <g id="Page-1" stroke="none" stroke-width="1" fill="none" fill-rule="evenodd">
        <g id="logo-kt-sz">
            <g id="typo" fill="#000000">
                <path d="M10.5940541,19.7908108 L8.80216216,19.7908108 L4.40108108,12.2356757 L1.60540541,15.2972973 L1.60540541,19.7908108 L0,19.7908108 L0,0.00378378378 L1.60540541,0.00378378378 L1.60540541,13.3464865 L8.21675676,5.88054054 L10.2081081,5.88054054 C7.92486486,8.32432432 6.33081081,10.0708108 5.46,11.0697297 L10.5940541,19.7908108 Z" id="Fill-3"></path>
                <path d="M13.8518919,16.2686486 C13.8518919,17.792973 15.3535135,18.7318919 16.7124324,18.7318919 C18.2091892,18.7318919 19.6427027,17.8497297 21.0340541,16.4324324 L21.0340541,11.8432432 C14.8718919,13.1908108 13.8518919,14.3875676 13.8518919,16.2686486 Z M21.0875676,18.0637838 C19.4286486,19.3740541 18.5837838,20.0162162 16.4448649,20.0162162 C14.3108108,20.0162162 12.2481081,18.5956757 12.2481081,16.2962162 C12.2481081,12.5924324 15.4540541,11.7848649 21.1151351,10.5589189 L21.1151351,9.51459459 C21.1151351,7.80054054 20.3124324,6.69135135 17.9318919,6.69135135 C15.9275676,6.69135135 14.6237838,7.98378378 13.9751351,9.28756757 L12.78,8.5627027 C13.9848649,6.31513514 15.8172973,5.44756757 17.9837838,5.44756757 C21.1410811,5.44756757 22.6394595,6.73189189 22.6394595,9.80810811 L22.6394595,17.2091892 C22.6394595,17.9032432 22.692973,18.812973 22.8535135,19.7486486 L21.3016216,19.7486486 L21.0875676,18.0637838 Z" id="Fill-5"></path>
                <path d="M26.5037838,5.83837838 L28.1091892,5.83837838 L28.1091892,8.03243243 C29.6075676,6.48054054 30.8367568,5.44756757 32.8702703,5.44756757 C35.76,5.44756757 36.9891892,7.10648649 36.9891892,10.1291892 L36.9891892,19.7486486 L35.3854054,19.7486486 L35.3854054,10.2897297 C35.3854054,7.98864865 34.6897297,6.73189189 32.5491892,6.73189189 C30.8367568,6.73189189 29.8735135,7.89945946 28.1091892,9.50324324 L28.1091892,19.7486486 L26.5037838,19.7486486 L26.5037838,5.83837838 Z" id="Fill-6"></path>
                <path d="M41.3708108,1.29135135 L42.9762162,1.29135135 L42.9762162,5.83837838 L46.56,5.83837838 L46.56,7.1227027 L42.9762162,7.1227027 L42.9762162,17.1086486 C42.9762162,18.0459459 43.4027027,18.8162162 44.3935135,18.8162162 C44.9286486,18.8162162 45.9291892,18.5989189 46.56,18.3151351 L46.56,19.6513514 C45.9016216,19.8556757 44.9286486,20.0989189 44.3935135,20.0989189 C42.12,20.0989189 41.3708108,19.0627027 41.3708108,17.3762162 L41.3708108,7.1227027 L39.0389189,7.1227027 L39.0389189,5.83837838 L41.3708108,5.83837838 L41.3708108,1.29135135 Z" id="Fill-7"></path>
                <path d="M53.9254054,18.9378378 C56.927027,18.9378378 58.2097297,16.567027 58.2097297,12.7935135 C58.2097297,9.02324324 56.927027,6.73189189 53.9254054,6.73189189 C50.9254054,6.73189189 49.6427027,9.02324324 49.6427027,12.7935135 C49.6427027,16.567027 50.9254054,18.9378378 53.9254054,18.9378378 Z M53.9254054,20.2221622 C49.3832432,20.2221622 48.0372973,16.567027 48.0372973,12.7935135 C48.0372973,9.02324324 49.3832432,5.44756757 53.9254054,5.44756757 C58.4691892,5.44756757 59.8167568,9.02324324 59.8167568,12.7935135 C59.8167568,16.567027 58.4691892,20.2221622 53.9254054,20.2221622 Z" id="Fill-8"></path>
                <path d="M62.9935135,5.83837838 L64.5989189,5.83837838 L64.5989189,8.03243243 C66.0972973,6.48054054 67.3281081,5.44756757 69.36,5.44756757 C72.2513514,5.44756757 73.4805405,7.10648649 73.4805405,10.1291892 L73.4805405,19.7486486 L71.8751351,19.7486486 L71.8751351,10.2897297 C71.8751351,7.98864865 71.1810811,6.73189189 69.0405405,6.73189189 C67.3281081,6.73189189 66.3648649,7.89945946 64.5989189,9.50324324 L64.5989189,19.7486486 L62.9935135,19.7486486 L62.9935135,5.83837838 Z" id="Fill-9"></path>
                <path d="M81.8594595,7.65459459 C80.5491892,7.65459459 79.8681081,8.27891892 79.8681081,9.12378378 C79.8681081,11.5513514 87.1621622,10.5151351 87.1621622,15.6978378 C87.1621622,18.6443243 84.8043243,20.1978378 81.8318919,20.1978378 C79.5681081,20.1978378 77.8362162,19.4097297 76.3735135,17.2935135 L78.5205405,15.6848649 C79.3118919,16.7745946 80.5362162,17.6891892 81.9827027,17.6891892 C83.1827027,17.6891892 84.0859459,16.9091892 84.1216216,15.9556757 C84.2156757,13.4891892 76.8275676,14.2789189 76.8275676,9.3427027 C76.8275676,6.69621622 79.2664865,5.22540541 81.7216216,5.22540541 C83.6043243,5.22540541 85.5032432,5.55945946 86.8232432,7.20054054 L84.9097297,8.95351351 C84.227027,8.21567568 82.9232432,7.65459459 81.8594595,7.65459459 Z" id="Fill-10"></path>
                <path d="M95.1178378,7.95297297 C93.2367568,7.95297297 92.2556757,9.54702703 92.2556757,12.7124324 C92.2556757,15.8762162 93.2367568,17.4702703 95.2264865,17.4702703 C97.2745946,17.4702703 97.7027027,15.272973 97.8697297,14.7767568 L100.671892,15.9118919 C99.9227027,18.5227027 98.2962162,20.1978378 95.1178378,20.1978378 C91.272973,20.1978378 88.9135135,17.2124324 88.9135135,12.7124324 C88.9135135,8.21243243 91.272973,5.22540541 95.1178378,5.22540541 C97.7918919,5.22540541 99.9956757,6.68810811 100.62973,9.37189189 L97.8583784,10.5686486 C97.5405405,9.59405405 96.9032432,7.95297297 95.1178378,7.95297297 Z" id="Fill-11"></path>
                <path d="M103.02973,0.110810811 L106.412432,0.110810811 L106.412432,7.14702703 C107.448649,6.27459459 108.637297,5.22540541 110.302703,5.22540541 C113.138919,5.22540541 114.502703,7.08054054 114.502703,9.97351351 L114.502703,19.7632432 L111.12,19.7632432 L111.12,10.4632432 C111.12,8.55459459 110.52,7.95297297 109.375135,7.95297297 C107.901081,7.95297297 106.984865,8.92108108 106.412432,9.57459459 L106.412432,19.7632432 L103.02973,19.7632432 L103.02973,0.110810811 Z" id="Fill-12"></path>
                <polygon id="Fill-13" points="119.124324 5.57891892 121.465946 14.4167568 123.565946 5.57891892 127.107568 5.57891892 129.071351 14.4167568 131.549189 5.57891892 134.766486 5.57891892 130.707568 19.7632432 127.652432 19.7632432 125.34973 10.9254054 123.021081 19.7632432 119.965946 19.7632432 115.905405 5.57891892"></polygon>
                <path d="M136.931351,22.1632432 C138.103784,22.1632432 138.757297,21.8356757 139.167568,21.0443243 C139.495135,20.3632432 139.712432,19.952973 139.712432,19.3805405 C139.712432,18.8632432 139.44,18.2632432 139.277838,17.6891892 L135.282162,5.57891892 L138.814054,5.57891892 L141.363243,14.3064865 L141.416757,14.3064865 L144.047027,5.57891892 L147.308108,5.57891892 L142.631351,19.7908108 C141.131351,23.8545946 139.931351,24.9459459 137.148649,24.9459459 C136.331351,24.9459459 135.922703,24.8908108 135.512432,24.8372973 L135.512432,22.0545946 C136.031351,22.1632432 136.44,22.1632432 136.931351,22.1632432 Z" id="Fill-14"></path>
                <polygon id="Fill-15" points="158.75027 5.57891892 158.75027 8.06 152.012432 17.0762162 158.805405 17.0762162 158.805405 19.7632432 147.676216 19.7632432 147.676216 17.2805405 154.441622 8.14594595 148.248649 8.14594595 148.248649 5.57891892"></polygon>
            </g>
            <g id="wappen" transform="translate(163.000000, 0.000000)">
                <path d="M0,0 L16,0 L16,12.3875676 C16,16.8778378 12.4189108,20.5135135 7.99840415,20.5135135 C3.58268502,20.5135135 0,16.8778378 0,12.3875676 L0,0 Z" id="schild" fill="#E10A16"></path>
                <polygon id="kreuz" fill="#FFFFFF" points="12.9698363 3 14.9889142 3 14.9889142 4 12.9698363 4 12.9698363 6 11.9602973 6 11.9602973 4 9.94121944 4 9.94121944 3 11.9602973 3 11.9602973 1 12.9698363 1"></polygon>
            </g>
        </g>
    </g>
</svg>