<?xml version="1.0" encoding="utf-8"?>
<!-- Generator: Adobe Illustrator 16.0.4, SVG Export Plug-In . SVG Version: 6.00 Build 0)  -->
<!DOCTYPE svg PUBLIC "-//W3C//DTD SVG 1.1//EN" "http://www.w3.org/Graphics/SVG/1.1/DTD/svg11.dtd">
<svg version="1.1" id="Icons" xmlns="http://www.w3.org/2000/svg" xmlns:xlink="http://www.w3.org/1999/xlink" x="0px" y="0px"
	 width="30px" height="11500px" viewBox="0 0 30 11500" enable-background="new 0 0 30 11500" xml:space="preserve">
<g>
	<g>
		<path fill="#BC0016" d="M7.982,0L5,9h1.625l0.67-2.164h2.925L10.883,9h2.046L9.855,0H7.982z M7.688,5.543l1.029-3.311L9.81,5.543
			H7.688z M13.572,5.654h3.468V4.248h-3.468V5.654z M24,0h-5.953v1.342h3.739l-3.896,6.433V9H24V7.669h-3.907L24,1.189V0z"/>
	</g>
</g>
<g>
	<g>
		<path fill="#18184B" d="M7.982,100L5,109h1.625l0.67-2.163h2.925L10.883,109h2.046l-3.075-9H7.982z M7.688,105.543l1.029-3.311
			l1.093,3.311H7.688z M13.572,105.654h3.468v-1.407h-3.468V105.654z M24,100h-5.953v1.342h3.739l-3.896,6.433V109H24v-1.331h-3.907
			l3.907-6.48V100z"/>
	</g>
</g>
<g>
	<g>
		<path fill="#FFFFFF" d="M7.982,200L5,209h1.625l0.67-2.163h2.925L10.883,209h2.046l-3.075-9H7.982z M7.688,205.543l1.029-3.311
			l1.093,3.311H7.688z M13.572,205.655h3.468v-1.407h-3.468V205.655z M24,200h-5.953v1.342h3.739l-3.896,6.434V209H24v-1.33h-3.907
			L24,201.189V200z"/>
	</g>
</g>
<path fill="#BB0E1D" d="M22.634,312.87l0.005-0.005l-3.623-3.625c0.605-0.938,0.963-2.051,0.963-3.251
	c0-3.308-2.683-5.989-5.989-5.989C10.682,300,8,302.681,8,305.989c0,3.308,2.682,5.989,5.989,5.989c1.2,0,2.313-0.356,3.251-0.963
	l3.625,3.625l0.005-0.005c0.226,0.226,0.537,0.365,0.883,0.365c0.688,0,1.247-0.558,1.247-1.246
	C23,313.409,22.859,313.096,22.634,312.87z M10,306c0-2.209,1.791-4,4-4s4,1.791,4,4s-1.791,4-4,4S10,308.209,10,306z"/>
<path fill="#18184B" d="M22.634,412.87l0.005-0.005l-3.623-3.625c0.605-0.938,0.963-2.051,0.963-3.251
	c0-3.308-2.683-5.989-5.989-5.989C10.682,400,8,402.681,8,405.989c0,3.308,2.682,5.989,5.989,5.989c1.2,0,2.313-0.356,3.251-0.963
	l3.625,3.625l0.005-0.005c0.226,0.226,0.537,0.365,0.883,0.365c0.688,0,1.247-0.558,1.247-1.246
	C23,413.409,22.859,413.096,22.634,412.87z M10,406c0-2.209,1.791-4,4-4s4,1.791,4,4s-1.791,4-4,4S10,408.209,10,406z"/>
<g>
	<g>
		<path fill="#18184B" d="M7.697,504.324l-2.822,8.673h1.537l0.634-2.083h2.768l0.629,2.083h1.936l-2.91-8.673H7.697z
			 M7.418,509.666l0.974-3.19l1.034,3.19H7.418z M20.764,500h-2.656l-4.229,13h2.304l0.95-3.124h4.147L22.223,513h2.902L20.764,500z
			 M17.689,508.006l1.459-4.781l1.55,4.781H17.689z"/>
	</g>
</g>
<g>
	<g>
		<path fill="#18184B" d="M22.091,604.324h-1.772l-2.821,8.673h1.537l0.635-2.083h2.769l0.629,2.083h1.937L22.091,604.324z
			 M20.04,609.666l0.974-3.191l1.034,3.191H20.04z M9.229,600l-4.23,13h2.304l0.951-3.124h4.148L13.345,613h2.901l-4.361-13H9.229z
			 M8.811,608.006l1.459-4.782l1.55,4.782H8.811z"/>
	</g>
</g>
<path fill="#8CA3C9" d="M17.611,700.009h-1.627c0,0-2.544-0.266-2.544,2.355c0,0.561,0,1.086,0,1.086h-1.036l-0.016,2.062h1.052V711
	h2.414v-5.488h1.394l0.339-2.062h-1.732v-0.839c0,0-0.147-0.708,0.711-0.708h1.033L17.611,700.009z"/>
<path fill="#CFD7E6" d="M17.611,800.009h-1.627c0,0-2.544-0.266-2.544,2.355c0,0.561,0,1.086,0,1.086h-1.036l-0.016,2.062h1.052
	v5.489h2.414v-5.489h1.394l0.339-2.062h-1.732v-0.839c0,0-0.147-0.708,0.711-0.708h1.033L17.611,800.009z"/>
<g>
	<g>
		<path fill="#8CA3C9" d="M19,903v-2h-1v2h-2v1h2v2h1v-2h2v-1H19z M15.758,900h-2.527c-0.335,0-0.695,0.095-1.078,0.172
			c-0.387,0.091-0.761,0.328-1.12,0.624c-0.523,0.505-0.785,1.113-0.785,1.733c0,0.514,0.185,0.963,0.554,1.351
			c0.353,0.414,0.866,0.626,1.539,0.634c0.127,0,0.262-0.008,0.406-0.024c-0.024,0.065-0.049,0.138-0.077,0.217
			c-0.032,0.074-0.047,0.167-0.047,0.279c0,0.186,0.042,0.345,0.125,0.477c0.071,0.136,0.152,0.265,0.244,0.385
			c-0.295,0.009-0.666,0.044-1.111,0.11c-0.451,0.078-0.88,0.234-1.29,0.468c-0.364,0.217-0.616,0.469-0.755,0.757
			c-0.143,0.287-0.215,0.548-0.215,0.782c0,0.479,0.221,0.891,0.661,1.236c0.437,0.369,1.097,0.558,1.982,0.565
			c1.058-0.017,1.867-0.269,2.427-0.758c0.541-0.473,0.811-1.016,0.811-1.628c-0.007-0.432-0.106-0.781-0.295-1.048
			c-0.201-0.263-0.435-0.503-0.701-0.72l-0.429-0.353c-0.062-0.062-0.125-0.134-0.191-0.216c-0.077-0.087-0.116-0.195-0.116-0.327
			c0-0.136,0.038-0.255,0.113-0.356c0.064-0.1,0.134-0.188,0.209-0.267c0.132-0.115,0.256-0.228,0.373-0.338
			c0.105-0.109,0.205-0.231,0.299-0.363c0.192-0.271,0.292-0.634,0.299-1.086c0-0.247-0.028-0.462-0.083-0.646
			c-0.067-0.186-0.145-0.345-0.232-0.481c-0.091-0.144-0.185-0.265-0.28-0.362c-0.1-0.096-0.188-0.166-0.268-0.217h0.779L15.758,900
			z M14.373,907.036c0.209,0.238,0.314,0.519,0.314,0.838c0,0.396-0.153,0.718-0.458,0.968c-0.314,0.255-0.769,0.387-1.364,0.396
			c-0.664-0.009-1.187-0.156-1.569-0.443c-0.402-0.288-0.604-0.654-0.604-1.097c0-0.228,0.046-0.42,0.139-0.58
			c0.081-0.153,0.179-0.28,0.296-0.383c0.121-0.1,0.239-0.176,0.356-0.229c0.117-0.05,0.207-0.086,0.272-0.111
			c0.273-0.082,0.541-0.141,0.802-0.179c0.266-0.023,0.431-0.033,0.495-0.023c0.109,0,0.203,0.004,0.284,0.012
			C13.805,906.533,14.151,906.811,14.373,907.036z M13.962,903.318c-0.031,0.168-0.099,0.333-0.206,0.492
			c-0.222,0.228-0.499,0.347-0.832,0.358c-0.263,0-0.497-0.08-0.702-0.241c-0.205-0.161-0.372-0.355-0.501-0.586
			c-0.268-0.494-0.401-0.97-0.401-1.427c-0.008-0.346,0.083-0.659,0.274-0.938c0.227-0.268,0.512-0.405,0.854-0.415
			c0.259,0.01,0.488,0.085,0.687,0.229c0.195,0.153,0.353,0.35,0.472,0.593c0.255,0.506,0.382,1.009,0.382,1.507
			C13.99,903.007,13.981,903.149,13.962,903.318z"/>
	</g>
</g>
<g>
	<g>
		<path fill="#CFD7E6" d="M19,1003v-2h-1v2h-2v1h2v2h1v-2h2v-1H19z M15.758,1000H13.23c-0.335,0-0.694,0.095-1.078,0.172
			c-0.387,0.091-0.76,0.328-1.119,0.624c-0.523,0.505-0.785,1.113-0.785,1.733c0,0.514,0.185,0.963,0.554,1.351
			c0.353,0.414,0.866,0.626,1.538,0.634c0.127,0,0.263-0.008,0.406-0.024c-0.023,0.065-0.049,0.138-0.077,0.217
			c-0.032,0.074-0.048,0.167-0.048,0.279c0,0.186,0.042,0.345,0.125,0.477c0.071,0.136,0.152,0.265,0.244,0.385
			c-0.295,0.009-0.666,0.044-1.111,0.11c-0.451,0.078-0.881,0.234-1.291,0.468c-0.363,0.217-0.615,0.469-0.755,0.757
			c-0.144,0.287-0.215,0.548-0.215,0.782c0,0.479,0.221,0.891,0.661,1.236c0.437,0.369,1.098,0.558,1.982,0.565
			c1.058-0.017,1.867-0.269,2.428-0.758c0.541-0.473,0.811-1.016,0.811-1.628c-0.008-0.432-0.105-0.781-0.295-1.048
			c-0.201-0.263-0.436-0.503-0.701-0.72l-0.429-0.353c-0.062-0.062-0.126-0.134-0.191-0.216c-0.077-0.087-0.116-0.195-0.116-0.327
			c0-0.136,0.038-0.255,0.113-0.356c0.064-0.1,0.134-0.188,0.209-0.267c0.132-0.115,0.256-0.228,0.373-0.338
			c0.105-0.109,0.205-0.231,0.299-0.363c0.192-0.271,0.292-0.634,0.3-1.086c0-0.247-0.028-0.462-0.083-0.646
			c-0.068-0.186-0.146-0.345-0.232-0.481c-0.092-0.144-0.185-0.265-0.279-0.362c-0.1-0.096-0.189-0.166-0.269-0.217h0.779
			L15.758,1000z M14.373,1007.036c0.209,0.238,0.313,0.519,0.313,0.838c0,0.396-0.153,0.718-0.458,0.968
			c-0.314,0.255-0.77,0.387-1.365,0.396c-0.664-0.009-1.187-0.156-1.568-0.443c-0.402-0.288-0.604-0.654-0.604-1.097
			c0-0.228,0.046-0.42,0.139-0.58c0.08-0.153,0.179-0.28,0.295-0.383c0.121-0.1,0.24-0.176,0.356-0.229
			c0.116-0.05,0.207-0.086,0.272-0.111c0.273-0.082,0.541-0.141,0.802-0.179c0.266-0.023,0.431-0.033,0.495-0.023
			c0.109,0,0.203,0.004,0.283,0.012C13.805,1006.533,14.151,1006.811,14.373,1007.036z M13.963,1003.318
			c-0.031,0.168-0.1,0.333-0.207,0.492c-0.222,0.228-0.498,0.347-0.832,0.358c-0.263,0-0.496-0.08-0.701-0.241
			s-0.373-0.355-0.502-0.586c-0.268-0.494-0.4-0.97-0.4-1.427c-0.009-0.346,0.082-0.659,0.273-0.938
			c0.228-0.268,0.512-0.405,0.855-0.415c0.258,0.01,0.487,0.085,0.687,0.229c0.195,0.153,0.354,0.35,0.472,0.593
			c0.255,0.506,0.383,1.009,0.383,1.507C13.99,1003.007,13.98,1003.149,13.963,1003.318z"/>
	</g>
</g>
<path fill="#8CA3C9" d="M13.728,1103.1l0.566,0.572c0.095,0.098,0.208,0.17,0.33,0.223c0.123,0.049,0.255,0.074,0.388,0.074
	c0.154,0,0.305-0.038,0.443-0.104c0.102-0.049,0.195-0.112,0.277-0.193l0.319-0.323l3.283-3.349l-8.769,0.002L13.728,1103.1z
	 M13.099,1103.604L10,1100.45l0.01,6.224L13.099,1103.604z M16.363,1104.172l-0.014,0.014l-0.109,0.111
	c-0.047,0.046-0.094,0.088-0.143,0.129c-0.211,0.169-0.447,0.282-0.691,0.338c-0.13,0.03-0.262,0.047-0.396,0.047
	c-0.233,0-0.469-0.049-0.689-0.146c-0.193-0.086-0.376-0.207-0.537-0.369l-0.124-0.125L10.868,1107h8.291L16.363,1104.172z
	 M20,1100.434l-3.072,3.169l3.072,3.087V1100.434z"/>
<path fill="#CFD7E6" d="M13.728,1203.101l0.566,0.571c0.095,0.098,0.208,0.171,0.33,0.223c0.123,0.049,0.255,0.074,0.388,0.074
	c0.154,0,0.305-0.038,0.443-0.104c0.102-0.047,0.195-0.11,0.277-0.193l0.319-0.323l3.283-3.349l-8.769,0.002L13.728,1203.101z
	 M13.099,1203.604L10,1200.45l0.01,6.225L13.099,1203.604z M16.363,1204.171l-0.014,0.015l-0.109,0.112
	c-0.047,0.046-0.094,0.088-0.143,0.129c-0.211,0.168-0.447,0.281-0.691,0.339c-0.13,0.029-0.262,0.048-0.396,0.048
	c-0.233-0.001-0.469-0.051-0.689-0.147c-0.193-0.085-0.376-0.207-0.537-0.368l-0.124-0.127L10.868,1207h8.291L16.363,1204.171z
	 M20,1200.434l-3.072,3.168l3.072,3.088V1200.434z"/>
<g>
	<g>
		<path fill="#8CA3C9" d="M10,1303.151v1.731c2.268,0,4.115,1.848,4.115,4.117h1.734C15.85,1305.771,13.232,1303.151,10,1303.151z
			 M10,1300v1.733c4.008,0,7.266,3.261,7.266,7.267H19C19,1304.031,14.971,1300,10,1300z M11.061,1306.878
			c-0.585,0-1.061,0.476-1.061,1.062s0.475,1.061,1.061,1.061s1.061-0.475,1.061-1.061
			C12.121,1307.354,11.646,1306.878,11.061,1306.878z"/>
	</g>
</g>
<g>
	<g>
		<path fill="#CFD7E6" d="M10,1403.151v1.732c2.268,0,4.115,1.848,4.115,4.116h1.734C15.85,1405.771,13.232,1403.151,10,1403.151z
			 M10,1400v1.733c4.008,0,7.266,3.26,7.266,7.267H19C19,1404.032,14.971,1400,10,1400z M11.061,1406.878
			c-0.585,0-1.061,0.476-1.061,1.062s0.475,1.061,1.061,1.061s1.061-0.475,1.061-1.061
			C12.121,1407.354,11.646,1406.878,11.061,1406.878z"/>
	</g>
</g>
<path fill="#8CA3C9" d="M21.25,1501.203c-0.46,0.204-0.954,0.341-1.473,0.402c0.529-0.316,0.936-0.819,1.127-1.418
	c-0.495,0.293-1.045,0.507-1.629,0.623c-0.467-0.5-1.135-0.811-1.871-0.811c-1.418,0-2.564,1.148-2.564,2.564
	c0,0.2,0.022,0.396,0.066,0.584c-2.131-0.106-4.021-1.127-5.286-2.68c-0.221,0.378-0.347,0.82-0.347,1.289
	c0,0.891,0.453,1.675,1.141,2.135c-0.42-0.013-0.815-0.128-1.162-0.32c0,0.011,0,0.021,0,0.031c0,1.242,0.884,2.28,2.057,2.516
	c-0.215,0.059-0.442,0.09-0.676,0.09c-0.165,0-0.326-0.016-0.482-0.046c0.327,1.019,1.273,1.761,2.396,1.78
	c-0.878,0.688-1.984,1.099-3.185,1.099c-0.207,0-0.411-0.012-0.612-0.036c1.135,0.729,2.483,1.153,3.931,1.153
	c4.717,0,7.295-3.908,7.295-7.298c0-0.11-0.002-0.222-0.006-0.332C20.473,1502.168,20.906,1501.717,21.25,1501.203z"/>
<path fill="#CFD7E6" d="M21.25,1601.203c-0.46,0.204-0.954,0.341-1.473,0.402c0.529-0.316,0.936-0.819,1.127-1.418
	c-0.495,0.293-1.045,0.507-1.629,0.623c-0.467-0.5-1.135-0.811-1.871-0.811c-1.418,0-2.564,1.148-2.564,2.564
	c0,0.2,0.022,0.396,0.066,0.584c-2.131-0.106-4.021-1.127-5.286-2.68c-0.221,0.378-0.347,0.82-0.347,1.289
	c0,0.891,0.453,1.675,1.141,2.135c-0.42-0.013-0.815-0.128-1.162-0.32c0,0.011,0,0.021,0,0.031c0,1.242,0.884,2.28,2.057,2.516
	c-0.215,0.059-0.442,0.09-0.676,0.09c-0.165,0-0.326-0.016-0.482-0.046c0.327,1.019,1.273,1.761,2.396,1.78
	c-0.878,0.688-1.984,1.099-3.185,1.099c-0.207,0-0.411-0.012-0.612-0.036c1.135,0.729,2.483,1.153,3.931,1.153
	c4.717,0,7.295-3.908,7.295-7.298c0-0.11-0.002-0.222-0.006-0.332C20.473,1602.168,20.906,1601.717,21.25,1601.203z"/>
<g>
	<g>
		<path fill="#8CA3C9" d="M11.554,1704.872h1.147v-1.745L13.56,1700l-1.113,0.025c-0.157,0.904-0.27,1.562-0.337,2.078
			c-0.022-0.326-0.12-1.138-0.294-2.078h-1.112l0.852,3.102v1.745H11.554z M16.801,1704.595c0.055,0.105,0.141,0.189,0.256,0.253
			c0.113,0.063,0.309,0.044,0.482,0.044c0.152,0,0.288,0.019,0.406-0.049c0.119-0.065,0.218-0.167,0.299-0.3l-0.021,0.328h1.184
			v-4.027h-1.162v2.735c0,0.324-0.008,0.515-0.023,0.574c-0.018,0.06-0.068,0.089-0.154,0.089c-0.082,0-0.18-0.028-0.197-0.086
			c-0.02-0.059-0.027-0.24-0.027-0.547v-2.766H16.68v2.741c0,0.339,0.008,0.565,0.021,0.68
			C16.711,1704.381,16.746,1704.49,16.801,1704.595z M13.55,1703.407c0,0.335,0.021,0.587,0.063,0.755s0.113,0.311,0.212,0.428
			c0.098,0.119,0.237,0.208,0.416,0.266c0.178,0.059,0.543,0.088,0.801,0.088c0.23,0,0.335-0.034,0.513-0.104
			c0.178-0.068,0.323-0.174,0.437-0.318c0.114-0.143,0.188-0.298,0.222-0.464c0.034-0.166,0.053-0.427,0.053-0.781v-0.969
			c0-0.279-0.02-0.487-0.058-0.625c-0.037-0.137-0.106-0.27-0.208-0.398c-0.104-0.128-0.247-0.233-0.434-0.314
			c-0.188-0.081-0.313-0.119-0.574-0.119c-0.311,0-0.713,0.062-0.913,0.187c-0.2,0.125-0.338,0.291-0.415,0.499
			c-0.077,0.206-0.115,0.492-0.115,0.858L13.55,1703.407L13.55,1703.407z M14.712,1702.062c0-0.203,0.012-0.33,0.035-0.385
			c0.023-0.052,0.069-0.079,0.138-0.079c0.069,0,0.163,0.026,0.184,0.079c0.021,0.055,0.032,0.183,0.032,0.385v1.618
			c0,0.171-0.011,0.282-0.033,0.333c-0.022,0.052-0.117,0.077-0.186,0.077c-0.067,0-0.112-0.028-0.135-0.085
			c-0.023-0.056-0.035-0.178-0.035-0.363V1702.062z M18.878,1707.896c-0.017-0.043-0.047-0.065-0.094-0.065
			c-0.06,0-0.097,0.021-0.111,0.056c-0.013,0.037-0.021-0.065-0.021,0.098v0.212H18.9v-0.212
			C18.9,1707.834,18.895,1707.941,18.878,1707.896z M19.036,1705.715h-7.072c-1.085,0-1.964,0.911-1.964,2.033v1.219
			c0,1.124,0.879,2.033,1.964,2.033h7.072c1.084,0,1.964-0.91,1.964-2.033v-1.219C21,1706.625,20.12,1705.715,19.036,1705.715z
			 M12.728,1707.312h-0.355v2.854h-0.79v-2.854H11.18v-0.782h1.548V1707.312z M15.103,1710.167h-0.867l0.015-0.24
			c-0.059,0.098-0.132,0.171-0.218,0.22c-0.087,0.049-0.187,0.073-0.299,0.073c-0.128,0-0.234-0.023-0.318-0.068
			c-0.084-0.048-0.147-0.109-0.187-0.188s-0.065-0.157-0.075-0.241c-0.01-0.084-0.015-0.25-0.015-0.499v-1.902h0.779v1.921
			c0,0.226,0.007,0.359,0.02,0.402c0.014,0.041,0.123,0.062,0.183,0.062c0.063,0,0.15-0.021,0.162-0.064
			c0.012-0.045,0.018-0.186,0.018-0.422v-1.874h0.804v2.82H15.103z M17.496,1709.359c0,0.212-0.014,0.371-0.042,0.475
			c-0.027,0.104-0.091,0.194-0.192,0.271c-0.101,0.076-0.222,0.114-0.361,0.114c-0.1,0-0.192-0.021-0.278-0.066
			c-0.086-0.046-0.265-0.114-0.336-0.204l-0.056,0.219h-0.724v-3.637h0.778v1.04c0.07-0.085,0.247-0.148,0.334-0.189
			c0.086-0.042,0.181-0.062,0.281-0.062c0.117,0,0.219,0.019,0.304,0.057c0.086,0.037,0.151,0.091,0.196,0.158
			c0.045,0.068,0.072,0.136,0.082,0.201c0.009,0.065,0.014,0.002,0.014,0.216V1709.359z M19.756,1708.564h-1.104v0.832
			c0,0.131,0.01,0.215,0.027,0.253c0.019,0.038,0.053,0.057,0.105,0.057c0.062,0,0.107-0.025,0.129-0.075s0.033-0.146,0.033-0.292
			v-0.382h0.808v0.214c0,0.179-0.011,0.317-0.032,0.412c-0.021,0.097-0.072,0.199-0.152,0.308c-0.08,0.109-0.184,0.191-0.305,0.247
			c-0.123,0.055-0.279,0.081-0.464,0.081c-0.181,0-0.29-0.026-0.428-0.081c-0.138-0.054-0.271-0.127-0.347-0.222
			c-0.076-0.094-0.131-0.197-0.159-0.311c-0.03-0.112-0.044-0.276-0.044-0.492v-0.946c0-0.252,0.031-0.25,0.099-0.396
			c0.065-0.146,0.198-0.258,0.351-0.336c0.149-0.078,0.272-0.116,0.47-0.116c0.239,0,0.437,0.047,0.592,0.141
			c0.156,0.094,0.265,0.219,0.327,0.374s0.094,0.271,0.094,0.552V1708.564z M16.615,1707.899c-0.018-0.046-0.152-0.068-0.205-0.068
			s-0.087,0.021-0.104,0.06c-0.016,0.041-0.021-0.062-0.021,0.1v1.352c0,0.155,0.009,0.256,0.025,0.299
			c0.019,0.043,0.054,0.065,0.104,0.065c0.054,0,0.187-0.022,0.203-0.068c0.016-0.044,0.024-0.152,0.024-0.324v-1.322
			C16.645,1707.842,16.634,1707.946,16.615,1707.899z"/>
	</g>
</g>
<g>
	<g>
		<path fill="#CFD7E6" d="M11.554,1804.873h1.147v-1.746L13.56,1800l-1.113,0.026c-0.157,0.904-0.27,1.562-0.337,2.077
			c-0.022-0.325-0.12-1.137-0.294-2.077h-1.112l0.852,3.101v1.746H11.554z M16.801,1804.595c0.055,0.105,0.141,0.191,0.256,0.253
			c0.113,0.064,0.309,0.045,0.482,0.045c0.152,0,0.288,0.019,0.406-0.049c0.119-0.066,0.218-0.167,0.299-0.3l-0.021,0.329h1.184
			v-4.028h-1.162v2.735c0,0.324-0.008,0.516-0.023,0.575c-0.018,0.06-0.068,0.089-0.154,0.089c-0.082,0-0.18-0.028-0.197-0.085
			c-0.02-0.06-0.027-0.241-0.027-0.548v-2.766H16.68v2.741c0,0.34,0.008,0.567,0.021,0.681
			C16.711,1804.381,16.746,1804.49,16.801,1804.595z M13.55,1803.407c0,0.335,0.021,0.587,0.063,0.754
			c0.042,0.168,0.113,0.311,0.212,0.429c0.098,0.119,0.237,0.207,0.416,0.266c0.178,0.059,0.543,0.088,0.801,0.088
			c0.23,0,0.335-0.035,0.513-0.104s0.323-0.175,0.437-0.318c0.114-0.144,0.188-0.298,0.222-0.465
			c0.034-0.166,0.053-0.427,0.053-0.781v-0.969c0-0.279-0.02-0.487-0.058-0.625c-0.037-0.137-0.106-0.27-0.208-0.397
			c-0.104-0.129-0.247-0.234-0.434-0.314c-0.188-0.081-0.313-0.12-0.574-0.12c-0.311,0-0.713,0.062-0.913,0.188
			c-0.2,0.125-0.338,0.291-0.415,0.498c-0.077,0.206-0.115,0.493-0.115,0.86L13.55,1803.407L13.55,1803.407z M14.712,1802.062
			c0-0.202,0.012-0.33,0.035-0.385c0.023-0.053,0.069-0.079,0.138-0.079c0.069,0,0.163,0.026,0.184,0.079
			c0.021,0.055,0.032,0.183,0.032,0.385v1.618c0,0.171-0.011,0.282-0.033,0.333c-0.022,0.052-0.117,0.077-0.186,0.077
			c-0.067,0-0.112-0.027-0.135-0.084s-0.035-0.178-0.035-0.364V1802.062z M16.615,1807.901c-0.018-0.046-0.152-0.069-0.205-0.069
			s-0.087,0.02-0.104,0.061c-0.016,0.041-0.021-0.062-0.021,0.099v1.352c0,0.155,0.009,0.255,0.025,0.298
			c0.019,0.045,0.054,0.066,0.104,0.066c0.054,0,0.187-0.021,0.203-0.068c0.016-0.043,0.024-0.152,0.024-0.324v-1.322
			C16.645,1807.842,16.634,1807.946,16.615,1807.901z M19.036,1805.715h-7.072c-1.085,0-1.964,0.91-1.964,2.033v1.219
			c0,1.124,0.879,2.033,1.964,2.033h7.072c1.084,0,1.964-0.909,1.964-2.033v-1.219C21,1806.625,20.12,1805.715,19.036,1805.715z
			 M12.728,1807.312h-0.355v2.855h-0.79v-2.855H11.18v-0.782h1.548V1807.312z M15.103,1810.168h-0.867l0.015-0.241
			c-0.059,0.098-0.132,0.17-0.218,0.22c-0.087,0.049-0.187,0.072-0.299,0.072c-0.128,0-0.234-0.022-0.318-0.069
			c-0.084-0.046-0.147-0.109-0.187-0.187s-0.065-0.158-0.075-0.241c-0.01-0.084-0.015-0.25-0.015-0.499v-1.902h0.779v1.921
			c0,0.226,0.007,0.358,0.02,0.401c0.014,0.041,0.123,0.063,0.183,0.063c0.063,0,0.15-0.022,0.162-0.066
			c0.012-0.043,0.018-0.184,0.018-0.421v-1.874h0.804v2.823H15.103z M17.496,1809.359c0,0.212-0.014,0.371-0.042,0.475
			c-0.027,0.104-0.091,0.195-0.192,0.271c-0.102,0.075-0.222,0.114-0.361,0.114c-0.1,0-0.192-0.021-0.278-0.066
			s-0.265-0.114-0.336-0.204l-0.056,0.22h-0.724v-3.638h0.778v1.041c0.07-0.085,0.247-0.146,0.334-0.19
			c0.086-0.041,0.181-0.062,0.281-0.062c0.117,0,0.219,0.019,0.304,0.057c0.086,0.037,0.151,0.091,0.196,0.158
			c0.045,0.068,0.072,0.136,0.082,0.201c0.009,0.064,0.014,0.002,0.014,0.216V1809.359z M19.756,1808.566h-1.104v0.83
			c0,0.131,0.01,0.215,0.027,0.253c0.019,0.038,0.053,0.057,0.105,0.057c0.062,0,0.107-0.025,0.129-0.075
			c0.021-0.051,0.033-0.147,0.033-0.292v-0.382h0.808v0.214c0,0.179-0.011,0.317-0.032,0.413s-0.072,0.199-0.152,0.309
			c-0.08,0.108-0.184,0.19-0.305,0.246c-0.123,0.055-0.279,0.081-0.464,0.081c-0.181,0-0.29-0.026-0.428-0.081
			c-0.138-0.054-0.271-0.127-0.347-0.222c-0.076-0.094-0.131-0.196-0.159-0.31c-0.03-0.112-0.044-0.276-0.044-0.492v-0.946
			c0-0.253,0.031-0.25,0.099-0.396c0.065-0.146,0.198-0.259,0.351-0.337c0.149-0.077,0.272-0.115,0.47-0.115
			c0.239,0,0.437,0.046,0.592,0.141c0.156,0.094,0.265,0.219,0.327,0.373c0.062,0.155,0.094,0.271,0.094,0.553V1808.566z
			 M18.878,1807.896c-0.017-0.043-0.047-0.064-0.094-0.064c-0.06,0-0.097,0.02-0.111,0.056c-0.013,0.037-0.021-0.064-0.021,0.098
			v0.212H18.9v-0.212C18.9,1807.834,18.895,1807.941,18.878,1807.896z"/>
	</g>
</g>
<g>
	<g>
		<path fill="#18184B" d="M22.936,1900H7.066c-1.141,0-2.066,0.925-2.066,2.066v15.867c0,1.142,0.925,2.066,2.066,2.066h15.87
			c1.141,0,2.064-0.925,2.064-2.066v-15.867C25,1900.925,24.075,1900,22.936,1900z M19.999,1910.991h-4v4.007h-2v-4.007H9.991v-2
			h4.008v-4h1.999v4.001l4,0.001L19.999,1910.991L19.999,1910.991z"/>
	</g>
</g>
<g>
	<g>
		<path fill="#BC0016" d="M22.727,2000H7.273c-1.255,0-2.273,1.018-2.273,2.271v15.455c0,1.256,1.018,2.273,2.273,2.273h15.454
			c1.256,0,2.273-1.018,2.273-2.273v-15.455C25,2001.018,23.982,2000,22.727,2000z M19.999,2011h-10v-2h10V2011z"/>
	</g>
</g>
<g>
	<g>
		<path fill="#18184B" d="M22.727,2100H7.273c-1.255,0-2.273,1.018-2.273,2.271v15.455c0,1.256,1.018,2.273,2.273,2.273h15.454
			c1.256,0,2.273-1.018,2.273-2.273v-15.455C25,2101.018,23.982,2100,22.727,2100z M19.999,2111h-10v-2h10V2111z"/>
	</g>
</g>
<g>
	<g>
		<rect x="8.016" y="2200" fill="#B40200" width="12.984" height="13"/>
		<polygon fill="#8E0200" points="20.984,2213 8,2213 20.984,2200 		"/>
		<rect x="9.015" y="2202.953" fill="#FFFFFF" width="10.956" height="9.047"/>
		<rect x="9.015" y="2201.016" fill="#E47F81" width="10.956" height="0.97"/>
	</g>
	<g>
		<path fill="#8E0200" d="M11.091,2206.134c0.076-0.243,0.189-0.457,0.341-0.639c0.151-0.183,0.342-0.325,0.571-0.426
			c0.229-0.103,0.493-0.153,0.791-0.153c0.227,0,0.443,0.036,0.649,0.105c0.206,0.071,0.387,0.174,0.542,0.307
			c0.156,0.132,0.281,0.295,0.373,0.49c0.092,0.193,0.139,0.412,0.139,0.652c0,0.251-0.041,0.467-0.121,0.647
			c-0.08,0.179-0.187,0.339-0.319,0.479c-0.133,0.14-0.283,0.268-0.451,0.38c-0.168,0.114-0.337,0.228-0.508,0.338
			c-0.17,0.111-0.335,0.231-0.496,0.358c-0.161,0.128-0.303,0.276-0.426,0.448h2.349v0.866h-3.647c0-0.289,0.041-0.54,0.124-0.753
			s0.195-0.404,0.337-0.572s0.309-0.322,0.5-0.465s0.394-0.287,0.606-0.434c0.109-0.076,0.225-0.153,0.348-0.231
			c0.123-0.077,0.235-0.165,0.337-0.259s0.187-0.201,0.256-0.32c0.068-0.117,0.103-0.253,0.103-0.404
			c0-0.241-0.07-0.431-0.209-0.564c-0.14-0.136-0.318-0.203-0.536-0.203c-0.146,0-0.271,0.034-0.373,0.104
			c-0.102,0.068-0.183,0.158-0.245,0.271c-0.062,0.111-0.105,0.234-0.131,0.369c-0.026,0.135-0.039,0.269-0.039,0.402h-0.965
			C10.982,2206.643,11.016,2206.378,11.091,2206.134z"/>
		<path fill="#8E0200" d="M16.449,2209.988v-3.226h-1.25v-0.76c0.175,0.005,0.345-0.008,0.508-0.039s0.311-0.086,0.439-0.164
			c0.131-0.077,0.24-0.181,0.33-0.31c0.09-0.127,0.148-0.285,0.178-0.476h0.802v4.973L16.449,2209.988L16.449,2209.988z"/>
	</g>
</g>
<g>
	<g>
		<rect x="8.016" y="2300" fill="#2F4F9B" width="12.984" height="13"/>
		<polygon fill="#283673" points="20.984,2313 8,2313 20.984,2300 		"/>
		<rect x="9.015" y="2302.953" fill="#FFFFFF" width="10.956" height="9.047"/>
		<rect x="9.015" y="2301.016" fill="#283673" width="10.956" height="0.97"/>
	</g>
	<g>
		<path fill="#283673" d="M11.091,2306.134c0.076-0.243,0.189-0.457,0.341-0.639c0.151-0.183,0.342-0.325,0.571-0.426
			c0.229-0.103,0.493-0.153,0.791-0.153c0.227,0,0.443,0.036,0.649,0.105c0.206,0.071,0.387,0.174,0.542,0.307
			c0.156,0.132,0.281,0.295,0.373,0.49c0.092,0.193,0.139,0.412,0.139,0.652c0,0.251-0.041,0.467-0.121,0.647
			c-0.08,0.179-0.187,0.339-0.319,0.479c-0.133,0.14-0.283,0.268-0.451,0.38c-0.168,0.114-0.337,0.228-0.508,0.338
			c-0.17,0.111-0.335,0.231-0.496,0.358c-0.161,0.128-0.303,0.276-0.426,0.448h2.349v0.866h-3.647c0-0.289,0.041-0.54,0.124-0.753
			s0.195-0.404,0.337-0.572s0.309-0.322,0.5-0.465s0.394-0.287,0.606-0.434c0.109-0.076,0.225-0.153,0.348-0.231
			c0.123-0.077,0.235-0.165,0.337-0.259s0.187-0.201,0.256-0.32c0.068-0.117,0.103-0.253,0.103-0.404
			c0-0.241-0.07-0.431-0.209-0.564c-0.14-0.136-0.318-0.203-0.536-0.203c-0.146,0-0.271,0.034-0.373,0.104
			c-0.102,0.068-0.183,0.158-0.245,0.271c-0.062,0.111-0.105,0.234-0.131,0.369c-0.026,0.135-0.039,0.269-0.039,0.402h-0.965
			C10.982,2306.643,11.016,2306.378,11.091,2306.134z"/>
		<path fill="#283673" d="M16.449,2309.988v-3.226h-1.25v-0.76c0.175,0.005,0.344-0.008,0.507-0.039
			c0.164-0.031,0.31-0.086,0.44-0.164c0.131-0.077,0.24-0.181,0.33-0.31c0.09-0.127,0.148-0.285,0.178-0.476h0.802v4.973
			L16.449,2309.988L16.449,2309.988z"/>
	</g>
</g>
<g>
	<g>
		<rect x="9.013" y="2400" fill="#B40200" width="10.987" height="11"/>
		<polygon fill="#8E0200" points="19.988,2411 9,2411 19.988,2400 		"/>
		<rect x="10.014" y="2400.986" fill="#FFFFFF" width="9.005" height="9.027"/>
	</g>
	<rect x="11" y="2405" fill="#B40200" width="7" height="1"/>
</g>
<g>
	<g>
		<rect x="9.013" y="2500" fill="#2F4F9B" width="10.987" height="11"/>
		<polygon fill="#283673" points="19.988,2511 9,2511 19.988,2500 		"/>
		<rect x="10.014" y="2500.986" fill="#FFFFFF" width="9.005" height="9.027"/>
	</g>
	<rect x="11" y="2505" fill="#283673" width="7" height="1"/>
</g>
<g>
	<g>
		<rect x="9.013" y="2600" fill="#B40200" width="10.987" height="11"/>
		<polygon fill="#8E0200" points="19.988,2611 9,2611 19.988,2600 		"/>
		<rect x="10.014" y="2600.986" fill="#FFFFFF" width="9.005" height="9.027"/>
	</g>
	<polygon fill="#B40200" points="16.999,2605.008 14.983,2605.008 14.983,2603 14.015,2603 14.015,2605.008 11.999,2605.008 
		11.999,2605.977 14.015,2605.977 14.015,2608 14.983,2608 14.983,2605.977 16.999,2605.977 	"/>
</g>
<g>
	<g>
		<rect x="9.013" y="2700" fill="#2F4F9B" width="10.987" height="11"/>
		<polygon fill="#283673" points="19.986,2711 9,2711 19.986,2700 		"/>
		<rect x="10.014" y="2700.986" fill="#FFFFFF" width="9.003" height="9.027"/>
	</g>
	<polygon fill="#283673" points="16.999,2705.008 14.983,2705.008 14.983,2703 14.015,2703 14.015,2705.008 11.999,2705.008 
		11.999,2705.977 14.015,2705.977 14.015,2708 14.983,2708 14.983,2705.977 16.999,2705.977 	"/>
</g>
<g>
	<g>
		<path fill="#ACAFB1" d="M12.104,3403.025v-1.482c0-0.665-0.258-1.031-0.475-1.221c-0.435-0.381-0.975-0.32-0.969-0.316H9v1.003
			l1.56-0.003c-0.029,0.002,0.248,0.017,0.336,0.135c0.11,0.146,0.094,0.106,0.094,0.328v5.509l1.011,1.045h7.312l1.688-1.808
			v-3.188L12.104,3403.025L12.104,3403.025z M19.998,3405.012h-1.555v-1.001h1.555V3405.012z M15.213,3406.015v1.003h-1.104v-1.003
			H15.213z M14.109,3405.012v-1.001h1.104v1.001H14.109z M16.215,3406.015h1.227v1.003h-1.227V3406.015z M16.215,3405.012v-1.001
			h1.227v1.001H16.215z M13.106,3404.011v1.001h-1.013l0.007-1.001H13.106z M12.081,3406.638l0.005-0.623h1.021v1.003h-0.671
			L12.081,3406.638z M18.877,3407.02h-0.434v-1.004h1.371L18.877,3407.02z"/>
		<path fill="#9B9EA0" d="M20.656,3406.585c0,0-0.381-0.046-0.902,0.063c-0.701,0.146-0.875,0.369-0.877,0.369l0,0h-6.442
			l-0.354-0.381l0.02-2.627c0,0-0.005-0.24-0.38-0.541c-0.346-0.277-0.73-0.255-0.73-0.255v3.763l1.011,1.045h7.311v-0.004
			l0.004,0.004L20.656,3406.585z"/>
	</g>
	<g>
		<circle fill="#ACAFB1" cx="12.458" cy="3410.5" r="1.499"/>
		<path fill="#9B9EA0" d="M11.397,3409.439c-0.585,0.586-0.585,1.536,0,2.121c0.585,0.586,1.534,0.586,2.12,0L11.397,3409.439z"/>
	</g>
	<g>
		<circle fill="#ACAFB1" cx="18.443" cy="3410.5" r="1.499"/>
		<path fill="#9B9EA0" d="M17.385,3409.439c-0.586,0.586-0.586,1.536,0,2.121c0.584,0.586,1.533,0.586,2.119,0L17.385,3409.439z"/>
	</g>
</g>
<g>
	<g>
		<path fill="#CC0300" d="M12.104,3203.025v-1.482c0-0.665-0.258-1.031-0.475-1.221c-0.436-0.381-0.975-0.32-0.969-0.316H9v1.003
			l1.56-0.003c-0.03,0.002,0.248,0.016,0.336,0.135c0.109,0.146,0.094,0.105,0.094,0.328v5.509l1.011,1.045h7.312l1.688-1.806v-3.19
			L12.104,3203.025L12.104,3203.025z M19.998,3205.011h-1.553v-1.001h1.553V3205.011z M15.189,3206.015v1.003h-1.08v-1.003H15.189z
			 M14.109,3205.011v-1.001h1.08v1.001H14.109z M16.193,3206.015h1.248v1.003h-1.248V3206.015z M16.193,3205.011v-1.001h1.248v1.001
			H16.193z M13.106,3204.011v1.001h-1.013l0.007-1.001H13.106z M12.081,3206.638l0.005-0.623h1.021v1.003h-0.671L12.081,3206.638z
			 M18.878,3207.018h-0.433v-1.002h1.369L18.878,3207.018z"/>
		<path fill="#8E0200" d="M20.656,3206.585c0,0-0.381-0.045-0.902,0.063c-0.701,0.146-0.876,0.369-0.876,0.369l0,0h-6.442
			l-0.355-0.381l0.02-2.627c0,0-0.005-0.24-0.381-0.541c-0.346-0.277-0.73-0.255-0.73-0.255v3.763l1.011,1.045h7.31v-0.004
			l0.004,0.004L20.656,3206.585z"/>
	</g>
	<g>
		<circle fill="#CC0300" cx="12.458" cy="3210.5" r="1.499"/>
		<path fill="#8E0200" d="M11.397,3209.439c-0.585,0.586-0.585,1.535,0,2.121s1.535,0.586,2.12,0L11.397,3209.439z"/>
	</g>
	<g>
		<circle fill="#CC0300" cx="18.445" cy="3210.5" r="1.499"/>
		<path fill="#8E0200" d="M17.385,3209.439c-0.586,0.586-0.586,1.535,0,2.121s1.534,0.586,2.118,0L17.385,3209.439z"/>
	</g>
</g>
<polygon fill="#565656" points="13.058,3505.825 15.646,3503.235 13.066,3500.646 13.711,3500 16.941,3503.23 13.703,3506.47 "/>
<polygon fill="#BC0016" points="13.058,3605.825 15.646,3603.235 13.066,3600.646 13.711,3600 16.941,3603.23 13.703,3606.47 "/>
<g>
	<polygon fill="#CA0302" points="19.218,3700.631 16.393,3703.457 19.208,3706.284 18.504,3706.988 14.978,3703.462 
		18.514,3699.927 	"/>
	<polygon fill="#CA0302" points="15.022,3700.631 12.196,3703.457 15.013,3706.284 14.309,3706.988 10.782,3703.462 
		14.318,3699.927 	"/>
</g>
<g>
	<polygon fill="#283673" points="19.218,3800.705 16.393,3803.531 19.208,3806.357 18.504,3807.062 14.978,3803.536 18.514,3800 	
		"/>
	<polygon fill="#283673" points="15.022,3800.705 12.196,3803.531 15.013,3806.357 14.309,3807.062 10.782,3803.536 14.318,3800 	
		"/>
</g>
<g>
	<polygon fill="#CA0302" points="10.782,3900.705 13.608,3903.531 10.792,3906.357 11.496,3907.062 15.022,3903.536 11.487,3900 	
		"/>
	<polygon fill="#CA0302" points="14.978,3900.705 17.805,3903.531 14.987,3906.357 15.691,3907.062 19.218,3903.536 15.682,3900 	
		"/>
</g>
<g>
	<polygon fill="#283673" points="10.782,4000.705 13.608,4003.531 10.792,4006.357 11.496,4007.062 15.022,4003.536 11.487,4000 	
		"/>
	<polygon fill="#283673" points="14.978,4000.705 17.805,4003.531 14.987,4006.357 15.691,4007.062 19.218,4003.536 15.682,4000 	
		"/>
</g>
<g>
	<polygon fill="#002889" points="10.188,4100.805 13.413,4104.027 10.199,4107.252 11.003,4108.057 15.025,4104.033 10.992,4100 	
		"/>
	<polygon fill="#002889" points="14.975,4100.805 18.198,4104.027 14.985,4107.252 15.789,4108.057 19.812,4104.033 15.777,4100 	
		"/>
</g>
<g>
	<polygon fill="#BC0016" points="10.188,4200.805 13.413,4204.027 10.199,4207.252 11.003,4208.057 15.025,4204.033 10.992,4200 	
		"/>
	<polygon fill="#BC0016" points="14.975,4200.805 18.198,4204.027 14.985,4207.252 15.789,4208.057 19.812,4204.033 15.777,4200 	
		"/>
</g>
<g>
	<rect x="17" y="4300" fill="#CA0302" width="2" height="7"/>
	<polygon fill="#CA0302" points="10.953,4300.705 13.779,4303.531 10.962,4306.357 11.667,4307.062 15.193,4303.536 11.658,4300 	
		"/>
</g>
<g>
	<rect x="17.117" y="4400" fill="#283673" width="2" height="7"/>
	<polygon fill="#283673" points="10.953,4400.704 13.779,4403.531 10.962,4406.357 11.667,4407.062 15.193,4403.536 11.658,4400 	
		"/>
</g>
<g>
	<rect x="11" y="4500" fill="#CA0302" width="2" height="7"/>
	<polygon fill="#CA0302" points="19.047,4500.704 16.221,4503.531 19.037,4506.357 18.333,4507.062 14.807,4503.536 18.343,4500 	
		"/>
</g>
<g>
	<rect x="11" y="4600" fill="#283673" width="2" height="7"/>
	<polygon fill="#283673" points="19.047,4600.704 16.221,4603.531 19.037,4606.357 18.333,4607.062 14.807,4603.536 18.343,4600 	
		"/>
</g>
<polygon fill="#002889" points="12.41,4700 15,4702.589 17.59,4700.009 18.234,4700.654 15.004,4703.885 11.765,4700.646 "/>
<polygon fill="#BC0016" points="12.41,4800 15,4802.589 17.59,4800.009 18.234,4800.654 15.004,4803.885 11.765,4800.646 "/>
<path fill="#585858" d="M13.48,4900.505l2.026,2.026l-2.02,2.025l0.505,0.505l2.528-2.528L13.985,4900L13.48,4900.505z"/>
<path fill="#BC0016" d="M13.48,5000.505l2.026,2.026l-2.02,2.025l0.505,0.505l2.528-2.528L13.985,5000L13.48,5000.505z"/>
<g>
	<polygon fill="#CA0302" points="20.008,5106.938 20.008,5110.249 16.398,5106.581 15.682,5107.277 19.335,5110.991 
		16.033,5110.991 16.033,5112 21,5112 21,5106.938 	"/>
	<path fill="#CA0302" d="M13.752,5105.961c-0.695-0.104-1.22-0.721-1.22-1.436v-2.061c0-0.801,0.642-1.453,1.43-1.453h2.29
		c0.789,0,1.432,0.652,1.432,1.453v2.061c0,0.412-0.188,0.778-0.47,1.045h1.226c0.151-0.318,0.24-0.672,0.24-1.045v-2.061
		c0-1.359-1.089-2.466-2.428-2.466h-2.29c-1.337,0-2.426,1.106-2.426,2.466v2.061c0,1.062,0.684,1.998,1.648,2.332
		c-0.019,0.252-0.085,0.51-0.223,0.554c-0.607,0.188-0.898,0.263-1.053,0.297c-0.028,0.005-0.055,0.011-0.081,0.021
		c-1.078,0.277-1.827,1.25-1.827,2.388V5112h0.996v-1.882c0-0.681,0.456-1.263,1.108-1.415c0.019-0.004,0.038-0.01,0.056-0.016
		l0.001,0.002c0.125-0.027,0.438-0.104,1.091-0.309c0.853-0.266,0.98-1.312,0.925-1.9
		C14.186,5106.223,14.004,5105.999,13.752,5105.961z"/>
</g>
<g>
	<polygon fill="#283673" points="20.008,5206.938 20.008,5210.249 16.398,5206.581 15.682,5207.277 19.335,5210.991 
		16.033,5210.991 16.033,5212 21,5212 21,5206.938 	"/>
	<path fill="#283673" d="M13.752,5205.961c-0.695-0.104-1.22-0.721-1.22-1.436v-2.061c0-0.801,0.642-1.453,1.43-1.453h2.29
		c0.789,0,1.432,0.652,1.432,1.453v2.061c0,0.412-0.188,0.778-0.47,1.045h1.226c0.151-0.318,0.24-0.672,0.24-1.045v-2.061
		c0-1.359-1.089-2.466-2.428-2.466h-2.29c-1.337,0-2.426,1.106-2.426,2.466v2.061c0,1.062,0.684,1.998,1.648,2.332
		c-0.019,0.252-0.085,0.51-0.223,0.554c-0.607,0.188-0.898,0.263-1.053,0.297c-0.028,0.005-0.055,0.011-0.081,0.021
		c-1.078,0.277-1.827,1.25-1.827,2.388V5212h0.996v-1.882c0-0.681,0.456-1.263,1.108-1.415c0.019-0.004,0.038-0.01,0.056-0.016
		l0.001,0.002c0.125-0.027,0.438-0.104,1.091-0.309c0.853-0.266,0.98-1.312,0.925-1.9
		C14.186,5206.223,14.004,5205.999,13.752,5205.961z"/>
</g>
<path fill="#CA0302" d="M10.975,5312v-1.882c0-0.681,0.446-1.263,1.085-1.415c0.019-0.004,0.037-0.01,0.054-0.016l0.001,0.002
	c0.123-0.027,0.43-0.104,1.068-0.309c0.835-0.266,0.96-1.312,0.906-1.9c0.009-0.256-0.169-0.48-0.416-0.519
	c-0.681-0.104-1.194-0.722-1.194-1.437v-2.06c0-0.801,0.628-1.453,1.4-1.453h2.242c0.771,0,1.398,0.651,1.398,1.453v2.06
	c0,0.717-0.514,1.334-1.195,1.437c-0.197,0.03-0.358,0.183-0.405,0.383c-0.049,0.213-0.142,1.707,0.888,2.033
	c0.588,0.187,0.896,0.269,1.092,0.312c0.011,0.004,0.021,0.008,0.035,0.01c0.643,0.15,1.09,0.733,1.09,1.418V5312H20v-1.882
	c0-1.12-0.71-2.08-1.738-2.375c-0.051-0.022-0.104-0.037-0.164-0.041c0,0,0,0-0.002,0c-0.106-0.024-0.392-0.097-1.003-0.291
	c-0.135-0.043-0.2-0.312-0.222-0.547c0.951-0.33,1.625-1.269,1.625-2.337v-2.061c0-1.358-1.064-2.465-2.375-2.465h-2.242
	c-1.31,0-2.375,1.105-2.375,2.465v2.061c0,1.062,0.669,1.999,1.613,2.333c-0.018,0.252-0.083,0.51-0.218,0.554
	c-0.595,0.188-0.879,0.262-1.031,0.297c-0.027,0.004-0.054,0.011-0.079,0.02c-1.056,0.277-1.789,1.252-1.789,2.389V5312H10.975z"/>
<path fill="#283673" d="M10.975,5412v-1.883c0-0.682,0.446-1.264,1.085-1.415c0.019-0.004,0.037-0.01,0.054-0.017l0.001,0.004
	c0.123-0.028,0.43-0.106,1.068-0.31c0.835-0.265,0.96-1.313,0.906-1.899c0.009-0.256-0.169-0.48-0.416-0.519
	c-0.681-0.104-1.194-0.722-1.194-1.437v-2.06c0-0.801,0.628-1.453,1.4-1.453h2.242c0.771,0,1.398,0.651,1.398,1.453v2.06
	c0,0.717-0.514,1.334-1.195,1.437c-0.197,0.03-0.358,0.183-0.405,0.383c-0.049,0.213-0.142,1.706,0.888,2.033
	c0.588,0.187,0.896,0.269,1.092,0.312c0.011,0.004,0.021,0.008,0.035,0.01c0.643,0.15,1.09,0.733,1.09,1.418V5412H20v-1.883
	c0-1.12-0.71-2.079-1.738-2.375c-0.051-0.021-0.104-0.037-0.164-0.041c0,0,0,0-0.002,0c-0.106-0.023-0.392-0.098-1.003-0.291
	c-0.135-0.043-0.2-0.311-0.222-0.547c0.951-0.33,1.625-1.27,1.625-2.337v-2.06c0-1.359-1.064-2.467-2.375-2.467h-2.242
	c-1.31,0-2.375,1.106-2.375,2.467v2.06c0,1.063,0.669,1.999,1.613,2.333c-0.018,0.251-0.083,0.51-0.218,0.553
	c-0.595,0.188-0.879,0.263-1.031,0.297c-0.027,0.006-0.054,0.012-0.079,0.021c-1.056,0.278-1.789,1.251-1.789,2.388V5412H10.975z"/>
<g>
	<g>
		<rect x="16.025" y="5506.917" fill="#CA0302" width="3.023" height="1.009"/>
		<rect x="16.025" y="5508.904" fill="#CA0302" width="3.023" height="1.01"/>
		<polygon fill="#CA0302" points="20.006,5506.917 20.006,5510.973 16.025,5510.973 16.025,5511.98 21,5511.98 21,5506.917 		"/>
	</g>
	<path fill="#CA0302" d="M13.758,5505.961c-0.696-0.104-1.222-0.721-1.222-1.436v-2.061c0-0.801,0.643-1.453,1.432-1.453h2.293
		c0.79,0,1.435,0.652,1.435,1.453v2.061c0,0.412-0.354,1.115-0.635,1.383h1.227c0.152-0.32,0.404-1.012,0.404-1.383v-2.061
		c0-1.359-1.09-2.466-2.431-2.466h-2.293c-1.339,0-2.43,1.106-2.43,2.466v2.061c0,1.062,0.685,1.998,1.65,2.332
		c-0.019,0.252-0.085,0.51-0.223,0.554c-0.608,0.188-0.9,0.263-1.055,0.297c-0.028,0.005-0.055,0.011-0.081,0.021
		c-1.08,0.277-1.83,1.25-1.83,2.388V5512h0.998v-1.883c0-0.682,0.457-1.264,1.11-1.415c0.019-0.004,0.038-0.01,0.056-0.017
		l0.001,0.004c0.125-0.028,0.439-0.106,1.093-0.31c0.854-0.265,0.981-1.313,0.926-1.899
		C14.192,5506.223,14.01,5505.999,13.758,5505.961z"/>
</g>
<g>
	<g>
		<rect x="16.025" y="5606.917" fill="#283673" width="3.023" height="1.009"/>
		<rect x="16.025" y="5608.904" fill="#283673" width="3.023" height="1.01"/>
		<polygon fill="#283673" points="20.006,5606.917 20.006,5610.973 16.025,5610.973 16.025,5611.98 21,5611.98 21,5606.917 		"/>
	</g>
	<path fill="#283673" d="M13.758,5605.961c-0.696-0.104-1.222-0.721-1.222-1.436v-2.061c0-0.801,0.643-1.453,1.432-1.453h2.293
		c0.79,0,1.435,0.652,1.435,1.453v2.061c0,0.412-0.354,1.115-0.635,1.383h1.227c0.152-0.32,0.404-1.012,0.404-1.383v-2.061
		c0-1.359-1.09-2.466-2.431-2.466h-2.293c-1.339,0-2.43,1.106-2.43,2.466v2.061c0,1.062,0.685,1.998,1.65,2.332
		c-0.019,0.252-0.085,0.51-0.223,0.554c-0.608,0.188-0.9,0.263-1.055,0.297c-0.028,0.005-0.055,0.011-0.081,0.021
		c-1.08,0.277-1.83,1.25-1.83,2.388V5612h0.998v-1.883c0-0.682,0.457-1.264,1.11-1.415c0.019-0.004,0.038-0.01,0.056-0.017
		l0.001,0.004c0.125-0.028,0.439-0.106,1.093-0.31c0.854-0.265,0.981-1.313,0.926-1.899
		C14.192,5606.223,14.01,5605.999,13.758,5605.961z"/>
</g>
<g>
	<polygon fill="#4A81B6" points="21.016,5711.125 22,5710.036 22,5702.146 21.064,5701.111 18.695,5701.111 18.695,5700 
		16.422,5700 16.422,5701.111 13.981,5701.111 13.981,5702.243 20.995,5702.243 20.995,5710.036 13.981,5710.036 13.981,5711.125 
		16.422,5711.125 16.422,5712.236 13.981,5712.236 13.981,5714 21.391,5714 21.391,5712.236 18.695,5712.236 18.695,5711.125 	"/>
	<g>
		<path fill="#E2C44A" d="M9.099,5708.941v-6.72c0-0.75,0.045-1.063,0.777-1.063h1.434c0.602,0,1.053-0.002,1.053,0.689l0.003,1.493
			h7.548v5.601H9.099z"/>
		<path fill="#9D7522" d="M11.686,5701.158c0.477,0,0.68,0.271,0.68,0.689s0,1.494,0,1.494h7.548v5.601H9.099v-2.183v-3.418
			c0,0,0-1.123,0-1.494s0.19-0.689,0.673-0.689S11.208,5701.158,11.686,5701.158 M11.686,5700.031H9.772
			c-1.026,0-1.772,0.765-1.772,1.816v1.493v3.418v2.183v1.127h1.099h10.814h1.101v-1.127v-5.601v-1.126h-1.101h-6.449v-0.367
			C13.464,5700.779,12.732,5700.031,11.686,5700.031L11.686,5700.031z"/>
	</g>
	<polygon fill="#283673" points="13.981,5701.83 13.981,5702.243 20.995,5702.243 20.995,5710.036 13.981,5710.036 13.981,5710.488 
		20.977,5710.488 21.391,5710.068 21.391,5702.486 20.77,5701.83 	"/>
	<rect x="14.221" y="5713.159" fill="#283673" width="6.952" height="0.575"/>
</g>
<g>
	<polygon fill="#4A81B6" points="21.016,5811.125 22,5810.036 22,5802.146 21.064,5801.111 18.695,5801.111 18.695,5800 
		16.422,5800 16.422,5801.111 13.981,5801.111 13.981,5802.242 20.995,5802.242 20.995,5810.036 13.981,5810.036 13.981,5811.125 
		16.422,5811.125 16.422,5812.236 13.981,5812.236 13.981,5814 21.391,5814 21.391,5812.236 18.695,5812.236 18.695,5811.125 	"/>
	<g>
		<path fill="#4A81B6" d="M9.099,5808.941v-6.72c0-0.75,0.045-1.063,0.777-1.063h1.434c0.602,0,1.053-0.002,1.053,0.689l0.003,1.493
			h7.548v5.601H9.099z"/>
		<path fill="#476093" d="M11.686,5801.158c0.477,0,0.68,0.271,0.68,0.689s0,1.494,0,1.494h7.548v5.601H9.099v-2.183v-3.418
			c0,0,0-1.123,0-1.494s0.19-0.689,0.673-0.689S11.208,5801.158,11.686,5801.158 M11.686,5800.031H9.772
			c-1.026,0-1.772,0.765-1.772,1.816v1.493v3.418v2.183v1.127h1.099h10.814h1.101v-1.127v-5.601v-1.126h-1.101h-6.449v-0.367
			C13.464,5800.779,12.732,5800.031,11.686,5800.031L11.686,5800.031z"/>
	</g>
	<polygon fill="#283673" points="13.981,5801.83 13.981,5802.242 20.995,5802.242 20.995,5810.036 13.981,5810.036 13.981,5810.488 
		20.977,5810.488 21.391,5810.068 21.391,5802.486 20.77,5801.83 	"/>
	<rect x="14.221" y="5813.159" fill="#283673" width="6.952" height="0.575"/>
</g>
<g>
	<g>
		<g>
			<rect x="8" y="5900" fill="#95B1C1" width="14" height="12"/>
			
				<linearGradient id="SVGID_1_" gradientUnits="userSpaceOnUse" x1="292.5078" y1="5198.9839" x2="292.5078" y2="5189.0308" gradientTransform="matrix(1 0 0 -1 -277.5 11100)">
				<stop  offset="0" style="stop-color:#FFFFFF"/>
				<stop  offset="0.3492" style="stop-color:#FBFCFC"/>
				<stop  offset="0.7154" style="stop-color:#EEF2F5"/>
				<stop  offset="1" style="stop-color:#DFE7EC"/>
			</linearGradient>
			<rect x="9.016" y="5901.016" fill="url(#SVGID_1_)" width="11.984" height="9.953"/>
		</g>
		<polygon fill="#E3051A" points="10,5908.979 14.988,5902.738 20,5909 		"/>
	</g>
	<polygon fill="#F6F6F6" points="18.232,5908.171 11.767,5908.171 15,5904.143 	"/>
</g>
<g>
	<g>
		<g>
			<rect x="8" y="6000" fill="#283673" width="14" height="12"/>
			
				<linearGradient id="SVGID_2_" gradientUnits="userSpaceOnUse" x1="292.5078" y1="5098.9839" x2="292.5078" y2="5089.0308" gradientTransform="matrix(1 0 0 -1 -277.5 11100)">
				<stop  offset="0" style="stop-color:#FFFFFF"/>
				<stop  offset="0.3492" style="stop-color:#FBFCFC"/>
				<stop  offset="0.7154" style="stop-color:#EEF2F5"/>
				<stop  offset="1" style="stop-color:#DFE7EC"/>
			</linearGradient>
			<rect x="9.016" y="6001.016" fill="url(#SVGID_2_)" width="11.984" height="9.953"/>
		</g>
		<polygon fill="#283673" points="10,6008.979 14.988,6002.738 20,6009 		"/>
	</g>
	<polygon fill="#F6F6F6" points="18.232,6008.171 11.767,6008.171 15,6004.143 	"/>
</g>
<g>
	<g>
		<g>
			<rect x="8" y="6100" fill="#95B1C1" width="14" height="12"/>
			
				<linearGradient id="SVGID_3_" gradientUnits="userSpaceOnUse" x1="292.5078" y1="4998.9839" x2="292.5078" y2="4989.0308" gradientTransform="matrix(1 0 0 -1 -277.5 11100)">
				<stop  offset="0" style="stop-color:#FFFFFF"/>
				<stop  offset="0.3492" style="stop-color:#FBFCFC"/>
				<stop  offset="0.7154" style="stop-color:#EEF2F5"/>
				<stop  offset="1" style="stop-color:#DFE7EC"/>
			</linearGradient>
			<rect x="9.016" y="6101.016" fill="url(#SVGID_3_)" width="11.984" height="9.953"/>
		</g>
		<polygon fill="#E3051A" points="10,6108.979 14.988,6102.738 20,6109 		"/>
	</g>
</g>
<g>
	<g>
		<g>
			<rect x="8" y="6200" fill="#283673" width="14" height="12"/>
			
				<linearGradient id="SVGID_4_" gradientUnits="userSpaceOnUse" x1="292.5078" y1="4898.9839" x2="292.5078" y2="4889.0308" gradientTransform="matrix(1 0 0 -1 -277.5 11100)">
				<stop  offset="0" style="stop-color:#FFFFFF"/>
				<stop  offset="0.3492" style="stop-color:#FBFCFC"/>
				<stop  offset="0.7154" style="stop-color:#EEF2F5"/>
				<stop  offset="1" style="stop-color:#DFE7EC"/>
			</linearGradient>
			<rect x="9.016" y="6201.016" fill="url(#SVGID_4_)" width="11.984" height="9.953"/>
		</g>
		<polygon fill="#283673" points="10,6208.979 14.988,6202.738 20,6209 		"/>
	</g>
</g>
<g>
	<g>
		<g>
			<g>
				<rect x="8" y="6300" fill="#95B1C1" width="14" height="12"/>
				
					<linearGradient id="SVGID_5_" gradientUnits="userSpaceOnUse" x1="292.5078" y1="4798.9839" x2="292.5078" y2="4789.0308" gradientTransform="matrix(1 0 0 -1 -277.5 11100)">
					<stop  offset="0" style="stop-color:#FFFFFF"/>
					<stop  offset="0.3492" style="stop-color:#FBFCFC"/>
					<stop  offset="0.7154" style="stop-color:#EEF2F5"/>
					<stop  offset="1" style="stop-color:#DFE7EC"/>
				</linearGradient>
				<rect x="9.016" y="6301.016" fill="url(#SVGID_5_)" width="11.984" height="9.953"/>
			</g>
			<polygon fill="#E3051A" points="10,6303.021 14.988,6309.262 20,6303 			"/>
		</g>
	</g>
	<polygon fill="#F6F6F6" points="11.763,6303.771 18.229,6303.771 14.996,6307.801 	"/>
</g>
<g>
	<g>
		<g>
			<g>
				<rect x="8" y="6400" fill="#283673" width="14" height="12"/>
				
					<linearGradient id="SVGID_6_" gradientUnits="userSpaceOnUse" x1="292.5078" y1="4698.9839" x2="292.5078" y2="4689.0308" gradientTransform="matrix(1 0 0 -1 -277.5 11100)">
					<stop  offset="0" style="stop-color:#FFFFFF"/>
					<stop  offset="0.3492" style="stop-color:#FBFCFC"/>
					<stop  offset="0.7154" style="stop-color:#EEF2F5"/>
					<stop  offset="1" style="stop-color:#DFE7EC"/>
				</linearGradient>
				<rect x="9.016" y="6401.016" fill="url(#SVGID_6_)" width="11.984" height="9.953"/>
			</g>
			<polygon fill="#283673" points="10,6403.021 14.988,6409.262 20,6403 			"/>
		</g>
	</g>
	<polygon fill="#F6F6F6" points="11.763,6403.771 18.229,6403.771 14.996,6407.801 	"/>
</g>
<g>
	<g>
		<g>
			<rect x="8" y="6500" fill="#95B1C1" width="14" height="12"/>
			
				<linearGradient id="SVGID_7_" gradientUnits="userSpaceOnUse" x1="292.5078" y1="4598.9839" x2="292.5078" y2="4589.0308" gradientTransform="matrix(1 0 0 -1 -277.5 11100)">
				<stop  offset="0" style="stop-color:#FFFFFF"/>
				<stop  offset="0.3492" style="stop-color:#FBFCFC"/>
				<stop  offset="0.7154" style="stop-color:#EEF2F5"/>
				<stop  offset="1" style="stop-color:#DFE7EC"/>
			</linearGradient>
			<rect x="9.016" y="6501.016" fill="url(#SVGID_7_)" width="11.984" height="9.953"/>
		</g>
		<polygon fill="#E3051A" points="10,6503.021 14.988,6509.262 20,6503 		"/>
	</g>
</g>
<g>
	<g>
		<g>
			<rect x="8" y="6600" fill="#283673" width="14" height="12"/>
			
				<linearGradient id="SVGID_8_" gradientUnits="userSpaceOnUse" x1="292.5078" y1="4498.9839" x2="292.5078" y2="4489.0308" gradientTransform="matrix(1 0 0 -1 -277.5 11100)">
				<stop  offset="0" style="stop-color:#FFFFFF"/>
				<stop  offset="0.3492" style="stop-color:#FBFCFC"/>
				<stop  offset="0.7154" style="stop-color:#EEF2F5"/>
				<stop  offset="1" style="stop-color:#DFE7EC"/>
			</linearGradient>
			<rect x="9.016" y="6601.016" fill="url(#SVGID_8_)" width="11.984" height="9.953"/>
		</g>
		<polygon fill="#283673" points="10,6603.021 14.988,6609.262 20,6603 		"/>
	</g>
</g>
<polygon fill="#B40200" points="15.5,6700.383 12.05,6703.773 12.739,6704.45 15,6702.191 15,6709 10,6709 10,6710 16,6710 
	16,6702.191 18.266,6704.441 18.955,6703.766 "/>
<polygon fill="#283673" points="15.5,6800.383 12.05,6803.773 12.739,6804.45 15,6802.191 15,6809 10,6809 10,6810 16,6810 
	16,6802.191 18.266,6804.441 18.955,6803.766 "/>
<g>
	<polygon fill="#E3051A" points="12.317,6906.225 13.844,6907.751 17.707,6903.889 13.818,6900 12.293,6901.525 14.651,6903.883 	
		"/>
</g>
<g>
	<polygon fill="#283673" points="12.317,7006.225 13.844,7007.751 17.707,7003.889 13.818,7000 12.293,7001.525 14.651,7003.883 	
		"/>
</g>
<g>
	<g>
		<rect x="8" y="7100" fill="#ABABAB" width="10" height="1"/>
		<rect x="8" y="7102" fill="#ABABAB" width="10" height="1"/>
		<rect x="8" y="7104" fill="#ABABAB" width="6" height="1"/>
		<rect x="8" y="7106" fill="#ABABAB" width="4" height="1"/>
	</g>
	<polygon fill="#CA0302" points="15.521,7104.996 18.252,7107.498 20.982,7110 15.521,7110 10.059,7110 12.79,7107.498 	"/>
</g>
<g>
	<g>
		<rect x="8" y="7200" fill="#ABABAB" width="10" height="1"/>
		<rect x="8" y="7202" fill="#ABABAB" width="10" height="1"/>
		<rect x="8" y="7204" fill="#ABABAB" width="6" height="1"/>
		<rect x="8" y="7206" fill="#ABABAB" width="4" height="1"/>
	</g>
	<polygon fill="#283673" points="15.521,7204.996 18.252,7207.498 20.982,7210 15.521,7210 10.059,7210 12.79,7207.498 	"/>
</g>
<g>
	<g>
		<rect x="8" y="7300" fill="#ABABAB" width="10" height="1"/>
		<rect x="8" y="7302" fill="#ABABAB" width="10" height="1"/>
	</g>
	<polygon fill="#CA0302" points="15.521,7309.998 12.79,7307.499 10.059,7305 15.521,7305 20.982,7305 18.252,7307.499 	"/>
</g>
<g>
	<g>
		<rect x="8.508" y="7400" fill="#ABABAB" width="10" height="1"/>
		<rect x="8.508" y="7402" fill="#ABABAB" width="10" height="1"/>
	</g>
	<polygon fill="#283673" points="16.029,7409.998 13.298,7407.499 10.567,7405 16.029,7405 21.491,7405 18.761,7407.499 	"/>
</g>
<g>
	<polygon fill="#B40200" points="9.978,7508.995 9.976,7508.995 9.976,7504.005 14.854,7504.005 14.854,7503 9,7503 9,7510 	"/>
	<polygon fill="#CA0302" points="22,7501.973 20.027,7501.973 20.027,7500 17.973,7500 17.973,7501.973 16,7501.973 16,7504.027 
		17.973,7504.027 17.973,7506 20.027,7506 20.027,7504.027 22,7504.027 	"/>
	<polygon fill="#8E0200" points="18.046,7506.971 18.046,7508.995 9.978,7508.995 9.009,7509.986 19,7509.986 19,7506.971 	"/>
</g>
<g>
	<polygon fill="#2F4F9B" points="9.978,7608.995 9.976,7608.995 9.976,7604.004 14.854,7604.004 14.854,7603 9,7603 9,7610 	"/>
	<polygon fill="#2F4F9B" points="22,7601.973 20.027,7601.973 20.027,7600 17.973,7600 17.973,7601.973 16,7601.973 16,7604.027 
		17.973,7604.027 17.973,7606 20.027,7606 20.027,7604.027 22,7604.027 	"/>
	<polygon fill="#283673" points="18.046,7606.971 18.046,7608.995 9.978,7608.995 9.009,7609.986 19,7609.986 19,7606.971 	"/>
</g>
<g>
	<polygon fill="#8E0200" points="19,7706 18.99,7709 10,7709 9.977,7709.008 9,7710 20,7710 20,7706 	"/>
	<polygon fill="#CA0302" points="17,7701 20.277,7700.999 15.266,7706.042 15.951,7706.766 21,7701.677 21,7705 22,7705 22,7700 
		17,7700 	"/>
	<polyline fill="#B40200" points="16,7703 16,7702 9,7702 9,7710 9.977,7709.008 9.977,7703 	"/>
</g>
<g>
	<polygon fill="#283673" points="19,7806 18.99,7809 10,7809 9.977,7809.008 9,7810 20,7810 20,7806 	"/>
	<polygon fill="#2F4F9B" points="17,7801 20.277,7800.999 15.266,7806.042 15.951,7806.766 21,7801.677 21,7805 22,7805 22,7800 
		17,7800 	"/>
	<polyline fill="#2F4F9B" points="16,7803 16,7802 9,7802 9,7810 9.977,7809.008 9.977,7803 	"/>
</g>
<g>
	<polyline fill="#8E0200" points="21,7908 11,7908 10,7909 22,7909 22,7900 21,7901 	"/>
	<polygon fill="#CA0302" points="14.506,7901.758 13.798,7902.465 15.333,7904 8,7904 8,7905 15.364,7905 13.799,7906.564 
		14.506,7907.271 17.266,7904.5 	"/>
	<g>
		<polygon fill="#B40200" points="11,7901 21,7901 22,7900 22,7900 10,7900 10,7903 11,7903 		"/>
		<polyline fill="#B40200" points="11,7906 10,7906 10,7909 11,7908 		"/>
	</g>
</g>
<g>
	<polyline fill="#283673" points="21,8001 22,8000 22,8009 10,8009 11,8008 21,8008 	"/>
	<polygon fill="#2F4F9B" points="14.506,8001.758 13.798,8002.465 15.333,8004 8,8004 8,8005 15.364,8005 13.799,8006.564 
		14.506,8007.271 17.266,8004.5 	"/>
	<g>
		<polygon fill="#2F4F9B" points="11,8001 21,8001 22,8000 22,8000 10,8000 10,8003 11,8003 		"/>
		<polyline fill="#2F4F9B" points="11,8006 10,8006 10,8009 11,8008 		"/>
	</g>
</g>
<g>
	<polygon fill="#B40200" points="10.068,8110.898 10.068,8101.104 19.898,8101.104 21,8100 9,8100 9,8112 10.103,8110.898 	"/>
	<polygon fill="#8E0200" points="19.898,8101.104 19.932,8101.104 19.932,8110.898 10.103,8110.898 9,8112 21,8112 21,8100 	"/>
	<g>
		<polygon fill="#CA0302" points="15.93,8104.865 15.93,8108.814 17.062,8108.814 17.062,8109.953 12.939,8109.953 12.939,8108.814 
			14.167,8108.814 14.167,8106.002 13.353,8106.002 13.353,8104.865 		"/>
		<rect x="14.216" y="8102.047" fill="#CA0302" width="1.708" height="1.703"/>
	</g>
</g>
<g>
	<polygon fill="#2F4F9B" points="10.068,8210.898 10.068,8201.103 19.898,8201.103 21,8200 9,8200 9,8212 10.103,8210.898 	"/>
	<polygon fill="#283673" points="19.898,8201.103 19.932,8201.103 19.932,8210.898 10.103,8210.898 9,8212 21,8212 21,8200 	"/>
	<g>
		<polygon fill="#2F4F9B" points="15.93,8204.865 15.93,8208.814 17.062,8208.814 17.062,8209.953 12.939,8209.953 12.939,8208.814 
			14.167,8208.814 14.167,8206.002 13.353,8206.002 13.353,8204.865 		"/>
		<rect x="14.216" y="8202.047" fill="#2F4F9B" width="1.708" height="1.702"/>
	</g>
</g>
<g>
	
		<linearGradient id="SVGID_9_" gradientUnits="userSpaceOnUse" x1="286.8945" y1="2799.6064" x2="299.1074" y2="2787.3931" gradientTransform="matrix(1 0 0 -1 -277.5 11100)">
		<stop  offset="0" style="stop-color:#FEC137"/>
		<stop  offset="0.1314" style="stop-color:#FEB02B"/>
		<stop  offset="0.4353" style="stop-color:#FD8F14"/>
		<stop  offset="0.6878" style="stop-color:#FC7A05"/>
		<stop  offset="0.8561" style="stop-color:#FC7300"/>
	</linearGradient>
	<path fill="url(#SVGID_9_)" d="M20.657,8300H10.343c-0.742,0-1.343,0.602-1.343,1.343v10.313c0,0.742,0.602,1.344,1.343,1.344
		h10.314c0.741,0,1.343-0.602,1.343-1.344v-10.313C22,8300.602,21.398,8300,20.657,8300z"/>
	<g>
		<g>
			<path fill="#FFFFFF" d="M10.468,8301.467v1.938c4.482,0,8.125,3.646,8.125,8.127h1.939
				C20.532,8305.976,16.025,8301.467,10.468,8301.467z M10.468,8304.991v1.938c2.537,0,4.602,2.064,4.602,4.603h1.938
				C17.008,8307.922,14.082,8304.991,10.468,8304.991z M11.654,8309.159c-0.655,0-1.186,0.531-1.186,1.187
				c0,0.654,0.531,1.187,1.186,1.187c0.655,0,1.187-0.532,1.187-1.187C12.84,8309.69,12.309,8309.159,11.654,8309.159z"/>
		</g>
	</g>
</g>
<g>
	<polygon fill="#B40200" points="9.979,2809.99 9.979,2801.011 18.989,2801.011 20,2800 9,2800 9,2811 10.01,2809.99 	"/>
	<polygon fill="#8E0200" points="18.989,2801.011 19.021,2801.011 19.021,2809.99 10.01,2809.99 9,2811 20,2811 20,2800 	"/>
	<rect x="9.979" y="2801.01" fill="#FFFFFF" width="9.042" height="8.979"/>
	<polygon fill="#B40200" points="17.214,2803.5 16.5,2802.786 14.5,2804.786 12.5,2802.786 11.786,2803.5 13.786,2805.5 
		11.786,2807.5 12.5,2808.214 14.5,2806.214 16.5,2808.214 17.214,2807.5 15.214,2805.5 	"/>
</g>
<g>
	<polygon fill="#2F4F9B" points="9.979,2909.99 9.979,2901.011 18.989,2901.011 20,2900 9,2900 9,2911 10.01,2909.99 	"/>
	<polygon fill="#283673" points="18.989,2901.011 19.021,2901.011 19.021,2909.99 10.01,2909.99 9,2911 20,2911 20,2900 	"/>
	<rect x="9.979" y="2901.011" fill="#FFFFFF" width="9.042" height="8.979"/>
	<polygon fill="#2F4F9B" points="17.214,2903.5 16.5,2902.786 14.5,2904.786 12.5,2902.786 11.786,2903.5 13.786,2905.5 
		11.786,2907.5 12.5,2908.215 14.5,2906.215 16.5,2908.215 17.214,2907.5 15.214,2905.5 	"/>
</g>
<g>
	<polygon fill="#B40200" points="9.979,3009.99 9.979,3001.01 18.989,3001.01 20,3000 9,3000 9,3011 10.01,3009.99 	"/>
	<polygon fill="#8E0200" points="18.989,3001.01 19.021,3001.01 19.021,3009.99 10.01,3009.99 9,3011 20,3011 20,3000 	"/>
	
		<linearGradient id="SVGID_10_" gradientUnits="userSpaceOnUse" x1="287.4951" y1="8099.0059" x2="296.506" y2="8089.9951" gradientTransform="matrix(1 0 0 -1 -277.5 11100)">
		<stop  offset="0.2734" style="stop-color:#DC7D7D"/>
		<stop  offset="0.533" style="stop-color:#BD4E4D"/>
		<stop  offset="0.7407" style="stop-color:#A9302E"/>
		<stop  offset="0.8561" style="stop-color:#A12422"/>
	</linearGradient>
	<rect x="9.979" y="3001.01" fill="url(#SVGID_10_)" width="9.042" height="8.979"/>
	<polygon fill="#FFFFFF" points="17.214,3003.507 16.5,3002.792 14.5,3004.792 12.5,3002.792 11.786,3003.507 13.786,3005.507 
		11.786,3007.507 12.5,3008.221 14.5,3006.221 16.5,3008.221 17.214,3007.507 15.214,3005.507 	"/>
</g>
<g>
	<polygon fill="#2F4F9B" points="9.979,3109.99 9.979,3101.01 18.989,3101.01 20,3100 9,3100 9,3111 10.01,3109.99 	"/>
	<polygon fill="#283673" points="18.989,3101.01 19.021,3101.01 19.021,3109.99 10.01,3109.99 9,3111 20,3111 20,3100 	"/>
	
		<linearGradient id="SVGID_11_" gradientUnits="userSpaceOnUse" x1="287.4941" y1="7999.0068" x2="296.505" y2="7989.9961" gradientTransform="matrix(1 0 0 -1 -277.5 11100)">
		<stop  offset="0.3017" style="stop-color:#283673"/>
		<stop  offset="0.811" style="stop-color:#2F4F9B"/>
	</linearGradient>
	<rect x="9.979" y="3101.01" fill="url(#SVGID_11_)" width="9.042" height="8.979"/>
	<polygon fill="#FFFFFF" points="17.214,3103.507 16.5,3102.792 14.5,3104.792 12.5,3102.792 11.786,3103.507 13.786,3105.507 
		11.786,3107.507 12.5,3108.221 14.5,3106.221 16.5,3108.221 17.214,3107.507 15.214,3105.507 	"/>
</g>
<g>
	<path fill="#2F4F9B" d="M20.657,8400H10.343c-0.742,0-1.343,0.602-1.343,1.343v10.313c0,0.742,0.602,1.344,1.343,1.344h10.314
		c0.741,0,1.343-0.602,1.343-1.344v-10.313C22,8400.602,21.398,8400,20.657,8400z"/>
	<g>
		<g>
			<path fill="#FFFFFF" d="M10.468,8404.991v1.938c2.537,0,4.602,2.064,4.602,4.603h1.938
				C17.008,8407.921,14.082,8404.991,10.468,8404.991z M10.468,8401.467v1.938c4.482,0,8.125,3.646,8.125,8.127h1.939
				C20.532,8405.976,16.027,8401.467,10.468,8401.467z M11.654,8409.159c-0.655,0-1.186,0.531-1.186,1.187
				c0,0.654,0.531,1.187,1.186,1.187c0.655,0,1.187-0.532,1.187-1.187C12.84,8409.69,12.309,8409.159,11.654,8409.159z"/>
		</g>
	</g>
</g>
<g>
	<path fill="#CC0300" d="M18.159,8504.986v-2.812l-1.08-1.083l-0.705,0.704l0.788,0.792h-1.579l-0.997,0.997h2.576v1.402H9V8511h11
		v-6.014H18.159z M19.023,8510.026H9.976v-4.065h9.049v4.065H19.023z"/>
	<polygon fill="#8E0200" points="18.218,8505.961 19.023,8505.961 19.023,8510.026 10.782,8510.026 9,8511 20,8511 20,8504.986 	"/>
	<rect x="9.976" y="8505.961" fill="#E3E3E3" width="9.049" height="4.065"/>
	<rect x="16.169" y="8507.994" fill="#8E0200" width="1.983" height="0.954"/>
	<polygon fill="#E3051A" points="16.374,8501.795 17.079,8501.091 15.991,8500 10.841,8500 10.841,8504.986 11.837,8504.986 
		11.837,8500.997 14.581,8500.997 14.581,8503.584 14.586,8503.584 15.583,8502.587 15.577,8502.587 15.577,8500.997 	"/>
</g>
<g>
	<path fill="#2F4F9B" d="M18.159,8604.987v-2.813l-1.08-1.083l-0.705,0.704l0.788,0.792h-1.579l-0.997,0.997h2.576v1.403H9V8611h11
		v-6.013H18.159z M19.023,8610.026H9.976v-4.064h9.049v4.064H19.023z"/>
	<polygon fill="#283673" points="18.218,8605.962 19.023,8605.962 19.023,8610.026 10.782,8610.026 9,8611 20,8611 20,8604.987 	"/>
	<rect x="9.976" y="8605.962" fill="#E3E3E3" width="9.049" height="4.064"/>
	<rect x="16.169" y="8607.994" fill="#283673" width="1.983" height="0.954"/>
	<polygon fill="#476093" points="16.374,8601.795 17.079,8601.091 15.991,8600 10.841,8600 10.841,8604.987 11.837,8604.987 
		11.837,8600.997 14.581,8600.997 14.581,8603.584 14.586,8603.584 15.583,8602.587 15.577,8602.587 15.577,8600.997 	"/>
</g>
<g>
	<g>
		<path fill="#B40200" d="M18.08,8700.469l-0.773,0.773c1.508,1.086,2.493,2.852,2.493,4.852c0,1.881-0.87,3.557-2.228,4.652
			l0.77,0.77c1.553-1.295,2.541-3.242,2.541-5.422C20.883,8703.795,19.779,8701.758,18.08,8700.469z"/>
		<path fill="#B40200" d="M17.631,8706.094c0,1.281-0.636,2.414-1.605,3.105l0.777,0.779c1.166-0.896,1.92-2.303,1.92-3.885
			c0-1.703-0.869-3.203-2.187-4.082l-0.794,0.793C16.871,8703.469,17.631,8704.691,17.631,8706.094z"/>
	</g>
	<path fill="#B40200" d="M13.531,8702l-1.857,1.951H9v4.1c0,0,0.229-0.57,1.047-1.033l0,0l-0.004-2.041h2.053l1.857-1.959v3.201
		c0.348-0.154,0.692-0.43,1.047-0.922V8702H13.531z"/>
	<path fill="#8E0200" d="M13.953,8706.219v2.748l-1.853-1.949h-2.053C9.229,8707.48,9,8708.051,9,8708.051h2.674l1.857,1.949H15
		v-4.703C14.646,8705.789,14.301,8706.064,13.953,8706.219z"/>
	<polygon fill="#FFFFFF" points="13.953,8703.018 12.096,8704.977 10.043,8704.977 10.047,8707.018 12.1,8707.018 13.953,8708.967 
		13.953,8708.967 	"/>
	<path fill="#E3E3E3" d="M13.954,8705.631c-0.674-0.477-1.462-0.221-1.955,0.471c-0.394,0.551-1.544,0.529-1.952-0.102l0.001,1.018
		h2.053l1.853,1.949V8705.631z"/>
</g>
<g>
	<g>
		<path fill="#2F4F9B" d="M18.08,8800.469l-0.773,0.773c1.508,1.086,2.493,2.852,2.493,4.852c0,1.881-0.87,3.557-2.228,4.652
			l0.77,0.77c1.553-1.295,2.541-3.242,2.541-5.422C20.883,8803.795,19.779,8801.758,18.08,8800.469z"/>
		<path fill="#2F4F9B" d="M17.631,8806.094c0,1.281-0.636,2.414-1.605,3.105l0.777,0.779c1.166-0.896,1.92-2.303,1.92-3.885
			c0-1.703-0.869-3.203-2.187-4.082l-0.794,0.793C16.871,8803.469,17.631,8804.691,17.631,8806.094z"/>
	</g>
	<path fill="#2F4F9B" d="M13.531,8802l-1.857,1.951H9v4.1c0,0,0.229-0.57,1.047-1.033l0,0l-0.004-2.041h2.053l1.857-1.959v3.201
		c0.348-0.154,0.692-0.43,1.047-0.922V8802H13.531z"/>
	<path fill="#283673" d="M13.953,8806.219v2.748l-1.853-1.949h-2.053C9.229,8807.48,9,8808.051,9,8808.051h2.674l1.857,1.949H15
		v-4.703C14.646,8805.789,14.301,8806.064,13.953,8806.219z"/>
	<polygon fill="#FFFFFF" points="13.953,8803.018 12.096,8804.977 10.043,8804.977 10.047,8807.018 12.1,8807.018 13.953,8808.967 
		13.953,8808.967 	"/>
	<path fill="#E3E3E3" d="M13.954,8805.631c-0.674-0.477-1.462-0.221-1.955,0.471c-0.394,0.551-1.544,0.529-1.952-0.102l0.001,1.018
		h2.053l1.853,1.949V8805.631z"/>
</g>
<g>
	<path fill="#CA0302" d="M16.977,8903.775c0,0.107-0.07,0.201-0.168,0.201H12.2c-0.097,0-0.176-0.086-0.176-0.191v-2.594
		c0-0.104,0.079-0.189,0.176-0.189l4.601-0.01c0.098,0,0.176,0.086,0.176,0.191V8903.775z"/>
	<path fill="#CA0302" d="M16.977,8907.818c0,0.107-0.07,0.203-0.168,0.203H12.2c-0.097,0-0.176-0.086-0.176-0.193v-2.648
		c0-0.105,0.079-0.193,0.176-0.193l4.601-0.01c0.098,0,0.176,0.088,0.176,0.195V8907.818z"/>
	<path fill="#CA0302" d="M16.977,8911.797c0,0.102-0.07,0.197-0.168,0.197H12.2c-0.097,0-0.176-0.084-0.176-0.189v-2.6
		c0-0.105,0.079-0.191,0.176-0.191l4.601-0.01c0.098,0,0.176,0.086,0.176,0.191V8911.797z"/>
	<path fill="#8E0200" d="M10,8900v13h9v-13H10z M11.594,8911.805c0,0.104-0.085,0.189-0.19,0.189h-0.637
		c-0.105,0-0.19-0.084-0.19-0.189v-0.637c0-0.105,0.085-0.191,0.19-0.191h0.637c0.105,0,0.19,0.086,0.19,0.191V8911.805z
		 M11.594,8909.838c0,0.105-0.085,0.189-0.19,0.189h-0.637c-0.105,0-0.19-0.084-0.19-0.189v-0.639c0-0.102,0.085-0.191,0.19-0.191
		h0.637c0.105,0,0.19,0.088,0.19,0.191V8909.838z M11.594,8907.832c0,0.102-0.085,0.189-0.19,0.189h-0.637
		c-0.105,0-0.19-0.086-0.19-0.189v-0.639c0-0.105,0.085-0.189,0.19-0.189h0.637c0.105,0,0.19,0.084,0.19,0.189V8907.832z
		 M11.594,8905.805c0,0.105-0.085,0.191-0.19,0.191h-0.637c-0.105,0-0.19-0.086-0.19-0.191v-0.637c0-0.105,0.085-0.191,0.19-0.191
		h0.637c0.105,0,0.19,0.086,0.19,0.191V8905.805z M11.594,8903.801c0,0.105-0.085,0.191-0.19,0.191h-0.637
		c-0.105,0-0.19-0.086-0.19-0.191v-0.637c0-0.105,0.085-0.191,0.19-0.191h0.637c0.105,0,0.19,0.086,0.19,0.191V8903.801z
		 M11.594,8901.83c0,0.104-0.085,0.189-0.19,0.189h-0.637c-0.105,0-0.19-0.086-0.19-0.189v-0.639c0-0.104,0.085-0.189,0.19-0.189
		h0.637c0.105,0,0.19,0.084,0.19,0.189V8901.83z M16.977,8911.797c0,0.102-0.07,0.197-0.168,0.197H12.2
		c-0.097,0-0.176-0.084-0.176-0.189v-2.6c0-0.105,0.079-0.191,0.176-0.191l4.601-0.01c0.098,0,0.176,0.086,0.176,0.191V8911.797z
		 M16.977,8907.818c0,0.107-0.07,0.203-0.168,0.203H12.2c-0.097,0-0.176-0.086-0.176-0.193v-2.648c0-0.105,0.079-0.193,0.176-0.193
		l4.601-0.01c0.098,0,0.176,0.088,0.176,0.195V8907.818z M16.977,8903.775c0,0.107-0.07,0.201-0.168,0.201H12.2
		c-0.097,0-0.176-0.086-0.176-0.191v-2.594c0-0.104,0.079-0.189,0.176-0.189l4.601-0.01c0.098,0,0.176,0.086,0.176,0.191V8903.775z
		 M18.423,8911.805c0,0.104-0.085,0.189-0.19,0.189h-0.637c-0.104,0-0.189-0.084-0.189-0.189v-0.637
		c0-0.105,0.085-0.191,0.189-0.191h0.637c0.105,0,0.19,0.086,0.19,0.191V8911.805z M18.423,8909.838c0,0.105-0.085,0.189-0.19,0.189
		h-0.637c-0.104,0-0.189-0.084-0.189-0.189v-0.639c0-0.102,0.085-0.191,0.189-0.191h0.637c0.105,0,0.19,0.088,0.19,0.191V8909.838z
		 M18.423,8907.832c0,0.102-0.085,0.189-0.19,0.189h-0.637c-0.104,0-0.189-0.086-0.189-0.189v-0.639
		c0-0.105,0.085-0.189,0.189-0.189h0.637c0.105,0,0.19,0.084,0.19,0.189V8907.832z M18.423,8905.805c0,0.105-0.085,0.191-0.19,0.191
		h-0.637c-0.104,0-0.189-0.086-0.189-0.191v-0.637c0-0.105,0.085-0.191,0.189-0.191h0.637c0.105,0,0.19,0.086,0.19,0.191V8905.805z
		 M18.423,8903.801c0,0.105-0.085,0.191-0.19,0.191h-0.637c-0.104,0-0.189-0.086-0.189-0.191v-0.637
		c0-0.105,0.085-0.191,0.189-0.191h0.637c0.105,0,0.19,0.086,0.19,0.191V8903.801z M18.423,8901.83c0,0.104-0.085,0.189-0.19,0.189
		h-0.637c-0.104,0-0.189-0.086-0.189-0.189v-0.639c0-0.104,0.085-0.189,0.189-0.189h0.637c0.105,0,0.19,0.084,0.19,0.189V8901.83z"
		/>
</g>
<g>
	<path fill="#2F4F9B" d="M16.977,9003.775c0,0.107-0.07,0.201-0.168,0.201H12.2c-0.097,0-0.176-0.086-0.176-0.191v-2.594
		c0-0.104,0.079-0.189,0.176-0.189l4.601-0.01c0.098,0,0.176,0.086,0.176,0.191V9003.775z"/>
	<path fill="#2F4F9B" d="M16.977,9007.818c0,0.107-0.07,0.203-0.168,0.203H12.2c-0.097,0-0.176-0.086-0.176-0.193v-2.648
		c0-0.105,0.079-0.193,0.176-0.193l4.601-0.01c0.098,0,0.176,0.088,0.176,0.195V9007.818z"/>
	<path fill="#2F4F9B" d="M16.977,9011.797c0,0.102-0.07,0.197-0.168,0.197H12.2c-0.097,0-0.176-0.084-0.176-0.189v-2.6
		c0-0.107,0.079-0.191,0.176-0.191l4.601-0.01c0.098,0,0.176,0.086,0.176,0.191V9011.797z"/>
	<path fill="#283673" d="M10,9000v13h9v-13H10z M11.594,9011.805c0,0.104-0.085,0.189-0.19,0.189h-0.637
		c-0.105,0-0.19-0.084-0.19-0.189v-0.637c0-0.105,0.085-0.191,0.19-0.191h0.637c0.105,0,0.19,0.086,0.19,0.191V9011.805z
		 M11.594,9009.838c0,0.105-0.085,0.189-0.19,0.189h-0.637c-0.105,0-0.19-0.084-0.19-0.189v-0.639c0-0.105,0.085-0.191,0.19-0.191
		h0.637c0.105,0,0.19,0.086,0.19,0.191V9009.838z M11.594,9007.832c0,0.102-0.085,0.189-0.19,0.189h-0.637
		c-0.105,0-0.19-0.086-0.19-0.189v-0.639c0-0.105,0.085-0.189,0.19-0.189h0.637c0.105,0,0.19,0.084,0.19,0.189V9007.832z
		 M11.594,9005.805c0,0.105-0.085,0.191-0.19,0.191h-0.637c-0.105,0-0.19-0.086-0.19-0.191v-0.637c0-0.105,0.085-0.191,0.19-0.191
		h0.637c0.105,0,0.19,0.086,0.19,0.191V9005.805z M11.594,9003.801c0,0.105-0.085,0.191-0.19,0.191h-0.637
		c-0.105,0-0.19-0.086-0.19-0.191v-0.637c0-0.105,0.085-0.191,0.19-0.191h0.637c0.105,0,0.19,0.086,0.19,0.191V9003.801z
		 M11.594,9001.83c0,0.104-0.085,0.189-0.19,0.189h-0.637c-0.105,0-0.19-0.086-0.19-0.189v-0.639c0-0.104,0.085-0.189,0.19-0.189
		h0.637c0.105,0,0.19,0.084,0.19,0.189V9001.83z M16.977,9011.797c0,0.102-0.07,0.197-0.168,0.197H12.2
		c-0.097,0-0.176-0.084-0.176-0.189v-2.6c0-0.107,0.079-0.191,0.176-0.191l4.601-0.01c0.098,0,0.176,0.086,0.176,0.191V9011.797z
		 M16.977,9007.818c0,0.107-0.07,0.203-0.168,0.203H12.2c-0.097,0-0.176-0.086-0.176-0.193v-2.648c0-0.105,0.079-0.193,0.176-0.193
		l4.601-0.01c0.098,0,0.176,0.088,0.176,0.195V9007.818z M16.977,9003.775c0,0.107-0.07,0.201-0.168,0.201H12.2
		c-0.097,0-0.176-0.086-0.176-0.191v-2.594c0-0.104,0.079-0.189,0.176-0.189l4.601-0.01c0.098,0,0.176,0.086,0.176,0.191V9003.775z
		 M18.423,9011.805c0,0.104-0.085,0.189-0.19,0.189h-0.637c-0.104,0-0.189-0.084-0.189-0.189v-0.637
		c0-0.105,0.085-0.191,0.189-0.191h0.637c0.105,0,0.19,0.086,0.19,0.191V9011.805z M18.423,9009.838c0,0.105-0.085,0.189-0.19,0.189
		h-0.637c-0.104,0-0.189-0.084-0.189-0.189v-0.639c0-0.105,0.085-0.191,0.189-0.191h0.637c0.105,0,0.19,0.086,0.19,0.191V9009.838z
		 M18.423,9007.832c0,0.102-0.085,0.189-0.19,0.189h-0.637c-0.104,0-0.189-0.086-0.189-0.189v-0.639
		c0-0.105,0.085-0.189,0.189-0.189h0.637c0.105,0,0.19,0.084,0.19,0.189V9007.832z M18.423,9005.805c0,0.105-0.085,0.191-0.19,0.191
		h-0.637c-0.104,0-0.189-0.086-0.189-0.191v-0.637c0-0.105,0.085-0.191,0.189-0.191h0.637c0.105,0,0.19,0.086,0.19,0.191V9005.805z
		 M18.423,9003.801c0,0.105-0.085,0.191-0.19,0.191h-0.637c-0.104,0-0.189-0.086-0.189-0.191v-0.637
		c0-0.105,0.085-0.191,0.189-0.191h0.637c0.105,0,0.19,0.086,0.19,0.191V9003.801z M18.423,9001.83c0,0.104-0.085,0.189-0.19,0.189
		h-0.637c-0.104,0-0.189-0.086-0.189-0.189v-0.639c0-0.104,0.085-0.189,0.189-0.189h0.637c0.105,0,0.19,0.084,0.19,0.189V9001.83z"
		/>
</g>
<g>
	<polygon fill="#E3051A" points="9,9100 9,9113 9.991,9112.008 9.991,9100.992 16.441,9100.992 16.441,9103.566 16.447,9103.566 
		17.438,9102.574 17.434,9102.574 17.434,9100.992 18.225,9101.785 18.926,9101.086 17.844,9100 	"/>
	<polyline fill="#CA0302" points="9,9113 20,9113 20,9102.164 18.926,9101.086 18.225,9101.785 19.009,9102.574 17.438,9102.574 
		16.447,9103.566 19.009,9103.566 19.009,9112.008 9.991,9112.008 	"/>
</g>
<g>
	<polygon fill="#2F4F9B" points="9,9200 9,9213 9.991,9212.008 9.991,9200.992 16.441,9200.992 16.441,9203.566 16.447,9203.566 
		17.438,9202.574 17.432,9202.574 17.432,9200.992 18.225,9201.785 18.926,9201.086 17.842,9200 	"/>
	<polyline fill="#283673" points="9,9213 20,9213 20,9202.164 18.926,9201.086 18.225,9201.785 19.01,9202.574 17.438,9202.574 
		16.447,9203.566 19.01,9203.566 19.01,9212.008 9.991,9212.008 	"/>
</g>
<g>
	<path fill="#999999" d="M11,9310h7v-1h-7V9310z M15,9303h-4v1h4V9303z M11,9308h7v-1h-7V9308z M11,9305v1h7v-1H11z"/>
	<g>
		<polygon fill="#E3051A" points="9,9300 9,9313 9.991,9312.008 9.991,9300.992 16.441,9300.992 16.441,9303.566 16.447,9303.566 
			17.438,9302.574 17.434,9302.574 17.434,9300.992 18.225,9301.785 18.926,9301.086 17.844,9300 		"/>
		<polyline fill="#CA0302" points="9,9313 20,9313 20,9302.162 18.926,9301.086 18.225,9301.785 19.009,9302.574 17.438,9302.574 
			16.447,9303.566 19.009,9303.566 19.009,9312.008 9.991,9312.008 		"/>
	</g>
</g>
<g>
	<path fill="#999999" d="M11,9410h7v-1h-7V9410z M15.031,9403h-4v1h4V9403z M11,9408h7v-1h-7V9408z M11,9405v1h7v-1H11z"/>
	<polygon fill="#2F4F9B" points="9,9400 9,9413 9.991,9412.008 9.991,9400.992 16.441,9400.992 16.441,9403.566 16.447,9403.566 
		17.438,9402.574 17.434,9402.574 17.434,9400.992 18.225,9401.785 18.926,9401.086 17.844,9400 	"/>
	<polyline fill="#283673" points="9,9413 20,9413 20,9402.164 18.926,9401.086 18.225,9401.785 19.009,9402.574 17.438,9402.574 
		16.447,9403.566 19.009,9403.566 19.009,9412.008 9.991,9412.008 	"/>
</g>
<g>
	<path fill="#E36D32" d="M16.505,9509.613h2.459v-1.023h-2.459V9509.613z M16.505,9507.664h2.459v-1.025h-2.459V9507.664z
		 M16.505,9504.637v1.023h2.459v-1.023H16.505z"/>
	<g>
		
			<linearGradient id="SVGID_12_" gradientUnits="userSpaceOnUse" x1="285.4883" y1="1597.8232" x2="294.0179" y2="1589.2938" gradientTransform="matrix(1 0 0 -1 -277.5 11100)">
			<stop  offset="0.0072" style="stop-color:#A9623B"/>
			<stop  offset="1" style="stop-color:#5D1A18"/>
		</linearGradient>
		<rect x="8" y="9502.164" fill="url(#SVGID_12_)" width="8.505" height="8.555"/>
		<rect x="8.922" y="9503.092" fill="#FFFFFF" width="6.661" height="6.701"/>
		<g>
			<rect x="9.782" y="9503.92" fill="#A9623B" width="4.94" height="0.82"/>
			<rect x="12.475" y="9505.312" fill="#A9623B" width="2.248" height="0.344"/>
			<rect x="11.717" y="9505.312" fill="#A9623B" width="0.536" height="0.344"/>
			<rect x="12.475" y="9506.012" fill="#A9623B" width="2.248" height="0.344"/>
			<rect x="11.717" y="9506.012" fill="#A9623B" width="0.536" height="0.344"/>
			<rect x="12.475" y="9506.703" fill="#A9623B" width="2.248" height="0.344"/>
			<rect x="11.717" y="9506.703" fill="#A9623B" width="0.536" height="0.344"/>
			<path fill="#A9623B" d="M11.291,9506.363c-0.728,0-1.318,0.594-1.318,1.324c0,0.734,0.59,1.326,1.318,1.326
				s1.318-0.592,1.318-1.326h-1.318V9506.363z"/>
		</g>
	</g>
	<g>
		<polyline fill="#CA0302" points="10.058,9513 21,9513 21,9502.164 19.932,9501.086 19.232,9501.785 20.014,9502.574 
			18.451,9502.574 17.466,9503.566 20.014,9503.566 20.014,9512.008 11.044,9512.008 		"/>
		<g>
			<polygon fill="#E3051A" points="19.232,9501.785 19.932,9501.086 18.854,9500 10.058,9500 10.058,9502.164 11.044,9502.164 
				11.044,9500.992 17.46,9500.992 17.46,9503.566 17.466,9503.566 18.451,9502.574 18.445,9502.574 18.445,9500.992 			"/>
			<polygon fill="#E3051A" points="10.058,9510.719 10.058,9513 11.044,9512.008 11.044,9510.719 			"/>
		</g>
	</g>
</g>
<g>
	<polyline fill="#283673" points="10.058,9613 21,9613 21,9602.164 19.932,9601.086 19.232,9601.785 20.014,9602.574 
		18.451,9602.574 17.466,9603.566 20.014,9603.566 20.014,9612.008 11.044,9612.008 	"/>
	<polygon fill="#2F4F9B" points="19.232,9601.785 19.932,9601.086 18.854,9600 10.058,9600 10.058,9602.164 8,9602.164 8,9610.719 
		10.058,9610.719 10.058,9613 11.044,9612.008 11.044,9610.719 16.505,9610.719 16.505,9609.613 18.964,9609.613 18.964,9608.59 
		16.505,9608.59 16.505,9607.664 18.964,9607.664 18.964,9606.639 16.505,9606.639 16.505,9605.66 18.964,9605.66 18.964,9604.637 
		16.505,9604.637 16.505,9602.164 11.044,9602.164 11.044,9600.992 17.46,9600.992 17.46,9603.566 17.465,9603.566 18.45,9602.574 
		18.445,9602.574 18.445,9600.992 	"/>
	<rect x="8.922" y="9603.092" fill="#283673" width="6.661" height="6.701"/>
	<g>
		<rect x="9.782" y="9603.92" fill="#FFFFFF" width="4.94" height="0.82"/>
		<rect x="12.475" y="9605.312" fill="#FFFFFF" width="2.248" height="0.344"/>
		<rect x="11.717" y="9605.312" fill="#FFFFFF" width="0.536" height="0.344"/>
		<rect x="12.475" y="9606.012" fill="#FFFFFF" width="2.248" height="0.344"/>
		<rect x="11.717" y="9606.012" fill="#FFFFFF" width="0.536" height="0.344"/>
		<rect x="12.475" y="9606.703" fill="#FFFFFF" width="2.248" height="0.344"/>
		<rect x="11.717" y="9606.703" fill="#FFFFFF" width="0.536" height="0.344"/>
		<path fill="#FFFFFF" d="M11.291,9606.363c-0.728,0-1.318,0.594-1.318,1.324c0,0.734,0.59,1.326,1.318,1.326
			s1.318-0.592,1.318-1.326h-1.318V9606.363z"/>
	</g>
</g>
<g>
	<g>
		
			<linearGradient id="SVGID_13_" gradientUnits="userSpaceOnUse" x1="285.4824" y1="1397.8145" x2="294.0182" y2="1389.2788" gradientTransform="matrix(1 0 0 -1 -277.5 11100)">
			<stop  offset="0.0072" style="stop-color:#789976"/>
			<stop  offset="0.7865" style="stop-color:#2D3D24"/>
		</linearGradient>
		<rect x="8" y="9702.168" fill="url(#SVGID_13_)" width="8.501" height="8.57"/>
		<rect x="8.921" y="9703.098" fill="#FFFFFF" width="6.658" height="6.711"/>
	</g>
	
		<linearGradient id="SVGID_14_" gradientUnits="userSpaceOnUse" x1="287.2324" y1="1396.1201" x2="292.2672" y2="1391.0856" gradientTransform="matrix(1 0 0 -1 -277.5 11100)">
		<stop  offset="0.0072" style="stop-color:#789976"/>
		<stop  offset="0.7865" style="stop-color:#2D3D24"/>
	</linearGradient>
	<polygon fill="url(#SVGID_14_)" points="14.757,9703.869 13.82,9703.869 12.25,9705.453 10.681,9703.869 9.743,9703.869 
		9.743,9704.814 11.312,9706.398 9.743,9707.98 9.743,9708.926 10.681,9708.926 12.25,9707.344 13.82,9708.926 14.757,9708.926 
		14.757,9707.98 13.188,9706.398 14.757,9704.814 	"/>
	<path fill="#AFD1AD" d="M16.516,9709.613h2.452v-1.023h-2.452V9709.613z M16.516,9707.664h2.452v-1.025h-2.452V9707.664z
		 M16.516,9704.637v1.023h2.452v-1.023H16.516z"/>
	<g>
		<polyline fill="#CA0302" points="10.083,9713 21,9713 21,9702.164 19.934,9701.086 19.238,9701.785 20.018,9702.574 
			18.457,9702.574 17.475,9703.566 20.018,9703.566 20.018,9712.008 11.066,9712.008 		"/>
		<g>
			<polygon fill="#E3051A" points="19.238,9701.785 19.934,9701.086 18.857,9700 10.083,9700 10.083,9702.164 11.066,9702.164 
				11.066,9700.992 17.468,9700.992 17.468,9703.566 17.475,9703.566 18.457,9702.574 18.451,9702.574 18.451,9700.992 			"/>
			<polygon fill="#E3051A" points="10.083,9710.719 10.083,9713 11.066,9712.008 11.066,9710.719 			"/>
		</g>
	</g>
</g>
<g>
	<polygon fill="#2F4F9B" points="19.236,9801.785 19.934,9801.086 18.857,9800 10.083,9800 10.083,9802.168 8,9802.168 8,9810.738 
		10.083,9810.738 10.083,9813 11.066,9812.008 11.066,9810.738 16.501,9810.738 16.501,9809.613 18.886,9809.613 18.886,9808.59 
		16.501,9808.59 16.501,9807.664 18.886,9807.664 18.886,9806.639 16.501,9806.639 16.501,9805.66 18.886,9805.66 18.886,9804.637 
		16.501,9804.637 16.501,9802.168 11.066,9802.168 11.066,9800.992 17.468,9800.992 17.468,9803.566 17.475,9803.566 
		18.457,9802.574 18.451,9802.574 18.451,9800.992 	"/>
	<rect x="8.921" y="9803.098" fill="#283673" width="6.658" height="6.711"/>
	<polygon fill="#FFFFFF" points="14.757,9803.869 13.82,9803.869 12.25,9805.453 10.681,9803.869 9.743,9803.869 9.743,9804.816 
		11.312,9806.398 9.743,9807.98 9.743,9808.926 10.681,9808.926 12.25,9807.344 13.82,9808.926 14.757,9808.926 14.757,9807.98 
		13.188,9806.398 14.757,9804.816 	"/>
	<polyline fill="#283673" points="10.083,9813 21,9813 21,9802.162 19.934,9801.086 19.238,9801.785 20.018,9802.574 
		18.457,9802.574 17.475,9803.566 20.018,9803.566 20.018,9812.008 11.066,9812.008 	"/>
</g>
<g>
	<g>
		
			<linearGradient id="SVGID_15_" gradientUnits="userSpaceOnUse" x1="285.4863" y1="1197.8188" x2="294.0109" y2="1189.2942" gradientTransform="matrix(1 0 0 -1 -277.5 11100)">
			<stop  offset="0.0072" style="stop-color:#92A3CB"/>
			<stop  offset="0.7865" style="stop-color:#1F375A"/>
		</linearGradient>
		<rect x="8" y="9902.166" fill="url(#SVGID_15_)" width="8.494" height="8.557"/>
		<rect x="8.92" y="9903.094" fill="#FFFFFF" width="6.652" height="6.703"/>
	</g>
	<g>
		
			<linearGradient id="SVGID_16_" gradientUnits="userSpaceOnUse" x1="287.5869" y1="1195.7852" x2="291.2709" y2="1192.1008" gradientTransform="matrix(1 0 0 -1 -277.5 11100)">
			<stop  offset="0.0072" style="stop-color:#92A3CB"/>
			<stop  offset="0.7865" style="stop-color:#1F375A"/>
		</linearGradient>
		<path fill="url(#SVGID_16_)" d="M11.884,9906.84l-1.006,1.986H9.903l-0.116-3.689c0-1.012,0.533-1.074,0.775-1.074h0.532
			c0.232,0,0.389,0.037,0.472,0.111c0.083,0.076,0.124,0.182,0.124,0.318c0,0.211-0.098,0.387-0.293,0.529
			c-0.107,0.078-0.289,0.115-0.544,0.115l0.045,1.707l0.993-1.748h0.924l-0.029,1.748l1.063-1.707c-0.262,0-0.428-0.031-0.5-0.094
			c-0.098-0.084-0.146-0.195-0.146-0.33c0-0.213,0.098-0.393,0.292-0.535c0.104-0.076,0.277-0.115,0.52-0.115h0.529
			c0.232,0,0.736,0.277,0.365,1.074l-2.065,3.689h-0.958L11.884,9906.84z"/>
	</g>
	<path fill="#C1CDEC" d="M16.512,9909.613h2.455v-1.023h-2.455V9909.613z M16.512,9907.664h2.455v-1.025h-2.455V9907.664z
		 M16.512,9904.637v1.023h2.455v-1.023H16.512z"/>
	<g>
		<polyline fill="#CA0302" points="10.074,9913 21,9913 21,9902.164 19.934,9901.086 19.234,9901.785 20.016,9902.574 
			18.455,9902.574 17.471,9903.566 20.016,9903.566 20.016,9912.008 11.059,9912.008 		"/>
		<g>
			<polygon fill="#E3051A" points="19.234,9901.785 19.934,9901.086 18.857,9900 10.074,9900 10.074,9902.164 11.059,9902.164 
				11.059,9900.992 17.465,9900.992 17.465,9903.566 17.471,9903.566 18.455,9902.574 18.449,9902.574 18.449,9900.992 			"/>
			<polygon fill="#E3051A" points="10.074,9910.719 10.074,9913 11.059,9912.008 11.059,9910.719 			"/>
		</g>
	</g>
</g>
<g>
	<path fill="#2F4F9B" d="M18.857,10000h-8.783v2.166H8v8.557h2.074v2.277H21v-10.836L18.857,10000z M20.016,10012.008h-8.957v-1.285
		h5.436v-1.109h2.473v-1.023h-2.473v-0.926h2.473v-1.025h-2.473v-0.979h2.473v-1.023h-2.473v-2.471h-5.436v-1.174h6.406v2.574h0.006
		h2.545V10012.008z M18.455,10002.574h-0.006v-1.582l1.566,1.582H18.455z"/>
	<rect x="8.92" y="10003.102" fill="#283673" width="6.652" height="6.703"/>
	<path fill="#FFFFFF" d="M11.884,10006.84l-1.006,1.986H9.903l-0.116-3.689c0-1.012,0.533-1.074,0.775-1.074h0.532
		c0.232,0,0.389,0.037,0.472,0.113c0.083,0.074,0.124,0.18,0.124,0.316c0,0.211-0.098,0.387-0.293,0.531
		c-0.107,0.076-0.289,0.113-0.544,0.113l0.045,1.707l0.993-1.748h0.924l-0.029,1.748l1.063-1.707c-0.262,0-0.428-0.031-0.5-0.094
		c-0.098-0.084-0.146-0.195-0.146-0.33c0-0.213,0.098-0.393,0.292-0.535c0.104-0.076,0.277-0.115,0.52-0.115h0.529
		c0.232,0,0.736,0.279,0.365,1.074l-2.065,3.689h-0.958L11.884,10006.84z"/>
</g>
<g>
	<polygon fill="#DEDEDE" points="17.423,10103.566 17.423,10100.992 10.94,10100.992 10.94,10102.064 16.385,10102.064 
		16.385,10105.09 15.541,10105.09 10.94,10105.09 10.94,10112.008 20.003,10112.008 20.003,10103.566 	"/>
	<path fill="#E3051A" d="M20.003,10108.379c0,0-0.159-0.074-0.217-0.098c-0.644-0.258-1.484-0.203-2.3-0.053
		c-0.604-0.373-1.131-0.865-1.463-1.311c-0.313-0.418-0.532-0.904-0.7-1.408c0.039-0.107,0.148-0.42,0.148-0.42h-0.638
		c0,0,0.129,0.25,0.156,0.318c-0.282,0.922-0.656,1.814-0.807,2.225c-0.216,0.586-0.477,1.152-0.781,1.691
		c-0.966,0.398-1.807,0.996-2.212,2.039c-0.388,0.998,0.994,0.291,1.294-0.088c0.423-0.533,0.803-1.109,1.145-1.709
		c0.725-0.297,1.521-0.48,2.258-0.668c0.604-0.156,1.216-0.273,1.831-0.369c0.312,0.158,0.643,0.301,1.004,0.412
		c0.19,0.061,0.676,0.109,1.078,0.088c0.055-0.004,0.203-0.02,0.203-0.02L20.003,10108.379L20.003,10108.379z M12.429,10110.77
		c-0.147,0.184-1.115,1.367-0.794,0.539c0.236-0.609,0.843-1.154,1.39-1.457c0.026-0.016,0.054-0.027,0.081-0.041
		C12.896,10110.141,12.676,10110.463,12.429,10110.77z M15.564,10108.686c-0.559,0.133-1.148,0.275-1.713,0.471
		c0.499-0.945,0.905-1.934,1.21-2.91c0.034-0.111,0.08-0.238,0.131-0.377c0.484,1.039,1.167,1.836,2.07,2.402
		C16.631,10108.4,16.027,10108.574,15.564,10108.686z M19.673,10108.768c-0.552,0.113-1.144-0.018-1.698-0.275
		C18.482,10108.428,19.822,10108.305,19.673,10108.768z"/>
	<g>
		<g>
			<polygon fill="#E3051A" points="9.943,10105.09 9.943,10113 10.94,10112.008 10.94,10105.09 			"/>
			<polygon fill="#E3051A" points="19.215,10101.785 19.92,10101.086 18.831,10100 9.943,10100 9.943,10102.064 10.94,10102.064 
				10.94,10100.992 17.423,10100.992 17.423,10103.566 17.428,10103.566 18.424,10102.574 18.419,10102.574 18.419,10100.992 			"/>
		</g>
		<polyline fill="#CA0302" points="9.943,10113 21,10113 21,10102.164 19.92,10101.086 19.215,10101.785 20.003,10102.574 
			18.424,10102.574 17.428,10103.566 20.003,10103.566 20.003,10112.008 10.94,10112.008 		"/>
	</g>
	
		<linearGradient id="SVGID_17_" gradientUnits="userSpaceOnUse" x1="286.8398" y1="999.2754" x2="292.5451" y2="993.5703" gradientTransform="matrix(1 0 0 -1 -277.5 11100)">
		<stop  offset="0.127" style="stop-color:#993233"/>
		<stop  offset="0.7059" style="stop-color:#5B1F20"/>
	</linearGradient>
	<polygon fill="url(#SVGID_17_)" points="8,10102.064 8,10102.666 8,10102.902 8,10104.25 8,10104.537 8,10105.09 15.541,10105.09 
		16.385,10105.09 16.385,10102.064 	"/>
</g>
<g>
	<polygon fill="#DEDEDE" points="17.423,10203.566 17.423,10200.992 10.94,10200.992 10.94,10202.062 16.385,10202.062 
		16.385,10205.09 15.541,10205.09 10.94,10205.09 10.94,10212.008 20.003,10212.008 20.003,10203.566 	"/>
	<path fill="#283673" d="M20.003,10208.379c0,0-0.159-0.074-0.217-0.098c-0.644-0.258-1.484-0.203-2.3-0.053
		c-0.604-0.373-1.131-0.865-1.463-1.311c-0.313-0.418-0.532-0.906-0.7-1.408c0.039-0.107,0.148-0.42,0.148-0.42h-0.638
		c0,0,0.129,0.25,0.156,0.318c-0.282,0.922-0.656,1.814-0.807,2.225c-0.216,0.586-0.477,1.152-0.781,1.691
		c-0.966,0.398-1.807,0.996-2.212,2.039c-0.388,0.998,0.994,0.291,1.294-0.088c0.423-0.533,0.803-1.109,1.145-1.709
		c0.725-0.297,1.521-0.48,2.258-0.668c0.604-0.156,1.216-0.273,1.831-0.369c0.312,0.158,0.643,0.301,1.004,0.412
		c0.19,0.061,0.676,0.109,1.078,0.088c0.055-0.004,0.203-0.02,0.203-0.02L20.003,10208.379L20.003,10208.379z M12.429,10210.77
		c-0.147,0.184-1.115,1.367-0.794,0.539c0.236-0.609,0.843-1.154,1.39-1.457c0.026-0.016,0.054-0.027,0.081-0.041
		C12.896,10210.141,12.676,10210.463,12.429,10210.77z M15.564,10208.686c-0.559,0.133-1.148,0.275-1.713,0.471
		c0.499-0.945,0.905-1.934,1.21-2.91c0.034-0.111,0.08-0.238,0.131-0.377c0.484,1.039,1.167,1.836,2.07,2.402
		C16.631,10208.4,16.027,10208.574,15.564,10208.686z M19.673,10208.768c-0.552,0.113-1.144-0.018-1.698-0.275
		C18.482,10208.428,19.822,10208.305,19.673,10208.768z"/>
	<g>
		<g>
			<polygon fill="#2F4F9B" points="9.943,10205.09 9.943,10213 10.94,10212.008 10.94,10205.09 			"/>
			<polygon fill="#2F4F9B" points="19.215,10201.785 19.92,10201.086 18.831,10200 9.943,10200 9.943,10202.062 10.94,10202.062 
				10.94,10200.992 17.423,10200.992 17.423,10203.566 17.428,10203.566 18.424,10202.574 18.419,10202.574 18.419,10200.992 			"/>
		</g>
		<polyline fill="#283673" points="9.943,10213 21,10213 21,10202.162 19.92,10201.086 19.215,10201.785 20.003,10202.574 
			18.424,10202.574 17.428,10203.566 20.003,10203.566 20.003,10212.008 10.94,10212.008 		"/>
	</g>
	<polygon fill="#283673" points="8,10202.062 8,10202.666 8,10202.902 8,10204.25 8,10204.537 8,10205.09 15.541,10205.09 
		16.385,10205.09 16.385,10202.062 	"/>
</g>
<g>
	<g>
		<polygon fill="#31BBE5" points="19.01,10312.008 9.991,10312.008 9.991,10300.992 16.441,10300.992 16.441,10303.566 
			19.008,10303.566 		"/>
		<path fill="#1B9900" d="M19.008,10304.113c-0.279-0.016-0.588,0.559-0.639,0.566c-0.307-0.369-1.294-0.012-1.294-0.012
			s0.221,0.73,0.483,0.949c-0.633-0.049-0.961,0.523-0.961,0.523s3.084,0.791,1.275,0.977c0.869,0.912-0.696,0.137-0.696,0.137
			s0.304,0.811,0.481,0.961c-0.184,0.145-0.977,0.496-0.977,0.496s0.902,0.055,1.363,0.732c0.537,0.795-0.428,1.502-1.078,1.521
			c-1.731,0.047-5.586-0.309-6.488-0.893c-0.364-0.236-0.366-1.221,0.116-1.408c0.013-0.004,0.549,0.23,0.549,0.23
			s-0.094-0.266-0.185-0.473c0.002-0.002,0.003-0.004,0.005-0.006c0.227-0.053,0.621-0.328,0.621-0.328s-0.542-0.154-0.757-0.244
			c0.166-0.156,0.174-0.674,0.174-0.674s-0.366,0.215-0.543,0.354c-0.002,0-0.005-0.002-0.007-0.004
			c-0.439-0.207-0.408-0.777-0.058-1.006c0.084,0.215,0.267,0.555,0.267,0.555s0.107-0.309,0.163-0.533
			c0.182,0.107,0.495-0.035,0.495-0.035s-0.066-0.781-0.541-0.895c-0.045-0.012,0.431-0.824,0.431-0.824s-0.571-0.166-0.747-0.041
			c-0.011-0.227-0.082-0.627-0.082-0.627s-0.385,0.684-0.392,0.68l0.001,7.215h9.019v-7.025"/>
		<path fill="#00632E" d="M10.281,10305.68c0.151-0.105,0.427-0.537,0.427-0.537s-0.558-0.088-0.719,0.004v1.029
			c0.132,0.129,0.868-0.059,0.868-0.059S10.427,10305.764,10.281,10305.68z"/>
		<path fill="#00632E" d="M18.172,10311.525c-0.148-0.217-0.754-0.482-0.754-0.482s-0.12,0.734,0.014,0.965h1.446
			c0.187-0.188-0.18-1.82-0.18-1.82S18.075,10310.924,18.172,10311.525z"/>
		<path fill="#00632E" d="M10.642,10308.355c0,0-0.084-0.055-0.171-0.109c0.066-0.061,0.254-0.383,0.254-0.383
			s-0.596,0.402-0.734-0.078c0,0,0,0.773,0,0.828C10.348,10308.848,10.642,10308.355,10.642,10308.355z"/>
		<path fill="#00632E" d="M17.977,10307.918c0,0,0.354,0.449,0.474,0.539c-0.093,0.105-0.718,0.219-0.718,0.219
			s1.091,0.619,1.275,1.445c0,0,0-1.859,0-1.949C18.596,10307.723,18.369,10307.891,17.977,10307.918z"/>
		<path fill="#00632E" d="M17.766,10305.207c0,0,0.485,0.43,0.604,0.521c-0.089,0.107-1.022,0.32-1.022,0.32
			s1.477,0.057,1.661,0.885c0,0,0-1.797,0-1.891C18.473,10304.801,17.766,10305.207,17.766,10305.207z"/>
		<path fill="#00632E" d="M10.51,10310.395c0,0-0.158,1.576,0.363,1.613c0,0-0.578,0-0.632,0
			C9.748,10311.469,10.51,10310.395,10.51,10310.395z"/>
		<g>
			<path fill="#FFFFFF" d="M12.324,10308.438c0,0-0.99,0.65-1.253,1.162c-0.264,0.514-0.492,2.408-0.492,2.408h5.886
				c0,0,0.41-2.305-0.017-2.783c-0.431-0.479-0.99-0.854-0.99-0.854S12.571,10308.266,12.324,10308.438z"/>
			<path fill="#FCC92A" d="M15.754,10306.219c0-1.094-0.857-1.98-1.914-1.98c-1.056,0-1.913,0.887-1.913,1.98
				c0,0.672,0.344,1.234,0.838,1.594c-0.001,0.203-0.079,0.457-0.441,0.625c-0.66,0.309,0.56,0.787,1.286,0.787
				c1.188,0,1.847-0.854,1.847-0.854s-0.379-0.219-0.614-0.506C15.378,10307.512,15.754,10306.924,15.754,10306.219z"/>
			<path fill="#FCA42A" d="M13.004,10307.297c-0.276-0.102-0.503-0.275-0.667-0.488c0.115,0.43,0.444,0.809,0.913,0.984
				c0.745,0.277,1.287,0.012,1.405-0.441C14.764,10306.938,13.749,10307.576,13.004,10307.297z"/>
			<path fill="#9E5A00" d="M14.573,10303.486c0.848,0.299,1.245,0.693,1.181,1.588c-0.054,0.758,0.461,0.844,0.37,1.656
				c-0.045,0.387-0.595,0.992-0.595,0.992s-0.298-0.533-0.594-0.309c-0.708,0.539,0.719-1.729-0.287-2.492
				c-0.645-0.492-1.383-0.688-1.387-0.332c-0.003,0.271,0.063,0.352-0.437,0.262c-0.364-0.066-0.792,0.461-0.819,1.109
				c-0.052,1.223,0.971,1.762,0.331,1.824c-0.874,0.086-0.652-1.041-0.824-1.682c-0.145-0.537,0.024-0.836,0.364-1.262
				c0.415-0.518,1.113-0.604,1.113-0.604S13.61,10303.148,14.573,10303.486z"/>
			<path fill="#673B15" d="M14.952,10305.133c0,0,0.843,0.898,0.59,1.09c-0.16,0.123-0.295-0.246-0.297-0.102
				c-0.009,0.85-0.341,1.125-0.341,1.125S15.471,10305.852,14.952,10305.133z"/>
			<path fill="#673B15" d="M15.305,10307.305c0,0,0.556-1.184,0.669-0.895c0.062,0.154-0.371,1.102-0.393,1.16L15.305,10307.305z"/>
			<path fill="#673B15" d="M13.84,10304.305c1.322,0.52,1.672,1.32,1.672,1.32s-0.097-1.117-0.549-1.568
				c-0.371-0.371-1.045-0.311-1.045-0.311c0.374,0.293,0.804,0.188,0.751,0.492C14.603,10304.621,13.705,10304.254,13.84,10304.305z
				"/>
			<path fill="#A6FFFF" d="M11.927,10310.34c-0.348-0.893,0.191,1.303,0.009,1.668h3.397c0,0-0.591-0.828-0.252-1.961
				c0.112-0.375-0.476,1.055-1.241,1.051c-0.471-0.004-0.526-1.088-0.588-0.969S12.701,10312.328,11.927,10310.34z"/>
			<path fill="#673B15" d="M12.54,10304.854c-0.022-0.012-0.464-0.049-0.584,0.561c-0.691,0.73,0.213,2.078,0.448,2.078
				C12.427,10307.494,11.753,10306.047,12.54,10304.854z"/>
		</g>
		<path fill="#FFFFFF" d="M13.638,10301.695c-0.784,0.314-0.123-0.34-0.74-0.178c-0.137,0.037-0.466,0.146-0.464,0.604
			c-0.06-0.146-0.328-0.512-0.538-0.512c-0.212,0-0.623,0.166-0.419,0.703c-0.645-0.332-0.895,0-0.865,0.264
			c0.062,0.553,0.424,0.369,0.684,0.369c0.016,0-0.162,0.547,0.317,0.584c0.411,0.033,0.318-0.396,0.403-0.459
			c0.084,0.062,0.259,0.465,0.758,0.389c0.528-0.08,0.273-0.689,0.367-0.729c0.354,0.324,0.847,0.012,0.854-0.002
			C14.418,10302.375,14.354,10301.406,13.638,10301.695z"/>
	</g>
	<polygon fill="#E3051A" points="9,10300 9,10313 9.991,10312.008 9.991,10300.992 16.441,10300.992 16.441,10303.566 
		16.445,10303.566 17.438,10302.574 17.432,10302.574 17.432,10300.992 18.225,10301.787 18.925,10301.086 17.842,10300 	"/>
	<polyline fill="#CA0302" points="9,10313 20,10313 20,10302.164 18.925,10301.086 18.225,10301.787 19.008,10302.574 
		17.438,10302.574 16.445,10303.566 19.008,10303.566 19.008,10312.008 9.991,10312.008 	"/>
</g>
<g>
	<g>
		<polygon fill="#31BBE5" points="19.01,10412.008 9.991,10412.008 9.991,10400.992 16.441,10400.992 16.441,10403.566 
			19.008,10403.566 		"/>
		<path fill="#1B9900" d="M19.008,10404.113c-0.279-0.016-0.588,0.559-0.637,0.566c-0.307-0.369-1.295-0.012-1.295-0.012
			s0.219,0.73,0.484,0.949c-0.636-0.049-0.963,0.523-0.963,0.523s3.086,0.791,1.276,0.977c0.867,0.912-0.694,0.137-0.694,0.137
			s0.303,0.811,0.479,0.961c-0.185,0.145-0.978,0.496-0.978,0.496s0.902,0.055,1.363,0.732c0.539,0.795-0.428,1.502-1.076,1.521
			c-1.733,0.047-5.588-0.309-6.49-0.893c-0.365-0.236-0.366-1.221,0.115-1.408c0.013-0.004,0.549,0.23,0.549,0.23
			s-0.094-0.266-0.185-0.473c0.002-0.002,0.003-0.004,0.005-0.006c0.227-0.053,0.621-0.328,0.621-0.328s-0.542-0.154-0.757-0.244
			c0.166-0.156,0.173-0.674,0.173-0.674s-0.366,0.215-0.543,0.354c-0.002,0-0.005-0.002-0.007-0.004
			c-0.439-0.207-0.408-0.779-0.058-1.008c0.085,0.215,0.267,0.555,0.267,0.555s0.107-0.309,0.163-0.533
			c0.182,0.107,0.495-0.033,0.495-0.033s-0.066-0.781-0.54-0.895c-0.045-0.012,0.43-0.824,0.43-0.824s-0.571-0.168-0.747-0.043
			c-0.011-0.227-0.082-0.625-0.082-0.625s-0.385,0.682-0.392,0.68l0.001,7.215h9.019v-7.027"/>
		<path fill="#00632E" d="M10.281,10405.68c0.151-0.104,0.427-0.537,0.427-0.537s-0.558-0.088-0.719,0.004v1.029
			c0.132,0.129,0.868-0.059,0.868-0.059S10.428,10405.764,10.281,10405.68z"/>
		<path fill="#00632E" d="M18.174,10411.525c-0.15-0.217-0.756-0.482-0.756-0.482s-0.121,0.736,0.014,0.965h1.447
			c0.186-0.188-0.182-1.82-0.182-1.82S18.076,10410.924,18.174,10411.525z"/>
		<path fill="#00632E" d="M10.642,10408.355c0,0-0.084-0.055-0.171-0.109c0.066-0.061,0.254-0.383,0.254-0.383
			s-0.596,0.402-0.734-0.078c0,0,0,0.773,0,0.828C10.348,10408.848,10.642,10408.355,10.642,10408.355z"/>
		<path fill="#00632E" d="M17.979,10407.918c0,0,0.353,0.449,0.472,0.539c-0.091,0.105-0.72,0.219-0.72,0.219
			s1.093,0.619,1.277,1.445c0,0,0-1.859,0-1.949C18.596,10407.723,18.371,10407.891,17.979,10407.918z"/>
		<path fill="#00632E" d="M17.766,10405.207c0,0,0.486,0.43,0.605,0.521c-0.09,0.107-1.025,0.32-1.025,0.32s1.478,0.057,1.662,0.885
			c0,0,0-1.797,0-1.891C18.473,10404.801,17.766,10405.207,17.766,10405.207z"/>
		<path fill="#00632E" d="M10.51,10410.395c0,0-0.158,1.576,0.363,1.613c0,0-0.578,0-0.632,0
			C9.748,10411.469,10.51,10410.395,10.51,10410.395z"/>
		<g>
			<path fill="#FFFFFF" d="M12.324,10408.438c0,0-0.989,0.65-1.253,1.162c-0.264,0.514-0.492,2.408-0.492,2.408h5.886
				c0,0,0.41-2.305-0.018-2.783c-0.43-0.479-0.99-0.854-0.99-0.854S12.571,10408.266,12.324,10408.438z"/>
			<path fill="#FCC92A" d="M15.754,10406.219c0-1.094-0.857-1.98-1.914-1.98c-1.056,0-1.913,0.887-1.913,1.98
				c0,0.672,0.344,1.234,0.837,1.594c-0.001,0.203-0.078,0.457-0.441,0.625c-0.66,0.309,0.561,0.787,1.286,0.787
				c1.188,0,1.847-0.854,1.847-0.854s-0.379-0.219-0.614-0.506C15.378,10407.512,15.754,10406.924,15.754,10406.219z"/>
			<path fill="#FCA42A" d="M13.004,10407.297c-0.275-0.102-0.503-0.275-0.667-0.488c0.115,0.43,0.444,0.809,0.913,0.984
				c0.745,0.277,1.288,0.012,1.405-0.441C14.764,10406.938,13.749,10407.576,13.004,10407.297z"/>
			<path fill="#9E5A00" d="M14.573,10403.486c0.848,0.299,1.245,0.693,1.181,1.588c-0.055,0.758,0.46,0.844,0.369,1.656
				c-0.043,0.387-0.594,0.992-0.594,0.992s-0.297-0.533-0.593-0.309c-0.708,0.539,0.718-1.727-0.287-2.492
				c-0.646-0.492-1.384-0.688-1.388-0.332c-0.003,0.271,0.063,0.352-0.437,0.262c-0.364-0.066-0.792,0.461-0.819,1.109
				c-0.052,1.223,0.972,1.762,0.332,1.824c-0.875,0.086-0.652-1.041-0.825-1.682c-0.145-0.537,0.024-0.836,0.365-1.262
				c0.415-0.518,1.113-0.604,1.113-0.604S13.61,10403.148,14.573,10403.486z"/>
			<path fill="#673B15" d="M14.952,10405.133c0,0,0.843,0.9,0.591,1.09c-0.16,0.123-0.295-0.246-0.297-0.102
				c-0.009,0.85-0.342,1.125-0.342,1.125S15.471,10405.852,14.952,10405.133z"/>
			<path fill="#673B15" d="M15.305,10407.305c0,0,0.556-1.184,0.669-0.895c0.061,0.154-0.371,1.102-0.394,1.16L15.305,10407.305z"/>
			<path fill="#673B15" d="M13.841,10404.305c1.322,0.52,1.671,1.32,1.671,1.32s-0.097-1.117-0.549-1.568
				c-0.371-0.371-1.045-0.311-1.045-0.311c0.374,0.293,0.804,0.188,0.751,0.492C14.603,10404.621,13.705,10404.254,13.841,10404.305
				z"/>
			<path fill="#A6FFFF" d="M11.928,10410.34c-0.348-0.893,0.19,1.303,0.009,1.668h3.397c0,0-0.591-0.828-0.252-1.961
				c0.112-0.375-0.476,1.055-1.241,1.051c-0.472-0.004-0.526-1.088-0.589-0.969C13.19,10410.248,12.701,10412.328,11.928,10410.34z"
				/>
			<path fill="#673B15" d="M12.541,10404.854c-0.023-0.01-0.464-0.049-0.585,0.561c-0.691,0.73,0.213,2.078,0.448,2.078
				C12.428,10407.494,11.753,10406.047,12.541,10404.854z"/>
		</g>
		<path fill="#FFFFFF" d="M13.638,10401.695c-0.784,0.314-0.124-0.34-0.74-0.178c-0.137,0.037-0.465,0.146-0.464,0.604
			c-0.06-0.146-0.328-0.512-0.539-0.512s-0.623,0.166-0.418,0.703c-0.645-0.332-0.895,0-0.866,0.264
			c0.062,0.553,0.424,0.369,0.684,0.369c0.016,0-0.162,0.547,0.317,0.584c0.411,0.033,0.319-0.396,0.403-0.459
			c0.084,0.062,0.26,0.465,0.758,0.389c0.528-0.08,0.273-0.689,0.367-0.729c0.354,0.324,0.847,0.012,0.854-0.002
			C14.418,10402.375,14.354,10401.406,13.638,10401.695z"/>
	</g>
	<polygon fill="#2F4F9B" points="9,10400 9,10413 9.991,10412.008 9.991,10400.992 16.441,10400.992 16.441,10403.566 
		16.445,10403.566 17.438,10402.574 17.432,10402.574 17.432,10400.992 18.225,10401.787 18.924,10401.086 17.842,10400 	"/>
	<polyline fill="#283673" points="9,10413 20,10413 20,10402.164 18.924,10401.086 18.225,10401.787 19.008,10402.574 
		17.438,10402.574 16.445,10403.566 19.008,10403.566 19.008,10412.008 9.991,10412.008 	"/>
</g>
<path fill="#1B9900" d="M24.172,10604.936l-11.056,11.061l-6.058-6.055l1.561-1.562l4.493,4.492l9.658-9.656
	c-1.99-1.988-4.736-3.215-7.771-3.215c-6.075,0-11,4.924-11,11c0,6.074,4.924,11,11,11c6.074,0,11-4.926,11-11
	C26,10608.758,25.324,10606.674,24.172,10604.936z"/>
<path fill="#FC6600" d="M27.503,10719.16c-0.394-1.389-9.28-16.936-9.28-16.936s-1.201-2.225-3-2.225
	c-1.578,0-2.969,2.225-2.969,2.225s-9.547,15.404-9.828,16.936c-0.466,2.539,2.202,2.84,2.202,2.84h20.221
	C24.848,10722,28.332,10722.1,27.503,10719.16z M16.852,10720.023h-3.26v-3.217h3.26V10720.023z M16.199,10715.438h-2.156
	l-0.451-11.234h3.26L16.199,10715.438z"/>
<path fill="#0066FF" d="M23.727,10500H6.272c-1.255,0-2.272,1.018-2.272,2.273v17.453c0,1.256,1.017,2.273,2.272,2.273h17.455
	c1.256,0,2.273-1.018,2.273-2.273v-17.453C26,10501.018,24.982,10500,23.727,10500z M13.62,10504.02h3.005v3.006H13.62V10504.02z
	 M18.626,10517.98h-7.253v-2.008h2.159v-4.969h-1.433v-2.008h4.534v6.977h1.993V10517.98z"/>
<path fill="#E3051A" d="M25.363,10805.98l-5.362-5.406c0,0-0.394-0.574-1.002-0.574h-7.967c-0.625,0-1.032,0.57-1.032,0.57
	l-5.416,5.43c0,0-0.584,0.422-0.584,1v7.967c0,0.609,0.546,1.002,0.546,1.002l5.471,5.469c0,0,0.39,0.562,1.046,0.562h7.939
	c0.605,0,0.996-0.549,0.996-0.549l5.475-5.484c0,0,0.525-0.328,0.525-0.953l0.001-7.982
	C26,10806.469,25.363,10805.98,25.363,10805.98z M20.475,10815.15l-1.459,1.459l-4.084-4.084l-4.083,4.084l-1.458-1.459l4.083-4.084
	l-4.083-4.084l1.458-1.459l4.083,4.084l4.084-4.084l1.459,1.459l-4.084,4.084L20.475,10815.15z"/>
<path fill="#0066FF" d="M7,10900v15h15v-15H7z M18.812,10912.059h-2.334l-1.987-6.008l-1.929,6.008h-2.299l-2.292-9.117h2.294
	l1.406,6.363l1.876-6.293h2.094l1.793,6.293l1.362-6.363h2.231L18.812,10912.059z"/>
<g>
	<path fill="#CCCCCC" d="M5,11000v6.672h0.877c3.173-0.082,3.59,0.65,3.637,1.543c0.039,0.75-0.589,1.547-1.174,2.441
		c-0.406,0.623-1.58,2.148-2.257,3.021c-0.29,0.373-0.26,0.891,0.066,1.232l0.802,0.844c0.337,0.352,0.917,0.324,1.208-0.064
		c1.198-1.588,2.401-3.186,3.417-4.529c0.248-0.328,1.523-1.48,1.523-4.488V11000H5z"/>
	<path fill="#CCCCCC" d="M16.898,11000v6.672h0.877c3.174-0.082,3.592,0.65,3.639,1.543c0.037,0.75-0.59,1.547-1.174,2.441
		c-0.406,0.623-1.58,2.148-2.258,3.021c-0.289,0.373-0.26,0.891,0.065,1.232l0.804,0.844c0.336,0.352,0.916,0.324,1.209-0.064
		c1.196-1.588,2.399-3.186,3.416-4.529c0.248-0.328,1.522-1.48,1.522-4.488V11000H16.898z"/>
</g>
<g>
	<polygon fill="#E01C1A" points="14.977,11100 21.07,11110 8.93,11110 	"/>
	<polygon fill="#FFFFFF" points="14.99,11102.266 19.156,11108.979 14.99,11108.979 10.797,11108.979 	"/>
	<polygon points="15.289,11107.254 14.617,11107.254 14.477,11103.707 15.492,11103.707 	"/>
	<rect x="14.477" y="11107.686" width="1.016" height="1.016"/>
</g>
<g>
	<g>
		<path fill="#2F4F9B" d="M12.104,3303.025v-1.482c0-0.665-0.258-1.031-0.475-1.221c-0.436-0.381-0.975-0.32-0.969-0.316H9v1.003
			l1.56-0.003c-0.03,0.002,0.248,0.017,0.336,0.135c0.109,0.146,0.094,0.106,0.094,0.328v5.509l1.011,1.045h7.312l1.688-1.806v-3.19
			L12.104,3303.025L12.104,3303.025z M19.998,3305.012h-1.553v-1.001h1.553V3305.012z M15.189,3306.015v1.003h-1.08v-1.003H15.189z
			 M14.109,3305.012v-1.001h1.08v1.001H14.109z M16.193,3306.015h1.248v1.003h-1.248V3306.015z M16.193,3305.012v-1.001h1.248v1.001
			H16.193z M13.106,3304.011v1.001h-1.013l0.007-1.001H13.106z M12.081,3306.638l0.005-0.623h1.021v1.003h-0.671L12.081,3306.638z
			 M18.878,3307.018h-0.433v-1.002h1.369L18.878,3307.018z"/>
		<path fill="#283673" d="M20.656,3306.585c0,0-0.381-0.045-0.902,0.063c-0.701,0.146-0.876,0.371-0.876,0.371l0,0h-6.442
			l-0.355-0.381l0.02-2.627c0,0-0.005-0.24-0.381-0.541c-0.346-0.276-0.73-0.256-0.73-0.256v3.762l1.011,1.045h7.31v-0.002
			l0.004,0.002L20.656,3306.585z"/>
	</g>
	<g>
		<circle fill="#2F4F9B" cx="12.458" cy="3310.5" r="1.499"/>
		<path fill="#283673" d="M11.397,3309.439c-0.585,0.586-0.585,1.535,0,2.121s1.535,0.586,2.12,0L11.397,3309.439z"/>
	</g>
	<g>
		<circle fill="#2F4F9B" cx="18.445" cy="3310.5" r="1.499"/>
		<path fill="#283673" d="M17.385,3309.439c-0.586,0.586-0.586,1.535,0,2.121s1.534,0.586,2.118,0L17.385,3309.439z"/>
	</g>
</g>
<polygon fill="#283673" points="13.058,11305.824 15.646,11303.234 13.066,11300.646 13.711,11300 16.941,11303.23 
	13.703,11306.471 "/>
<polygon fill="#283673" points="16.941,11405.824 14.354,11403.234 16.934,11400.646 16.289,11400 13.058,11403.23 
	16.297,11406.471 "/>
<path fill="#FFFFFF" d="M12.959,11209.119c-1.599-1.6-1.998-2.322-2.201-2.955c-0.319-0.98,0.247-1.684,0.247-1.684
	c0.11-0.109,0.266-0.135,0.344-0.055c0.082,0.08,0.236,0.059,0.346-0.051l0.666-0.668c0.109-0.109,0.109-0.287,0-0.395l-3.228-3.23
	c-0.109-0.109-0.287-0.109-0.396,0l-0.666,0.668c-0.108,0.107-0.133,0.262-0.053,0.344c0.08,0.08,0.058,0.234-0.053,0.344
	l-0.302,0.301c-1.431,1.434-0.146,3.738,0.187,4.359s1.055,1.926,3.632,4.502l-0.078-0.078c2.576,2.576,3.88,3.301,4.5,3.631
	c0.621,0.332,2.93,1.617,4.359,0.188l0.301-0.301c0.108-0.109,0.266-0.133,0.348-0.055c0.078,0.082,0.232,0.059,0.344-0.051
	l0.665-0.668c0.106-0.109,0.106-0.285,0-0.395l-3.229-3.23c-0.104-0.109-0.287-0.109-0.395,0l-0.666,0.668
	c-0.111,0.109-0.135,0.262-0.055,0.344c0.082,0.078,0.059,0.234-0.055,0.344c0,0-0.701,0.566-1.688,0.246
	c-0.628-0.203-1.354-0.602-2.952-2.199L12.959,11209.119z"/>
</svg>
