<svg width="113" height="68" viewBox="0 0 113 68" fill="none" xmlns="http://www.w3.org/2000/svg">
<g clip-path="url(#clip0_1_2)">
<path d="M33.9734 46.4405V58.6727H31.4426V46.4405H33.9734ZM43.9117 46.2407C44.8737 46.2407 45.7321 46.4405 46.4869 46.8401C47.2565 47.2397 47.8559 47.8317 48.2851 48.6161C48.7143 49.4005 48.9289 50.3477 48.9289 51.4577V58.6727H46.4203V51.8351C46.4203 50.7399 46.1465 49.9037 45.5989 49.3265C45.0513 48.7345 44.3039 48.4385 43.3567 48.4385C42.4095 48.4385 41.6547 48.7345 41.0923 49.3265C40.5447 49.9037 40.2709 50.7399 40.2709 51.8351V58.6727H37.7401V46.4405H40.2709V47.8391C40.6853 47.3359 41.2107 46.9437 41.8471 46.6625C42.4983 46.3813 43.1865 46.2407 43.9117 46.2407ZM57.9069 58.8725C56.7525 58.8725 55.7091 58.6135 54.7767 58.0955C53.8443 57.5627 53.1117 56.8227 52.5789 55.8755C52.0461 54.9135 51.7797 53.8035 51.7797 52.5455C51.7797 51.3023 52.0535 50.1997 52.6011 49.2377C53.1487 48.2757 53.8961 47.5357 54.8433 47.0177C55.7905 46.4997 56.8487 46.2407 58.0179 46.2407C59.1871 46.2407 60.2453 46.4997 61.1925 47.0177C62.1397 47.5357 62.8871 48.2757 63.4347 49.2377C63.9823 50.1997 64.2561 51.3023 64.2561 52.5455C64.2561 53.7887 63.9749 54.8913 63.4125 55.8533C62.8501 56.8153 62.0805 57.5627 61.1037 58.0955C60.1417 58.6135 59.0761 58.8725 57.9069 58.8725ZM57.9069 56.6747C58.5581 56.6747 59.1649 56.5193 59.7273 56.2085C60.3045 55.8977 60.7707 55.4315 61.1259 54.8099C61.4811 54.1883 61.6587 53.4335 61.6587 52.5455C61.6587 51.6575 61.4885 50.9101 61.1481 50.3033C60.8077 49.6817 60.3563 49.2155 59.7939 48.9047C59.2315 48.5939 58.6247 48.4385 57.9735 48.4385C57.3223 48.4385 56.7155 48.5939 56.1531 48.9047C55.6055 49.2155 55.1689 49.6817 54.8433 50.3033C54.5177 50.9101 54.3549 51.6575 54.3549 52.5455C54.3549 53.8627 54.6879 54.8839 55.3539 55.6091C56.0347 56.3195 56.8857 56.6747 57.9069 56.6747ZM71.642 58.8725C70.68 58.8725 69.8142 58.7023 69.0446 58.3619C68.2898 58.0067 67.6904 57.5331 67.2464 56.9411C66.8024 56.3343 66.5656 55.6609 66.536 54.9209H69.1556C69.2 55.4389 69.4442 55.8755 69.8882 56.2307C70.347 56.5711 70.9168 56.7413 71.5976 56.7413C72.308 56.7413 72.8556 56.6081 73.2404 56.3417C73.64 56.0605 73.8398 55.7053 73.8398 55.2761C73.8398 54.8173 73.6178 54.4769 73.1738 54.2549C72.7446 54.0329 72.0564 53.7887 71.1092 53.5223C70.1916 53.2707 69.4442 53.0265 68.867 52.7897C68.2898 52.5529 67.7866 52.1903 67.3574 51.7019C66.943 51.2135 66.7358 50.5697 66.7358 49.7705C66.7358 49.1193 66.9282 48.5273 67.313 47.9945C67.6978 47.4469 68.2454 47.0177 68.9558 46.7069C69.681 46.3961 70.5098 46.2407 71.4422 46.2407C72.8334 46.2407 73.9508 46.5959 74.7944 47.3063C75.6528 48.0019 76.1116 48.9565 76.1708 50.1701H73.64C73.5956 49.6225 73.3736 49.1859 72.974 48.8603C72.5744 48.5347 72.0342 48.3719 71.3534 48.3719C70.6874 48.3719 70.1768 48.4977 69.8216 48.7493C69.4664 49.0009 69.2888 49.3339 69.2888 49.7483C69.2888 50.0739 69.4072 50.3477 69.644 50.5697C69.8808 50.7917 70.1694 50.9693 70.5098 51.1025C70.8502 51.2209 71.3534 51.3763 72.0194 51.5687C72.9074 51.8055 73.6326 52.0497 74.195 52.3013C74.7722 52.5381 75.268 52.8933 75.6824 53.3669C76.0968 53.8405 76.3114 54.4695 76.3262 55.2539C76.3262 55.9495 76.1338 56.5711 75.749 57.1187C75.3642 57.6663 74.8166 58.0955 74.1062 58.4063C73.4106 58.7171 72.5892 58.8725 71.642 58.8725ZM78.6612 52.5455C78.6612 51.2875 78.9128 50.1849 79.416 49.2377C79.934 48.2757 80.6444 47.5357 81.5472 47.0177C82.45 46.4997 83.486 46.2407 84.6552 46.2407C86.1352 46.2407 87.3562 46.5959 88.3182 47.3063C89.295 48.0019 89.9536 49.0009 90.294 50.3033H87.5634C87.3414 49.6965 86.9862 49.2229 86.4978 48.8825C86.0094 48.5421 85.3952 48.3719 84.6552 48.3719C83.6192 48.3719 82.7904 48.7419 82.1688 49.4819C81.562 50.2071 81.2586 51.2283 81.2586 52.5455C81.2586 53.8627 81.562 54.8913 82.1688 55.6313C82.7904 56.3713 83.6192 56.7413 84.6552 56.7413C86.1204 56.7413 87.0898 56.0975 87.5634 54.8099H90.294C89.9388 56.0531 89.2728 57.0447 88.296 57.7847C87.3192 58.5099 86.1056 58.8725 84.6552 58.8725C83.486 58.8725 82.45 58.6135 81.5472 58.0955C80.6444 57.5627 79.934 56.8227 79.416 55.8755C78.9128 54.9135 78.6612 53.8035 78.6612 52.5455ZM92.4165 52.5011C92.4165 51.2727 92.6681 50.1849 93.1713 49.2377C93.6893 48.2905 94.3849 47.5579 95.2581 47.0399C96.1461 46.5071 97.1229 46.2407 98.1885 46.2407C99.1505 46.2407 99.9867 46.4331 100.697 46.8179C101.422 47.1879 101.999 47.6541 102.429 48.2165V46.4405H104.982V58.6727H102.429V56.8523C101.999 57.4295 101.415 57.9105 100.675 58.2953C99.9349 58.6801 99.0913 58.8725 98.1441 58.8725C97.0933 58.8725 96.1313 58.6061 95.2581 58.0733C94.3849 57.5257 93.6893 56.7709 93.1713 55.8089C92.6681 54.8321 92.4165 53.7295 92.4165 52.5011ZM102.429 52.5455C102.429 51.7019 102.251 50.9693 101.896 50.3477C101.555 49.7261 101.104 49.2525 100.542 48.9269C99.9793 48.6013 99.3725 48.4385 98.7213 48.4385C98.0701 48.4385 97.4633 48.6013 96.9009 48.9269C96.3385 49.2377 95.8797 49.7039 95.5245 50.3255C95.1841 50.9323 95.0139 51.6575 95.0139 52.5011C95.0139 53.3447 95.1841 54.0847 95.5245 54.7211C95.8797 55.3575 96.3385 55.8459 96.9009 56.1863C97.4781 56.5119 98.0849 56.6747 98.7213 56.6747C99.3725 56.6747 99.9793 56.5119 100.542 56.1863C101.104 55.8607 101.555 55.3871 101.896 54.7655C102.251 54.1291 102.429 53.3891 102.429 52.5455Z" fill="#333333"/>
<path d="M13.9108 47.351C14.1428 47.031 14.4588 46.771 14.8588 46.571C15.2668 46.363 15.7188 46.259 16.2148 46.259C16.7988 46.259 17.3268 46.399 17.7988 46.679C18.2708 46.959 18.6428 47.359 18.9148 47.879C19.1868 48.391 19.3228 48.979 19.3228 49.643C19.3228 50.307 19.1868 50.903 18.9148 51.431C18.6428 51.951 18.2668 52.359 17.7868 52.655C17.3148 52.943 16.7908 53.087 16.2148 53.087C15.7028 53.087 15.2468 52.987 14.8468 52.787C14.4548 52.587 14.1428 52.331 13.9108 52.019V52.979H12.5428V44.099H13.9108V47.351ZM17.9308 49.643C17.9308 49.187 17.8348 48.795 17.6428 48.467C17.4588 48.131 17.2108 47.879 16.8988 47.711C16.5948 47.535 16.2668 47.447 15.9148 47.447C15.5708 47.447 15.2428 47.535 14.9308 47.711C14.6268 47.887 14.3788 48.143 14.1868 48.479C14.0028 48.815 13.9108 49.211 13.9108 49.667C13.9108 50.123 14.0028 50.523 14.1868 50.867C14.3788 51.203 14.6268 51.459 14.9308 51.635C15.2428 51.811 15.5708 51.899 15.9148 51.899C16.2668 51.899 16.5948 51.811 16.8988 51.635C17.2108 51.451 17.4588 51.187 17.6428 50.843C17.8348 50.499 17.9308 50.099 17.9308 49.643ZM26.8676 46.367L22.8116 56.087H21.3956L22.7396 52.871L20.1356 46.367H21.6596L23.5196 51.407L25.4516 46.367H26.8676Z" fill="#333333"/>
<path d="M18.36 15.48C21.1867 15.48 23.4267 16.2667 25.08 17.84C26.7333 19.3867 27.56 21.48 27.56 24.12C27.56 24.9733 27.4933 25.7333 27.36 26.4C27.2 27.2 27.0267 27.8933 26.84 28.48H10.64C10.6133 28.6667 10.6 28.9333 10.6 29.28C10.6 30.6667 11 31.76 11.8 32.56C12.6267 33.3333 13.7067 33.72 15.04 33.72C16.16 33.72 17.12 33.48 17.92 33C18.7467 32.4933 19.4133 31.84 19.92 31.04H25.96C24.9733 33.1733 23.44 34.9333 21.36 36.32C19.3067 37.68 16.9733 38.36 14.36 38.36C11.5333 38.36 9.26667 37.56 7.56 35.96C5.85333 34.36 5 32.1867 5 29.44C5 28.64 5.08 27.8 5.24 26.92C5.64 24.6267 6.45333 22.6133 7.68 20.88C8.93333 19.1467 10.48 17.8133 12.32 16.88C14.16 15.9467 16.1733 15.48 18.36 15.48ZM21.8 25.08C21.8533 24.6533 21.88 24.3467 21.88 24.16C21.88 22.88 21.4667 21.88 20.64 21.16C19.8133 20.44 18.7333 20.08 17.4 20.08C15.9867 20.08 14.72 20.5333 13.6 21.44C12.48 22.32 11.6933 23.5333 11.24 25.08H21.8Z" fill="#FF9D0E"/>
<path d="M47.2875 23.68C48.8608 23.9733 50.1542 24.76 51.1675 26.04C52.1808 27.32 52.6875 28.7867 52.6875 30.44C52.6875 31.9333 52.3142 33.2533 51.5675 34.4C50.8475 35.52 49.7942 36.4 48.4075 37.04C47.0208 37.68 45.3808 38 43.4875 38H31.4475V10.08H42.9675C44.8608 10.08 46.4875 10.3867 47.8475 11C49.2342 11.6133 50.2742 12.4667 50.9675 13.56C51.6875 14.6533 52.0475 15.8933 52.0475 17.28C52.0475 18.9067 51.6075 20.2667 50.7275 21.36C49.8742 22.4533 48.7275 23.2267 47.2875 23.68ZM37.0475 21.6H42.1675C43.5008 21.6 44.5275 21.3067 45.2475 20.72C45.9675 20.1067 46.3275 19.24 46.3275 18.12C46.3275 17 45.9675 16.1333 45.2475 15.52C44.5275 14.9067 43.5008 14.6 42.1675 14.6H37.0475V21.6ZM42.6875 33.44C44.0475 33.44 45.1008 33.12 45.8475 32.48C46.6208 31.84 47.0075 30.9333 47.0075 29.76C47.0075 28.56 46.6075 27.6267 45.8075 26.96C45.0075 26.2667 43.9275 25.92 42.5675 25.92H37.0475V33.44H42.6875ZM55.7106 26.84C55.7106 24.6 56.1506 22.6133 57.0306 20.88C57.9373 19.1467 59.1506 17.8133 60.6706 16.88C62.2173 15.9467 63.9373 15.48 65.8306 15.48C67.484 15.48 68.924 15.8133 70.1506 16.48C71.404 17.1467 72.404 17.9867 73.1506 19V15.84H78.7906V38H73.1506V34.76C72.4306 35.8 71.4306 36.6667 70.1506 37.36C68.8973 38.0267 67.444 38.36 65.7906 38.36C63.924 38.36 62.2173 37.88 60.6706 36.92C59.1506 35.96 57.9373 34.6133 57.0306 32.88C56.1506 31.12 55.7106 29.1067 55.7106 26.84ZM73.1506 26.92C73.1506 25.56 72.884 24.4 72.3506 23.44C71.8173 22.4533 71.0973 21.7067 70.1906 21.2C69.284 20.6667 68.3106 20.4 67.2706 20.4C66.2306 20.4 65.2706 20.6533 64.3906 21.16C63.5106 21.6667 62.7906 22.4133 62.2306 23.4C61.6973 24.36 61.4306 25.5067 61.4306 26.84C61.4306 28.1733 61.6973 29.3467 62.2306 30.36C62.7906 31.3467 63.5106 32.1067 64.3906 32.64C65.2973 33.1733 66.2573 33.44 67.2706 33.44C68.3106 33.44 69.284 33.1867 70.1906 32.68C71.0973 32.1467 71.8173 31.4 72.3506 30.44C72.884 29.4533 73.1506 28.28 73.1506 26.92ZM105.18 15.84V38H99.54V35.2C98.82 36.16 97.8733 36.92 96.7 37.48C95.5533 38.0133 94.3 38.28 92.94 38.28C91.2067 38.28 89.6733 37.92 88.34 37.2C87.0067 36.4533 85.9533 35.3733 85.18 33.96C84.4333 32.52 84.06 30.8133 84.06 28.84V15.84H89.66V28.04C89.66 29.8 90.1 31.16 90.98 32.12C91.86 33.0533 93.06 33.52 94.58 33.52C96.1267 33.52 97.34 33.0533 98.22 32.12C99.1 31.16 99.54 29.8 99.54 28.04V15.84H105.18Z" fill="#333333"/>
</g>
<defs>
<clipPath id="clip0_1_2">
<rect width="113" height="68" fill="white"/>
</clipPath>
</defs>
</svg>
