<svg height="40" viewBox="0 0 287 40" width="287" xmlns="http://www.w3.org/2000/svg"><g fill-rule="evenodd"><path d="m261 19.98v-19.98h26v19.98c0 7.2-5.62 13.03-12.82 13.03s-13.18-5.81-13.18-13.01z" fill="#e2001a"/><path d="m8.69 17.75 8.23 13.99h-2.87l-7.05-12.12-4.49 4.91v7.21h-2.57v-31.74h2.57v21.4s10.61-11.98 10.61-11.98h3.19c-3.66 3.92-6.22 6.72-7.62 8.32"/><path d="m34.1 31.67-.34-2.7c-2.66 2.1-4.02 3.13-7.45 3.13s-6.73-2.28-6.73-5.97c0-5.94 5.14-7.23 14.22-9.2v-1.68c0-2.75-1.29-4.53-5.11-4.53-3.21 0-5.31 2.07-6.34 4.16l-1.91-1.16c1.93-3.6 4.87-5 8.35-5 5.06 0 7.46 2.06 7.46 6.99v11.87c0 1.12.09 2.57.34 4.08h-2.49zm-.43-12.68c-9.88 2.16-11.52 4.08-11.52 7.1 0 2.45 2.41 3.95 4.59 3.95 2.4 0 4.7-1.42 6.93-3.69z"/><path d="m42.44 31.67v-22.31h2.56v3.52c2.4-2.49 4.39-4.14 7.65-4.14 4.63 0 6.61 2.66 6.61 7.51v15.43h-2.57v-15.17c0-3.69-1.12-5.71-4.55-5.71-2.75 0-4.31 1.87-7.14 4.45v16.42z"/><path d="m66.29 9.36v-7.3h2.71v7.29h5.61v2.06h-5.61v16.02c0 1.5.55 2.74 2.13 2.74.86 0 2.46-.35 3.48-.8v2.14c-1.06.33-2.62.72-3.48.72-3.65 0-4.85-1.66-4.85-4.37v-16.44h-3.74v-2.06h3.74"/><path d="m95.87 20.51c0 6.05-2.16 11.91-9.44 11.91s-9.45-5.86-9.45-11.91 2.16-11.78 9.45-11.78 9.44 5.73 9.44 11.78zm-16.32 0c0 6.05 2.06 9.85 6.87 9.85s6.87-3.8 6.87-9.85-2.06-9.72-6.87-9.72-6.87 3.67-6.87 9.72z"/><path d="m101 31.67v-22.31h2.54v3.52c2.4-2.49 4.38-4.14 7.64-4.14 4.63 0 6.61 2.66 6.61 7.51v15.43h-2.57v-15.17c0-3.69-1.12-5.71-4.55-5.71-2.75 0-4.29 1.87-7.12 4.45v16.42h-2.57"/><path d="m136.11 14.35c-1.09-1.18-3.19-2.08-4.89-2.08-2.1 0-3.19 1-3.19 2.36 0 3.89 11.7 2.23 11.7 10.54 0 4.72-3.78 7.22-8.55 7.22-3.63 0-6.41-1.26-8.75-4.66l3.44-2.58c1.27 1.75 3.23 3.22 5.55 3.22 1.92 0 3.37-1.25 3.43-2.78.15-3.96-11.7-2.69-11.7-10.61 0-4.24 3.91-6.6 7.85-6.6 3.02 0 6.06.53 8.18 3.16z"/><path d="m156.88 16.94c-.51-1.56-1.53-4.19-4.39-4.19-3.02 0-4.59 2.56-4.59 7.63s1.57 7.63 4.77 7.63 3.97-3.52 4.24-4.32l4.49 1.82c-1.2 4.19-3.81 6.88-8.91 6.88-6.17 0-9.95-4.79-9.95-12.01s3.78-12 9.95-12c4.29 0 7.82 2.34 8.84 6.65l-4.44 1.92"/><path d="m165 31.69v-31.69h5.42v11.46c1.66-1.4 3.57-3.08 6.24-3.08 4.55 0 6.74 2.97 6.74 7.61v15.7h-5.42v-14.91c0-3.06-.96-4.02-2.8-4.02-2.36 0-3.83 1.55-4.75 2.6v16.33h-5.42"/><path d="m185.82 8.94h5.16l3.76 14.17h.09l3.28-14.17h5.68l3.15 14.17h.08l3.89-14.17h5.16l-6.51 22.75h-4.9l-3.69-14.18h-.09l-3.65 14.18h-4.9z"/><path d="m217.27 35.36c.83.18 1.49.18 2.27.18 1.88 0 2.93-.52 3.59-1.79.53-1.09.87-1.75.87-2.67 0-.83-.44-1.79-.7-2.71l-6.41-19.42h5.66l4.09 14h.09l4.22-14h5.23l-7.5 22.79c-2.41 6.52-4.33 8.27-8.79 8.27-1.31 0-1.97-.09-2.63-.18v-4.46"/><path d="m237.69 8.94h16.85v3.98l-10.81 14.46h10.89v4.31h-17.85v-3.98l10.86-14.65h-9.94z"/><path d="m285 6h-4v-4h-1v4h-4v1h4v4h1v-4h4z" fill="#ffffff"/></g></svg>