<svg xmlns="http://www.w3.org/2000/svg" viewBox="0 0 240 109.29473">
  <path fill="#e3001b" d="M156.88987 52.800002V40.866881h15.66221v11.933121c0 4.324972-3.50725 7.826314-7.83063 7.826314-4.32656 0-7.83158-3.501342-7.83158-7.826314z"/>
  <path fill="#161413" d="M5.2596325 51.456993l4.9457365 8.400475H8.4787977L4.2411559 52.58008l-2.6951171 2.949222v4.328166H.0004V40.798205h1.5456388v12.851778l6.3697148-7.191623h1.9184156c-2.1991556 2.355097-3.7354315 4.036375-4.5745367 4.998633zM20.262126 52.202523c-5.936088 1.299249-6.917127 2.450285-6.917127 4.264282 0 1.469181 1.444265 2.372186 2.754421 2.372186 1.441073 0 2.823051-.849981 4.162706-2.216309v-4.420159zm.257455 7.615976l-.205869-1.623622c-1.597108 1.261716-2.411315 1.880916-4.473231 1.880916-2.055655 0-4.042682-1.367765-4.042682-3.584073 0-3.566984 3.089719-4.345256 8.542426-5.525998v-1.006019c0-1.650134-.77364-2.720037-3.067888-2.720037-1.929387 0-3.186488 1.244628-3.811932 2.500114l-1.149471-.697137c1.160395-2.164882 2.927517-3.000809 5.014427-3.000809 3.039779 0 4.482447 1.236802 4.482447 4.200238v7.127739c0 .670626.05143 1.545682.205868 2.448688h-1.494095zM25.53083 59.818499V46.419231h1.545523v2.113454c1.444265-1.495692 2.62964-2.490851 4.587056-2.490851 2.784081 0 3.969296 1.598706 3.969296 4.509119v9.267546h-1.54712v-9.113266c0-2.214711-.669028-3.426597-2.731057-3.426597-1.648535 0-2.576456 1.124524-4.278175 2.670207v9.869656H25.53083zM39.851629 46.419231v-4.38103h1.545682v4.38103h3.454707v1.236961h-3.454707v9.618431c0 .901568.411736 1.643905 1.366327 1.643905.514749 0 1.480042-.209063 2.08838-.481849v1.288229c-.63485.196444-1.573631.430421-2.08838.430421-2.191393 0-2.912009-.999791-2.912009-2.623412v-9.875725h-2.245855v-1.236961h2.245855zM47.820087 53.118146c0 3.634062 1.2368 5.918886 4.12693 5.918886 2.890128 0 4.126929-2.284824 4.126929-5.918886 0-3.632465-1.236801-5.83951-4.126929-5.83951-2.89013 0-4.12693 2.207045-4.12693 5.83951zm9.799382 0c0 3.634062-1.296054 7.155688-5.672452 7.155688-4.3764 0-5.67405-3.521626-5.67405-7.155688 0-3.632465 1.29765-7.076312 5.67405-7.076312 4.376398 0 5.672452 3.443847 5.672452 7.076312zM60.681128 59.818499V46.419231h1.547279v2.113454c1.442669-1.495692 2.628043-2.490851 4.587057-2.490851 2.782324 0 3.967699 1.598706 3.967699 4.509119v9.267546H69.23764v-9.113266c0-2.214711-.670786-3.426597-2.732654-3.426597-1.648536 0-2.576616 1.124524-4.276579 2.670207v9.869656h-1.547279zM81.791397 49.418602c-.65657-.709755-1.912218-1.250855-2.936924-1.250855-1.261716 0-1.918287.600353-1.918287 1.416156 0 2.337848 7.027919 1.339655 7.027919 6.330622 0 2.838701-2.272526 4.335991-5.136144 4.335991-2.181969 0-3.849192-.759585-5.257523-2.798135l2.0665-1.550314c.762619 1.051217 1.943362 1.930905 3.336201 1.930905 1.155668 0 2.025933-.750162 2.060271-1.668819.0904-2.376978-7.026323-1.614199-7.026323-6.371348 0-2.548507 2.350466-3.964664 4.714827-3.964664 1.8124 0 3.643484.321338 4.914624 1.901199l-1.845141 1.689262zM94.265779 50.975145c-.305686-.938941-.918657-2.51896-2.64066-2.51896-1.81224 0-2.757409 1.536259-2.757409 4.583862 0 3.047604.945169 4.584023 2.863457 4.584023 1.971472 0 2.383206-2.118086 2.545473-2.595302l2.698316 1.093221c-.720616 2.514329-2.286582 4.128527-5.349837 4.128527-3.704176 0-5.976542-2.874477-5.976542-7.210469 0-4.335832 2.272366-7.211906 5.976542-7.211906 2.576616 0 4.697737 1.408491 5.30927 3.99437l-2.66861 1.152634zM99.247322 59.830956V40.901219h3.258108v6.778291c.99818-.840718 2.14459-1.851369 3.74634-1.851369 2.73265 0 4.04739 1.787484 4.04739 4.571406v9.431409h-3.25811v-8.957227c0-1.840349-.57862-2.417544-1.68127-2.417544-1.41936 0-2.30223.931114-2.85435 1.56277v9.812001h-3.258108zM111.64984 46.168165h3.10062l2.25528 8.51435h.053l1.96987-8.51435h3.41271l1.89034 8.51435h.053l2.33481-8.51435h3.10063l-3.9102 13.662791h-2.94459l-2.21631-8.512752h-.053l-2.1914 8.512752h-2.94459l-3.9102-13.662791zM130.53756 62.037841c.4991.106048.89375.106048 1.36633.106048 1.13076 0 1.76081-.31495 2.15546-1.077729.31351-.656571.52561-1.051217.52561-1.603338 0-.499096-.26368-1.076132-.42116-1.628253l-3.84775-11.666404h3.40168l2.45492 8.408301h.053l2.53301-8.408301h3.1412l-4.50449 13.689303c-1.44426 3.914834-2.60153 4.966051-5.281 4.966051-.78914 0-1.18219-.05302-1.57683-.104611v-2.681067zM142.80592 46.168165h10.11609v2.391032l-6.48985 8.684282h6.54447v2.587477H142.2554v-2.389435l6.51636-8.80119h-5.96584v-2.472166z"/>
  <path fill="#e3001b" d="M142.98224 78.119773l28.9294-5.499486-.3881 33.132193-31.38 3.54207 2.8387-31.174777zM186.36388 69.867509l22.28446-4.242401 2.17208 22.858626-23.80012 3.340833-.65642-21.957058zM184.94245 14.821804L231.51097.00018216 239.9996 43.600945l-54.03659 12.026712-1.02056-40.805853z"/>
  <path fill="#fff" d="M168.84998 42.172358v2.397102h2.39726v1.065271h-2.39726v2.397261h-1.06687v-2.397261h-2.39726V44.56946h2.39726v-2.397102h1.06687z"/>
</svg>
