<?xml version="1.0" encoding="UTF-8" standalone="no"?>
<!-- Created with Inkscape (http://www.inkscape.org/) -->

<svg
   version="1.1"
   id="svg2"
   width="209"
   height="66.826668"
   viewBox="0 0 209 66.826668"
   sodipodi:docname="Logo_3-sprachig_4-farbig.eps"
   xmlns:inkscape="http://www.inkscape.org/namespaces/inkscape"
   xmlns:sodipodi="http://sodipodi.sourceforge.net/DTD/sodipodi-0.dtd"
   xmlns="http://www.w3.org/2000/svg"
   xmlns:svg="http://www.w3.org/2000/svg">
  <defs
     id="defs6" />
  <sodipodi:namedview
     id="namedview4"
     pagecolor="#ffffff"
     bordercolor="#000000"
     borderopacity="0.25"
     inkscape:showpageshadow="2"
     inkscape:pageopacity="0.0"
     inkscape:pagecheckerboard="0"
     inkscape:deskcolor="#d1d1d1" />
  <g
     id="g8"
     inkscape:groupmode="layer"
     inkscape:label="ink_ext_XXXXXX"
     transform="matrix(1.3333333,0,0,-1.3333333,0,66.826667)">
    <g
       id="g10"
       transform="scale(0.1)">
      <g
         id="g12"
         transform="scale(10)">
        <g
           aria-label="Kanton Graubünden
Chantun Grischun
Cantone dei Grigioni"
           transform="matrix(1,0,0,-1,53.0906,40.6797)"
           id="text20"
           style="font-size:11px;font-family:Arial;-inkscape-font-specification:ArialMT;fill:#231f20">
          <path
             d="M 0.80566406,0 V -7.8740234 H 1.8476562 v 3.9047851 L 5.7578125,-7.8740234 H 7.1704102 L 3.8671875,-4.6835937 7.3154297,0 h -1.375 L 3.1367188,-3.9853516 1.8476562,-2.7285156 V 0 Z"
             id="path72" />
          <path
             d="m 11.796387,-0.70361328 q -0.537109,0.45654297 -1.036621,0.64453125 -0.494141,0.18798828 -1.0634765,0.18798828 -0.9399414,0 -1.4448242,-0.45654297 -0.5048828,-0.46191406 -0.5048828,-1.17626948 0,-0.4189454 0.1879883,-0.7626954 0.1933594,-0.3491211 0.4995117,-0.5585937 0.3115234,-0.2094727 0.6982422,-0.3168945 0.284668,-0.075195 0.859375,-0.1450196 1.1708983,-0.1396484 1.7241213,-0.3330078 0.0054,-0.1987305 0.0054,-0.2524414 0,-0.5908203 -0.273926,-0.8325195 -0.370605,-0.3276367 -1.101074,-0.3276367 -0.682129,0 -1.0097657,0.2416992 -0.3222657,0.2363281 -0.4780274,0.8432617 L 7.9130864,-4.0766602 q 0.1289063,-0.6069335 0.4243164,-0.977539 0.2954102,-0.3759766 0.8540039,-0.574707 0.5585938,-0.2041016 1.2944333,-0.2041016 0.730469,0 1.187012,0.171875 0.456543,0.171875 0.671387,0.4350586 0.214844,0.2578125 0.300781,0.6552734 0.04834,0.2470703 0.04834,0.8916016 v 1.2890625 q 0,1.3481445 0.05908,1.70800779 Q 12.816895,-0.32763672 12.999512,0 h -1.009765 q -0.150391,-0.30078125 -0.19336,-0.70361328 z M 11.715821,-2.862793 q -0.526367,0.2148438 -1.579102,0.3652344 -0.5961912,0.085937 -0.8432615,0.1933594 -0.2470703,0.1074219 -0.3813476,0.3168945 -0.1342774,0.2041016 -0.1342774,0.456543 0,0.3867187 0.2900391,0.64453123 0.2954101,0.2578125 0.859375,0.2578125 0.5585934,0 0.9936524,-0.24169922 0.435059,-0.24707031 0.63916,-0.67138671 0.155762,-0.3276367 0.155762,-0.9667969 z"
             id="path74" />
          <path
             d="m 14.152353,0 v -5.7041016 h 0.870117 v 0.8110352 q 0.628418,-0.9399414 1.81543,-0.9399414 0.515625,0 0.945313,0.1879883 0.435058,0.1826172 0.649902,0.4833984 0.214844,0.3007813 0.300781,0.7143555 0.05371,0.2685547 0.05371,0.9399414 V 0 H 17.82081 v -3.4697266 q 0,-0.5908203 -0.112793,-0.8808593 -0.112793,-0.2954102 -0.402832,-0.4672852 -0.284668,-0.1772461 -0.671386,-0.1772461 -0.617676,0 -1.068848,0.3920899 -0.445801,0.3920898 -0.445801,1.4877929 V 0 Z"
             id="path76" />
          <path
             d="m 22.260754,-0.86474609 0.139648,0.8540039 q -0.408203,0.0859375 -0.730469,0.0859375 -0.526367,0 -0.816406,-0.1665039 Q 20.563488,-0.2578125 20.445324,-0.52636719 20.32716,-0.80029297 20.32716,-1.6704102 v -3.2817382 h -0.708984 v -0.7519532 h 0.708984 v -1.4125976 l 0.961426,-0.5800781 v 1.9926757 h 0.972168 v 0.7519532 h -0.972168 v 3.3354492 q 0,0.4135742 0.04834,0.5317383 0.05371,0.11816402 0.166503,0.18798824 0.118164,0.0698242 0.333008,0.0698242 0.161133,0 0.424317,-0.0375977 z"
             id="path78" />
          <path
             d="m 22.760258,-2.8520508 q 0,-1.5844726 0.880859,-2.3471679 0.73584,-0.6337891 1.793945,-0.6337891 1.17627,0 1.922852,0.7734375 0.746582,0.7680664 0.746582,2.1269531 0,1.1010742 -0.333008,1.7348633 -0.327637,0.62841796 -0.961426,0.97753906 -0.628418,0.34912109 -1.375,0.34912109 -1.197753,0 -1.938964,-0.76806641 -0.73584,-0.76806644 -0.73584,-2.21289064 z m 0.993652,0 q 0,1.0957031 0.478027,1.6435547 0.478028,0.54248048 1.203125,0.54248048 0.719727,0 1.197754,-0.54785158 0.478028,-0.5478515 0.478028,-1.6704101 0,-1.0581055 -0.483399,-1.600586 -0.478027,-0.5478515 -1.192383,-0.5478515 -0.725097,0 -1.203125,0.5424804 -0.478027,0.5424805 -0.478027,1.6381836 z"
             id="path80" />
          <path
             d="m 29.248053,0 v -5.7041016 h 0.870117 v 0.8110352 q 0.628418,-0.9399414 1.815429,-0.9399414 0.515625,0 0.945313,0.1879883 0.435059,0.1826172 0.649902,0.4833984 0.214844,0.3007813 0.300782,0.7143555 0.05371,0.2685547 0.05371,0.9399414 V 0 H 32.91651 v -3.4697266 q 0,-0.5908203 -0.112793,-0.8808593 -0.112793,-0.2954102 -0.402832,-0.4672852 -0.284668,-0.1772461 -0.671387,-0.1772461 -0.617676,0 -1.068848,0.3920899 -0.445801,0.3920898 -0.445801,1.4877929 V 0 Z"
             id="path82" />
          <path
             d="M 42.229988,-3.0883789 V -4.012207 l 3.335449,-0.00537 v 2.921875 q -0.768066,0.61230466 -1.584472,0.9238281 -0.816407,0.30615234 -1.675782,0.30615234 -1.160156,0 -2.110839,-0.49414062 -0.945313,-0.49951172 -1.428711,-1.43945312 -0.483399,-0.9399414 -0.483399,-2.1000977 0,-1.149414 0.478028,-2.1430664 0.483398,-0.9990234 1.385742,-1.4824218 0.902343,-0.4833985 2.078613,-0.4833985 0.854004,0 1.541504,0.2792969 0.692871,0.2739258 1.084961,0.7680664 0.39209,0.4941406 0.596191,1.2890625 l -0.939941,0.2578125 q -0.177246,-0.6015625 -0.44043,-0.9453125 -0.263183,-0.34375 -0.751953,-0.5478516 -0.488769,-0.2094726 -1.084961,-0.2094726 -0.714355,0 -1.235351,0.2202148 -0.520997,0.2148438 -0.843262,0.569336 -0.316895,0.3544922 -0.494141,0.7788086 -0.300781,0.7304687 -0.300781,1.5844726 0,1.0527344 0.359863,1.7617188 0.365235,0.7089843 1.058106,1.0527343 0.692871,0.34375004 1.471679,0.34375004 0.676758,0 1.321289,-0.25781254 0.644532,-0.2631836 0.97754,-0.5585937 v -1.4663086 z"
             id="path84" />
          <path
             d="m 47.052738,0 v -5.7041016 h 0.870117 v 0.8647461 q 0.333008,-0.6069336 0.612305,-0.8002929 0.284668,-0.1933594 0.623047,-0.1933594 0.488769,0 0.993652,0.3115234 l -0.333008,0.8969727 q -0.354492,-0.2094727 -0.708984,-0.2094727 -0.316894,0 -0.569336,0.1933594 -0.252441,0.1879883 -0.359863,0.5263672 -0.161133,0.515625 -0.161133,1.1279297 V 0 Z"
             id="path86" />
          <path
             d="m 54.459965,-0.70361328 q -0.53711,0.45654297 -1.036621,0.64453125 -0.494141,0.18798828 -1.063477,0.18798828 -0.939941,0 -1.444824,-0.45654297 -0.504883,-0.46191406 -0.504883,-1.17626948 0,-0.4189454 0.187988,-0.7626954 0.19336,-0.3491211 0.499512,-0.5585937 0.311524,-0.2094727 0.698242,-0.3168945 0.284668,-0.075195 0.859375,-0.1450196 1.170899,-0.1396484 1.724121,-0.3330078 0.0054,-0.1987305 0.0054,-0.2524414 0,-0.5908203 -0.273925,-0.8325195 -0.370606,-0.3276367 -1.101075,-0.3276367 -0.682128,0 -1.009765,0.2416992 -0.322266,0.2363281 -0.478028,0.8432617 l -0.945312,-0.1289063 q 0.128906,-0.6069335 0.424316,-0.977539 0.295411,-0.3759766 0.854004,-0.574707 0.558594,-0.2041016 1.294434,-0.2041016 0.730469,0 1.187012,0.171875 0.456543,0.171875 0.671386,0.4350586 0.214844,0.2578125 0.300782,0.6552734 0.04834,0.2470703 0.04834,0.8916016 v 1.2890625 q 0,1.3481445 0.05908,1.70800779 Q 55.480473,-0.32763672 55.66309,0 h -1.009766 q -0.15039,-0.30078125 -0.193359,-0.70361328 z M 54.379398,-2.862793 q -0.526367,0.2148438 -1.579101,0.3652344 -0.596192,0.085937 -0.843262,0.1933594 -0.24707,0.1074219 -0.381348,0.3168945 -0.134277,0.2041016 -0.134277,0.456543 0,0.3867187 0.290039,0.64453123 0.29541,0.2578125 0.859375,0.2578125 0.558594,0 0.993652,-0.24169922 0.435059,-0.24707031 0.639161,-0.67138671 0.155761,-0.3276367 0.155761,-0.9667969 z"
             id="path88" />
          <path
             d="m 60.507828,0 v -0.83789063 q -0.666016,0.96679688 -1.810059,0.96679688 -0.504883,0 -0.945312,-0.19335937 -0.435059,-0.19335938 -0.649903,-0.48339844 -0.209472,-0.29541016 -0.29541,-0.71972654 -0.05908,-0.284668 -0.05908,-0.9023438 v -3.5341797 h 0.966797 v 3.1635743 q 0,0.7573242 0.05908,1.0205078 0.09131,0.3813476 0.386719,0.60156247 0.29541,0.21484375 0.730469,0.21484375 0.435058,0 0.816406,-0.22021485 0.381347,-0.22558597 0.537109,-0.60693357 0.161133,-0.3867188 0.161133,-1.1171875 v -3.0561524 h 0.966797 V 0 Z"
             id="path90" />
          <path
             d="m 63.721691,0 h -0.896973 v -7.8740234 h 0.966797 v 2.809082 q 0.612305,-0.7680664 1.562989,-0.7680664 0.526367,0 0.993652,0.2148437 0.472656,0.2094727 0.773437,0.5961914 0.306153,0.3813477 0.478028,0.9238282 0.171875,0.5424804 0.171875,1.1601562 0,1.4663086 -0.725098,2.26660158 -0.725097,0.80029297 -1.740234,0.80029297 -1.009766,0 -1.584473,-0.84326172 z m -0.01074,-2.8950195 q 0,1.0258789 0.279297,1.4824218 0.456543,0.74658208 1.235351,0.74658208 0.633789,0 1.095704,-0.54785158 0.461914,-0.5532226 0.461914,-1.6435547 0,-1.1171875 -0.445801,-1.6489258 -0.44043,-0.5317382 -1.068848,-0.5317382 -0.633789,0 -1.095703,0.5532226 -0.461914,0.5478516 -0.461914,1.5898438 z"
             id="path92" />
          <path
             d="m 72.650887,0 v -0.83789063 q -0.666016,0.96679688 -1.810059,0.96679688 -0.504883,0 -0.945313,-0.19335937 -0.435058,-0.19335938 -0.649902,-0.48339844 -0.209473,-0.29541016 -0.29541,-0.71972654 -0.05908,-0.284668 -0.05908,-0.9023438 v -3.5341797 h 0.966797 v 3.1635743 q 0,0.7573242 0.05908,1.0205078 0.09131,0.3813476 0.386719,0.60156247 0.29541,0.21484375 0.730468,0.21484375 0.435059,0 0.816407,-0.22021485 0.381347,-0.22558597 0.537109,-0.60693357 0.161133,-0.3867188 0.161133,-1.1171875 v -3.0561524 h 0.966797 V 0 Z m -2.954102,-6.8212891 v -1.1010742 h 1.009766 v 1.1010742 z m 2.003418,0 v -1.1010742 h 1.009766 v 1.1010742 z"
             id="path94" />
          <path
             d="m 74.973145,0 v -5.7041016 h 0.870117 v 0.8110352 q 0.628418,-0.9399414 1.815429,-0.9399414 0.515625,0 0.945313,0.1879883 0.435058,0.1826172 0.649902,0.4833984 0.214844,0.3007813 0.300781,0.7143555 0.05371,0.2685547 0.05371,0.9399414 V 0 h -0.966796 v -3.4697266 q 0,-0.5908203 -0.112793,-0.8808593 -0.112793,-0.2954102 -0.402832,-0.4672852 -0.284668,-0.1772461 -0.671387,-0.1772461 -0.617676,0 -1.068848,0.3920899 -0.445801,0.3920898 -0.445801,1.4877929 V 0 Z"
             id="path96" />
          <path
             d="m 84.779297,0 v -0.71972656 q -0.542481,0.84863281 -1.595215,0.84863281 -0.682129,0 -1.256836,-0.37597656 -0.569336,-0.37597656 -0.88623,-1.04736329 -0.311524,-0.6767578 -0.311524,-1.5522461 0,-0.8540039 0.284668,-1.546875 0.284668,-0.6982422 0.854004,-1.0688476 0.569336,-0.3706055 1.272949,-0.3706055 0.515625,0 0.918457,0.2202148 0.402832,0.2148438 0.655274,0.5639649 V -7.8740234 H 85.67627 V 0 Z m -3.056152,-2.8466797 q 0,1.0957031 0.461914,1.6381836 0.461914,0.54248048 1.090332,0.54248048 0.633789,0 1.074218,-0.51562498 0.445801,-0.5209961 0.445801,-1.5844727 0,-1.1708984 -0.451172,-1.71875 -0.451172,-0.5478515 -1.111816,-0.5478515 -0.644531,0 -1.07959,0.5263671 -0.429687,0.5263672 -0.429687,1.659668 z"
             id="path98" />
          <path
             d="m 91.072266,-1.8369141 0.999023,0.1235352 q -0.236328,0.87548827 -0.875488,1.35888671 -0.63916,0.48339844 -1.632813,0.48339844 -1.251465,0 -1.987304,-0.76806641 -0.730469,-0.77343754 -0.730469,-2.16455074 0,-1.4394532 0.741211,-2.234375 0.741211,-0.7949219 1.922851,-0.7949219 1.144043,0 1.869141,0.7788086 0.725098,0.7788086 0.725098,2.1914062 0,0.085937 -0.0054,0.2578125 h -4.253907 q 0.05371,0.9399414 0.531739,1.4394532 0.478027,0.49951168 1.192382,0.49951168 0.531739,0 0.907715,-0.27929688 0.375977,-0.2792969 0.596192,-0.8916016 z m -3.174317,-1.5629882 h 3.185059 q -0.06445,-0.7197266 -0.365235,-1.0795899 -0.461914,-0.5585937 -1.197753,-0.5585937 -0.666016,0 -1.122559,0.4458007 -0.451172,0.4458008 -0.499512,1.1923829 z"
             id="path100" />
          <path
             d="m 93.267586,0 v -5.7041016 h 0.870117 v 0.8110352 q 0.628418,-0.9399414 1.81543,-0.9399414 0.515625,0 0.945312,0.1879883 0.435059,0.1826172 0.649902,0.4833984 0.214844,0.3007813 0.300782,0.7143555 0.05371,0.2685547 0.05371,0.9399414 V 0 h -0.966797 v -3.4697266 q 0,-0.5908203 -0.112793,-0.8808593 -0.112793,-0.2954102 -0.402832,-0.4672852 -0.284668,-0.1772461 -0.671387,-0.1772461 -0.617676,0 -1.068848,0.3920899 -0.4458,0.3920898 -0.4458,1.4877929 V 0 Z"
             id="path102" />
          <path
             d="m 6.4667969,15.239258 1.0419922,0.263183 q -0.3276368,1.283692 -1.1816407,1.96045 -0.8486328,0.671386 -2.0786132,0.671386 -1.2729493,0 -2.0732422,-0.515625 -0.7949219,-0.520996 -1.21386722,-1.503906 -0.41357422,-0.98291 -0.41357422,-2.11084 0,-1.22998 0.46728514,-2.143066 0.4726563,-0.918457 1.3374024,-1.391113 0.8701172,-0.4780278 1.9121093,-0.4780278 1.1816407,0 1.9873047,0.6015628 0.8056641,0.601562 1.1225586,1.691894 L 6.3486328,12.526855 Q 6.074707,11.66748 5.5537109,11.275391 q -0.5209961,-0.39209 -1.3105468,-0.39209 -0.9077149,0 -1.5200196,0.435058 -0.6069336,0.435059 -0.8540039,1.170899 -0.2470703,0.730469 -0.2470703,1.509277 0,1.004395 0.2900391,1.756348 0.2954101,0.746582 0.9130859,1.117187 0.6176758,0.370606 1.3374024,0.370606 0.8754882,0 1.4824218,-0.504883 0.6069336,-0.504883 0.8217774,-1.498535 z"
             id="path104" />
          <path
             d="m 8.6303668,18 v -7.874023 h 0.9667969 v 2.825195 q 0.6767573,-0.78418 1.7080073,-0.78418 0.63379,0 1.101075,0.252442 0.467285,0.24707 0.666015,0.6875 0.204102,0.440429 0.204102,1.27832 V 18 h -0.966797 v -3.614746 q 0,-0.725098 -0.316895,-1.052734 -0.311523,-0.333008 -0.88623,-0.333008 -0.429687,0 -0.811035,0.225586 -0.3759767,0.220215 -0.5371095,0.601562 -0.1611328,0.381348 -0.1611328,1.052735 V 18 Z"
             id="path106" />
          <path
             d="m 18.431639,17.296387 q -0.53711,0.456543 -1.036621,0.644531 -0.494141,0.187988 -1.063477,0.187988 -0.939941,0 -1.444824,-0.456543 -0.504883,-0.461914 -0.504883,-1.176269 0,-0.418946 0.187988,-0.762696 0.19336,-0.349121 0.499512,-0.558593 0.311523,-0.209473 0.698242,-0.316895 0.284668,-0.0752 0.859375,-0.145019 1.170899,-0.139649 1.724121,-0.333008 0.0054,-0.198731 0.0054,-0.252442 0,-0.59082 -0.273925,-0.832519 -0.370606,-0.327637 -1.101075,-0.327637 -0.682129,0 -1.009765,0.241699 -0.322266,0.236329 -0.478028,0.843262 L 14.548338,13.92334 q 0.128906,-0.606934 0.424316,-0.977539 0.29541,-0.375977 0.854004,-0.574707 0.558594,-0.204102 1.294434,-0.204102 0.730469,0 1.187012,0.171875 0.456543,0.171875 0.671386,0.435059 0.214844,0.257812 0.300782,0.655273 0.04834,0.247071 0.04834,0.891602 v 1.289062 q 0,1.348145 0.05908,1.708008 0.06445,0.354492 0.247071,0.682129 h -1.009766 q -0.150391,-0.300781 -0.193359,-0.703613 z m -0.08057,-2.15918 q -0.526367,0.214844 -1.579101,0.365234 -0.596192,0.08594 -0.843262,0.19336 -0.24707,0.107422 -0.381348,0.316894 -0.134277,0.204102 -0.134277,0.456543 0,0.386719 0.290039,0.644532 0.29541,0.257812 0.859375,0.257812 0.558594,0 0.993652,-0.241699 0.435059,-0.247071 0.639161,-0.671387 0.155761,-0.327637 0.155761,-0.966797 z"
             id="path108" />
          <path
             d="m 20.788574,18 v -5.704102 h 0.870117 v 0.811036 q 0.628418,-0.939942 1.81543,-0.939942 0.515625,0 0.945313,0.187988 0.435058,0.182618 0.649902,0.483399 0.214844,0.300781 0.300781,0.714355 0.05371,0.268555 0.05371,0.939942 V 18 h -0.966797 v -3.469727 q 0,-0.59082 -0.112793,-0.880859 -0.112793,-0.29541 -0.402832,-0.467285 -0.284668,-0.177246 -0.671386,-0.177246 -0.617676,0 -1.068848,0.39209 -0.445801,0.39209 -0.445801,1.487793 V 18 Z"
             id="path110" />
          <path
             d="m 28.89747,17.135254 0.139649,0.854004 q -0.408203,0.08594 -0.730469,0.08594 -0.526367,0 -0.816406,-0.166504 -0.290039,-0.166504 -0.408203,-0.435058 -0.118164,-0.273926 -0.118164,-1.144043 v -3.281738 h -0.708985 v -0.751954 h 0.708985 v -1.412597 l 0.961426,-0.580078 v 1.992675 h 0.972167 v 0.751954 h -0.972167 v 3.335449 q 0,0.413574 0.04834,0.531738 0.05371,0.118164 0.166504,0.187988 0.118164,0.06982 0.333008,0.06982 0.161133,0 0.424316,-0.0376 z"
             id="path112" />
          <path
             d="m 33.550295,18 v -0.837891 q -0.666016,0.966797 -1.810059,0.966797 -0.504883,0 -0.945312,-0.193359 -0.435059,-0.19336 -0.649903,-0.483399 -0.209472,-0.29541 -0.29541,-0.719726 -0.05908,-0.284668 -0.05908,-0.902344 v -3.53418 h 0.966797 v 3.163575 q 0,0.757324 0.05908,1.020507 0.09131,0.381348 0.386719,0.601563 0.29541,0.214844 0.730469,0.214844 0.435058,0 0.816406,-0.220215 0.381348,-0.225586 0.537109,-0.606934 0.161133,-0.386718 0.161133,-1.117187 v -3.056153 h 0.966797 V 18 Z"
             id="path114" />
          <path
             d="m 35.87257,18 v -5.704102 h 0.870117 v 0.811036 q 0.628418,-0.939942 1.81543,-0.939942 0.515625,0 0.945312,0.187988 0.435059,0.182618 0.649903,0.483399 0.214844,0.300781 0.300781,0.714355 0.05371,0.268555 0.05371,0.939942 V 18 h -0.966797 v -3.469727 q 0,-0.59082 -0.112793,-0.880859 -0.112793,-0.29541 -0.402832,-0.467285 -0.284668,-0.177246 -0.671387,-0.177246 -0.617675,0 -1.068847,0.39209 -0.445801,0.39209 -0.445801,1.487793 V 18 Z"
             id="path116" />
          <path
             d="m 48.854504,14.911621 v -0.923828 l 3.335449,-0.0054 v 2.921875 q -0.768067,0.612305 -1.584473,0.923828 -0.816406,0.306152 -1.675781,0.306152 -1.160156,0 -2.11084,-0.49414 -0.945312,-0.499512 -1.428711,-1.439453 -0.483398,-0.939942 -0.483398,-2.100098 0,-1.149414 0.478027,-2.143066 0.483399,-0.999024 1.385742,-1.482422 0.902344,-0.4833988 2.078614,-0.4833988 0.854003,0 1.541503,0.2792968 0.692872,0.273926 1.084961,0.768067 0.39209,0.49414 0.596192,1.289062 l -0.939942,0.257813 q -0.177246,-0.601563 -0.440429,-0.945313 -0.263184,-0.34375 -0.751953,-0.547852 -0.48877,-0.209472 -1.084961,-0.209472 -0.714356,0 -1.235352,0.220215 -0.520996,0.214843 -0.843262,0.569336 -0.316894,0.354492 -0.49414,0.778808 -0.300782,0.730469 -0.300782,1.584473 0,1.052734 0.359864,1.761719 0.365234,0.708984 1.058105,1.052734 0.692871,0.34375 1.47168,0.34375 0.676758,0 1.321289,-0.257813 0.644531,-0.263183 0.977539,-0.558593 v -1.466309 z"
             id="path118" />
          <path
             d="m 53.677261,18 v -5.704102 h 0.870118 v 0.864747 q 0.333007,-0.606934 0.612304,-0.800293 0.284668,-0.19336 0.623047,-0.19336 0.48877,0 0.993652,0.311524 l -0.333007,0.896972 q -0.354493,-0.209472 -0.708985,-0.209472 -0.316894,0 -0.569336,0.193359 -0.252441,0.187988 -0.359863,0.526367 -0.161133,0.515625 -0.161133,1.12793 V 18 Z"
             id="path120" />
          <path
             d="m 57.491714,11.237793 v -1.111816 h 0.966797 v 1.111816 z m 0,6.762207 v -5.704102 h 0.966797 V 18 Z"
             id="path122" />
          <path
             d="m 59.536144,16.297363 0.956055,-0.15039 q 0.08057,0.574707 0.445801,0.880859 0.370605,0.306152 1.03125,0.306152 0.666015,0 0.988281,-0.268554 0.322266,-0.273926 0.322266,-0.63916 0,-0.327637 -0.284668,-0.515625 -0.198731,-0.128907 -0.988282,-0.327637 -1.063476,-0.268555 -1.47705,-0.461914 -0.408204,-0.198731 -0.623047,-0.542481 -0.209473,-0.349121 -0.209473,-0.768066 0,-0.381348 0.171875,-0.703613 0.177246,-0.327637 0.478027,-0.542481 0.225586,-0.166504 0.612305,-0.279297 0.39209,-0.118164 0.837891,-0.118164 0.671386,0 1.176269,0.19336 0.510254,0.193359 0.751953,0.526367 0.2417,0.327636 0.333008,0.880859 l -0.945312,0.128906 q -0.06445,-0.440429 -0.375977,-0.6875 -0.306152,-0.24707 -0.870117,-0.24707 -0.666016,0 -0.950684,0.220215 -0.284668,0.220215 -0.284668,0.515625 0,0.187988 0.118164,0.338379 0.118165,0.155762 0.370606,0.257812 0.145019,0.05371 0.854004,0.247071 1.025879,0.273925 1.428711,0.451172 0.408203,0.171875 0.63916,0.504882 0.230957,0.333008 0.230957,0.827149 0,0.483398 -0.284668,0.913086 -0.279297,0.424316 -0.811035,0.660644 -0.531738,0.230957 -1.203125,0.230957 -1.111817,0 -1.697266,-0.461914 -0.580078,-0.461914 -0.741211,-1.369629 z"
             id="path124" />
          <path
             d="m 69.117203,15.910645 0.950683,0.123535 q -0.155761,0.98291 -0.800293,1.541504 -0.63916,0.553222 -1.57373,0.553222 -1.170899,0 -1.885254,-0.762695 -0.708984,-0.768066 -0.708984,-2.196777 0,-0.923829 0.306152,-1.6167 0.306152,-0.692871 0.929199,-1.036621 0.628418,-0.349121 1.364258,-0.349121 0.929199,0 1.52002,0.472656 0.59082,0.467286 0.757324,1.332032 l -0.939942,0.145019 q -0.134277,-0.574707 -0.478027,-0.864746 -0.338379,-0.290039 -0.821777,-0.290039 -0.730469,0 -1.187012,0.526367 -0.456543,0.520996 -0.456543,1.654297 0,1.149414 0.44043,1.67041 0.440429,0.520996 1.149414,0.520996 0.569336,0 0.950683,-0.349121 0.381348,-0.349121 0.483399,-1.074218 z"
             id="path126" />
          <path
             d="m 70.977554,18 v -7.874023 h 0.966797 v 2.825195 q 0.676758,-0.78418 1.708008,-0.78418 0.633789,0 1.101074,0.252442 0.467285,0.24707 0.666016,0.6875 0.204101,0.440429 0.204101,1.27832 V 18 h -0.966796 v -3.614746 q 0,-0.725098 -0.316895,-1.052734 -0.311523,-0.333008 -0.88623,-0.333008 -0.429688,0 -0.811036,0.225586 -0.375976,0.220215 -0.537109,0.601562 -0.161133,0.381348 -0.161133,1.052735 V 18 Z"
             id="path128" />
          <path
             d="m 80.774422,18 v -0.837891 q -0.666016,0.966797 -1.810059,0.966797 -0.504883,0 -0.945312,-0.193359 -0.435059,-0.19336 -0.649903,-0.483399 -0.209472,-0.29541 -0.29541,-0.719726 -0.05908,-0.284668 -0.05908,-0.902344 v -3.53418 h 0.966797 v 3.163575 q 0,0.757324 0.05908,1.020507 0.09131,0.381348 0.386719,0.601563 0.29541,0.214844 0.730468,0.214844 0.435059,0 0.816407,-0.220215 0.381347,-0.225586 0.537109,-0.606934 0.161133,-0.386718 0.161133,-1.117187 v -3.056153 h 0.966797 V 18 Z"
             id="path130" />
          <path
             d="m 83.094246,18 v -5.704102 h 0.870117 v 0.811036 q 0.628418,-0.939942 1.81543,-0.939942 0.515625,0 0.945312,0.187988 0.435059,0.182618 0.649903,0.483399 0.214843,0.300781 0.300781,0.714355 0.05371,0.268555 0.05371,0.939942 V 18 h -0.966797 v -3.469727 q 0,-0.59082 -0.112793,-0.880859 -0.112793,-0.29541 -0.402832,-0.467285 -0.284668,-0.177246 -0.671387,-0.177246 -0.617676,0 -1.068847,0.39209 -0.445801,0.39209 -0.445801,1.487793 V 18 Z"
             id="path132" />
          <path
             d="m 6.4667969,33.239258 1.0419922,0.263183 q -0.3276368,1.283692 -1.1816407,1.96045 -0.8486328,0.671386 -2.0786132,0.671386 -1.2729493,0 -2.0732422,-0.515625 -0.7949219,-0.520996 -1.21386722,-1.503906 -0.41357422,-0.98291 -0.41357422,-2.11084 0,-1.22998 0.46728514,-2.143066 0.4726563,-0.918457 1.3374024,-1.391113 0.8701172,-0.478028 1.9121093,-0.478028 1.1816407,0 1.9873047,0.601563 0.8056641,0.601562 1.1225586,1.691894 L 6.3486328,30.526855 Q 6.074707,29.66748 5.5537109,29.275391 q -0.5209961,-0.39209 -1.3105468,-0.39209 -0.9077149,0 -1.5200196,0.435058 -0.6069336,0.435059 -0.8540039,1.170899 -0.2470703,0.730469 -0.2470703,1.509277 0,1.004395 0.2900391,1.756348 0.2954101,0.746582 0.9130859,1.117187 0.6176758,0.370606 1.3374024,0.370606 0.8754882,0 1.4824218,-0.504883 0.6069336,-0.504883 0.8217774,-1.498535 z"
             id="path134" />
          <path
             d="m 12.391115,35.296387 q -0.537109,0.456543 -1.036621,0.644531 -0.494141,0.187988 -1.063476,0.187988 -0.9399419,0 -1.4448247,-0.456543 -0.5048828,-0.461914 -0.5048828,-1.176269 0,-0.418946 0.1879883,-0.762696 0.1933594,-0.349121 0.4995117,-0.558593 0.3115234,-0.209473 0.6982422,-0.316895 0.2846683,-0.07519 0.8593753,-0.145019 1.170898,-0.139649 1.724121,-0.333008 0.0054,-0.198731 0.0054,-0.252442 0,-0.59082 -0.273926,-0.832519 -0.370605,-0.327637 -1.101074,-0.327637 -0.682129,0 -1.0097657,0.241699 -0.3222657,0.236328 -0.4780274,0.843262 L 8.5078144,31.92334 q 0.1289063,-0.606934 0.4243164,-0.977539 0.2954102,-0.375977 0.8540039,-0.574707 0.5585933,-0.204102 1.2944333,-0.204102 0.730469,0 1.187012,0.171875 0.456543,0.171875 0.671387,0.435059 0.214844,0.257812 0.300781,0.655273 0.04834,0.247071 0.04834,0.891602 v 1.289062 q 0,1.348145 0.05908,1.708008 0.06445,0.354492 0.24707,0.682129 h -1.009765 q -0.150391,-0.300781 -0.19336,-0.703613 z m -0.08057,-2.15918 q -0.526367,0.214844 -1.579102,0.365234 -0.596191,0.08594 -0.8432615,0.19336 -0.2470703,0.107422 -0.3813477,0.316894 -0.1342773,0.204102 -0.1342773,0.456543 0,0.386719 0.2900391,0.644532 0.2954101,0.257812 0.8593754,0.257812 0.558593,0 0.993652,-0.241699 0.435059,-0.247071 0.63916,-0.671387 0.155762,-0.327637 0.155762,-0.966797 z"
             id="path136" />
          <path
             d="m 14.747081,36 v -5.704102 h 0.870117 v 0.811036 q 0.628418,-0.939942 1.81543,-0.939942 0.515625,0 0.945312,0.187988 0.435059,0.182618 0.649903,0.483399 0.214843,0.300781 0.300781,0.714355 0.05371,0.268555 0.05371,0.939942 V 36 h -0.966797 v -3.469727 q 0,-0.59082 -0.112793,-0.880859 -0.112793,-0.29541 -0.402832,-0.467285 -0.284668,-0.177246 -0.671387,-0.177246 -0.617676,0 -1.068848,0.39209 -0.4458,0.392089 -0.4458,1.487793 V 36 Z"
             id="path138" />
          <path
             d="m 22.855482,35.135254 0.139649,0.854004 q -0.408204,0.08594 -0.730469,0.08594 -0.526367,0 -0.816406,-0.166504 -0.29004,-0.166504 -0.408204,-0.435058 -0.118164,-0.273926 -0.118164,-1.144043 v -3.281738 h -0.708984 v -0.751954 h 0.708984 v -1.412597 l 0.961426,-0.580078 v 1.992675 h 0.972168 v 0.751954 h -0.972168 v 3.335449 q 0,0.413574 0.04834,0.531738 0.05371,0.118164 0.166504,0.187988 0.118164,0.06983 0.333008,0.06983 0.161133,0 0.424316,-0.0376 z"
             id="path140" />
          <path
             d="m 23.35548,33.147949 q 0,-1.584472 0.88086,-2.347168 0.735839,-0.633789 1.793945,-0.633789 1.176269,0 1.922851,0.773438 0.746582,0.768066 0.746582,2.126953 0,1.101074 -0.333007,1.734863 -0.327637,0.628418 -0.961426,0.977539 -0.628418,0.349121 -1.375,0.349121 -1.197754,0 -1.938965,-0.768066 -0.73584,-0.768067 -0.73584,-2.212891 z m 0.993653,0 q 0,1.095703 0.478027,1.643555 0.478027,0.54248 1.203125,0.54248 0.719726,0 1.197754,-0.547851 0.478027,-0.547852 0.478027,-1.67041 0,-1.058106 -0.483398,-1.600586 -0.478028,-0.547852 -1.192383,-0.547852 -0.725098,0 -1.203125,0.542481 -0.478027,0.54248 -0.478027,1.638183 z"
             id="path142" />
          <path
             d="m 29.842787,36 v -5.704102 h 0.870117 v 0.811036 q 0.628418,-0.939942 1.81543,-0.939942 0.515625,0 0.945312,0.187988 0.435059,0.182618 0.649903,0.483399 0.214843,0.300781 0.300781,0.714355 0.05371,0.268555 0.05371,0.939942 V 36 h -0.966797 v -3.469727 q 0,-0.59082 -0.112793,-0.880859 -0.112793,-0.29541 -0.402832,-0.467285 -0.284668,-0.177246 -0.671387,-0.177246 -0.617676,0 -1.068848,0.39209 -0.4458,0.392089 -0.4458,1.487793 V 36 Z"
             id="path144" />
          <path
             d="m 39.8423,34.163086 0.999024,0.123535 q -0.236328,0.875488 -0.875488,1.358887 -0.639161,0.483398 -1.632813,0.483398 -1.251465,0 -1.987305,-0.768066 -0.730468,-0.773438 -0.730468,-2.164551 0,-1.439453 0.741211,-2.234375 0.741211,-0.794922 1.922851,-0.794922 1.144043,0 1.869141,0.778809 0.725097,0.778808 0.725097,2.191406 0,0.08594 -0.0054,0.257813 h -4.253906 q 0.05371,0.939941 0.531738,1.439453 0.478028,0.499511 1.192383,0.499511 0.531738,0 0.907715,-0.279297 0.375977,-0.279296 0.596191,-0.891601 z m -3.174316,-1.562988 h 3.185059 q -0.06445,-0.719727 -0.365235,-1.07959 -0.461914,-0.558594 -1.197754,-0.558594 -0.666015,0 -1.122558,0.445801 -0.451172,0.445801 -0.499512,1.192383 z"
             id="path146" />
          <path
             d="m 48.812035,36 v -0.719727 q -0.542481,0.848633 -1.595215,0.848633 -0.682129,0 -1.256836,-0.375976 -0.569336,-0.375977 -0.886231,-1.047364 -0.311523,-0.676757 -0.311523,-1.552246 0,-0.854004 0.284668,-1.546875 0.284668,-0.698242 0.854004,-1.068847 0.569336,-0.370606 1.272949,-0.370606 0.515625,0 0.918457,0.220215 0.402832,0.214844 0.655273,0.563965 v -2.825195 h 0.961426 V 36 Z m -3.056153,-2.84668 q 0,1.095703 0.461914,1.638184 0.461914,0.54248 1.090332,0.54248 0.633789,0 1.074219,-0.515625 0.445801,-0.520996 0.445801,-1.584472 0,-1.170899 -0.451172,-1.71875 -0.451172,-0.547852 -1.111816,-0.547852 -0.644532,0 -1.07959,0.526367 -0.429688,0.526368 -0.429688,1.659668 z"
             id="path148" />
          <path
             d="m 55.105,34.163086 0.999023,0.123535 q -0.236328,0.875488 -0.875488,1.358887 -0.63916,0.483398 -1.632813,0.483398 -1.251465,0 -1.987304,-0.768066 -0.730469,-0.773438 -0.730469,-2.164551 0,-1.439453 0.741211,-2.234375 0.741211,-0.794922 1.922851,-0.794922 1.144043,0 1.869141,0.778809 0.725098,0.778808 0.725098,2.191406 0,0.08594 -0.0054,0.257813 h -4.253906 q 0.05371,0.939941 0.531738,1.439453 0.478028,0.499511 1.192383,0.499511 0.531739,0 0.907715,-0.279297 0.375977,-0.279296 0.596192,-0.891601 z m -3.174317,-1.562988 h 3.185059 q -0.06445,-0.719727 -0.365235,-1.07959 -0.461914,-0.558594 -1.197754,-0.558594 -0.666015,0 -1.122558,0.445801 -0.451172,0.445801 -0.499512,1.192383 z"
             id="path150" />
          <path
             d="m 57.31105,29.237793 v -1.111816 h 0.966797 v 1.111816 z m 0,6.762207 v -5.704102 h 0.966797 V 36 Z"
             id="path152" />
          <path
             d="m 66.613785,32.911621 v -0.923828 l 3.335449,-0.0054 v 2.921875 q -0.768066,0.612305 -1.584473,0.923828 -0.816406,0.306152 -1.675781,0.306152 -1.160156,0 -2.11084,-0.49414 -0.945312,-0.499512 -1.428711,-1.439453 -0.483398,-0.939942 -0.483398,-2.100098 0,-1.149414 0.478027,-2.143066 0.483399,-0.999024 1.385742,-1.482422 0.902344,-0.483399 2.078614,-0.483399 0.854004,0 1.541504,0.279297 0.692871,0.273926 1.084961,0.768066 0.392089,0.494141 0.596191,1.289063 l -0.939941,0.257812 q -0.177247,-0.601562 -0.44043,-0.945312 -0.263184,-0.34375 -0.751953,-0.547852 -0.48877,-0.209472 -1.084961,-0.209472 -0.714356,0 -1.235352,0.220215 -0.520996,0.214843 -0.843261,0.569336 -0.316895,0.354492 -0.494141,0.778808 -0.300781,0.730469 -0.300781,1.584473 0,1.052734 0.359863,1.761719 0.365234,0.708984 1.058105,1.052734 0.692871,0.34375 1.47168,0.34375 0.676758,0 1.321289,-0.257813 0.644531,-0.263183 0.977539,-0.558593 v -1.466309 z"
             id="path154" />
          <path
             d="m 71.437035,36 v -5.704102 h 0.870117 v 0.864747 q 0.333008,-0.606934 0.612304,-0.800293 0.284668,-0.19336 0.623047,-0.19336 0.48877,0 0.993653,0.311524 l -0.333008,0.896972 q -0.354492,-0.209472 -0.708984,-0.209472 -0.316895,0 -0.569336,0.193359 -0.252442,0.187988 -0.359864,0.526367 -0.161133,0.515625 -0.161133,1.12793 V 36 Z"
             id="path156" />
          <path
             d="m 75.251488,29.237793 v -1.111816 h 0.966797 v 1.111816 z m 0,6.762207 v -5.704102 h 0.966797 V 36 Z"
             id="path158" />
          <path
             d="m 77.528336,36.472656 0.939941,0.139649 q 0.05908,0.435058 0.327637,0.633789 0.359863,0.268554 0.98291,0.268554 0.671387,0 1.036621,-0.268554 0.365234,-0.268555 0.494141,-0.751953 0.0752,-0.295411 0.06982,-1.240723 Q 80.745621,36 79.800308,36 q -1.176269,0 -1.820801,-0.848633 -0.644531,-0.848633 -0.644531,-2.035644 0,-0.816407 0.29541,-1.503907 0.295411,-0.692871 0.854004,-1.068847 0.563965,-0.375977 1.321289,-0.375977 1.009766,0 1.665039,0.816406 v -0.6875 h 0.891602 v 4.930664 q 0,1.332032 -0.273926,1.885254 -0.268555,0.558594 -0.859375,0.88086 -0.585449,0.322265 -1.444824,0.322265 -1.020508,0 -1.648926,-0.461914 -0.628418,-0.456543 -0.606933,-1.380371 z m 0.800293,-3.426758 q 0,1.122559 0.4458,1.638184 0.445801,0.515625 1.117188,0.515625 0.666015,0 1.117187,-0.510254 0.451172,-0.515625 0.451172,-1.611328 0,-1.047363 -0.467285,-1.579102 -0.461914,-0.531738 -1.117187,-0.531738 -0.644532,0 -1.095704,0.526367 -0.451171,0.520996 -0.451171,1.552246 z"
             id="path160" />
          <path
             d="m 83.790054,29.237793 v -1.111816 h 0.966797 v 1.111816 z m 0,6.762207 v -5.704102 h 0.966797 V 36 Z"
             id="path162" />
          <path
             d="m 85.89502,33.147949 q 0,-1.584472 0.880859,-2.347168 0.73584,-0.633789 1.793945,-0.633789 1.17627,0 1.922852,0.773438 0.746582,0.768066 0.746582,2.126953 0,1.101074 -0.333008,1.734863 -0.327637,0.628418 -0.961426,0.977539 -0.628418,0.349121 -1.375,0.349121 -1.197754,0 -1.938965,-0.768066 -0.735839,-0.768067 -0.735839,-2.212891 z m 0.993652,0 q 0,1.095703 0.478027,1.643555 0.478028,0.54248 1.203125,0.54248 0.719727,0 1.197754,-0.547851 0.478027,-0.547852 0.478027,-1.67041 0,-1.058106 -0.483398,-1.600586 -0.478027,-0.547852 -1.192383,-0.547852 -0.725097,0 -1.203125,0.542481 -0.478027,0.54248 -0.478027,1.638183 z"
             id="path164" />
          <path
             d="m 92.382317,36 v -5.704102 h 0.870117 v 0.811036 q 0.628418,-0.939942 1.815429,-0.939942 0.515625,0 0.945313,0.187988 0.435059,0.182618 0.649902,0.483399 0.214844,0.300781 0.300782,0.714355 0.05371,0.268555 0.05371,0.939942 V 36 h -0.966796 v -3.469727 q 0,-0.59082 -0.112793,-0.880859 -0.112793,-0.29541 -0.402832,-0.467285 -0.284668,-0.177246 -0.671387,-0.177246 -0.617676,0 -1.068848,0.39209 -0.445801,0.392089 -0.445801,1.487793 V 36 Z"
             id="path166" />
          <path
             d="m 98.452629,29.237793 v -1.111816 h 0.966797 v 1.111816 z m 0,6.762207 v -5.704102 h 0.966797 V 36 Z"
             id="path168" />
        </g>
      </g>
      <path
         d="M 391.492,52.6758 H 6.69531 V 285.059 H 391.492 V 52.6758"
         style="fill:#ffffff;fill-opacity:1;fill-rule:nonzero;stroke:none"
         id="path22" />
      <path
         d="m 215.371,259.977 c -0.566,0.062 -0.922,-0.258 -1.215,-0.731 1.407,-0.418 2.778,-1.008 3.754,-1.902 0.649,-0.598 1.27,-1.153 1.86,-1.684 0.031,0.059 0.074,0.098 0.101,0.16 0.484,0.977 -2.32,3.903 -4.5,4.157"
         style="fill:#ed1c24;fill-opacity:1;fill-rule:evenodd;stroke:none"
         id="path24" />
      <path
         d="m 207.68,261.598 c -1.453,0.226 -5.313,-0.465 -6.571,-0.797 -1.382,-0.363 -5.015,-1.75 -5.226,-3.102 -0.215,-1.347 0.972,-1.918 2.062,-1.812 0.633,0.066 1.164,0.086 1.668,0.082 -1.101,0.719 -2.261,1.859 -0.609,2.785 2.644,1.484 8.922,1.437 8.922,1.437 0,0 0.094,-0.007 0.137,-0.007 0.125,0.64 0.292,1.304 -0.383,1.414"
         style="fill:#ed1c24;fill-opacity:1;fill-rule:evenodd;stroke:none"
         id="path26" />
      <path
         d="m 174.633,244.023 c 0,0 -0.039,0.352 -0.27,0.735 -0.441,0.711 -3.031,0.972 -5.324,0.359 -4.367,-1.172 -8.519,-1.094 -12.816,1.371 -1.317,0.758 -2.848,2.321 -3.285,3.813 -0.653,2.277 0.222,4.48 2.691,5.758 2.258,-5.711 7.652,-5.305 12.258,-6.082 3.426,-0.579 6.984,-0.352 10.488,-0.485 3.441,-0.129 6.598,-0.82 8.559,-5.168 l -12.301,-0.301"
         style="fill:#ed1c24;fill-opacity:1;fill-rule:nonzero;stroke:none"
         id="path28" />
      <path
         d="m 215.371,259.977 c -1.516,0.175 -1.555,-2.454 -2.726,-3.125 -1.165,-0.676 -4.696,-0.485 -4.668,2.718 0.007,0.746 0.601,1.883 -0.297,2.028 -1.453,0.226 -5.313,-0.465 -6.571,-0.797 -1.382,-0.363 -5.015,-1.75 -5.226,-3.102 -0.215,-1.347 0.972,-1.918 2.062,-1.812 2.02,0.207 3.164,0.09 4.633,-0.492 1.656,-0.661 3.805,-2.918 6.66,-3.2 3.711,-0.359 8.7,-0.281 10.633,3.625 0.484,0.977 -2.32,3.903 -4.5,4.157 z m -29.137,-15.653 c 1.496,0 2.926,1.301 2.926,3.278 0,2.441 -1.941,3.878 -4.371,4.043 -3.476,0.238 -6.969,0.32 -10.453,0.308 -1.375,-0.004 -2.676,-0.113 -2.371,1.742 0.246,1.504 -0.168,3.641 2.613,3.457 2.156,-0.14 4.344,-0.062 6.496,0.145 0.735,0.066 2.106,0.187 2.102,1.262 -0.012,1.027 -1.383,1.425 -2.16,1.402 -1.52,-0.039 -5.981,-0.617 -5.852,0.293 0.516,3.586 1.746,4.875 5.691,5.473 3.946,0.597 11.801,1.836 14.188,2.425 2.395,0.598 3.117,2.157 9.254,3.34 6.137,1.188 7.262,2.871 5.312,8.531 3.555,0.258 4.688,-0.96 6.579,-7.085 2.796,1.472 3.242,3.562 1.476,6.925 2.602,0.352 4.949,-1.289 6.059,-4.109 0.343,-0.871 0.578,-2.297 1.422,-2.34 0.851,-0.051 3.808,-0.363 6.089,0.945 4.352,2.485 7.36,4.098 9.52,-9.851 0.082,-0.535 2.242,4.078 2.098,6.293 -0.125,1.922 0.562,2.637 2.402,2.437 2.441,-0.265 11.312,-0.89 14.137,-0.07 6.578,2.141 5.023,-7.996 5.023,-10.113 0.383,-0.078 0.762,-0.157 1.145,-0.227 0.765,2.176 1.527,4.356 2.437,6.957 4.547,-1.301 9.223,-2.695 13.934,-3.937 1.09,-0.285 2.394,-0.317 3.465,-0.004 3.257,0.961 5.953,-0.934 5.882,-4.371 -0.027,-1.223 -0.679,-5.868 0.028,-7.563 1.375,1.387 2.347,7.852 5.672,5.676 2.847,-1.496 5.683,-3.016 8.609,-4.332 1.125,-0.508 2.496,-0.738 3.723,-0.66 3.703,0.242 5.855,-1.621 5.504,-5.278 -0.157,-1.652 -0.735,-3.277 -1.274,-4.863 -0.402,-1.211 -1.039,-2.336 -1.57,-3.496 0.195,-0.168 0.39,-0.344 0.59,-0.508 1.125,0.145 4.039,3.192 4.433,4.617 15.375,-14.043 11.098,-37.039 1.516,-37.011 9.109,20.246 -28.551,52.519 -89.492,50.48 -0.887,0.02 -2.301,0.305 -2.688,-1.273 -0.375,-1.547 -0.062,-4.239 1.449,-4.332 3.047,-0.192 8.153,-0.95 10.313,0.937 2.074,1.809 4.742,1.149 5.918,-2.668 0.543,-2.586 0.531,-8.648 0.531,-8.648 0,0 2.883,7.285 6.418,6.179 2.344,-0.726 7.504,-1.816 9.352,-0.425 2.468,1.871 6.129,-0.039 6.214,-3.239 0.079,-2.722 -1.062,-8.777 -1.062,-8.777 0,0 4.668,5.859 6.965,5.02 2.304,-0.84 8.742,-4.2 9.492,-3.782 2.305,1.313 4.051,1.203 5.301,-0.371 3.594,-3.953 -0.742,-12.332 -0.742,-12.332 0,0 4.351,6.746 7.863,3.633 2.512,-2.187 5.703,-7.09 10.426,-7.117 2.761,-0.024 3.691,-4.301 1.648,-7.152 -1.133,-1.583 -3.797,-4.461 -3.797,-4.461 0,0 3.688,1.718 5.242,1.433 11.938,-27.449 -9.519,-38.887 -10.855,-35.43 -0.266,1.165 11.394,7.102 2.019,25.61 -6.558,12.945 -20.003,20.68 -33.91,27.168 -12.511,5.836 -37.886,8.074 -38.8,7.879 -0.024,-0.364 -0.047,-0.723 -0.075,-1.086 3.485,-0.797 6.938,-1.883 10.461,-2.313 4.399,-0.539 15.52,-0.957 14.668,-6.242 -0.429,-2.683 -11.801,-2.754 -15.984,-2.41 -3.274,0.273 -6.469,1.75 -9.653,2.82 -1.398,0.481 -2.492,0.293 -3.148,-0.976 -0.652,-1.278 -3.094,-3.543 -0.062,-4.942 2.304,-1.054 4.957,-1.367 7.421,-2 -2.652,-4.601 -6.214,-6.261 -11.421,-5.429 -0.723,0.117 -2.118,0.39 -2.329,-0.645 -0.207,-1.035 0.75,-1.855 1.399,-2.117 2.051,-0.844 4.226,-1.352 6.332,-1.977 -1.598,-3.425 -4.723,-4.675 -9.332,-3.789 -0.867,0.18 -2.34,0.371 -2.813,-0.547 -0.476,-0.918 0.899,-2.183 1.692,-2.558 1.722,-0.828 5.867,-1.824 5.867,-1.824 -1.625,-4.903 -8.637,-2.942 -10.148,-4.102 -1.512,-1.172 2.468,-6.574 14.25,-10.488 10.082,-3.352 17.839,-7.52 24.566,-17.305 6.508,3.867 13.496,4.133 20.664,3.711 7.363,-0.43 14.629,-0.188 20.121,6.492 3.012,-12.82 -14.851,-12.781 -15.098,-14.14 4.008,-1.493 7.594,-0.528 12.582,0.039 -2.589,-3.75 -6.761,-5.594 -11.035,-6.012 -5.59,-0.57 -10.211,2.242 -14.808,4.91 -2.856,1.648 -4.317,1.727 -7.52,0.129 7.074,-3.773 14.438,-21.418 16.785,-23.801 3.453,-3.508 5.184,-3.32 8.543,-0.39 2.035,1.777 3.278,1.699 4.926,-0.5 1.879,-2.489 3.668,-4.696 5.399,-7.645 1.734,-2.949 0.878,-8.066 2.609,-10.176 4.215,-5.469 10.039,-11.582 14.238,-17.051 2.078,-2.707 2.719,-5.9957 1.403,-9.4058 -0.606,-1.5625 -1.446,-2.3438 -3.395,-2.1758 -6.277,0.5469 -7.695,-0.4883 -10.25,-6.1016 -0.355,-0.7929 -1.957,-1.6445 -2.781,-1.4765 -3.219,0.6445 -7.117,1.5703 -9.496,2.6445 -2.391,1.0781 -3.778,2.1211 -3.864,3.0586 -0.089,0.9375 14.758,6.3359 11.102,16.6796 -2.277,6.434 -8.207,11.414 -11.449,12.43 -1.258,-4.918 -0.633,-10.957 -7.446,-12.684 0.438,2.528 1.219,4.707 1.071,6.817 -0.16,2.148 -1.227,4.238 -2.457,6.23 -0.645,-3.144 -1.2,-6.32 -1.953,-9.445 -0.836,-3.426 -3.2,-5.274 -7.024,-6.27 2.02,5.227 3.449,10.012 -0.375,15.246 -1.047,-7.343 -0.973,-14.836 -10.398,-16.289 0.465,0.821 0.894,1.668 1.414,2.461 3.676,5.567 2.855,10.828 0.34,16.875 -2.504,6.016 -5.411,5.75 -10.004,12.254 -4.774,6.762 -6.196,17.981 -8.137,20.871 -2.797,4.16 -9.938,6.863 -18.527,9.168 -0.329,-1.844 -0.504,-3.797 -0.746,-5.176 3.988,-0.203 19.472,-0.671 19.003,-9.48 -0.246,-4.68 1.18,-9.035 4.125,-12.617 1.645,-1.992 0.856,-5.11 -1.664,-6.797 -3.343,-2.238 -7.91,-0.664 -9.308,3.164 -3.422,9.355 1.949,14.551 0.965,15.5 -12.485,-1.789 -41.371,-20.774 -24.801,-28.891 2.234,-1.093 4.601,-1.582 4.687,-3.242 0.168,-3.211 -14.004,-9.207 -20,-12.226 -2.203,-1.114 -4.64,-1.817 -7.031,-2.469 -9.59,-2.617 -17.754,-7.3049 -23.312,-15.8205 -1.071,-1.6407 -2.829,-2.0508 -4.317,-0.8399 -2.933,2.4102 -5.332,2.6836 -7.773,0.1836 -1.942,-1.9883 -3.965,-2.1172 -6.133,-1.2695 -2.598,1.0078 -5.238,2.1289 -7.484,3.7422 -2.266,1.6094 -1.84,3.0859 0.195,5.0273 8.086,7.6958 18.601,10.1018 28.676,13.5858 4.886,1.699 9.589,3.973 14.293,6.16 1.957,0.918 3.332,2.493 2.691,4.797 -2.672,-1.73 -5.137,-4.031 -8.047,-4.988 -2.961,-0.969 -6.433,-1.223 -9.922,1.012 5.117,1.261 9.711,2.578 12.199,7.453 -3.804,-1.485 -7.363,-3.223 -11.113,-4.239 -3.851,-1.046 -9.09,0.997 -10.445,3.399 3.269,0.398 6.644,0.508 9.844,1.297 3.101,0.773 6.457,1.738 7.25,6.293 -6.891,-4.641 -20.641,-7.129 -23.731,2.058 9.875,-3.507 19.61,1.145 21.692,6.532 1.304,3.363 11.996,16.652 40.968,21.73 -0.511,2.844 -0.941,5.203 -1.394,7.703 -19.528,0.383 -31.321,-3.359 -36.821,-9.168 -1.835,-1.738 -3.011,-1.758 -4.789,-0.32 -11.757,9.422 -24.933,16.004 -39.675,19.215 -6.942,1.515 -14.02,2.375 -21.086,0.832 -2.6448,-0.578 -5.1956,-1.668 -7.723,-2.676 -2.2265,-0.891 -3.7304,-0.305 -4.3515,1.934 -1.1563,4.179 -4.4024,5.867 -8.3555,4.355 -4.2539,-1.633 -10.0195,-0.039 -12.8203,3.535 -1.8164,2.332 -1.4063,4.356 1.1758,5.821 4.3047,2.429 9.1133,2.824 13.7851,2.46 8.9297,-0.703 17.8008,-2.082 26.7184,-3 2.954,-0.3 6.043,-0.468 8.942,0.051 6.304,1.114 12.137,-0.051 18.023,-2.195 3.86,-1.418 7.965,-2.172 11.985,-3.098 2.187,-0.519 4.429,-0.781 6.894,-1.203 -2.305,2.824 -5.055,4.317 -8.496,4.602 -4.164,0.34 -4.512,0.976 -2.715,4.812 10.938,25.078 38.715,27.922 47.18,34.875 2.687,2.141 2.57,4.422 3.992,7.078 6.57,-2.183 13.633,-2.05 19.945,2.774 -0.043,0.332 -0.086,0.668 -0.132,1 -9.063,-3.031 -11.731,-2.207 -16.379,-0.512 -5.68,2.063 -8.7,0.922 -10.692,-2.535 -3.742,-6.508 -8.527,-10.149 -15.926,-10.024 -8.578,0.411 -7.23,2.727 -4.101,3.215 4.48,0.711 7.383,3.563 9.492,7.383 0.996,1.797 0.762,3.016 -1.262,4.102 -1.492,0.8 -3.273,1.789 -3.449,2.636 -0.176,0.86 0.922,1.524 2.453,1.563 1.535,0.039 10.813,0.32 11.871,0.32"
         style="fill:#231f20;fill-opacity:1;fill-rule:nonzero;stroke:none"
         id="path30" />
      <path
         d="m 150.992,209.18 c -3.215,-4.16 -6.258,-8.086 -9.578,-12.383 -2.289,2.176 -13.762,13.457 -23.559,18.445 -6.722,3.43 -12.5,3.567 -18.9995,3.789 -2.0625,0.071 -4.2227,-1.414 -6.2735,-2.343 -2.4414,-1.094 -4.164,-0.387 -4.9687,2.207 -1.1211,3.605 -5.4883,5.968 -8.9531,4.511 -2.3164,-0.965 -3.3438,-0.066 -4.1641,1.848 -1.2227,2.851 -2.7852,5.594 -3.6211,8.555 -1.168,4.101 0.2109,5.457 4.3633,5.097 16.1836,-1.601 39.4527,-12.461 42.9527,-13.879 0.676,-0.261 1.5,-0.488 2.196,-0.359 7.711,1.355 13.457,-1.77 18.48,-7.383 3.164,-3.547 6.973,-6.504 12.125,-8.105"
         style="fill:#231f20;fill-opacity:1;fill-rule:nonzero;stroke:none"
         id="path32" />
      <path
         d="m 116.902,65.1641 c -0.265,0.9765 8.118,12.6289 12.594,19.2109 3.059,-0.957 5.625,-1.8242 8.234,-2.5508 2.797,-0.7773 3.418,-1.707 2.227,-4.4883 -2.434,-5.6757 -7.269,-8.7812 -12.676,-10.957 -3.035,-1.2344 -10.101,-2.1914 -10.379,-1.2148"
         style="fill:#231f20;fill-opacity:1;fill-rule:nonzero;stroke:none"
         id="path34" />
      <path
         d="m 61.8516,181.816 c 1.8047,0.868 2.9687,0.332 4.6132,-0.597 2.5391,-1.422 6.3282,-2.735 7.4219,-2.989 1.0899,-0.253 2.4649,-0.242 2.6992,-0.925 0.2422,-0.684 0.0704,-1.828 -0.3671,-2.317 -1.2657,-1.414 -2.4102,-2.273 -3.8516,-2.722 -8.2461,-2.61 -16.8125,0.058 -24.5781,3.156 0,0 11.1757,5.016 14.0625,6.394"
         style="fill:#231f20;fill-opacity:1;fill-rule:nonzero;stroke:none"
         id="path36" />
      <path
         d="m 48.6445,231.797 c 0,0 10.9493,0.41 15.0274,0.625 3.75,0.207 5.4804,-0.469 6.3672,-3.938 0.3125,-1.226 1.2343,-2.312 1.8906,-3.457 1.2969,-2.265 0.5781,-4.273 -1.9922,-4.55 -2.1992,-0.235 -4.5469,-0.094 -6.6875,0.449 -4.8477,1.222 -8.9727,3.859 -12.4062,7.5 -1.3321,1.418 -2.1993,3.371 -2.1993,3.371"
         style="fill:#231f20;fill-opacity:1;fill-rule:nonzero;stroke:none"
         id="path38" />
      <path
         d="m 127.672,86.2305 c 0,0 -7.141,-11.2227 -11.113,-16.6914 -0.813,-1.1133 -5.219,-1.4649 -5.399,-0.625 -0.176,0.8515 14.106,20.6757 14.106,20.6757 l 2.406,-3.3593"
         style="fill:#231f20;fill-opacity:1;fill-rule:nonzero;stroke:none"
         id="path40" />
      <path
         d="m 43.9805,182.129 c 6.4218,2.363 12.3945,4.559 18.4453,6.785 1.2344,-2.828 0.9961,-4.297 -1.9649,-5.066 -3.0742,-0.801 -6.0703,-2.032 -8.9336,-3.418 -2.8476,-1.387 -4.9492,-0.567 -7.5468,1.699"
         style="fill:#231f20;fill-opacity:1;fill-rule:nonzero;stroke:none"
         id="path42" />
      <path
         d="m 50.5938,239.031 11.4296,-0.027 c 0,0 2.5157,0.027 4.4454,-0.695 0.6601,-0.243 1.5937,-1.211 1.5937,-1.942 0,-0.722 -1.1875,-1.191 -1.7891,-1.203 l -13.8164,0.234 c -0.9843,0.071 -2.414,1.7 -2.789,2.415 -0.6485,1.238 0.9258,1.218 0.9258,1.218"
         style="fill:#231f20;fill-opacity:1;fill-rule:nonzero;stroke:none"
         id="path44" />
      <path
         d="m 270.77,65.7891 c -0.793,0.8203 6.996,16.2226 7.597,17.6875 0.61,1.4531 1.242,2.1367 2.938,1.5312 2.468,-0.8867 5.008,-1.582 7.539,-2.3125 2.156,-0.6172 2.676,-2.0312 1.758,-3.8867 -2.442,-4.9297 -8.844,-9.3945 -11.414,-10.4023 -2.567,-1.0157 -7.622,-3.4375 -8.418,-2.6172"
         style="fill:#231f20;fill-opacity:1;fill-rule:nonzero;stroke:none"
         id="path46" />
      <path
         d="m 264.73,68.6016 c -0.433,0.9492 8.399,18.2031 8.891,18.6445 2.039,1.8359 3.606,-0.7227 2.918,-1.8633 -2.223,-5.0898 -5.566,-12.6094 -7.023,-15.1094 -1.453,-2.4921 -4.352,-2.6171 -4.786,-1.6718"
         style="fill:#231f20;fill-opacity:1;fill-rule:nonzero;stroke:none"
         id="path48" />
      <path
         d="m 298.098,479.363 v -92.187 h 93.394 v 17.89 h -75.894 v 74.297 h -17.5"
         style="fill:#176fc1;fill-opacity:1;fill-rule:evenodd;stroke:none"
         id="path50" />
      <path
         d="m 391.418,382.152 h -93.32 v -92.761 h 17.5 v 74.793 h 75.82 v 17.968"
         style="fill:#fab20b;fill-opacity:1;fill-rule:evenodd;stroke:none"
         id="path52" />
      <path
         d="m 275.18,405.066 -74.871,0.008 v -17.898 h 93.144 v 92.187 H 275.18 v -74.297"
         style="fill:#fab20b;fill-opacity:1;fill-rule:evenodd;stroke:none"
         id="path54" />
      <path
         d="m 200.309,382.152 v -17.968 h 74.871 v -74.793 h 18.273 v 92.761 h -93.144"
         style="fill:#176fc1;fill-opacity:1;fill-rule:evenodd;stroke:none"
         id="path56" />
      <path
         d="m 200.309,479.363 -0.004,-69.656 h 70.23 v 69.656 h -70.226"
         style="fill:#176fc1;fill-opacity:1;fill-rule:evenodd;stroke:none"
         id="path58" />
      <path
         d="m 320.234,479.363 v -69.656 h 71.184 l 0.074,69.656 h -71.258"
         style="fill:#fab20b;fill-opacity:1;fill-rule:evenodd;stroke:none"
         id="path60" />
      <path
         d="m 200.309,359.547 v -70.156 l 70.226,0.074 v 70.082 h -70.226"
         style="fill:#fab20b;fill-opacity:1;fill-rule:evenodd;stroke:none"
         id="path62" />
      <path
         d="m 320.234,359.547 v -70.156 h 71.184 v 70.156 h -71.184"
         style="fill:#176fc1;fill-opacity:1;fill-rule:evenodd;stroke:none"
         id="path64" />
      <path
         d="m 195.664,289.391 h -95.082 v 189.972 h 95.082 V 289.391"
         style="fill:#ffffff;fill-opacity:1;fill-rule:nonzero;stroke:none"
         id="path66" />
      <path
         d="m 210.395,162.844 c 0,-1.664 -0.922,-3.008 -2.067,-3.008 -1.14,0 -2.062,1.344 -2.062,3.008 0,2.672 0.922,3.004 2.062,3.004 1.145,0 2.067,-0.633 2.067,-3.004"
         style="fill:#ed1c24;fill-opacity:1;fill-rule:evenodd;stroke:none"
         id="path68" />
      <path
         d="m 391.492,387.176 h -93.394 v 92.187 h 17.5 v -74.297 h 75.894 z m 0,-334.5002 H 6.1875 V 284.746 H 391.492 Z M 100.582,479.363 h 95.082 V 289.391 H 100.582 Z M 270.535,289.465 h -70.226 v 70.082 h 70.226 z m 22.918,92.687 V 289.391 H 275.18 v 74.793 h -74.871 v 17.968 z m -93.144,22.914 h 74.871 v 74.297 h 18.273 v -92.187 h -93.144 z m 0,74.297 h 70.226 V 409.707 H 200.309 Z M 391.418,359.547 v -70.156 h -71.184 v 70.156 z m -93.32,22.605 h 93.32 v -17.968 h -75.82 v -74.793 h -17.5 z m 22.136,97.211 h 71.184 V 409.707 H 320.234 Z M 0,485.551 V 46.4844 H 397.68 V 485.551 H 0"
         style="fill:#231f20;fill-opacity:1;fill-rule:nonzero;stroke:none"
         id="path70" />
    </g>
  </g>
</svg>
