<?xml version="1.0" encoding="utf-8"?>
<!-- Generator: Adobe Illustrator 16.0.2, SVG Export Plug-In . SVG Version: 6.00 Build 0)  -->
<!DOCTYPE svg PUBLIC "-//W3C//DTD SVG 1.1//EN" "http://www.w3.org/Graphics/SVG/1.1/DTD/svg11.dtd">
<svg version="1.1" id="Ebene_1" xmlns="http://www.w3.org/2000/svg" xmlns:xlink="http://www.w3.org/1999/xlink" x="0px" y="0px"
	 width="406.523px" height="492.832px" viewBox="-176.119 -213.831 406.523 492.832"
	 enable-background="new -176.119 -213.831 406.523 492.832" xml:space="preserve">
<g>
	<path fill="#E7423F" d="M27.018-212.311h201.871V84.392c0,106.633-90.328,193.07-201.742,193.07
		c-111.426,0-201.746-86.438-201.746-193.07v-296.703H27.018z"/>
	<polygon fill="#FFFFFF" points="209.686,-139.518 151.092,-139.518 151.092,-197.553 132.014,-197.553 132.014,-139.518 
		73.577,-139.518 73.577,-120.217 132.014,-120.217 132.014,-61.92 151.092,-61.92 151.092,-120.217 209.686,-120.217 	"/>
	<g>
		<g>
			<g>
				<g>
					<defs>
						<rect id="SVGID_1_" x="-176.119" y="-213.831" width="406.523" height="492.832"/>
					</defs>
					<clipPath id="SVGID_2_">
						<use xlink:href="#SVGID_1_"  overflow="visible"/>
					</clipPath>
					<path clip-path="url(#SVGID_2_)" fill="none" stroke="#000000" stroke-width="3.048" d="M27.018-212.311h201.871V84.392
						c0,106.633-90.328,193.07-201.742,193.07c-111.426,0-201.746-86.438-201.746-193.07v-296.703H27.018z"/>
				</g>
			</g>
		</g>
	</g>
</g>
</svg>
