<?xml version="1.0" standalone="no"?>
<!DOCTYPE svg PUBLIC "-//W3C//DTD SVG 20010904//EN"
 "http://www.w3.org/TR/2001/REC-SVG-20010904/DTD/svg10.dtd">
<svg version="1.0" xmlns="http://www.w3.org/2000/svg"
 width="700.000000pt" height="700.000000pt" viewBox="0 0 700.000000 700.000000"
 preserveAspectRatio="xMidYMid meet">
<metadata>
Created by potrace 1.11, written by Peter Selinger 2001-2013
</metadata>
<g transform="translate(0.000000,700.000000) scale(0.100000,-0.100000)"
fill="#000000" stroke="none">
<path d="M2113 4090 c1 -602 6 -1106 10 -1119 3 -12 8 -42 11 -65 14 -118 107
-342 199 -480 71 -106 240 -279 342 -350 167 -117 416 -217 600 -242 28 -3 59
-8 70 -10 26 -6 284 -5 311 0 12 2 45 7 75 11 30 4 57 9 60 11 3 2 20 6 37 9
47 8 199 59 267 90 274 123 506 342 644 605 53 102 114 273 125 350 4 25 11
63 16 84 5 23 9 505 10 1118 l1 1078 -38 0 c-21 0 -647 2 -1391 3 l-1353 2 4
-1095z"/>
</g>
</svg>
